<svg enable-background="new 65.2 173.5 180 180" version="1.1" viewBox="65.2 173.5 180 180" xml:space="preserve" xmlns="http://www.w3.org/2000/svg">
<style type="text/css">
	.st0{fill:#0080FF;}
</style>

	
		
			
				
					
						<path class="st0" d="m155.2 351.7v-34.2c36.2 0 64.3-35.9 50.4-74-5.1-14.1-16.4-25.4-30.5-30.5-38.1-13.8-74 14.2-74 50.4h-34.1c0-57.7 55.8-102.7 116.3-83.8 26.4 8.3 47.5 29.3 55.7 55.7 18.9 60.6-26 116.4-83.8 116.4z"></path>
					
					<polygon class="st0" points="155.3 317.6 121.3 317.6 121.3 283.6 121.3 283.6 155.3 283.6 155.3 283.6"></polygon>
					<polygon class="st0" points="121.3 343.8 95.1 343.8 95.1 343.8 95.1 317.6 121.3 317.6"></polygon>
					<path class="st0" d="m95.1 317.6h-21.9v-21.9h21.9v21.9z"></path>
				
			
		
	

</svg>