<?xml version="1.0" encoding="UTF-8"?>
<svg width="106" height="113" fill="none" viewBox="0 0 106 113" xmlns="http://www.w3.org/2000/svg"><g fill="#0065ff"><path d="m97.659 112.81h-89.647c-3.7028 0-6.8209-2.919-6.8209-6.811l-0.19488-20.431 13.642-0.1946 0.1949 13.621h76.2v-37.36h-84.19c-3.7028 0-6.8209-3.1133-6.8209-6.8103v-47.283c0-3.697 3.1181-6.8103 6.8209-6.8103h91.985c3.703 0 6.821 3.1133 6.821 6.8103v20.042h-13.642v-13.232h-78.343v33.857h83.995c3.7033 0 6.8213 3.1133 6.8213 6.8104v51.175c0 3.502-2.924 6.616-6.8213 6.616z"/><path d="m60.436 26.613h-33.52v8.5616h33.52z"/><path d="m78.17 26.613h-8.5749v8.9507h8.5749z"/><path d="m60.826 77.399h-33.52v8.5616h33.52z"/><path d="m78.365 77.399h-8.5749v8.9508h8.5749z"/></g></svg>
