<?xml version="1.0" encoding="UTF-8"?>
<svg width="16" height="16" fill="none" viewBox="0 0 16 16" xmlns="http://www.w3.org/2000/svg"><path d="m12.5 2.5h-9c-0.55228 0-1 0.44772-1 1v9c0 0.5523 0.44772 1 1 1h9c0.5523 0 1-0.4477 1-1v-9c0-0.55228-0.4477-1-1-1z" stroke="#0069FF" stroke-linecap="round" stroke-linejoin="round"/><path d="M8 2.5V1" stroke="#0069FF" stroke-linecap="round" stroke-linejoin="round"/><path d="M4.5 2.5V1" stroke="#0069FF" stroke-linecap="round" stroke-linejoin="round"/><path d="M11.5 2.5V1" stroke="#0069FF" stroke-linecap="round" stroke-linejoin="round"/><path d="m8 15v-1.5" stroke="#0069FF" stroke-linecap="round" stroke-linejoin="round"/><path d="m4.5 15v-1.5" stroke="#0069FF" stroke-linecap="round" stroke-linejoin="round"/><path d="m11.5 15v-1.5" stroke="#0069FF" stroke-linecap="round" stroke-linejoin="round"/><path d="m15 8h-1.5" stroke="#0069FF" stroke-linecap="round" stroke-linejoin="round"/><path d="m15 11.5h-1.5" stroke="#0069FF" stroke-linecap="round" stroke-linejoin="round"/><path d="m15 4.5h-1.5" stroke="#0069FF" stroke-linecap="round" stroke-linejoin="round"/><path d="M2.5 8H1" stroke="#0069FF" stroke-linecap="round" stroke-linejoin="round"/><path d="M2.5 11.5H1" stroke="#0069FF" stroke-linecap="round" stroke-linejoin="round"/><path d="M2.5 4.5H1" stroke="#0069FF" stroke-linecap="round" stroke-linejoin="round"/><path d="m10.5 4.5h-5c-0.55228 0-1 0.44772-1 1v5c0 0.5523 0.44772 1 1 1h5c0.5523 0 1-0.4477 1-1v-5c0-0.55228-0.4477-1-1-1z" stroke="#0069FF" stroke-linecap="round" stroke-linejoin="round"/><path d="M9.5 9.5H8" stroke="#0069FF" stroke-linecap="round" stroke-linejoin="round"/></svg>
