<?xml version="1.0" encoding="UTF-8"?>
<svg width="20" height="20" viewBox="0 0 20 20" xmlns="http://www.w3.org/2000/svg"><path d="m18.41 0.48999h-12.79c-0.35008 0-0.68583 0.13907-0.93338 0.38662-0.24754 0.24754-0.38662 0.58329-0.38662 0.93338v2.71h-2.71c-0.35008 0-0.68583 0.13907-0.93338 0.38662s-0.38662 0.58329-0.38662 0.93338v12.16c0 0.729 0.591 1.32 1.32 1.32h12.79c0.3501 0 0.6858-0.1391 0.9334-0.3866 0.2475-0.2476 0.3866-0.5833 0.3866-0.9334v-2.67h2.71c0.1742 0 0.3467-0.0345 0.5075-0.1014 0.1608-0.067 0.3067-0.1651 0.4294-0.2888 0.1227-0.1236 0.2198-0.2703 0.2855-0.4316 0.0658-0.1613 0.0989-0.334 0.0976-0.5082v-12.19c0-0.35009-0.1391-0.68584-0.3866-0.93338-0.2476-0.24755-0.5833-0.38662-0.9334-0.38662zm0.37 13.51c0 0.0981-0.039 0.1922-0.1084 0.2616s-0.1635 0.1084-0.2616 0.1084h-12.79c-0.09813 0-0.19224-0.039-0.26163-0.1084-0.06938-0.0694-0.10837-0.1635-0.10837-0.2616v-12.19c0-0.09813 0.03899-0.19224 0.10837-0.26163 0.06939-0.06939 0.1635-0.10837 0.26163-0.10837h12.79c0.0981 0 0.1922 0.03898 0.2616 0.10837s0.1084 0.1635 0.1084 0.26163v12.19zm-4 4c0 0.0486-0.0096 0.0967-0.0282 0.1416s-0.0458 0.0857-0.0802 0.12c-0.0343 0.0344-0.0751 0.0616-0.12 0.0802s-0.093 0.0282-0.1416 0.0282h-12.82c-0.04858 0-0.0967-0.0096-0.14159-0.0282s-0.08568-0.0458-0.12004-0.0802c-0.03435-0.0343-0.06161-0.0751-0.0802-0.12-0.0186-0.0449-0.02817-0.093-0.02817-0.1416v-12.16c0.00253-0.09733 0.04233-0.18998 0.11118-0.25883 0.06884-0.06885 0.16149-0.10864 0.25882-0.11117h2.71v8.53c0 0.729 0.591 1.32 1.32 1.32h9.13l0.03 2.68z" fill="#005DFF"/><path d="m14.38 19.51h-12.79c-0.19646 1e-4 -0.39094-0.0392-0.57194-0.1156-0.18101-0.0764-0.34488-0.1882-0.48191-0.329s-0.24447-0.3076-0.31595-0.4906c-0.071477-0.183-0.10555-0.3784-0.1002-0.5748v-12.16c0-0.812 0.658-1.47 1.47-1.47h2.56v-2.56c0-0.812 0.658-1.47 1.47-1.47h12.79c0.812 0 1.47 0.658 1.47 1.47v12.19c0 0.3899-0.1549 0.7638-0.4305 1.0394-0.2757 0.2757-0.6496 0.4306-1.0395 0.4306h-2.56v2.53c0.0054 0.1964-0.0287 0.3918-0.1002 0.5748s-0.1789 0.3498-0.3159 0.4906c-0.1371 0.1408-0.3009 0.2526-0.482 0.329-0.181 0.0764-0.3754 0.1157-0.5719 0.1156zm-12.79-14.84c-0.3095 0.00262-0.60558 0.12672-0.82443 0.34558-0.21885 0.21885-0.34296 0.51493-0.34557 0.82443v12.16c0 0.646 0.524 1.17 1.17 1.17h12.79c0.1537 0 0.3058-0.0303 0.4477-0.0891 0.142-0.0588 0.271-0.1449 0.3796-0.2536 0.1087-0.1086 0.1948-0.2376 0.2536-0.3796 0.0588-0.1419 0.0891-0.2941 0.0891-0.4477v-2.82h2.86c0.1545 0 0.3075-0.0306 0.4501-0.09s0.272-0.1465 0.3808-0.2562 0.1947-0.2399 0.2529-0.383 0.0875-0.2963 0.0862-0.4508v-12.19c0-0.15365-0.0303-0.30579-0.0891-0.44774-0.0588-0.14196-0.1449-0.27093-0.2536-0.37958-0.1086-0.10864-0.2376-0.19483-0.3796-0.25362-0.1419-0.058798-0.294-0.089061-0.4477-0.089061h-12.79c-0.31031 0-0.6079 0.12327-0.82732 0.34268-0.21942 0.21942-0.34268 0.51701-0.34268 0.82732v2.86h-2.86zm12.79 13.89h-12.79c-0.07179 2e-4 -0.14285-0.0144-0.20869-0.043-0.06585-0.0286-0.12506-0.0706-0.17391-0.1232s-0.08627-0.1147-0.10992-0.1825-0.03301-0.1397-0.02748-0.2113v-12.16c0-0.13792 0.05478-0.27018 0.1523-0.3677s0.22978-0.1523 0.3677-0.1523h2.86v8.68c0 0.646 0.524 1.17 1.17 1.17h9.28v2.83c0.0055 0.0716-0.0038 0.1435-0.0275 0.2113-0.0236 0.0678-0.0611 0.1299-0.1099 0.1825s-0.1081 0.0946-0.1739 0.1232c-0.0659 0.0286-0.1369 0.0432-0.2087 0.043zm-12.79-12.94c-0.05835 0-0.11431 0.02317-0.15557 0.06443s-0.06443 0.09722-0.06443 0.15557v12.16c0 0.122 0.098 0.22 0.22 0.22h12.79c0.0584 0 0.1143-0.0232 0.1556-0.0644 0.0412-0.0413 0.0644-0.0973 0.0644-0.1556v-2.52h-9c-0.38813-0.0053-0.75842-0.1638-1.0301-0.4411s-0.42261-0.6507-0.41993-1.0389v-8.38h-2.56zm16.82 8.91h-12.79c-0.06914 0-0.13759-0.0138-0.20134-0.0405-0.06375-0.0268-0.12152-0.066-0.16994-0.1153-0.04842-0.0494-0.08651-0.1079-0.11205-0.1721-0.02554-0.0643-0.038-0.133-0.03667-0.2021v-12.19c0-0.13792 0.05478-0.27018 0.1523-0.3677s0.22978-0.1523 0.3677-0.1523h12.79c0.1379 0 0.2702 0.05478 0.3677 0.1523s0.1523 0.22978 0.1523 0.3677v12.19c0.0013 0.0691-0.0111 0.1378-0.0367 0.2021-0.0255 0.0642-0.0636 0.1227-0.112 0.1721-0.0484 0.0493-0.1062 0.0885-0.17 0.1153-0.0637 0.0267-0.1322 0.0405-0.2013 0.0405zm-12.79-12.94c-0.05835 0-0.11431 0.02318-0.15557 0.06443-0.04126 0.04126-0.06443 0.09722-0.06443 0.15557v12.19c0 0.122 0.098 0.22 0.22 0.22h12.79c0.0584 0 0.1143-0.0232 0.1556-0.0644 0.0412-0.0413 0.0644-0.0973 0.0644-0.1556v-12.19c0-0.05835-0.0232-0.11431-0.0644-0.15557-0.0413-0.04125-0.0972-0.06443-0.1556-0.06443h-12.79z" fill="#005DFF"/><path d="m15.16 5.53h0.08v-0.94999h-4.03v0.94999h3.95z" clip-rule="evenodd" fill="#005DFF" fill-rule="evenodd"/><path d="m15.39 5.68h-4.33v-1.25h4.33v1.25zm-4-0.3h3.73v-0.65h-3.76l0.03 0.65z" fill="#005DFF"/><path d="m9.89 5.47v-0.89h-2.11v0.94999h2.11v-0.05999z" clip-rule="evenodd" fill="#005DFF" fill-rule="evenodd"/><path d="m10 5.68h-2.37v-1.25h2.37v1.25zm-2.11-0.3h1.85v-0.65h-1.81l-0.04 0.65z" fill="#005DFF"/><path d="m15.22 7.65h-1.7v0.95h3.11v-0.95h-1.41z" clip-rule="evenodd" fill="#005DFF" fill-rule="evenodd"/><path d="m16.78 8.75h-3.41v-1.25h3.41v1.25zm-3.11-0.3h2.81v-0.65h-2.81v0.65z" fill="#005DFF"/><path d="m7.78 7.65h4.35v1h-4.35v-1z" clip-rule="evenodd" fill="#005DFF" fill-rule="evenodd"/><path d="m12.28 8.75h-4.65v-1.25h4.65v1.25zm-4.35-0.3h4.07v-0.65h-4.07v0.65z" fill="#005DFF"/><path d="m14.75 10.72h-3.23v0.95h3.81v-0.95h-0.58z" clip-rule="evenodd" fill="#005DFF" fill-rule="evenodd"/><path d="m15.48 11.82h-4.11v-1.25h4.11v1.25zm-3.81-0.3h3.51v-0.65h-3.51v0.65z" fill="#005DFF"/><path d="m7.78 10.72h2.28v1h-2.28v-1z" clip-rule="evenodd" fill="#005DFF" fill-rule="evenodd"/><path d="m10.21 11.82h-2.58v-1.25h2.58v1.25zm-2.28-0.3h2v-0.65h-2v0.65z" fill="#005DFF"/></svg>
