<?xml version="1.0" encoding="UTF-8"?>
<svg fill="none" viewBox="0 0 186 97" xmlns="http://www.w3.org/2000/svg"><path d="m122.7 76.704c-21.585 0-39.083-17.167-39.083-38.347 0-21.182 17.498-38.357 39.083-38.357 21.59 0 39.095 17.175 39.095 38.357 0 21.18-17.505 38.347-39.095 38.347zm28.699 19.543c-18.787 0-34.014-14.937-34.014-33.379 0-18.435 15.227-33.374 34.014-33.374 18.785 0 34.013 14.939 34.013 33.374 0 18.442-15.226 33.379-34.013 33.379zm-56.899 0c-18.779 0-34.014-14.937-34.014-33.379 0-18.435 15.235-33.374 34.014-33.374 18.785 0 34.022 14.939 34.022 33.374-2e-3 18.442-15.237 33.379-34.022 33.379zm0 0.11v-26.576h56.782v26.576h-56.782zm-55.538-20.381h-33.028c-1.482 0-2.589-1.096-2.589-2.551v-3.761c0-1.454 1.107-2.549 2.589-2.549h32.907c1.482 0 2.6 1.095 2.6 2.549v3.761c0.12 1.34-1.118 2.551-2.479 2.551zm49.853 0h-32.906c-1.481 0-2.599-1.096-2.599-2.551v-3.761c0-1.454 1.116-2.549 2.599-2.549h32.907c1.483 0 2.6 1.095 2.6 2.549v3.761c-2e-3 1.34-1.118 2.551-2.601 2.551zm35.249 20.381h-91.28c-2.479 0-4.573-2.048-4.573-4.488 0-2.427 2.094-4.491 4.573-4.491h91.28c2.472 0 4.576 2.064 4.576 4.491 0 2.442-2.104 4.488-4.576 4.488zm-28.203-40.772h-91.28c-2.479 0-4.576-2.063-4.576-4.487 0-2.434 2.095-4.491 4.576-4.491h91.28c2.478 0 4.576 2.057 4.576 4.491 0 2.422-2.096 4.487-4.576 4.487zm24.498-20.39h-91.289c-2.472 0-4.576-2.064-4.576-4.489s2.104-4.49 4.576-4.49h91.289c2.471 0 4.576 2.065 4.576 4.49s-1.987 4.489-4.576 4.489zm8.776-20.391h-91.282c-2.479 0-4.576-2.054-4.576-4.489 0-2.424 2.097-4.49 4.576-4.49h91.282c2.479 0 4.576 2.065 4.576 4.49 0 2.435-2.097 4.489-4.576 4.489z" fill="#005DFF"/></svg>
