<?xml version="1.0" encoding="UTF-8"?>
<svg width="20" height="19" fill="none" viewBox="0 0 20 19" xmlns="http://www.w3.org/2000/svg"><path d="m4.5098 16.52h11.65c0.7488-0.0055 1.3545-0.6112 1.36-1.36v-10.68" stroke="#005DFF" stroke-width="1.25"/><path d="m15.5 2.19h-12c-0.74263 0.02152-1.3349 0.62709-1.34 1.37v10.75" stroke="#005DFF" stroke-width="1.25"/><path d="m3.5 14.44 4.05-6.89c0.15714-0.25729 0.44143-0.40914 0.74266-0.39667 0.30122 0.01246 0.572 0.18728 0.70734 0.45667l1.68 3.49c0.1305 0.275 0.4027 0.4551 0.7069 0.4677 0.3042 0.0125 0.5903-0.1444 0.7431-0.4077l4.12-7" stroke="#005DFF" stroke-width="1.25"/><path d="m15.51 3.07c-0.1052-0.49045-0.0057-1.0026 0.2756-1.418s0.7199-0.69781 1.2144-0.78206c0.9988-0.1305 1.9287 0.53304 2.13 1.52 0.0894 0.48396-0.0221 0.98345-0.3089 1.3834-0.2867 0.39996-0.724 0.66591-1.2111 0.73658-0.4697 0.09044-0.9561-0.01092-1.3507-0.28146-0.3945-0.27054-0.6644-0.68775-0.7493-1.1585z" clip-rule="evenodd" fill-rule="evenodd" stroke="#005DFF" stroke-width="1.25"/><path d="m0.92037 16.48c-0.20229-0.9176 0.31939-1.8403 1.21-2.14l0.24-0.07c0.99394-0.1199 1.9145 0.5402 2.12 1.52 0.07032 0.2688 0.07032 0.5512 0 0.82-0.21115 0.6819-0.78669 1.1879-1.49 1.31-0.97062 0.1703-1.8977-0.4715-2.08-1.44z" clip-rule="evenodd" fill-rule="evenodd" stroke="#005DFF" stroke-width="1.25"/></svg>
