<?xml version="1.0" encoding="UTF-8"?>
<svg width="16" height="16" fill="none" viewBox="0 0 16 16" xmlns="http://www.w3.org/2000/svg"><path d="m9.8 15c-0.27614 0-0.5-0.2239-0.5-0.5v-1.282c0-0.2762 0.22386-0.5 0.5-0.5h0.45005c0.0787 0 0.1067-0.0184 0.123-0.0344 0.0156-0.0198 0.0461-0.0736 0.0393-0.2145v-6e-4l-0.0881-1.7218v-5e-4c-0.0284-0.5353 0.0953-1.027 0.4296-1.4137l-0.95385 5.6675zh0.60885c0.4143 0 0.7995-0.1031 1.1367-0.3236 0.3402-0.2186 0.5927-0.5252 0.7584-0.9016 0.1686-0.3756 0.2304-0.8031 0.2103-1.2638l-2e-4 -0.0045-0.0883-1.6799-1e-4 -3e-3c-0.0144-0.2461 0.0342-0.3341 0.0488-0.3534l3e-4 -3e-4c0.0012-0.0017 0.0045-0.0063 0.0209-0.0129 0.0217-0.0088 0.0689-0.0215 0.1544-0.0215h1.05c0.2761 0 0.5-0.2239 0.5-0.50003v-1.271c0-0.27614-0.2239-0.5-0.5-0.5h-1.05c-0.0855 0-0.1327-0.01272-0.1544-0.02151-0.0164-0.00665-0.0197-0.01122-0.0209-0.01291-1e-4 -1.2e-4 -2e-4 -2.2e-4 -3e-4 -3e-4 -0.0158-0.02089-0.0629-0.10671-0.0488-0.34167l2e-4 -0.00449 0.0882-1.7352 2e-4 -0.00324c0.0202-0.45598-0.0424-0.88028-0.2113-1.2553-0.1676-0.37213-0.4232-0.67247-0.7663-0.88296-0.336-0.20985-0.718-0.30695-1.1278-0.30695h-0.60885c-0.27614 0-0.5 0.22386-0.5 0.5v1.271c0 0.27614 0.22386 0.5 0.5 0.5h0.45005c0.1038 0 0.126 0.02599 0.1293 0.02984 1e-4 1.5e-4 2e-4 2.7e-4 3e-4 3.5e-4l-1e-4 1e-4 0.0059 0.00595c5e-3 0.00827 0.0336 0.06311 0.0269 0.22507l-0.0881 1.7205v7.6e-4m-0.52425 7.1465 0.52425-7.1465m0 0c-0.0286 0.53083 0.0967 1.018 0.4299 1.4033v3e-5l0.0042 0.00469c0.0097 0.01103 0.0196 0.02188 0.0296 0.03257-0.0114 0.0125-0.0228 0.02523-0.0339 0.03818 0-6e-5 1e-4 -1.3e-4 1e-4 -1.9e-4l-0.4299-1.4786z" stroke="#3B68FB" stroke-linejoin="round"/><path d="m6.3999 11.9c0 0.2762-0.22386 0.5-0.5 0.5h-0.60882c-0.41437 0-0.79956-0.103-1.1368-0.3236-0.34014-0.2186-0.59263-0.5252-0.75835-0.9015-0.16864-0.3756-0.23038-0.8031-0.21032-1.2639l-2e-5 -1e-5 2.3e-4 -0.00447 0.08824-1.6799h-1e-5l1.7e-4 -0.00293c0.01438-0.24613-0.03422-0.33419-0.04886-0.35345-7e-5 -8e-5 -1.4e-4 -1.9e-4 -2.2e-4 -3e-4 -0.00122-0.00169-0.00451-0.00626-0.02095-0.01291-0.02173-0.00879-0.06885-0.02151-0.15435-0.02151h-1.05c-0.27615 0-0.5-0.22386-0.5-0.5v-1.271c0-0.27615 0.22385-0.5 0.5-0.5h1.05c0.0855 0 0.13262-0.01272 0.15435-0.02151 0.01644-0.00666 0.01973-0.01122 0.02095-0.01292 8e-5 -1.1e-4 1.5e-4 -2.1e-4 2.2e-4 -3e-4 0.01588-0.02088 0.06297-0.1067 0.04889-0.34166l-2.3e-4 -0.0045-0.08824-1.7352h-1e-5l-1.4e-4 -0.00324c-0.02023-0.45598 0.04235-0.88028 0.21125-1.2553 0.1676-0.37213 0.4232-0.67246 0.76628-0.88295 0.33606-0.20985 0.71803-0.30695 1.1279-0.30695h0.60882c0.27614 0 0.5 0.22386 0.5 0.5v1.271c0 0.27615-0.22386 0.5-0.5 0.5h-0.45c-0.10389 0-0.12607 0.026-0.12936 0.02984-1.3e-4 1.6e-4 -2.3e-4 2.8e-4 -3.1e-4 3.6e-4l1.1e-4 1e-4 -0.00586 0.00594c-0.00502 0.00828-0.03365 0.06311-0.02689 0.22508l0.08805 1.7205c1e-5 2.6e-4 2e-5 5.1e-4 4e-5 7.7e-4 0.02858 0.53083-0.09671 1.018-0.42996 1.4033l3e-5 2e-5 -0.00416 0.0047c-0.00979 0.01103-0.01967 0.02188-0.02964 0.03257 0.01138 0.01244 0.02264 0.0251 0.03377 0.03799 0.33457 0.38683 0.45838 0.8786 0.42997 1.4142l-3e-5 5.1e-4 -0.08811 1.7217-3e-5 6e-4c-0.00672 0.14088 0.02377 0.19468 0.03936 0.21458 0.01624 0.0159 0.04424 0.0343 0.12302 0.0343h0.45c0.27614 0 0.5 0.2239 0.5 0.5v1.282z" stroke="#3B68FB" stroke-linejoin="round"/></svg>
