<?xml version="1.0" encoding="UTF-8"?>
<svg width="18" height="20" viewBox="0 0 18 20" xmlns="http://www.w3.org/2000/svg"><path d="m4.7207 10.69c0.0055 2.2621 1.8379 4.0945 4.1 4.1 1.0935-0.0026 2.1409-0.4409 2.9104-1.2179s1.1976-1.8286 1.1896-2.9221c0-2.79-3.57-5.54-3.72-5.65l-0.37-0.27-0.38 0.27c-0.01112 0.01038-0.04109 0.03467-0.08706 0.07191-0.57408 0.46514-3.6429 2.9516-3.6429 5.6181zm1.28 0c0-1.69 1.77-3.49 2.82-4.36 1.04 0.89 2.85 2.77 2.88 4.36 0 1.574-1.276 2.85-2.85 2.85s-2.85-1.276-2.85-2.85z" clip-rule="evenodd" fill="#005DFF" fill-rule="evenodd"/><path d="m0.44922 14.83 8.37 4.86 8.42-4.86v-9.83l-8.42-4.81-8.37 4.81v9.83zm8.37 3.41-7.12-4.13v-8.39l7.12-4.09 7.18 4.09v8.39l-7.18 4.13z" clip-rule="evenodd" fill="#005DFF" fill-rule="evenodd"/><path d="m0.75977 6 5.07 3 0.56-1.08-5-2.92-0.63 1zm11.07 3-0.62-1.09 5.09-2.91 0.63 1-5.1 3zm-2.38 10h-1.25v-4.83h1.25v4.83z" clip-rule="evenodd" fill="#005DFF" fill-rule="evenodd"/></svg>
