<?xml version="1.0" encoding="UTF-8"?>
<svg width="16" height="16" fill="none" viewBox="0 0 16 16" xmlns="http://www.w3.org/2000/svg"><g clip-path="url(#a)" stroke="#0069FF" stroke-linecap="round" stroke-linejoin="round"><path d="m12.25 11.75c-0.0494 0-0.0978 0.0147-0.1389 0.0421-0.0411 0.0275-0.0731 0.0665-0.0921 0.1122-0.0189 0.0457-0.0238 0.096-0.0142 0.1445 0.0097 0.0485 0.0335 0.093 0.0684 0.128 0.035 0.0349 0.0795 0.0587 0.128 0.0684 0.0485 0.0096 0.0988 0.0047 0.1445-0.0142 0.0457-0.019 0.0847-0.051 0.1122-0.0921 0.0274-0.0411 0.0421-0.0895 0.0421-0.1389 0-0.0663-0.0263-0.1299-0.0732-0.1768s-0.1105-0.0732-0.1768-0.0732z"/><path d="m10 11.75c-0.04945 0-0.09778 0.0147-0.13889 0.0421-0.04111 0.0275-0.07316 0.0665-0.09208 0.1122s-0.02387 0.096-0.01423 0.1445c0.00965 0.0485 0.03346 0.093 0.06842 0.128 0.03497 0.0349 0.07951 0.0587 0.12801 0.0684 0.04849 0.0096 0.09877 0.0047 0.14447-0.0142 0.0457-0.019 0.0847-0.051 0.1122-0.0921 0.0274-0.0411 0.0421-0.0895 0.0421-0.1389 0-0.0663-0.0263-0.1299-0.0732-0.1768s-0.1105-0.0732-0.1768-0.0732z"/><path d="m15.5 12c0 0.7956-0.3161 1.5587-0.8787 2.1213s-1.3257 0.8787-2.1213 0.8787h-9c-0.79565 0-1.5587-0.3161-2.1213-0.8787s-0.87868-1.3257-0.87868-2.1213 0.31607-1.5587 0.87868-2.1213c0.56261-0.56261 1.3257-0.87868 2.1213-0.87868h9c0.7956 0 1.5587 0.31607 2.1213 0.87868 0.5626 0.56262 0.8787 1.3257 0.8787 2.1213z"/><path d="m15.421 11.315-2.0587-8.772c-0.103-0.43904-0.3513-0.83039-0.7046-1.1106-0.3534-0.28016-0.7911-0.43267-1.2421-0.43278h-6.83c-0.45107-3.8e-5 -0.88891 0.1524-1.2424 0.43257-0.3535 0.28017-0.60192 0.67161-0.70492 1.1108l-2.0587 8.772"/><path d="M3.5 12H6"/></g><defs><clipPath id="a"><rect width="16" height="16" fill="#fff"/></clipPath></defs></svg>
