<?xml version="1.0" encoding="UTF-8"?>
<svg viewBox="6.75 4.5 18.42 23" xmlns="http://www.w3.org/2000/svg"><path d="m7.1971 18.496c-0.2753 0.2174-0.44672 0.5533-0.44672 0.9218v2.652c0 0.2086 0.11065 0.4015 0.29069 0.5068l8.0069 4.6829c0.5448 0.3187 1.2185 0.3214 1.7659 0.0072l8.0623-4.6276c0.1824-0.1046 0.2948-0.2989 0.2948-0.5091v-2.7107c0-0.3621-0.1655-0.6927-0.4324-0.9103v0.1415c0 0.2436-0.1294 0.4689-0.3398 0.5916l-7.5158 4.3839c-0.5836 0.3404-1.3058 0.3374-1.8865-0.0077l-7.4644-4.4364c-0.20769-0.1235-0.33499-0.3472-0.33499-0.5888v-0.0971zm16.555 2.4738c0-0.1702-0.1192-0.2387-0.2663-0.1531-0.147 0.0855-0.2662 0.2928-0.2662 0.463v1.0807c0 0.1701 0.1192 0.2387 0.2662 0.1531 0.1471-0.0856 0.2663-0.2929 0.2663-0.463v-1.0807zm-15.474 0.9883c0.18286 0.1108 0.3311 0.0272 0.3311-0.1865 0-0.2138-0.14824-0.4769-0.3311-0.5877-0.18286-0.1107-0.3311-0.0272-0.3311 0.1866s0.14824 0.4769 0.3311 0.5876zm1.3223 0.8008c0.18287 0.1108 0.3311 0.0273 0.3311-0.1865s-0.14823-0.4769-0.3311-0.5876c-0.18286-0.1108-0.3311-0.0272-0.3311 0.1865 0 0.2138 0.14824 0.4769 0.3311 0.5876zm1.6533 0.6142c0 0.2138-0.1482 0.2974-0.3311 0.1866-0.1828-0.1107-0.3311-0.3738-0.3311-0.5876s0.1483-0.2973 0.3311-0.1866c0.1829 0.1108 0.3311 0.3739 0.3311 0.5876zm6.3484 1.1757c0-0.1701-0.1192-0.2387-0.2662-0.1531s-0.2662 0.2929-0.2662 0.463v1.0808c0 0.1701 0.1192 0.2386 0.2662 0.153 0.147-0.0855 0.2662-0.2928 0.2662-0.4629v-1.0808zm1.2711-1.0478c0.147-0.0856 0.2662-0.0171 0.2662 0.1531v1.0807c0 0.1701-0.1192 0.3774-0.2662 0.463-0.1471 0.0856-0.2663 0.017-0.2663-0.1531v-1.0807c0-0.1702 0.1192-0.3775 0.2663-0.463zm1.8036-0.7417c0-0.1701-0.1192-0.2387-0.2662-0.1531s-0.2662 0.2928-0.2662 0.463v1.0807c0 0.1702 0.1192 0.2387 0.2662 0.1531s0.2662-0.2928 0.2662-0.463v-1.0807zm1.2712-1.0479c0.1471-0.0856 0.2663-0.017 0.2663 0.1531v1.0807c0 0.1702-0.1192 0.3775-0.2663 0.463-0.147 0.0856-0.2662 0.0171-0.2662-0.1531v-1.0807c0-0.1701 0.1192-0.3774 0.2662-0.463z" clip-rule="evenodd" fill="#0069FF" fill-rule="evenodd"/><path d="m7.1971 13.915v0.0971c0 0.2416 0.1273 0.4654 0.33499 0.5888l7.4644 4.4364c0.5807 0.3451 1.3029 0.3481 1.8865 0.0077l7.5158-4.3838c0.2104-0.1228 0.3398-0.3481 0.3398-0.5917v-0.1415c0.2669 0.2177 0.4324 0.5483 0.4324 0.9103v2.7107c0 0.2103-0.1124 0.4045-0.2948 0.5092l-8.0623 4.6275c-0.5474 0.3142-1.2211 0.3115-1.7659-0.0072l-8.0069-4.6829c-0.18004-0.1053-0.29069-0.2982-0.29069-0.5067v-2.6521c0-0.3684 0.17142-0.7044 0.44672-0.9218zm16.556 2.4518c0-0.1702-0.1192-0.2387-0.2662-0.1531-0.1471 0.0855-0.2663 0.2928-0.2663 0.463v1.0807c0 0.1701 0.1192 0.2387 0.2663 0.1531 0.147-0.0856 0.2662-0.2929 0.2662-0.463v-1.0807zm-15.475 1.0315c0.18286 0.1107 0.3311 0.0272 0.3311-0.1866s-0.14824-0.4769-0.3311-0.5876c-0.18286-0.1108-0.3311-0.0272-0.3311 0.1866 0 0.2137 0.14824 0.4768 0.3311 0.5876zm1.3222 0.8008c0.18286 0.1107 0.3311 0.0272 0.3311-0.1866s-0.14824-0.4768-0.3311-0.5876c-0.18286-0.1107-0.3311-0.0272-0.3311 0.1866s0.14824 0.4769 0.3311 0.5876zm1.6534 0.6142c0 0.2138-0.1482 0.2973-0.3311 0.1866-0.1829-0.1108-0.3311-0.3739-0.3311-0.5876 0-0.2138 0.1482-0.2974 0.3311-0.1866 0.1829 0.1107 0.3311 0.3738 0.3311 0.5876zm6.3499 1.1325c0-0.1701-0.1192-0.2387-0.2662-0.1531s-0.2662 0.2929-0.2662 0.463v1.0808c0 0.1701 0.1192 0.2386 0.2662 0.153 0.147-0.0855 0.2662-0.2928 0.2662-0.4629v-1.0808zm1.2711-1.0478c0.1471-0.0856 0.2663-0.0171 0.2663 0.1531v1.0807c0 0.1701-0.1192 0.3774-0.2663 0.463-0.147 0.0856-0.2662 0.017-0.2662-0.1531v-1.0807c0-0.1702 0.1192-0.3775 0.2662-0.463zm1.8037-0.7417c0-0.1701-0.1192-0.2387-0.2662-0.1531-0.1471 0.0856-0.2663 0.2929-0.2663 0.463v1.0807c0 0.1702 0.1192 0.2387 0.2663 0.1531 0.147-0.0856 0.2662-0.2928 0.2662-0.463v-1.0807zm1.2712-1.0479c0.147-0.0856 0.2662-0.017 0.2662 0.1531v1.0808c0 0.1701-0.1192 0.3774-0.2662 0.4629-0.1471 0.0856-0.2663 0.0171-0.2663-0.1531v-1.0807c0-0.1701 0.1192-0.3774 0.2663-0.463z" clip-rule="evenodd" fill="#0069FF" fill-rule="evenodd"/><path d="m24.887 9.4751-7.716-4.6394c-0.7446-0.44769-1.6756-0.44769-2.4201 0l-7.7161 4.6394c-0.19726 0.11861-0.29189 0.3241-0.28412 0.52617l6e-5 2.9795c1e-5 0.2086 0.11066 0.4015 0.29069 0.5068l8.007 4.6829c0.5448 0.3186 1.2185 0.3214 1.7659 0.0072l8.0622-4.6276c0.1824-0.1047 0.2949-0.2989 0.2949-0.5092v-3.0468c0.0053-0.19972-0.0894-0.40179-0.2844-0.519zm-8.1194-2.8512 5.0038 3.0086c0.2537 0.15252 0.2528 0.52056-0.0016 0.67186l-5.0087 2.9784c-0.4932 0.2932-1.1072 0.2932-1.6003 0l-5.0088-2.9784c-0.25436-0.1513-0.25525-0.51934-0.0016-0.67186l5.0038-3.0086c0.4964-0.29846 1.117-0.29846 1.6134 0z" clip-rule="evenodd" fill="#0069FF" fill-rule="evenodd"/><path d="m17.145 9.7849-1.0836-0.65154c-0.062-0.0373-0.1396-0.0373-0.2017 0l-1.0836 0.65154c-0.1268 0.07626-0.1264 0.26026 8e-4 0.33586l1.0837 0.6444c0.0616 0.0367 0.1384 0.0367 0.2 0l1.0836-0.6444c0.1272-0.0756 0.1277-0.2596 8e-4 -0.33586z" fill="#0069FF"/></svg>
