<?xml version="1.0" encoding="UTF-8"?>
<svg width="20" height="20" fill="none" viewBox="0 0 20 20" xmlns="http://www.w3.org/2000/svg"><path d="m8.1902 11.81-3.78 3.78" stroke="#005DFF" stroke-width="1.25"/><path d="m15.57 4.43-3.76 3.76" stroke="#005DFF" stroke-width="1.25"/><path d="m3.0809 18.79c1.0328 0 1.87-0.8372 1.87-1.87s-0.83723-1.87-1.87-1.87c-1.0328 0-1.87 0.8372-1.87 1.87s0.83722 1.87 1.87 1.87z" clip-rule="evenodd" fill-rule="evenodd" stroke="#005DFF" stroke-width="1.25"/><path d="m16.921 4.95c1.0328 0 1.87-0.83723 1.87-1.87s-0.8372-1.87-1.87-1.87-1.87 0.83723-1.87 1.87 0.8372 1.87 1.87 1.87z" clip-rule="evenodd" fill-rule="evenodd" stroke="#005DFF" stroke-width="1.25"/><path d="m11.81 11.81 3.76 3.76" stroke="#005DFF" stroke-width="1.25"/><path d="m4.4297 4.43 3.77 3.77" stroke="#005DFF" stroke-width="1.25"/><path d="m3.0809 4.95c1.0328 0 1.87-0.83723 1.87-1.87s-0.83723-1.87-1.87-1.87c-1.0328 0-1.87 0.83723-1.87 1.87s0.83722 1.87 1.87 1.87z" clip-rule="evenodd" fill-rule="evenodd" stroke="#005DFF" stroke-width="1.25"/><path d="m16.921 18.79c1.0328 0 1.87-0.8372 1.87-1.87s-0.8372-1.87-1.87-1.87-1.87 0.8372-1.87 1.87 0.8372 1.87 1.87 1.87z" clip-rule="evenodd" fill-rule="evenodd" stroke="#005DFF" stroke-width="1.25"/><path d="m10.001 12.54c1.4028 0 2.54-1.1372 2.54-2.54s-1.1372-2.54-2.54-2.54-2.54 1.1372-2.54 2.54 1.1372 2.54 2.54 2.54z" clip-rule="evenodd" fill-rule="evenodd" stroke="#005DFF" stroke-width="1.25"/></svg>
