<?xml version="1.0" encoding="UTF-8"?>
<svg width="30px" height="30px" version="1.1" viewBox="0 0 30 30" xmlns="http://www.w3.org/2000/svg"><title>reliably</title><desc>Created with Sketch.</desc><defs><linearGradient id="c" x1="100.26%" x2="43.513%" y1="49.992%" y2="49.992%"><stop stop-color="#0069FF" stop-opacity=".3" offset="0"/><stop stop-color="#0069FF" stop-opacity="0" offset="1"/></linearGradient><linearGradient id="b" x1="100.26%" x2="43.513%" y1="50.562%" y2="50.562%"><stop stop-color="#0069FF" stop-opacity=".3" offset="0"/><stop stop-color="#0069FF" stop-opacity="0" offset="1"/></linearGradient><linearGradient id="a" x1="100.26%" x2="43.513%" y1="50.008%" y2="50.008%"><stop stop-color="#0069FF" stop-opacity=".3" offset="0"/><stop stop-color="#0069FF" stop-opacity="0" offset="1"/></linearGradient></defs><g fill="none" fill-rule="evenodd"><g transform="translate(1)"><path id="Path" d="m26.02 22.102h-24.04c-0.519-0.0048636-1.0181 0.1993-1.3849 0.56649-0.36681 0.36719-0.57046 0.86652-0.56517 1.3855v3.044c0 1.092 0.8581 1.95 1.9501 1.95h24.118c0.51865 0.004855 1.0175-0.19903 1.3842-0.56579 0.36675-0.36675 0.57064-0.86557 0.56587-1.3842v-3.044c-0.077085-1.093-0.93608-1.952-2.0281-1.952z" fill="url(#c)" fill-rule="nonzero"/><path id="Path" d="m26.02 22.102h-24.04c-0.519-0.0048636-1.0181 0.1993-1.3849 0.56649-0.36681 0.36719-0.57046 0.86652-0.56517 1.3855v3.044c0 1.092 0.8581 1.95 1.9501 1.95h24.118c0.51865 0.004855 1.0175-0.19903 1.3842-0.56579 0.36675-0.36675 0.57064-0.86557 0.56587-1.3842v-3.044c-0.077085-1.093-0.93608-1.952-2.0281-1.952z" stroke="#120078" stroke-width="1.75"/><circle id="Oval" cx="4.4" cy="25.537" r="1.015" fill="#0069FF" fill-rule="nonzero"/><circle id="Oval" cx="7.834" cy="25.537" r="1.015" fill="#0069FF" fill-rule="nonzero" opacity=".3"/><circle id="Oval" cx="11.19" cy="25.537" r="1.015" fill="#0069FF" fill-rule="nonzero" opacity=".3"/><line id="Path" x1="24.38" x2="18.45" y1="25.537" y2="25.537" fill="#D8D8D8" fill-rule="nonzero" stroke="#120078" stroke-linecap="round" stroke-width="1.75"/><path id="Path" d="m26.02 11.488h-24.04c-0.51882-0.0048593-1.0178 0.19916-1.3846 0.56614s-0.57055 0.86605-0.56552 1.3849v3.044c0 1.093 0.85809 1.951 1.9501 1.951h24.118c0.51882 0.0048593 1.0178-0.19916 1.3846-0.56614 0.36678-0.36697 0.57055-0.86605 0.56552-1.3849v-3.044c-0.077094-1.015-0.93609-1.951-2.0281-1.951z" fill="url(#b)" fill-rule="nonzero"/><path id="Path" d="m26.02 11.488h-24.04c-0.51882-0.0048593-1.0178 0.19916-1.3846 0.56614s-0.57055 0.86605-0.56552 1.3849v3.044c0 1.093 0.85809 1.951 1.9501 1.951h24.118c0.51882 0.0048593 1.0178-0.19916 1.3846-0.56614 0.36678-0.36697 0.57055-0.86605 0.56552-1.3849v-3.044c-0.077094-1.015-0.93609-1.951-2.0281-1.951z" stroke="#0069FF" stroke-width="1.75"/><circle id="Oval" cx="4.4" cy="15" r="1.015" fill="#0069FF" fill-rule="nonzero"/><circle id="Oval" cx="7.834" cy="15" r="1.015" fill="#0069FF" fill-rule="nonzero" opacity=".3"/><circle id="Oval" cx="11.19" cy="15" r="1.015" fill="#0069FF" fill-rule="nonzero" opacity=".3"/><line id="Path" x1="24.38" x2="18.45" y1="15" y2="15" fill="#D8D8D8" fill-rule="nonzero" stroke="#120078" stroke-linecap="round" stroke-width="1.75"/><path id="Path" d="m26.02 0.951h-24.04c-0.51882-0.0048593-1.0178 0.19916-1.3846 0.56614s-0.57055 0.86605-0.56552 1.3849v3.044c0 1.093 0.85809 1.952 1.9501 1.952h24.118c0.519 0.0048636 1.0181-0.1993 1.3849-0.56649 0.36681-0.36719 0.57046-0.86652 0.56517-1.3855v-3.044c-0.077104-1.092-0.9361-1.95-2.0281-1.95v-1e-3z" fill="url(#a)" fill-rule="nonzero"/><path id="d" d="m26.02 0.951h-24.04c-0.51882-0.0048593-1.0178 0.19916-1.3846 0.56614s-0.57055 0.86605-0.56552 1.3849v3.044c0 1.093 0.85809 1.952 1.9501 1.952h24.118c0.519 0.0048636 1.0181-0.1993 1.3849-0.56649 0.36681-0.36719 0.57046-0.86652 0.56517-1.3855v-3.044c-0.077104-1.092-0.9361-1.95-2.0281-1.95v-1e-3z" stroke="#0069FF" stroke-width="1.75"/><circle id="Oval" cx="4.4" cy="4.463" r="1.015" fill="#0069FF" fill-rule="nonzero"/><circle id="e" cx="7.834" cy="4.463" r="1.015" fill="#0069FF" fill-rule="nonzero" opacity=".3"/><circle cx="11.19" cy="4.463" r="1.015" fill="#0069FF" fill-rule="nonzero" opacity=".3"/><line x1="24.38" x2="18.45" y1="4.463" y2="4.463" fill="#D8D8D8" fill-rule="nonzero" stroke="#120078" stroke-linecap="round" stroke-width="1.75"/></g></g></svg>
