<?xml version="1.0" encoding="UTF-8"?>
<svg width="18" height="20" viewBox="0 0 18 20" xmlns="http://www.w3.org/2000/svg"><path d="m8.84 19.85c-2.2006-0.0153-4.3082-0.8894-5.8736-2.4361s-2.4648-3.6437-2.5064-5.8439c0-6.71 7.75-11.11 8.08-11.29l0.31-0.17 0.31 0.18c0.33 0.19 8.07 4.73 8.07 11.33-0.0237 2.2031-0.9204 4.3069-2.4933 5.8498s-3.6935 2.3988-5.8967 2.3802zm0-18.29c-1.41 0.87-7.13 4.75-7.13 10 0.06912 1.8461 0.85109 3.5935 2.1816 4.8752 1.3305 1.2816 3.106 1.9976 4.9534 1.9976s3.6229-0.716 4.9534-1.9976c1.3305-1.2817 2.1125-3.0291 2.1816-4.8752 0.02-5.13-5.73-9.11-7.14-10z" fill="#005DFF"/><path d="m8.84 14.68c-0.42266 4e-3 -0.84187-0.0763-1.2331-0.2362-0.39126-0.1599-0.74672-0.3962-1.0456-0.6951s-0.53518-0.6543-0.69507-1.0456c-0.1599-0.3912-0.2402-0.8105-0.23619-1.2331 0-2.28 2.73-4.3 2.85-4.39l0.36-0.26 0.37 0.26c0.11 0.08 2.85 2.05 2.85 4.39 4e-3 0.4235-0.0766 0.8435-0.2371 1.2355-0.1605 0.3919-0.3977 0.7478-0.6976 1.0468-0.3 0.299-0.6566 0.5351-1.0491 0.6944-0.3924 0.1593-0.8127 0.2386-1.2362 0.2333zm0-6.29c-0.76 0.65-2 1.93-2 3.08 0.08676 0.4576 0.33054 0.8706 0.68928 1.1677 0.35873 0.2972 0.80992 0.4598 1.2757 0.4598s0.91699-0.1626 1.2757-0.4598c0.3588-0.2971 0.6026-0.7101 0.6893-1.1677 0.04-1.19-1.16-2.47-1.92-3.08h-0.01z" fill="#005DFF"/></svg>
