<?xml version="1.0" encoding="UTF-8"?>
<svg width="20" height="20" viewBox="0 0 20 20" xmlns="http://www.w3.org/2000/svg"><path d="m2.6948 13.404c1.1912 2.8785 3.9996 4.7556 7.1148 4.7556 4.2464-0.0055 7.689-3.4436 7.7-7.69 4e-3 -3.1153-1.8694-5.926-4.7464-7.121s-6.1905-0.53866-8.3948 1.6627c-2.2043 2.2014-2.8649 5.514-1.6736 8.3926zm0.66482-2.9544c0-3.5622 2.8878-6.45 6.45-6.45 3.5599 0.00551 6.4445 2.89 6.45 6.45 0 3.5622-2.8878 6.45-6.45 6.45s-6.45-2.8878-6.45-6.45z" clip-rule="evenodd" fill="#005DFF" fill-rule="evenodd"/><path d="m6.6797 10.48c0 1.7452 1.4148 3.16 3.16 3.16 1.7429-0.0055 3.1545-1.4171 3.16-3.16 0-1.7452-1.4148-3.16-3.16-3.16s-3.16 1.4148-3.16 3.16zm1.3873-0.72555c0.29819-0.71462 0.99834-1.1785 1.7727-1.1744 1.0471 0.00547 1.8945 0.85293 1.9 1.9 4e-3 0.7743-0.4598 1.4745-1.1745 1.7727-0.71458 0.2982-1.5385 0.1354-2.0861-0.4121-0.54754-0.5476-0.71032-1.3715-0.41212-2.0862z" clip-rule="evenodd" fill="#005DFF" fill-rule="evenodd"/><rect x="9.2109" y=".81" width="1.25" height="7.08" fill="#005DFF"/><rect transform="rotate(-50.85 1.8809 4.8145)" x="1.8809" y="4.8145" width="1.25" height="7.1" fill="#005DFF"/><rect transform="rotate(-39.16 11.498 8.3163)" x="11.498" y="8.3163" width="7.1" height="1.25" fill="#005DFF"/><rect transform="rotate(-77.63 12.301 11.654)" x="12.301" y="11.654" width="1.25" height="7.09" fill="#005DFF"/><rect transform="rotate(-12.36 .17773 11.952)" x=".17773" y="11.952" width="7.09" height="1.25" fill="#005DFF"/><rect transform="rotate(-25.63 10.441 12.967)" x="10.441" y="12.967" width="1.25" height="7.26" fill="#005DFF"/><rect transform="rotate(-64.76 4.9707 18.972)" x="4.9707" y="18.972" width="7.24" height="1.25" fill="#005DFF"/></svg>
