<?xml version="1.0" encoding="UTF-8"?>
<svg width="20" height="18" viewBox="0 0 20 18" xmlns="http://www.w3.org/2000/svg"><path d="m3.9997 3.67c0.17102 0.00727 0.33969-0.04193 0.48-0.14 0.14242-0.12033 0.22919-0.29387 0.24-0.48 0.00251-0.17042-0.04627-0.33766-0.14-0.48-0.11433-0.14987-0.29152-0.23846-0.48-0.24h-0.04c-0.36779 0.00537-0.66463 0.30221-0.67 0.67-0.00881 0.17121 0.04053 0.34037 0.14 0.48 0.12383 0.12532 0.29386 0.19406 0.47 0.19z" clip-rule="evenodd" fill="#005DFF" fill-rule="evenodd"/><path d="m3.4798 3.47c0.13091 0.15217 0.3194 0.24279 0.52 0.25 0.17956 0.02288 0.36174-0.01215 0.52-0.1 0.15493-0.12986 0.24907-0.31815 0.26-0.52 0.00128-0.18106-0.0509-0.35847-0.15-0.51-0.12059-0.16625-0.31465-0.26328-0.52-0.26h-0.05c-0.37891-9.2e-4 -0.69368 0.292-0.72 0.67 0.00119 0.16676 0.04974 0.32976 0.14 0.47zm-0.04-0.47c0.00309-0.31852 0.24344-0.58463 0.56-0.62h0.1c0.17036-4e-5 0.33036 0.08182 0.43 0.22 0.09514 0.13039 0.14437 0.28864 0.14 0.45-0.00707 0.17137-0.08714 0.33152-0.22 0.44-0.13341 0.08782-0.2903 0.13315-0.45 0.13-0.15869 0.00465-0.31295-0.05275-0.43-0.16-0.08805-0.13702-0.13331-0.29716-0.13-0.46z" clip-rule="evenodd" fill="#005DFF" fill-rule="evenodd"/><path d="m2.1896 6.41c0.36673 0.01782 0.68318-0.25468 0.72-0.62 0.00591-0.17238-0.04698-0.34165-0.15-0.48-0.10998-0.15502-0.29-0.24503-0.48-0.24-0.34948 0.00378-0.63919 0.27187-0.67 0.62-0.00437 0.17218 0.04837 0.34095 0.15 0.48 0.11272 0.12551 0.264 0.20995 0.43 0.24z" clip-rule="evenodd" fill="#005DFF" fill-rule="evenodd"/><path d="m1.6793 6.2c0.13431 0.14371 0.3148 0.23572 0.51 0.26 0.40752 0.0349 0.76786-0.26316 0.81-0.67-0.01701-0.20095-0.10575-0.38907-0.25-0.53-0.11944-0.1676-0.31426-0.26501-0.52-0.26-0.37642 0.01493-0.67965 0.31384-0.7 0.69-0.00128 0.18106 0.0509 0.35847 0.15 0.51zm-0.11-0.51c0.03064-0.32052 0.29804-0.56635 0.62-0.57h0.05c0.17172-0.00396 0.33508 0.07401 0.44 0.21 0.08969 0.13307 0.13837 0.28953 0.14 0.45-0.03651 0.33921-0.32906 0.59246-0.67 0.58-0.16954-0.01389-0.32716-0.0927-0.44-0.22-0.09654-0.12968-0.14593-0.28843-0.14-0.45z" clip-rule="evenodd" fill="#005DFF" fill-rule="evenodd"/><path d="m2.2306 9c0.00582-0.17085-0.04325-0.33907-0.14-0.48-0.11433-0.14987-0.29151-0.23846-0.48-0.24h-0.05c-0.15659-0.0026-0.309 0.05056-0.43 0.15-0.15108 0.11331-0.24 0.29114-0.24 0.48-0.001307 0.17025 0.047371 0.33714 0.14 0.48 0.11433 0.14986 0.29151 0.23846 0.48 0.24 0.18204 0.02628 0.36647-0.0283 0.50489-0.14941 0.13842-0.12112 0.217-0.29668 0.21511-0.48059z" clip-rule="evenodd" fill="#005DFF" fill-rule="evenodd"/><path d="m1.5098 9.63h0.09c0.1721 0.00217 0.33912-0.05824 0.47-0.17 0.14154-0.13167 0.22135-0.31669 0.22-0.51 0.00581-0.17856-0.04686-0.35412-0.15-0.5-0.12059-0.16624-0.31465-0.26327-0.52-0.26h-0.05c-0.16666-0.00904-0.3307 0.04445-0.46 0.15-0.1676 0.11944-0.26501 0.31426-0.26 0.52-0.001275 0.18106 0.050904 0.35846 0.15 0.51 0.12162 0.15972 0.30931 0.25541 0.51 0.26zm-0.31-1.22c0.11625-0.08451 0.25628-0.13003 0.4-0.13l0.01 0.05c0.17275 0.00154 0.33512 0.08272 0.44 0.22 0.08671 0.13392 0.13193 0.29047 0.13 0.45-0.00981 0.14776-0.07392 0.28667-0.18 0.39-0.12624 0.10313-0.28753 0.15331-0.45 0.14-0.17036 4e-5 -0.33035-0.08182-0.43-0.22-0.09513-0.1304-0.14436-0.28865-0.14-0.45 0.001443-0.17557 0.082336-0.34103 0.22-0.45z" clip-rule="evenodd" fill="#005DFF" fill-rule="evenodd"/><path d="m2.23 11.5c-0.17121-0.0088-0.34037 0.0405-0.48 0.14-0.14987 0.1143-0.23846 0.2915-0.24 0.48-0.00437 0.1722 0.04837 0.3409 0.15 0.48 0.10997 0.155 0.28999 0.245 0.48 0.24 0.17025 0.0013 0.33714-0.0474 0.48-0.14 0.14986-0.1143 0.23845-0.2915 0.24-0.48 0.02628-0.182-0.0283-0.3665-0.14941-0.5049-0.12112-0.1384-0.29668-0.217-0.48059-0.2151z" clip-rule="evenodd" fill="#005DFF" fill-rule="evenodd"/><path d="m1.6192 12.63c0.11944 0.1676 0.31426 0.265 0.52 0.26 0.17875 0.0073 0.35479-0.0455 0.5-0.15 0.17003-0.1184 0.27098-0.3128 0.27-0.52 0.02318-0.196-0.0387-0.3926-0.17-0.54-0.12749-0.1485-0.31431-0.2328-0.51-0.23-0.18222-0.0104-0.36243 0.0426-0.51 0.15-0.16245 0.1238-0.25846 0.3158-0.26 0.52-0.00362 0.1829 0.05256 0.3619 0.16 0.51zm0.17-0.95c0.1264-0.0946 0.28251-0.1407 0.44-0.13 0.16645 6e-4 0.3254 0.0693 0.44 0.19 0.11088 0.1338 0.16154 0.3075 0.14 0.48-0.00154 0.1727-0.08272 0.3351-0.22 0.44-0.13341 0.0878-0.29031 0.1331-0.45 0.13-0.17172 0.0039-0.33508-0.074-0.44-0.21-0.09522-0.1342-0.14435-0.2956-0.14-0.46 7e-4 -0.1753 0.08646-0.3394 0.23-0.44z" clip-rule="evenodd" fill="#005DFF" fill-rule="evenodd"/><path d="m4.1091 14.23c-0.37027-0.0175-0.68818 0.2607-0.72 0.63-0.00582 0.1708 0.04324 0.3391 0.14 0.48 0.11432 0.1499 0.29151 0.2385 0.48 0.24 0.17217 0.0044 0.34094-0.0484 0.48-0.15 0.13989-0.1006 0.22783-0.2581 0.24-0.43 0.0013-0.1703-0.04738-0.3371-0.14-0.48-0.12095-0.1501-0.29089-0.2528-0.48-0.29z" clip-rule="evenodd" fill="#005DFF" fill-rule="evenodd"/><path d="m3.4805 15.37c0.12276 0.1637 0.31541 0.26 0.52 0.26 0.17766-7e-4 0.35132-0.0528 0.5-0.15 0.16784-0.1238 0.26486-0.3215 0.26-0.53 0.00236-0.1781-0.05-0.3526-0.15-0.5-0.13268-0.1459-0.31402-0.2383-0.51-0.26-0.39426-0.0177-0.73306 0.2771-0.77 0.67-0.00581 0.1817 0.04676 0.3604 0.15 0.51zm-0.05-0.51c0.04065-0.333 0.32458-0.5825 0.66-0.58h0.01c0.17433 0.0343 0.3305 0.1301 0.44 0.27 0.09514 0.1304 0.14437 0.2886 0.14 0.45-0.01448 0.1579-0.09887 0.3009-0.23 0.39-0.13039 0.0951-0.28864 0.1444-0.45 0.14-0.17349 0.0016-0.33719-0.0802-0.44-0.22-0.08782-0.1334-0.13315-0.2903-0.13-0.45z" clip-rule="evenodd" fill="#005DFF" fill-rule="evenodd"/><path d="m6.8396 16c-0.17121-0.0088-0.34037 0.0405-0.48 0.14-0.14987 0.1143-0.23846 0.2915-0.24 0.48-0.00592 0.1724 0.04698 0.3417 0.15 0.48 0.10875 0.1564 0.28959 0.2469 0.48 0.24 0.17085 0.0058 0.33907-0.0433 0.48-0.14 0.14986-0.1143 0.23846-0.2915 0.24-0.48 0.00436-0.1722-0.04838-0.341-0.15-0.48-0.12033-0.1424-0.29386-0.2292-0.48-0.24z" clip-rule="evenodd" fill="#005DFF" fill-rule="evenodd"/><path d="m6.2205 17.14c0.1238 0.169 0.3205 0.2692 0.53 0.27 0.17517 0.0139 0.35024-0.0281 0.5-0.12 0.17003-0.1184 0.27098-0.3128 0.27-0.52 0.00219-0.1827-0.05385-0.3613-0.16-0.51-0.12985-0.1549-0.31814-0.2491-0.52-0.26-0.17762-0.0238-0.35798 0.0151-0.51 0.11-0.16013 0.1257-0.25553 0.3165-0.26 0.52-0.00377 0.1814 0.04862 0.3595 0.15 0.51zm0.18-0.95c0.1264-0.0946 0.28251-0.1407 0.44-0.13 0.17137 0.0071 0.33152 0.0871 0.44 0.22 0.09514 0.1304 0.14437 0.2886 0.14 0.45 0.00161 0.1735-0.08024 0.3372-0.22 0.44-0.13307 0.0897-0.28953 0.1384-0.45 0.14-0.17388 0.0033-0.33831-0.0789-0.44-0.22-0.09657-0.1335-0.14584-0.2954-0.14-0.46 7e-4 -0.1753 0.08646-0.3394 0.23-0.44z" clip-rule="evenodd" fill="#005DFF" fill-rule="evenodd"/><path d="m12.94 13.66c0.3701 0 0.67-0.3 0.67-0.67s-0.2999-0.67-0.67-0.67c-0.37 0-0.67 0.3-0.67 0.67s0.3 0.67 0.67 0.67z" clip-rule="evenodd" fill="#005DFF" fill-rule="evenodd"/><path d="m12.221 12.99c0 0.3976 0.3224 0.72 0.72 0.72 0.191 0 0.3741-0.0759 0.5091-0.2109s0.2109-0.3182 0.2109-0.5091c0-0.3977-0.3224-0.72-0.72-0.72s-0.72 0.3223-0.72 0.72zm0.1309-0.2481c0.1006-0.2351 0.3334-0.386 0.5891-0.3819 0.344 0.0055 0.62 0.2859 0.62 0.63 0 0.2557-0.1546 0.486-0.3913 0.5829-0.2366 0.0969-0.5084 0.0412-0.6877-0.1411-0.1794-0.1822-0.2308-0.4548-0.1301-0.6899z" clip-rule="evenodd" fill="#005DFF" fill-rule="evenodd"/><path d="m14.709 11.16c0.37 0 0.67-0.3 0.67-0.67s-0.3-0.66999-0.67-0.66999c-0.3701 0-0.67 0.29999-0.67 0.66999s0.2999 0.67 0.67 0.67z" clip-rule="evenodd" fill="#005DFF" fill-rule="evenodd"/><path d="m13.99 10.49c0 0.3976 0.3224 0.72 0.72 0.72 0.3977 0 0.72-0.3224 0.72-0.72 0-0.3977-0.3223-0.72001-0.72-0.72001-0.3976 0-0.72 0.32231-0.72 0.72001zm0.1101 0.0065c-0.0037-0.341 0.2689-0.62101 0.6099-0.62651 0.1662-0.00268 0.3265 0.06145 0.4449 0.17801 0.1185 0.1166 0.1852 0.2758 0.1851 0.442 0 0.3411-0.2756 0.6181-0.6167 0.6199s-0.6196-0.2723-0.6232-0.6134z" clip-rule="evenodd" fill="#005DFF" fill-rule="evenodd"/><path d="m14.76 8.14c0.3701 0 0.67-0.29997 0.67-0.67s-0.2999-0.67-0.67-0.67c-0.37 0-0.67 0.29997-0.67 0.67s0.3 0.67 0.67 0.67z" clip-rule="evenodd" fill="#005DFF" fill-rule="evenodd"/><path d="m14.077 7.744c0.1156 0.27368 0.3854 0.45004 0.6825 0.446 0.1909 0 0.3741-0.07586 0.5091-0.21089 0.135-0.13502 0.2109-0.31816 0.2109-0.50911 4e-3 -0.29704-0.1723-0.56691-0.446-0.68245-0.2737-0.11555-0.5901-0.05373-0.8001 0.15632-0.2101 0.21006-0.2719 0.52646-0.1564 0.80013zm0.0934-0.52211c0.1006-0.23506 0.3334-0.38595 0.5891-0.38189 0.344 0.00546 0.62 0.28592 0.62 0.63 0 0.25571-0.1546 0.48604-0.3913 0.58293-0.2366 0.0969-0.5084 0.04114-0.6877-0.14111-0.1794-0.18226-0.2308-0.45486-0.1301-0.68993z" clip-rule="evenodd" fill="#005DFF" fill-rule="evenodd"/><path d="m12.891 5.54c0.37 0 0.67-0.29997 0.67-0.67s-0.3-0.67-0.67-0.67-0.67 0.29997-0.67 0.67 0.3 0.67 0.67 0.67z" clip-rule="evenodd" fill="#005DFF" fill-rule="evenodd"/><path d="m12.209 5.1564c0.1161 0.27243 0.3854 0.4477 0.6815 0.44364 0.3993-0.00547 0.72-0.33071 0.72-0.73 0-0.29616-0.179-0.56296-0.453-0.67534s-0.5888-0.04807-0.7967 0.16279c-0.208 0.21086-0.268 0.52647-0.1518 0.79891zm0.0915-0.52211c0.1-0.2363 0.3334-0.38829 0.59-0.38425 0.3424 0 0.62 0.27758 0.62 0.62 0.0041 0.25659-0.1479 0.48998-0.3842 0.59005s-0.5097 0.0468-0.6912-0.13465c-0.1814-0.18146-0.2347-0.45484-0.1346-0.69115z" clip-rule="evenodd" fill="#005DFF" fill-rule="evenodd"/><path d="m6.7908 1.85c0.36852 0.0231 0.68814-0.25212 0.72-0.62 0.01954-0.17905-0.03609-0.35818-0.15362-0.49466s-0.28642-0.21808-0.46638-0.22533c-0.15547-0.006305-0.30805 0.04337-0.43 0.14-0.14987 0.11432-0.23846 0.29151-0.24 0.48-0.00252 0.17042 0.04626 0.33766 0.14 0.48 0.10323 0.13688 0.2593 0.22398 0.43 0.24z" clip-rule="evenodd" fill="#005DFF" fill-rule="evenodd"/><path d="m6.2693 1.64c0.12276 0.16368 0.31541 0.26 0.52 0.26 0.37701-0.00389 0.68904-0.29424 0.72-0.67 0.02425-0.19309-0.03796-0.38703-0.17-0.53-0.12498-0.14742-0.30679-0.23469-0.5-0.24-0.16592-0.003745-0.32817 0.049163-0.46 0.15-0.1676 0.11944-0.265 0.31426-0.26 0.52-0.00127 0.18106 0.05091 0.35847 0.15 0.51zm0.12-0.95c0.11412-0.088616 0.2556-0.1346 0.4-0.13h0.05c0.16238 0.002614 0.31563 0.075588 0.42 0.2 0.11583 0.12345 0.17079 0.292 0.15 0.46-0.02664 0.34428-0.32545 0.60296-0.67 0.58-0.17036 4e-5 -0.33035-0.08182-0.43-0.22-0.09513-0.13039-0.14436-0.28864-0.14-0.45 0.00154-0.17274 0.08273-0.33512 0.22-0.44z" clip-rule="evenodd" fill="#005DFF" fill-rule="evenodd"/><path d="m9.8204 14.47v-1.15c-2.3567-0.1122-4.2098-2.0556-4.2098-4.415s1.8531-4.3028 4.2098-4.415v-1.15c-2.9818 0.12642-5.334 2.5806-5.334 5.565s2.3523 5.4386 5.334 5.565z" clip-rule="evenodd" fill="#005DFF" fill-rule="evenodd"/><path d="m4.3398 8.91c0.02604 3.0582 2.4727 5.5446 5.53 5.62l-0.05-1.26c-2.3296-0.1115-4.161-2.0328-4.161-4.365s1.8314-4.2535 4.161-4.365v-1.25c-3.0333 0.11182-5.4447 2.5849-5.48 5.62zm0.1 0c0.03389-2.9614 2.3716-5.3824 5.33-5.52v1.05c-2.3839 0.11285-4.2586 2.0785-4.2586 4.465s1.8748 4.3522 4.2586 4.465v1.05c-2.9568-0.1324-5.2958-2.5504-5.33-5.51z" clip-rule="evenodd" fill="#005DFF" fill-rule="evenodd"/><path d="m10.109 0v1.18c4.1855 0.15013 7.5011 3.5868 7.5011 7.775s-3.3156 7.6249-7.5011 7.775v1.15c4.9374 0 8.94-4.0026 8.94-8.94s-4.0026-8.94-8.94-8.94z" clip-rule="evenodd" fill="#005DFF" fill-rule="evenodd"/><path d="m10.06 16.68v1.25l0.04 0.07c4.9041-0.0926 8.8309-4.0951 8.83-9 9e-4 -4.9049-3.9259-8.9074-8.83-9v1.23c4.2186 0.10305 7.5859 3.5502 7.59 7.77-0.0584 4.1977-3.4327 7.5942-7.63 7.68zm0.1 1.1v-1c4.2129-0.1506 7.5503-3.6095 7.5503-7.825s-3.3374-7.6744-7.5503-7.825v-1c4.8086 0.13977 8.6444 4.0596 8.68 8.87-0.0834 4.7754-3.9058 8.6418-8.68 8.78z" clip-rule="evenodd" fill="#005DFF" fill-rule="evenodd"/></svg>
