<?xml version="1.0" encoding="UTF-8"?>
<!DOCTYPE svg  PUBLIC '-//W3C//DTD SVG 1.1//EN'  'http://www.w3.org/Graphics/SVG/1.1/DTD/svg11.dtd'>
<svg width="178px" height="178px" clip-rule="evenodd" fill-rule="evenodd" image-rendering="optimizeQuality" shape-rendering="geometricPrecision" text-rendering="geometricPrecision" version="1.1" xmlns="http://www.w3.org/2000/svg"><path d="m177.5 36.5v3c-3.277 4.8907-5.777 10.224-7.5 16-4.681 26.423-9.681 52.756-15 79l-28.5 28.5c-11.539 4.609-22.872 9.443-34 14.5h-7c-11.128-5.057-22.461-9.891-34-14.5-9.8333-9.833-19.667-19.667-29.5-29.5-4.7745-25.647-9.4412-51.314-14-77-2.0569-6.4438-4.8903-12.444-8.5-18v-1c18.855-7.453 37.855-14.62 57-21.5 10.55-5.4417 21.216-10.608 32-15.5 28.896 13.964 58.563 25.964 89 36zm-102-21c9.0062-0.1664 18.006 2e-4 27 0.5-4.6243 6.7477-9.1243 13.581-13.5 20.5-5.02-6.7169-9.52-13.717-13.5-21zm-10 15c5.1313 4.6302 10.131 9.4635 15 14.5 5.3333 0.6667 10.667 0.6667 16 0 4.848-5.0151 9.848-9.8485 15-14.5 9.328 2.4987 18.661 4.9987 28 7.5-4.167 4.1667-8.333 8.3333-12.5 12.5-0.667 1-0.667 2 0 3 2.19 1.8884 4.023 4.0551 5.5 6.5 7.326 0.4997 14.659 0.6663 22 0.5-4.515 21.395-9.349 42.729-14.5 64-2.064-2.774-4.564-4.607-7.5-5.5l-6.5 6.5c-0.333 5-0.667 10-1 15-5.244 3.458-10.911 5.792-17 7-1.5-0.333-3-0.667-4.5-1-2.206-4.579-4.5391-9.079-7-13.5-5-0.667-10-0.667-15 0-2.4609 4.421-4.7942 8.921-7 13.5-2.9459 1.155-5.9459 1.321-9 0.5-4.2453-2.039-8.412-4.206-12.5-6.5-0.3333-5-0.6667-10-1-15-2.3906-3.097-5.224-5.263-8.5-6.5-1.8333 1.833-3.6667 3.667-5.5 5.5-2.8294-21.298-5.3294-42.631-7.5-64 4.6785 0.1658 9.3452-8e-4 14-0.5l8-8-14-14c9.1616-2.3705 18.162-4.8705 27-7.5zm-44 7c8.7104 2.4011 10.044 6.9011 4 13.5-4.127 1.2919-7.2937 0.1252-9.5-3.5-0.9991-5.0091 0.8342-8.3425 5.5-10zm133 0c8.254 2.6399 9.587 7.1399 4 13.5-8.656 1.1828-11.49-2.3172-8.5-10.5 1.409-1.2811 2.909-2.2811 4.5-3zm-69 119c10.318-0.178 12.651 3.989 7 12.5-5.8055 1.853-9.4722-0.147-11-6 0.7341-2.561 2.0675-4.727 4-6.5z" fill="#0069ff" opacity=".951"/></svg>
