<?xml version="1.0" encoding="UTF-8"?>
<svg width="20" height="20" fill="none" viewBox="0 0 20 20" xmlns="http://www.w3.org/2000/svg"><path d="m17.42 19.67c-0.0712 0.0025-0.142-0.0105-0.2076-0.0381-0.0657-0.0276-0.1245-0.0692-0.1724-0.1219l-3-2.91-1.21 2.3c-0.0457 0.1026-0.1252 0.1865-0.2254 0.2375-0.1001 0.0509-0.2147 0.0659-0.3246 0.0425-0.1114-0.0118-0.2174-0.0546-0.3057-0.1236-0.0884-0.0689-0.1557-0.1612-0.1943-0.2664l-3.47-9.71c-0.02618-0.09387-0.02986-0.19259-0.01075-0.28815s0.06048-0.18528 0.12075-0.26186c0.06719-0.08516 0.16287-0.14318 0.26944-0.16339 0.10658-0.02021 0.21686-0.00125 0.31056 0.05339l9.72 3.51c0.1015 0.0428 0.1901 0.1115 0.2567 0.1993 0.0667 0.0877 0.1092 0.1914 0.1233 0.3007 4e-4 0.1063-0.0238 0.2112-0.0706 0.3066s-0.1151 0.1787-0.1994 0.2434l-2.31 1.15 3 2.91c0.054 0.0474 0.0971 0.1059 0.1264 0.1715 0.0294 0.0655 0.0442 0.1366 0.0436 0.2085 0.0014 0.0734-0.013 0.1463-0.0424 0.2136-0.0293 0.0673-0.0729 0.1274-0.1276 0.1764l-1.59 1.7c-0.0673 0.0636-0.1482 0.1111-0.2365 0.1388-0.0884 0.0277-0.1819 0.035-0.2735 0.0212zm-3.42-4.5c0.0718-6e-4 0.143 0.0142 0.2085 0.0436 0.0656 0.0293 0.1241 0.0724 0.1715 0.1264l3.13 3.07 0.88-0.88-3.13-3c-0.06-0.066-0.1059-0.1434-0.1351-0.2276-0.0293-0.0842-0.0411-0.1735-0.0349-0.2624 0.0018-0.0845 0.0297-0.1663 0.0798-0.2344 0.0502-0.068 0.1201-0.1188 0.2002-0.1456l1.86-0.94-7.44-2.72 2.69 7.3 1-1.86c0.0286-0.0809 0.0813-0.1512 0.1511-0.2012 0.0697-0.0501 0.1531-0.0776 0.2389-0.0788l0.13 0.01zm-11.68-12.06 0.77-0.77001 3.77 3.76-0.78 0.78-3.76-3.77zm6.16-2.59h1.09v5.27h-1.09v-5.27zm2.78 5.55 3.45-3.45 0.78 0.77-3.49 3.46-0.74-0.78zm-10.96 2.52h5.49v1.09h-5.49v-1.09zm2 6.48 3.7-3.65 0.77 0.78-3.67 3.65-0.8-0.78z" fill="#005DFF" stroke="#005DFF" stroke-width=".1"/></svg>
