<?xml version="1.0" encoding="UTF-8"?>
<svg width="32" height="33" fill="none" viewBox="0 0 32 33" xmlns="http://www.w3.org/2000/svg"><path d="m16.018 24.309v5.0345c8.5032 0 15.12-8.2159 12.338-17.142-1.2369-3.8917-4.329-7.0112-8.225-8.2158-8.9053-2.7798-17.13 3.8608-17.13 12.355h5.0401c0-5.3125 5.2875-9.4514 10.915-7.4128 2.0717 0.74128 3.7414 2.4092 4.4835 4.4786 2.0408 5.6214-2.0717 10.903-7.421 10.903zm-1.8541-1.7666c-0.3216 0.4796-0.5362 1.1312-0.7771 2.3588-0.0592 0.3019-0.0642 0.3188-0.0757 0.2571-0.2561-1.3777-0.4878-2.1131-0.824-2.6154-0.4887-0.73-1.1947-1.0739-2.9116-1.4182-0.22612-0.0453-0.41279-0.0841-0.41483-0.0861-0.00203-0.0021 0.09374-0.0218 0.21282-0.0439 0.27159-0.0504 0.74804-0.1545 1.0143-0.2215 0.6225-0.1568 1.0919-0.3453 1.4502-0.5824 0.2168-0.1435 0.4905-0.416 0.6331-0.6305 0.3566-0.5362 0.5988-1.303 0.8469-2.6815 0.0029-0.0162 0.0235 0.0665 0.0458 0.1837 0.3578 1.8812 0.7089 2.6339 1.4642 3.1395 0.5031 0.3368 1.2429 0.5699 2.6153 0.8241 0.0629 0.0116 0.0541 0.0146-0.1836 0.0609-1.281 0.2496-1.9467 0.4663-2.4322 0.7918-0.2862 0.1919-0.4717 0.3774-0.6636 0.6636zm-4.224 4.8124c-0.24374 0.3636-0.40647 0.8575-0.58907 1.7881-0.04491 0.2289-0.04869 0.2417-0.05739 0.1949-0.19414-1.0444-0.36978-1.6019-0.62466-1.9826-0.37043-0.5534-0.90567-0.8141-2.2072-1.0752-0.17141-0.0343-0.31447-0.0653-0.31447-0.0653s0.07106-0.0165 0.16133-0.0332c0.20588-0.0382 0.56704-0.1171 0.76891-0.1679 0.47191-0.1189 0.82775-0.2618 1.0994-0.4415 0.16438-0.1088 0.37182-0.3154 0.47998-0.478 0.27027-0.4064 0.45388-0.9878 0.64198-2.0328 0.00221-0.0122 0.01784 0.0504 0.03473 0.1393 0.27125 1.4261 0.53738 1.9967 1.1099 2.38 0.3815 0.2553 0.9422 0.432 1.9827 0.6247 0.0477 0.0088 0.0409 0.011-0.1393 0.0462-0.971 0.1892-1.4756 0.3534-1.8437 0.6002-0.217 0.1455-0.3576 0.2861-0.50312 0.5031zm-4.0331-3.3801c0.13269-0.6761 0.25093-1.0351 0.42805-1.2993 0.10571-0.1576 0.2079-0.2598 0.36556-0.3655 0.26747-0.1793 0.63416-0.2987 1.3398-0.4362 0.13094-0.0255 0.13583-0.0271 0.10117-0.0336-0.75601-0.14-1.1635-0.2684-1.4407-0.4539-0.41606-0.2785-0.60944-0.6931-0.80654-1.7294-0.01228-0.0646-0.02363-0.1101-0.02523-0.1012-0.13669 0.7593-0.27011 1.1818-0.4665 1.4771-0.07859 0.1182-0.22933 0.2683-0.34877 0.3473-0.19739 0.1306-0.45596 0.2345-0.79887 0.3208-0.14669 0.037-0.40912 0.0943-0.55873 0.122-0.0656 0.0122-0.11835 0.0231-0.11723 0.0242s0.10395 0.0225 0.22851 0.0475c0.94576 0.1896 1.3347 0.3791 1.6039 0.7812 0.1852 0.2767 0.31283 0.6818 0.4539 1.4407 0.00632 0.034 0.00908 0.0247 0.04171-0.1417z" clip-rule="evenodd" fill="#0069FF" fill-rule="evenodd"/></svg>
