<?xml version="1.0" encoding="utf-8"?>
<svg xmlns="http://www.w3.org/2000/svg" fill="none" height="80" width="144">
  <path clip-rule="evenodd" d="m112.094 36.02-.573-.552c-.957-.923-2.177-1.162-3.746-.732-1.047.286-2.289 1.642-2.653 2.895-.43 1.478-.304 4.127.25 5.252.821 1.667 1.974 2.414 3.728 2.414 1.2 0 1.995-.315 2.596-1.029l.396-.47.002 1.323h2.954V31h-2.954zm16.393-3.948v2.645h-1.41v2.293h1.382l.059 3.25c.063 3.535.113 3.72 1.237 4.56.511.382 2.791.498 3.845.3l-.177-2.115c-1.586 0-1.939.352-1.911-3.256l-.028-2.74h2.116v-2.292h-2.116v-2.645zm-8.951 2.728c-1.08.337-1.966 1.081-2.366 1.985-.19.43-.316.813-.28.85l2.676.266c.46-.715 1.121-1.293 2.047-1.116.925.176 1.227.71 1.279.907.178.684-.227.907-2.164 1.192-2.793.411-3.711.973-4.066 2.485-.189.808.079 2.274.511 2.795 1.114 1.343 3.823 1.604 5.26.507l.59-.45v.9h2.997l-.001-3.66c-.001-2.124-.083-3.952-.196-4.36-.276-.995-1.282-1.933-2.44-2.277-1.139-.338-2.807-.349-3.847-.024m18.066-.005c-1.166.416-1.999 1.088-2.415 1.948-.217.447-.36.847-.319.889l2.641.439.487-.52c.866-.928 2.296-.912 2.826.032.403.72.02.972-1.943 1.282-3.165.498-4.058 1.117-4.187 2.899-.098 1.347.023 1.8.682 2.55.641.73 1.43 1.02 2.777 1.016 1.188-.003 1.884-.241 2.544-.87l.484-.463v1.124H144v-3.912c0-4.479-.126-5.004-1.409-5.853-1.209-.8-3.574-1.066-4.989-.56m-28.464 2.431c-.963.464-1.504 2.338-1.103 3.823.645 2.392 3.242 2.392 3.887 0 .245-.909.13-2.21-.263-2.969-.471-.913-1.604-1.296-2.521-.854m12.827 3.508c-2.122.428-2.618.767-2.399 1.64.301 1.199 2.662.957 3.199-.327.274-.655.347-1.524.126-1.492-.073.01-.49.091-.926.179m17.496.128c-.702.16-1.436.43-1.63.598-1.159 1.007.866 2.246 2.251 1.378.318-.2.655-.566.749-.815.203-.534.229-1.494.04-1.47-.073.01-.707.148-1.41.309M59.74 31.014v14.107h2.996l.004-2.866c.003-1.576.078-3.182.167-3.57.209-.902.886-1.5 1.702-1.5 1.592 0 1.829.617 1.829 4.756v3.18h2.997v-3.765c0-3.983-.084-4.536-.842-5.556-1.186-1.597-4.257-1.66-5.474-.111l-.383.486v-5.16zM2.835 34.875c-.99.343-2.15.724-2.502 2.663l2.644.353c0-.388.529-1.057 1.871-1.057 1.302 0 2.007 1.131 1.478 1.586s-1.134.317-2.077.455C1.112 39.335.172 40 .017 41.87c-.18 2.17 1.07 3.415 3.434 3.423 1.278.005 2.386-.66 3.053-1.296v1.124h2.82v-3.975c0-3.611-.032-4.037-.349-4.658-.191-.376-.594-.858-.894-1.072-1.253-.892-3.543-1.128-5.245-.54m12.873-.041a3.8 3.8 0 0 0-1.013.803l-.436.518v-1.438h-2.82v10.404h2.996v-3.36c0-3.745.353-4.176.881-4.552.53-.376 1.058-.33 1.587 0s.703 1.06.704 4.782l.001 3.13h2.8l.054-3.513c.053-3.419-.034-3.011.319-3.893.352-.882 1.939-.706 2.292-.353s.528.697.528 4.4v3.359H26.6v-3.97c0-3.694-.026-4.025-.379-4.776-.995-2.118-4.193-2.481-5.793-.658-.302.343-.503.622-.526.587-.024-.034-.246-.31-.416-.581-.697-1.115-2.471-1.532-3.776-.89m15.89-.042c-3.64 1.14-4.568 6.764-1.554 9.417.934.823 2.021 1.164 3.628 1.14 2.844-.044 4.695-1.948 4.877-5.016.114-1.944-.292-3.137-1.472-4.323-.673-.675-1.15-.983-1.847-1.19-1.117-.332-2.623-.343-3.631-.028m12.98-.053c-.242.096-.658.383-.925.638l-.485.464v-1.124h-2.996v10.404h2.975l.055-3.348.054-3c0-1.064 1.249-1.498 2.208-1.493l1.053.006v-2.745l-.749.011c-.412.006-.947.09-1.19.187m6.346 1.282v-1.304H47.93V49h2.996v-5.161c.529.672 1.77 1.458 2.987 1.458 2.52 0 4.047-1.798 4.205-4.954.128-2.55-.73-4.508-2.34-5.34-.797-.411-3.089-.991-4.852 1.018m23.51-1.229c-3.64 1.14-4.569 6.764-1.555 9.417.934.823 2.022 1.164 3.629 1.14 2.844-.044 4.694-1.948 4.876-5.016.115-1.944-.291-3.137-1.472-4.323-.672-.675-1.15-.983-1.847-1.19-1.116-.332-2.622-.343-3.63-.028m22.402.1c-1.706.676-2.606 2.178-2.203 3.672.384 1.42 1.15 1.933 3.733 2.497 1.853.404 2.43.783 2.108 1.386-.478.893-2.66 1.263-3.541-.677-.818.083-2.644.353-2.644.353 0 .425.65 1.797 1.256 2.274.824.649 2.13 1.08 3.68 1.076 2.949-.006 4.406-1.431 4.406-3.614 0-1.63-.91-2.396-3.499-2.942-1.884-.398-2.494-.69-2.494-1.196 0-.873 1.804-1.215 2.538-.481.224.224.42.541.459.651l2.82-.176c-.176-1.058-1.09-2.156-1.952-2.637-1.083-.605-3.38-.697-4.667-.187M83.01 38.375c0 2.095.083 3.96.194 4.364.431 1.581 1.736 2.546 3.451 2.553 1.146.005 1.751-.22 2.48-.923l.573-.553v1.304h2.996V34.717h-2.996l-.001 2.954c-.002 3.159-.149 4.073-.746 4.63-.46.428-1.646.472-2.204.081-.6-.42-.75-1.342-.75-4.623l-.001-3.042h-2.997zm-50.75-.914c-1.482 1.247-1.092 4.765.59 5.325.583.194.757.183 1.305-.088.917-.452 1.309-1.244 1.316-2.664.005-.857-.093-1.367-.364-1.889-.615-1.188-1.886-1.494-2.847-.684m19.882-.189c-.713.388-1.076 1.099-1.172 2.296-.16 1.984.662 3.26 2.099 3.26.967 0 1.623-.669 1.893-1.929.542-2.529-1.057-4.585-2.82-3.626m22.953.189c-1.482 1.247-.9 4.308-.195 5.014.705.705 2.115.529 2.644 0 .53-.53.755-1.021.763-2.44.004-.858-.094-1.368-.364-1.89-.616-1.188-1.886-1.494-2.848-.684m-70.336 3.4c-1.02.228-1.504.185-1.78.556-.33.444-.267 1.003 0 1.41.324.494 1.166.523 1.939.353.768-.169 1.41-1.109 1.41-1.953 0-.38-.06-.684-.132-.675s-.72.148-1.437.309" fill="#fff" fill-rule="evenodd"/>
</svg>