<?xml version="1.0" encoding="utf-8"?>
<svg xmlns="http://www.w3.org/2000/svg" fill="none" height="80" width="144">
  <path clip-rule="evenodd" d="M38.843 30.262c-.71.386-1.026.894-1.07 1.719-.04.72.08 1.116.484 1.615.378.468.859.687 1.508.687 1.23 0 2.105-.868 2.105-2.087 0-1.682-1.606-2.708-3.027-1.934m24.328.194c-.786.274-1.27.567-1.743 1.061-.806.84-1.27 2.15-1.273 3.6l-.001.69H57.96v3.238h2.194v10.669h3.474V39.05l1.348-.026 1.349-.026.025-1.596.025-1.595h-2.773l.061-.643c.127-1.34.749-1.99 1.817-1.897.304.026.666.131.858.25.183.112.379.186.435.163.143-.057 1.243-1.917 1.243-2.102 0-.22-.78-.78-1.417-1.02-.788-.295-2.708-.352-3.428-.102M.023 40.117l.024 9.55 1.76.025 1.76.026v-1.699l.528.538c1.012 1.03 2.276 1.495 3.858 1.419 1.21-.058 1.998-.322 2.926-.977 1.17-.827 1.951-2.056 2.393-3.762.182-.704.208-1.028.204-2.477-.004-1.412-.035-1.783-.205-2.429-.394-1.492-1.161-2.833-2.046-3.576-.589-.493-1.58-.984-2.295-1.137-.677-.144-1.904-.142-2.49.004-.76.19-1.7.713-2.302 1.28l-.572.54v-6.874H0zm119.158-8.059c-.034.036-.063.894-.063 1.907v1.842h-2.194v3.238h2.194l.002 3.787c.001 4.14.05 4.669.515 5.558.309.591.736.992 1.399 1.31.438.21.664.249 1.659.282 1.214.041 1.838-.072 2.547-.464.592-.326.576-.252.286-1.334a160 160 0 0 1-.37-1.4l-.103-.404-.358.19c-.688.366-1.483.188-1.832-.41-.169-.286-.179-.5-.179-3.71l-.001-3.405h2.652v-3.239h-2.648l-.024-1.88-.025-1.882-1.697-.026c-.933-.014-1.725.004-1.76.04m-67.499 3.474c-1.27.123-2.618.747-3.587 1.66l-.374.352v-1.737h-3.567l.024 6.93.023 6.93 1.76.025 1.76.026v-9.415l.43-.442c.236-.243.698-.58 1.026-.748.557-.285.66-.306 1.559-.306.884 0 .996.021 1.39.262.497.305.76.623.913 1.107.077.243.12 1.706.144 4.942l.034 4.596h3.569l-.037-5.358c-.04-5.746-.049-5.86-.532-6.847-.72-1.472-2.364-2.188-4.535-1.977m-29.74.139a6 6 0 0 0-2.675 1.547l-.434.44v-1.851h-3.474v13.907h3.474v-9.138l.284-.337c.358-.425 1.595-1.067 2.321-1.205a4.6 4.6 0 0 1 1.12-.044l.572.06v-3.529l-.343.006a4.4 4.4 0 0 0-.846.143m6.307-.013c-.677.148-1.558.48-2.289.863-.598.313-1.663 1.086-1.624 1.178.111.264 1.288 2.4 1.341 2.434.037.024.25-.108.474-.294a5.15 5.15 0 0 1 3.28-1.2c.954-.005 1.682.2 2.21.622.621.497.761.88.8 2.204l.033 1.134-.444-.385c-2.04-1.77-5.687-1.642-7.375.258-1.813 2.04-1.137 5.712 1.29 6.993 1.823.964 4.645.586 6.105-.817l.404-.387v1.453h3.577l-.034-5.025c-.03-4.36-.054-5.097-.188-5.574-.481-1.717-1.462-2.727-3.218-3.313-.538-.18-.888-.218-2.194-.243-1.063-.021-1.741.01-2.148.1m43.771.01c-2.673.623-4.633 2.667-5.201 5.425-.184.89-.138 2.713.09 3.608.633 2.487 2.23 4.252 4.535 5.015.862.285 2.896.368 3.852.157 3.987-.882 6.192-4.684 5.248-9.05-.5-2.308-2.309-4.307-4.528-5.001-.947-.297-3.039-.377-3.996-.154m17.113.005c-.815.225-1.756.739-2.404 1.312l-.605.535-.027-.833-.026-.833-1.76-.026-1.76-.025v13.911h3.565v-9.261l.33-.315c.803-.767 2.16-1.248 3.258-1.156l.618.052v-3.513l-.343.006c-.189.004-.57.07-.846.146m6.87.028c-2.824.747-4.83 3.164-5.125 6.174-.317 3.238 1.12 6.13 3.68 7.403 1 .498 1.609.637 3.031.693 1.48.058 2.412-.084 3.676-.56.676-.256 2.129-1.134 2.129-1.288 0-.038-1.307-2.105-1.512-2.391-.011-.016-.277.143-.589.354-1.498 1.009-3.386 1.22-4.815.538-.908-.434-1.751-1.463-1.92-2.347L94.504 44h9.922l-.052-1.215c-.152-3.536-1.742-6.044-4.4-6.943-1.01-.342-2.95-.41-3.971-.14m12.968.01c-1.528.426-2.673 1.301-3.221 2.46-.283.598-.299.688-.298 1.682 0 .954.024 1.104.263 1.642.346.783 1.041 1.466 1.927 1.892.624.3 1.469.541 3.797 1.081 1.413.328 1.922.743 1.793 1.461-.207 1.15-1.974 1.539-3.987.875-.926-.305-1.414-.553-2.222-1.13l-.604-.43-.735 1.272c-.405.7-.735 1.31-.734 1.354.002.131.909.79 1.553 1.128.783.412 1.884.767 2.812.909.979.149 3.086.074 3.815-.136 1.513-.436 2.647-1.302 3.179-2.428.282-.597.295-.676.293-1.723-.003-1.342-.192-1.93-.87-2.703-.768-.876-1.831-1.354-4.154-1.87-1.746-.39-2.18-.531-2.511-.822-.33-.289-.36-.611-.099-1.057.718-1.227 3.75-.946 5.459.507l.382.325.709-1.299.709-1.299-.314-.272c-.448-.389-1.841-1.09-2.646-1.33-1.024-.308-3.338-.355-4.296-.088m-70.94 7.05v6.953h3.565V35.807h-3.565zm58.628-4.156a3 3 0 0 0-1.355.93c-.394.453-.775 1.254-.776 1.63l-.001.262h6.511l-.061-.358c-.172-1.014-.92-1.942-1.866-2.317-.653-.258-1.907-.334-2.452-.147m-91.127.288a3.8 3.8 0 0 0-1.563.966l-.403.42v5.037l.423.388c1.81 1.66 4.47 1.26 5.436-.818.308-.664.447-1.354.448-2.235.002-1.818-.781-3.153-2.174-3.701-.56-.22-1.59-.248-2.167-.057m67.283-.044c-.328.084-.931.411-1.196.65-1.558 1.4-1.718 4.545-.314 6.147.602.686 1.283 1.025 2.191 1.09 1.542.11 2.745-.702 3.29-2.218.72-2.007.165-4.288-1.275-5.235-.687-.452-1.875-.643-2.696-.434m-44.11 4.667c-1.367.433-1.96 1.892-1.216 2.993.857 1.271 3.442 1.342 4.668.128.293-.29.297-.307.297-1.163 0-.825-.012-.88-.251-1.11-.648-.62-1.54-.941-2.577-.929-.38.005-.795.041-.92.081m99.251 1.97c-1 .32-1.649 1.475-1.435 2.549.217 1.092.961 1.829 1.954 1.936 1.341.144 2.439-.894 2.434-2.3-.002-.702-.21-1.207-.696-1.692-.612-.611-1.37-.776-2.257-.492" fill="#fff" fill-rule="evenodd"/>
</svg>