<?xml version="1.0" encoding="utf-8"?>
<svg xmlns="http://www.w3.org/2000/svg" fill="none" height="608" width="1056">
  <g clip-path="url(#a)">
    <path d="M0 0h1056v608H0z" fill="url(#b)"/>
    <path d="M1294.34 136.498c-119.68 94.604-266.9 173.743-435.59 208.328-197.418 40.467-346.849 57.428-536.446 0C194.96 306.254 47.83 213.759-84.684 193.521v589.294H1294.34z" fill="url(#c)" opacity=".5"/>
    <path d="M1240.58-35A9472 9472 0 0 1 1059.2 83.344c-33.17 21.11-66.788 42.181-104.788 58.216-107.942 45.533-241.378 45.89-362.577 25.527S357.104 107.382 240.049 76.53-2.381 23.044-125 37.9V-35H10.662S613.743 229.926 1138.2-35z" fill="url(#d)" opacity=".4"/>
    <path d="M915.34 287c89.29 0 161.66 71.56 161.66 159.859 0 11.028-1.16 21.841-3.36 32.27-160.119-19.154-345.307-30.093-542.629-30.093-210.256 0-406.734 12.419-573.788 33.964A156.7 156.7 0 0 1-47 446.859C-47 358.56 25.366 287 114.66 287c61.151 0 114.262 33.687 141.769 83.277 17.351-10.044 37.029-16.32 58.612-16.321 44.858 0 83.157 25.528 102.201 62.563 10.156-5.65 21.795-8.997 34.279-8.997 27.719 0 51.417 15.693 63.478 38.291 12.061-22.807 35.761-38.291 63.48-38.291 12.484 0 24.122 3.348 34.278 8.997 19.044-37.035 57.343-62.562 102.201-62.563 21.583 0 41.474 6.277 58.613 16.321C800.867 320.687 854.189 287 915.34 287" fill="url(#e)"/>
    <ellipse cx="528.5" cy="635.5" fill="url(#f)" rx="938.5" ry="197.5"/>
    <path d="M759.185 200.473s8.985 30.578-31.655 40.125c-32.631 7.667-32.687 35.116-31.435 45.646.946 7.96-.815 16.055-5.277 22.702-10.682 15.932-25.677 20.285-41.598 27.027s-27.578 24.566-19.298 40.592c17.101 33.108-4.261 55.084-4.261 55.084l5.472 5.828s32.165-30.465 15.678-61.932 27.398-39.787 27.398-39.787c38.759-5.839 49.224-23.737 50.342-39.55.642-9.087 5.324-17.381 12.538-22.939 14.215-10.942 32.856-33.533 22.102-72.802z" fill="#D5F0C3"/>
    <path d="M747.103 232.283c1.104 5.539.366 12.994-7.284 17.528-3.658 2.167-7.747 4.316-11.745 6.288l-3.956 5.124c-2.692 3.648-8.076 12.465-8.077 18.552s-4.759 16.485-7.139 20.923l-9.036 10.937c-4.525 7.177-8.896 19.391 9.108 11.791-7.686 5.491-18.834 9.929-34.761 12.328 0 0-43.886 8.321-27.398 39.788 16.487 31.466-15.678 61.932-15.678 61.932l-5.473-5.828s21.363-21.976 4.262-55.085c-8.28-16.025 3.377-33.85 19.298-40.591 15.921-6.742 30.915-11.095 41.597-27.028 4.462-6.646 6.223-14.741 5.278-22.701-1.253-10.53-1.196-37.979 31.434-45.646 3.721-.874 7.025-1.925 9.958-3.112l.086-.035.426-.176.313-.13.306-.131.396-.173.233-.103.319-.145q.668-.303 1.308-.616.14-.067.279-.136l.256-.129.367-.187.243-.126q.214-.112.424-.225l.155-.083.437-.24.198-.109q.254-.143.503-.287l.232-.136a39 39 0 0 0 1.16-.706l.287-.183.224-.144q.755-.493 1.46-1" fill="#B1E490"/>
    <path d="M708.082 249.982c-5.898 15.703-5.792 37.665 8.895 22.184-1.902 10.271-3.011 16.643-3.328 18.545-2.695 8.084-12.079 25.013-28.056 28.057-4.275 7.175-6.139 18.259 18.88 7.511-7.361 4.166-17.207 7.506-30.269 9.473 0 0-43.884 8.321-27.397 39.788 16.477 31.449-15.642 61.897-15.679 61.932l-5.472-5.828c.025-.025 21.352-21.996 4.261-55.085-8.279-16.025 3.377-33.85 19.298-40.591 15.921-6.742 30.916-11.095 41.598-27.027 4.462-6.646 6.223-14.741 5.278-22.702-.926-7.782-1.136-24.807 11.991-36.257" fill="#80D34A"/>
    <path d="M649.412 381.6c9.866 29.157-18.179 55.787-18.276 55.879l-5.472-5.828c.073-.075 17.511-18.093 8.116-46.043 4.865-.523 11.487-1.761 15.632-4.008" fill="#000C2A"/>
    <path d="M761.039 208.625c.954 5.207 1.362 10.1 1.335 14.675a42 42 0 0 1-1.454 4.485 40.5 40.5 0 0 1-6.948 11.675c-3.489 4.078-7.905 7.197-12.378 10.094-4.645 3.008-9.477 5.804-13.652 9.473-3.683 3.245-6.521 7.138-8.383 11.681-3.445 8.41-4.162 17.631-7.408 26.105-1.775 4.637-4.861 9.468-8.473 12.922-3.953 3.793-16.294 10.641-23.803 11.001a53 53 0 0 0 1.542-1.251c3.492-1.373 8.599-3.528 10.678-4.785 3.492-2.111 9.848-6.082 13.327-10.652 2.656-3.484 4.354-7.536 5.61-11.71 2.575-8.522 3.508-17.606 7.638-25.607 2.374-4.585 5.906-8.354 9.973-11.496l-.025-.013c4.398-3.391 9.235-6.141 13.838-9.234 4.094-2.754 7.987-5.883 10.975-9.842a38.4 38.4 0 0 0 5.948-11.55c1.629-5.126 2.215-10.615 1.66-15.971" fill="#1433D6"/>
    <path d="M730.469 280.108c-3.384 4.686-5.488 10.227-5.903 16.101-.546 7.717-3.319 15.93-10.519 22.996 3.738-5.472 4.868-11.641 5.319-18.028.532-7.534 5.358-15.424 11.103-21.069m28.738-79.639c9.196 33.58-3.106 54.964-15.751 67.297 7.92-9.884 13.861-24.389 12.586-45.069 6.438-10.943 3.18-22.146 3.158-22.222z" fill="#fff"/>
    <path d="M623.087 454.627c7.319-8.715 19.991-10.65 31.351-9.95s22.781 3.4 34.009 1.53 22.615-10.231 22.856-21.613c.147-7.331-4.224-13.855-7.58-20.379s-5.689-14.748-1.714-20.912c2.344-3.63 6.457-5.749 10.583-7.042 8.447-2.642 17.466-2.488 26.32-2.681 8.848-.187 17.982-.83 25.872-4.854 7.883-4.018 14.243-12.246 13.506-21.067-.587-7.018-5.156-15.035-.504-20.331 2.474-2.811 6.562-3.341 10.11-4.555 6.613-2.261 12.112-7.575 14.587-14.11 1.861-4.905 2.14-10.494 5.183-14.768 3.307-4.646 9.117-6.68 14.608-8.214 10.257-2.864 20.801-4.956 30.559-9.218 9.758-4.263 18.906-11.098 23.316-20.79 0 0-12.922 21.595-60.565 3.73-5.903-2.216-13.965-1.138-17.326 4.199-2.415 3.847-1.316 8.969-2.981 13.202-3.126 7.935-13.757 9.12-22.254 8.413s-18.638-1.35-23.846 5.396c-2.278 2.953-3.058 6.781-3.581 10.481-1.975 13.874-1.665 28.847-9.35 40.562-8.386 12.799-24.216 18.39-39.222 21.388-4.248.856-8.72 1.646-12.108 4.351-6.332 5.055-6.457 14.572-5.105 22.552 1.345 7.986 3.531 16.561.069 23.885-2.804 5.917-8.831 9.696-14.996 11.913s-12.717 3.193-18.893 5.358a52.2 52.2 0 0 0-19.411 12.135l-6.488 8.16 3.015 3.21z" fill="#D5F0C3"/>
    <path d="M816.371 272.647c-4.087 2.726-10.859 14.292-8.475 20.955l-.223.3q-.2.283-.385.574l-.147.232q-.037.06-.072.121-.087.143-.17.288l-.088.158q-.073.13-.144.264l-.084.162-.132.257-.042.088q-.085.174-.166.349l-.044.096q-.072.156-.141.315l-.108.258-.071.168-.092.229-.098.251-.048.131-.118.319-.068.196-.098.284-.041.121-.091.279q-.067.21-.13.422-.084.27-.164.54-.056.192-.11.386l-.15.54-.081.306c-.216.813-.421 1.634-.627 2.454a74 74 0 0 1-.739 2.765 33 33 0 0 1-.542 1.688c-4.225 3.091-9.703 5.262-13.891 5.875-16.199 2.371-18.417 10.063-12.982 20.906q.035.363.085.731l.022.148q.04.297.089.596l.029.176q.05.297.107.596.014.079.03.157c.148.769.323 1.546.509 2.327.226.948.465 1.902.692 2.854.416 1.742.785 3.478.926 5.157q.093 1.14.035 2.262a17 17 0 0 1-.229 2.057c-1.219 7.112-6.736 13.395-13.313 16.747-3.538 1.805-7.327 2.929-11.228 3.637-4.797.871-9.763 1.114-14.643 1.217-5.258.115-10.573.108-15.792.636q-.767.077-1.531.171c-3.048.375-6.058.955-8.998 1.874-4.125 1.293-8.238 3.413-10.582 7.042a12.5 12.5 0 0 0-1.272 2.587q-.143.399-.259.804c-1.6 5.588.473 12.134 3.244 17.521 3.356 6.524 7.727 13.048 7.58 20.38-.242 11.381-11.628 19.742-22.856 21.612a46 46 0 0 1-3.63.449q-.583.051-1.168.087-.276.019-.552.035c-3.468.18-6.95.027-10.439-.268-5.71-.484-11.438-1.349-17.154-1.761q-.532-.038-1.066-.071-.491-.03-.986-.054l-.266-.011-.748-.03-.322-.009-.651-.015-.384-.007-.655-.004-.351-.002q-.474.002-.949.011l-.361.009q-.32.007-.643.017l-.404.017-.644.03-.332.018q-.375.022-.749.049l-.283.02a53 53 0 0 0-3.021.321l-.313.043q-.345.05-.689.104l-.313.049q-.976.161-1.938.364l-.323.071q-.348.075-.695.158-.192.044-.384.092l-.269.068q-.318.08-.633.167l-.266.074q-.323.09-.644.187l-.055.016-.075.024q-.319.096-.634.198l-.183.06q-.336.112-.668.229l-.194.07a38 38 0 0 0-.696.259 34 34 0 0 0-1.491.62l-.202.093a31 31 0 0 0-1.307.633l-.197.102a24 24 0 0 0-.797.437q-.215.123-.428.25-.113.065-.226.134-.266.162-.529.329l-.234.153q-.217.143-.433.29l-.137.093-1.106-7.215q.497-.492 1.008-.969a51 51 0 0 1 2.94-2.549q.441-.357.892-.704.243-.185.488-.369.603-.45 1.217-.884a52.2 52.2 0 0 1 12.816-6.611c6.176-2.165 12.729-3.142 18.894-5.358 6.165-2.217 12.192-5.996 14.996-11.913 3.245-6.866 1.527-14.832.192-22.381l-.261-1.504c-.73-4.308-1.027-9.064-.151-13.325.746-3.63 2.343-6.901 5.256-9.227 2.698-2.154 6.084-3.091 9.497-3.816q.897-.191 1.793-.37l.818-.164.941-.194q1.266-.261 2.537-.55 1.615-.366 3.229-.78a102 102 0 0 0 4.474-1.255c11.213-3.435 21.733-8.983 28.041-18.61 7.685-11.716 7.374-26.689 9.349-40.562.524-3.7 1.304-7.528 3.581-10.481 5.209-6.746 15.35-6.103 23.846-5.396s19.129-.478 22.255-8.414c1.665-4.232.566-9.352 2.98-13.199-2.978 9.038 9.409 14.834 18.106 9.036" fill="#B1E490"/>
    <path d="m623.107 454.621.009-.01.001.002zm185.159-172.937c-3.107 4.751-8.641 14.558-18.014 17.115-2.077.566-4.361.983-6.721 1.413-9.522 1.737-20.282 3.7-23.711 16.657l-.346 1.303c-4.074 15.431-6.751 25.572-22.48 34.361-3.322 1.856-7.104 3.732-11.002 5.665-15.078 7.478-31.881 15.811-30.369 27.146.722 5.417 3.402 10.834 6.543 15.489a44 44 0 0 0 1.569 3.388c.57 1.109 1.17 2.218 1.772 3.331 2.557 4.728 5.152 9.527 5.704 14.702q.105.976.107 1.969l-.002.376a17.4 17.4 0 0 1-1.544 6.781 19 19 0 0 1-.319.68c-3.71 7.482-12.398 12.717-20.993 14.148-11.228 1.87-22.648-.829-34.009-1.529-11.351-.699-24.01 1.232-31.333 9.93l-3.013-3.209 6.487-8.157a52.2 52.2 0 0 1 19.41-12.135c3.023-1.059 6.137-1.835 9.251-2.61 3.247-.808 6.496-1.617 9.643-2.748 6.165-2.217 12.191-5.996 14.995-11.912l.015-.031c.452-.962.806-1.945 1.079-2.946q.04-.149.078-.299.05-.192.096-.385l.054-.245q.049-.217.092-.435l.041-.217q.148-.79.239-1.593l.02-.171q.025-.237.045-.476l.017-.208q.02-.243.033-.488l.011-.182c.158-3.019-.185-6.129-.676-9.231l-.025-.154c-.367-2.295-.807-4.585-1.185-6.828-1.141-6.733-1.231-14.561 2.573-19.879a13.3 13.3 0 0 1 2.53-2.671c1.59-1.269 3.419-2.117 5.352-2.747q.064-.022.13-.042c1.373-.44 2.796-.774 4.221-1.073l.306-.064q.737-.152 1.471-.297l.627-.127c15.006-2.998 30.837-8.589 39.223-21.388q.158-.242.312-.486a40 40 0 0 0 .348-.563l.069-.114a42 42 0 0 0 .773-1.353l.089-.162a42 42 0 0 0 .47-.905q.183-.361.357-.727l.063-.133q.195-.411.379-.826l.053-.121a43 43 0 0 0 .7-1.686l.068-.176q.324-.839.614-1.692l.061-.182c.481-1.432.896-2.89 1.259-4.368l.133-.552a56 56 0 0 0 .263-1.162q.26-1.2.484-2.415l.064-.348.102-.582.099-.585.103-.627.062-.397q.183-1.179.344-2.365l.069-.516c.766-5.822 1.193-11.767 2.012-17.522.214-1.512.474-3.044.858-4.53q.06-.232.122-.46c.26-.933.573-1.844.963-2.715.44-.982.975-1.914 1.637-2.773l.07-.088c5.228-6.654 15.317-6.015 23.778-5.311 3.313.275 6.949.26 10.34-.327-6.491 12.665 17.244 6.589 24.89-3.208m.802-1.132q-.364.573-.802 1.132c.361-.552.688-1.036.985-1.432z" fill="#80D34A"/>
    <path d="M709.637 431.653c-3.595 7.696-12.438 13.094-21.186 14.551-11.228 1.87-22.648-.83-34.008-1.53-7.659-.472-15.914.254-22.723 3.447l-3.595-6.351a52.3 52.3 0 0 1 17.871-10.67c6.176-2.165 12.728-3.142 18.893-5.358a38 38 0 0 0 4.74-2.066c-15.564 13.101 15.74 29.735 40.008 7.977" fill="#000C2A"/>
    <path d="M694.677 380.262c-.552 1.521-3.347 11.261 9.017 23.624-17.595-27.58 4.435-35.152 11.745-38.432 7.71-3.467 15.451-6.675 22.534-11.358 6.74-4.461 12.946-10.051 16.913-17.185 3.809-6.847 4.474-14.628 7.223-21.858 1.262-3.341 3.164-6.468 6.088-8.612 2.693-1.977 5.974-2.928 9.195-3.608 6.585-1.383 13.743-1.688 19.391-5.75 6.799-4.892 9.152-13.544 15.31-19.012 5.798-5.157 14.045-5.544 21.413-5.719 8.046-.186 16.004-.64 23.787-2.91 5.212-1.523 10.318-3.773 14.711-6.996 1.636-2.075 3.045-4.325 4.143-6.759 0 0-2.899 4.84-11.009 8.043-8.709 4.392-19.212 5.846-28.72 6.051-7.497.158-15.599.071-22.343 3.834-7.428 4.142-10.109 12.324-15.472 18.412-2.426 2.755-5.401 4.659-8.9 5.751-3.29 1.021-6.718 1.495-10.097 2.087-3.328.58-6.666 1.283-9.743 2.718-3.155 1.471-5.788 3.793-7.677 6.72-4.103 6.347-4.616 14.21-7.111 21.202-2.786 7.805-8.407 14.098-14.929 19.031-6.74 5.101-14.419 8.777-22.15 12.088-7.489 3.21-15.621 6.722-20.585 13.514-1.155 1.573-2.037 3.316-2.702 5.144z" fill="#1433D6"/>
    <path d="M876.157 255.676c-4.246 9.332-12.885 16.014-22.232 20.302q-.539.248-1.081.486-.604.262-1.211.514a94 94 0 0 1-7.123 2.611q-1.247.404-2.503.783c-3.829 1.157-7.714 2.159-11.599 3.159l1.53-.666c6.733-2.962 33.289-16.133 21.987-14.506-21.69 3.122-42.21-13.038-53.937-6.796 3.914-3.537 10.55-4.055 15.604-2.158 47.396 17.773 60.431-3.508 60.565-3.729" fill="#fff"/>
    <path d="M766.313 359.019c1.482.21 3.145-2.891 3.715-6.925s-.171-7.473-1.653-7.682-3.145 2.891-3.714 6.925c-.57 4.034.17 7.473 1.652 7.682" fill="#D5F0C3"/>
    <path d="M700.875 435.249c1.85.559 4.362-2.34 5.611-6.475s.761-7.94-1.089-8.499c-1.85-.558-4.362 2.341-5.611 6.476s-.761 7.939 1.089 8.498" fill="#B1E490"/>
    <path d="M820.68 360.285s-3.355 21.85-35.723 27.479c-32.367 5.629-49.195 10.075-57.705 32.058s9.145 53.598 9.145 53.598-3.609-34.071 10.09-49.934c17.403-20.151 45.338-14.211 61.369-25.647 17.201-12.269 13.298-29.494 12.824-37.554" fill="#D5F0C3"/>
    <path d="M774.482 389.672c-23.729 4.597-23.253 16.187 10.552 16.187-13.371 2.744-27.922 5.323-38.547 17.626-13.628 15.78-10.128 49.578-10.091 49.931-.112-.201-6.253-11.267-9.499-24.799a79 79 0 0 1-1.119-5.502c-1.263-7.644-1.316-15.688 1.279-22.776l.195-.518c7.54-19.476 21.609-25.185 47.23-30.149" fill="#B1E490"/>
    <path d="M730.313 413.285q-.007.294-.007.589c0 8.188 4.217 15.347 10.506 19.239-6.875 17.021-4.418 40.277-4.415 40.307-.039-.071-17.645-31.64-9.145-53.598.92-2.376 1.938-4.547 3.061-6.537" fill="#80D34A"/>
    <path d="M820.681 360.287c.253 4.306 1.484 11.226-.046 18.609a33 33 0 0 1-.374 1.594c-1.557 5.952-5.051 12.104-12.404 17.349-3.95 2.818-8.624 4.579-13.685 5.937 3.212-1.64 6.485-3.513 9.884-5.937 11.889-8.481 14.809-23.652 7.378-22.108 7.914-7.424 9.209-15.221 9.245-15.442z" fill="#fff"/>
    <path d="M735.496 476.881s11.611-31.588 39.508-20.684 34.792-6.148 34.792-24.467c-7.688 10.677-13.394 20.682-41.925 8.774-28.532-11.907-32.375 36.358-32.375 36.358z" fill="#D5F0C3"/>
    <path d="M743.125 449.858c7.147-9.352 13.462-9.826 21.89-3.645s25.677 9.034 32.334 3.645c-1.428 2.378-7.133 9.193-15.584 8.555-2.103-.542-4.354-1.274-6.762-2.215-21.446-8.382-33.265 8.349-37.585 16.535l.842-10.671c1.135-4.055 2.706-8.384 4.865-12.204" fill="#B1E490"/>
    <path d="M748.368 450.49c5.524-2.761 18.623-3.741 20.748 3.964-15.467-3.067-25.081 7.463-29.885 15.123l-2.2-2.539c1.07-4.989 2.828-11.092 5.644-16.364.746.907 2.422 1.452 5.693-.184" fill="#80D34A"/>
    <path d="M788.431 459.548c16.786 1.193 21.364-12.892 21.364-27.818q-.433.602-.859 1.199c-1.055 1.476-2.089 2.924-3.171 4.285-.996 11.537-5.492 21.409-17.334 22.334m2.174-13.689c-5.469.315-12.686-1.161-22.735-5.355-5.575-2.326-10.208-2.355-14.054-.896 3.002-.287 6.401.241 10.25 1.848 12.57 5.245 20.709 6.054 26.539 4.403" fill="#fff"/>
    <path d="M880.506 509.489c7.052-.829 13.468-3.405 13.254-5.23s-6.979-2.211-14.031-1.382c-7.051.828-12.594 2.98-12.38 4.806.215 1.826 6.105 2.634 13.157 1.806" fill="#000C2A"/>
    <path d="M883.161 506.991c6.019 0 10.899-1.518 10.899-3.39s-4.88-3.39-10.899-3.39c-6.02 0-10.899 1.518-10.899 3.39s4.879 3.39 10.899 3.39" fill="#C6E3FF"/>
    <path d="M887.177 503.422c2.602.359 4.798.016 4.905-.764.108-.781-1.914-1.704-4.516-2.062-2.601-.358-4.798-.016-4.905.765-.108.78 1.914 1.703 4.516 2.061" fill="#fff"/>
    <path d="M792.121 505.179s-5.354-34.972-75.37-35.661c-36.43-.354-91.724 43.858-75.364 58.962 16.36 15.103 165.475 7.133 154.063-26.629z" fill="#000C2A"/>
    <path d="M795.134 502.454s-7.117-40.717-74.97-41.406c-35.305-.354-89.278 32.913-73.424 48.019 15.855 15.106 161.529 23.897 148.394-6.631z" fill="#0069FF"/>
    <path d="M745.246 463.471c44.628 8.871 49.891 38.984 49.891 38.984v-.019c.866 2.014 1.041 3.856.608 5.537a58 58 0 0 1-13.135 1.486c-23.636 0-42.798-13.838-42.798-30.909 0-5.476 1.975-10.618 5.434-15.079" fill="#C6E3FF"/>
    <path d="M685.91 468.342h.007c-27.931 46.823 62.452 56.334 102.872 46.823-49.93 25.679-130.651 4.762-142.049-6.098-11.122-10.597 12.117-30.13 39.17-40.725" fill="#000C2A"/>
    <path d="M745.52 463.484c53.737 19.346 44.376 51.037 44.376 51.037 5.229-3.049 7.284-6.122 6.022-12.67 0 0-5.825-29.561-50.398-38.367-.01 0 0 0-.004.001 0 0 .014 0 .004-.001" fill="#fff"/>
    <path d="M309.787 419.348c-11.195-1.104-22.646-.104-33.625-2.573-5.703-1.274-11.412-3.528-15.429-7.776s-5.928-10.842-3.435-16.141c1.672-3.519 5.07-6.024 8.767-7.217 3.696-1.194 7.715-1.193 11.562-.657 3.519.485 6.964 1.418 10.32 2.597 3.991 1.399 7.813 3.218 11.483 5.318 8.549 4.902 26.412 16.181 37.365 30.459l-2.077-3.777-3.654-7.103c-4.803-9.507-9.267-19.148-13.356-28.975a9.14 9.14 0 0 0-3.064-3.929c-11.383-8.465-24.495-14.177-37.775-18.394-14.957-4.739-31.078-8.18-42.858-19.171-3.735-3.503-7.038-7.956-7.686-12.968-1.033-7.952 5.135-15.033 12.517-16.892s15.45.442 22.615 3.968c12.94 6.361 24 16.578 33.16 28.075 7.076 8.863 13.097 18.522 18.764 28.365a426 426 0 0 1-6.724-18.863 404 404 0 0 1-8.734-30.461c-1.501-6.24-2.866-12.483-4.015-18.791-1.361-7.523-3.647-14.868-6.756-21.87-4.093-9.256-7.846-18.646-10.56-28.328-3.973-14.074-5.755-28.867-3.274-42.862 1.384-7.733 4.294-15.487 10.213-20.191 5.918-4.705 15.401-5.371 21.291.182 3.735 3.503 5.433 8.746 6.063 13.785 2.004 15.823-4.804 30.585-9.817 45.183-2.588 7.532-4.715 15.317-6.035 23.266-1.718 10.378-1.38 20.998.657 31.313 1.199 5.978 2.602 11.941 4.114 17.882a404 404 0 0 0 2.759 10.038c-2.155-21.571 4.957-46.118 8.675-57.132 1.521-4.541 3.415-8.925 5.724-13.046 1.958-3.46 4.178-6.743 6.805-9.693 2.871-3.226 6.249-6.069 10.269-7.599 4.019-1.529 8.777-1.603 12.804.451 6.055 3.101 9.364 10.544 9.143 17.322-.225 6.756-3.384 12.868-7.235 18.11-7.441 10.066-17.86 17.238-26.52 26.193-6.601 6.845-10.881 12.945-13.64 17.93-3.52 6.364-4.182 13.935-1.934 20.853a380 380 0 0 0 2.264 6.755 432 432 0 0 0 11.396 29.468c4.173 9.674 8.752 19.201 13.64 28.555l3.721 6.976 3.889 6.898c.251.476.525.949.799 1.421-5.246-12.39-12.015-30.193-13.154-42.005-1.539-15.663.096-32.029 8.244-46 2.251-3.836 5.089-7.58 9.132-9.936s9.518-3.093 13.64-.898c3.562 1.893 5.577 5.59 6.781 8.988 1.299 3.654 1.788 7.486 1.749 11.307a53.5 53.5 0 0 1-3.388 18.051c-3.098 8.316-8.209 15.901-12.912 23.589-.054.079-.085.154-.138.233-6.152 10-8.954 21.272-8.219 32.409.396 5.837 2.367 11.438 5.57 16.322l.013.066 4.299 6.659c1.432 2.213 2.943 4.364 4.419 6.568l2.229 3.268c.736 1.091 1.533 2.147 2.309 3.207l4.639 6.411c12.642 16.875 24.287 33.302 17.922 29.212 0 0-16.777-12.994-27.371-13.346-1.261-.031-2.422-.012-3.474.099-8.584.95-17.07 2.999-25.786 2.558-4.518-.224-9.233-1.232-13.035-4.014-3.806-2.804-6.451-7.751-5.537-12.242.61-2.994 2.696-5.429 5.269-6.885s5.576-1.99 8.593-2.092c2.744-.096 5.511.169 8.247.622 3.259.559 6.471 1.468 9.616 2.619 6.39 2.351 18.916 7.513 29.241 15.224a345 345 0 0 1-6.977-9.293l-4.599-6.555c-.758-1.087-1.559-2.165-2.277-3.282l-2.198-3.343c-1.458-2.231-2.956-4.43-4.374-6.69l-4.21-6.791c-1.44-2.256-2.713-4.59-4.091-6.881l-.009-.045a21.12 21.12 0 0 0-9.707-8.651c-4.962-2.17-12.381-4.414-23.018-5.466z" fill="#80D34A"/>
    <path d="M272.189 226.037c4.706 27.817 16.212 44.396 22.955 46.937l-.108.632c-1.718 10.378-1.38 20.997.656 31.312 1.2 5.978 2.602 11.941 4.114 17.883a409 409 0 0 0 2.76 10.037l-.004-.034.011.036-.073-.701c-.435-4.818-.419-9.774-.089-14.687.609 5.793 1.875 11.773 4.51 11.593-1.997 5.492-2.094 11.554-.264 17.183a374 374 0 0 0 2.264 6.755 432 432 0 0 0 11.395 29.467c4.174 9.674 8.753 19.202 13.641 28.555l3.721 6.976 3.888 6.898c.252.476.526.949.799 1.422l-.019-.046.027.047c-5.245-12.39-12.015-30.193-13.154-42.006l-.062-.599c-.821-8.825-.625-17.86 1.188-26.553 5.155 22.422 23.18 18.13 26.684 24.857-1.513 2.473-3.063 4.93-4.572 7.396-.053.079-.084.154-.138.232-4.517 7.344-7.226 15.374-8.057 23.532-.374 1.971-.417 4.302-.225 7.728q.025.575.063 1.149c.396 5.837 2.368 11.439 5.571 16.323l.013.066 4.299 6.658c1.432 2.213 2.943 4.364 4.418 6.568l2.23 3.268c.735 1.091 1.533 2.148 2.308 3.208l4.64 6.41c11.454 15.29 22.09 30.211 19.253 29.838-.294-.041-.731-.243-1.324-.624-.06-.047-14.997-11.601-25.563-13.176a16 16 0 0 0-1.815-.172c-1.261-.03-2.422-.012-3.474.1-8.584.949-17.07 2.998-25.785 2.557a34 34 0 0 1-4.255-.468c-3.116-.558-6.161-1.632-8.774-3.544-3.806-2.804-6.45-7.751-5.537-12.242.609-2.995 2.697-5.429 5.27-6.885s5.575-1.99 8.592-2.093c1.297-.045 2.6-.008 3.902.09q.898.068 1.795.173a52 52 0 0 1 2.543.359c3.259.558 6.471 1.468 9.616 2.619 6.39 2.351 18.916 7.513 29.24 15.223l-.01-.012.018.013a345 345 0 0 1-6.976-9.292l-4.599-6.556c-.758-1.086-1.56-2.164-2.278-3.281l-2.197-3.344c-1.458-2.23-2.956-4.429-4.374-6.69l-4.211-6.79c-1.44-2.256-2.712-4.591-4.091-6.882l-.008-.044a21.13 21.13 0 0 0-9.708-8.652c-3.411-1.491-7.984-3.018-13.966-4.168-2.72-.523-5.733-.969-9.06-1.298l-.013.048c-10.493-1.035-21.211-.22-31.554-2.148q-1.035-.192-2.064-.424c-5.703-1.274-11.412-3.528-15.429-7.775-4.016-4.248-5.927-10.842-3.434-16.141 1.672-3.519 5.07-6.024 8.766-7.217 3.228-1.042 6.699-1.174 10.089-.835l.204.023a41 41 0 0 1 3.353.495c2.795.525 5.54 1.312 8.228 2.256 3.992 1.398 7.814 3.217 11.484 5.317 8.549 4.903 26.412 16.181 37.365 30.46l-.016-.028.023.029-2.076-3.778-3.655-7.103a434 434 0 0 1-13.355-28.975 9.15 9.15 0 0 0-3.065-3.929c-11.383-8.465-24.495-14.176-37.775-18.393-14.956-4.739-31.078-8.18-42.858-19.171-3.735-3.503-7.038-7.957-7.686-12.969-1.903-30.123 75.336 39.725 76.654 26.639 3.676 5.483 7.097 11.148 10.395 16.876l-.013-.032.02.034a426 426 0 0 1-6.723-18.863 403 403 0 0 1-8.734-30.461c-1.502-6.24-2.867-12.484-4.016-18.792-1.361-7.523-3.646-14.867-6.756-21.869-4.093-9.256-7.847-18.647-10.56-28.328l-.308-1.084c-2.433-8.897-3.975-18.065-4.105-27.123" fill="#000C2A"/>
    <path d="M366.872 361.124c-.282-6.313-1.24-18.448-2.311-21.46-1.204-3.397-3.219-7.095-6.78-8.988-4.123-2.195-9.597-1.458-13.64.898-2.038 1.187-3.77 2.727-5.274 4.454 2.009-3.002 4.475-5.78 7.713-7.667 4.043-2.355 9.518-3.093 13.64-.897 3.562 1.892 5.577 5.59 6.781 8.988 1.299 3.653 1.787 7.486 1.749 11.306a53.2 53.2 0 0 1-1.878 13.366m-19.869-77.632c3.528-5.019 6.324-10.794 6.536-17.136.221-6.778-3.088-14.221-9.144-17.322-4.026-2.054-8.784-1.98-12.804-.451-4.02 1.53-7.398 4.373-10.268 7.599q-.571.64-1.116 1.302a49 49 0 0 1 3.555-4.515c2.871-3.225 6.248-6.069 10.268-7.598 4.02-1.53 8.778-1.603 12.805.45 6.055 3.101 9.364 10.545 9.143 17.323-.226 6.756-3.384 12.868-7.235 18.109a61 61 0 0 1-1.74 2.239m-50.39-17.814c1.212-5.207 2.729-10.328 4.449-15.336a443 443 0 0 1 2.481-6.968c4.472-12.344 9.023-24.904 7.336-38.216-.63-5.038-2.327-10.282-6.062-13.784-5.89-5.553-15.373-4.887-21.291-.183-1.964 1.561-3.596 3.457-4.951 5.576a21 21 0 0 1 2.511-2.363c5.919-4.704 15.402-5.371 21.291.182 3.736 3.503 5.433 8.746 6.063 13.785 1.686 13.312-2.864 25.872-7.336 38.216a439 439 0 0 0-2.481 6.968c-1.352 3.935-1.75 8.002-2.01 12.123" fill="#fff"/>
    <path d="M304.047 209.112c-.359-5.721-2.613-10.236-5.035-10.084s-4.094 4.913-3.736 10.634 2.613 10.236 5.035 10.085c2.422-.152 4.094-4.914 3.736-10.635m40.175 57.097c3.072-3.547 4.341-7.48 2.834-8.785s-5.219.513-8.291 4.06-4.34 7.48-2.834 8.785c1.507 1.305 5.219-.513 8.291-4.06" fill="#D5F0C3"/>
    <path d="M515.362 445.737c109.252 0 197.818-88.566 197.818-197.819S624.614 50.1 515.362 50.1s-197.819 88.566-197.819 197.818 88.566 197.819 197.819 197.819" fill="#C6E3FF" opacity=".5"/>
    <circle cx="516.316" cy="248.87" fill="#D5F0C3" r="145.511"/>
    <path d="M516.302 103.359c80.363 0 145.511 65.148 145.511 145.511 0 22.565-5.138 43.928-14.305 62.988-16.706 5.499-34.656 8.491-53.345 8.491-89.528 0-162.104-68.576-162.104-153.169a145.4 145.4 0 0 1 5.851-40.925c22.624-14.495 49.528-22.896 78.392-22.896" fill="#F9FDF6"/>
    <path d="M516.316 103.359c80.363 0 145.51 65.148 145.51 145.511 0 80.364-65.147 145.511-145.51 145.511q-1.953 0-3.892-.052c74.392-1.996 134.086-62.926 134.086-137.8 0-76.134-61.719-137.853-137.853-137.853-74.873 0-135.805 59.692-137.802 134.083q-.05-1.938-.05-3.889c0-80.363 65.147-145.511 145.511-145.511" fill="#fff"/>
    <path d="m569.93 209.301-54.271 16.592c-4.444 1.276-8.292 2.923-10.416 4.221-9.202 5.67-12.101 17.83-6.472 27.155 5.596 9.326 17.55 13.298 26.798 6.559l7.345-6.559 42.122-41.587c5.661-6.206 2.553-8.935-5.106-6.381m-54.271 44.621c-3.91 0-7.112-3.211-7.112-7.207s3.168-7.208 7.112-7.208 7.113 3.211 7.113 7.208c0 3.962-3.169 7.207-7.113 7.207" fill="#80D34A"/>
    <path d="M450.951 293.493a79.8 79.8 0 0 0 20.749 20.749l-20.185 29.485a115.5 115.5 0 0 1-30.051-30.051zm160.227 20.183a115.5 115.5 0 0 1-30.05 30.051l-20.184-29.485a79.8 79.8 0 0 0 20.75-20.749zm-172.323-48.523a78.5 78.5 0 0 0 11.186 26.982l-29.896 19.57a114.2 114.2 0 0 1-16.274-39.255zm189.916 7.297a114.2 114.2 0 0 1-16.274 39.255l-29.894-19.57a78.5 78.5 0 0 0 11.187-26.982zm-227.326-23.579c0-7.262.681-14.366 1.97-21.255l35.124 6.571a79.7 79.7 0 0 0-1.354 14.684c0 5.047.468 9.952 1.354 14.684l-35.124 6.569a115.5 115.5 0 0 1-1.97-21.253m229.754 0c0 7.262-.683 14.365-1.972 21.253l-35.121-6.569a80 80 0 0 0 1.354-14.684c0-5.047-.469-9.952-1.354-14.684l35.121-6.571a115.5 115.5 0 0 1 1.972 21.255m-181.158-43.263a78.5 78.5 0 0 0-11.186 26.981l-34.984-7.299a114.2 114.2 0 0 1 16.274-39.255zm162.456-19.573a114.2 114.2 0 0 1 16.274 39.255l-34.981 7.299a78.5 78.5 0 0 0-11.187-26.981zM471.7 183.5a79.8 79.8 0 0 0-20.749 20.749l-29.487-20.186a115.5 115.5 0 0 1 30.051-30.05zm109.428-29.487a115.5 115.5 0 0 1 30.05 30.05l-29.484 20.186a79.8 79.8 0 0 0-20.75-20.749zm-81.087 17.391a78.5 78.5 0 0 0-26.982 11.186l-19.573-29.896a114.2 114.2 0 0 1 39.255-16.274zm39.86-34.984a114.2 114.2 0 0 1 39.255 16.274l-19.57 29.896a78.5 78.5 0 0 0-26.982-11.186zm-23.579-2.426c7.262 0 14.365.681 21.253 1.97l-6.569 35.123a80 80 0 0 0-14.684-1.353c-5.046 0-9.951.468-14.683 1.353l-6.572-35.123a115.5 115.5 0 0 1 21.255-1.97" fill="url(#g)"/>
    <path d="M515.655 446.603c109.399 0 198.084-88.686 198.084-198.086 0-109.399-88.685-198.085-198.084-198.085S317.57 139.118 317.57 248.517c0 109.4 88.686 198.086 198.085 198.086" fill="#C6E3FF" opacity=".3"/>
    <path d="M370.229 114.023a173 173 0 0 0-3.388 14.729C347.977 231.05 424.5 330.91 537.758 351.795c60.199 11.1 118.657-2.348 163.054-32.742-28.425 74.572-100.604 127.55-185.157 127.55-109.399 0-198.085-88.686-198.085-198.086 0-51.918 19.976-99.171 52.659-134.494" fill="#0069FF" opacity=".5"/>
    <path d="M339.029 180.118c-27.462 132.813 166.477 327.985 349.887 149.708-31.371 70.037-103.508 116.924-184.582 112.256C399.445 436.043 319.318 346 325.365 240.966c1.238-21.497 5.99-41.955 13.664-60.848" fill="#000C2A"/>
    <path d="M494.914 57.708c64.098-3.307 119.898 21.003 157.938 60.398 5.943 4.886 11.529 11.118 16.256 18.476a86 86 0 0 1 2.598 4.325c21.551 30.602 33.872 67.279 33.872 105.944-3.11-21.463-11.651-44.062-24.745-65.915-1.256 8.872-5.194 16.178-11.812 20.43-16.305 10.474-42.7-1.55-58.956-26.855-16.256-25.306-16.217-54.31.087-64.784a23 23 0 0 1 3.967-2.036c-33.27-25.006-73.895-43.59-119.205-49.983" fill="#fff" opacity=".8"/>
    <path d="M638.523 287.278c8.87 4.719 22.555-3.26 30.565-17.83 8.084-14.565 7.387-30.206-1.451-34.885-8.837-4.68-22.555 3.259-30.565 17.83-8.084 14.565-7.386 30.205 1.451 34.885m-50.491-185.136c2.477-.182 3.436-2.129 2.138-4.352-1.283-2.227-4.344-3.882-6.809-3.699s-3.436 2.13-2.138 4.352c1.283 2.227 4.344 3.882 6.809 3.699" fill="#fff" opacity=".7"/>
    <path d="M559.817 102.211c14.421.618 19.195-3.959 10.65-10.204s-27.012-11.762-41.433-12.38c-14.421-.617-19.195 3.96-10.65 10.205s27.012 11.762 41.433 12.379" fill="#fff" opacity=".6"/>
    <path d="M496.735 72.846c-.71-4.478-4.898-7.67-9.338-6.75-40.949 8.487-78.672 29.792-107.162 61.413-3.239 3.595-5.023 8.337-4.013 13.069 11.192 52.414 122.993 137.52 209.055 117.914 15.361-3.5 15.143-23.821 2.564-33.308-31.714-23.92-78.332-71.768-91.106-152.338" fill="#fff" opacity=".4"/>
    <path d="M343.713 518.969s12.968 18.455 160.16 18.455c147.191 0 164.093-18.455 164.093-18.455 9.262 0 16.68-.188 16.68 9.081 0 0-.553 47.617-180.773 47.979-180.219.362-176.818-40.319-176.818-40.319 0-9.268 7.468-16.741 16.73-16.741z" fill="#000C2A"/>
    <path d="M362.42 511.342s12.256 17.429 151.37 17.429c139.113 0 155.087-17.429 155.087-17.429a15.784 15.784 0 0 1 15.812 15.811s-.57 37.738-170.899 38.08-167.114-38.08-167.114-38.08a15.784 15.784 0 0 1 15.812-15.811z" fill="#1433D6"/>
    <path d="M518.686 418.632c-68.951 1.655-124.914-13.56-124.914-13.56l-32.03 106.27s22.371 27.687 152.618 27.687 155.332-27.687 155.332-27.687l-33.075-106.025s-48.979 11.66-117.931 13.315" fill="#0069FF"/>
    <path d="M632.772 406.168c-14.528 12.333-28.217 20.868-40.179 26.774-23.187 11.45-44.419 34.066-44.419 59.926 0 18.044 8.824 31.98 24.247 38.464-9.986 2.377-45.686 7.182-44.224 7.608 0 0 18.07.951 55.161-3.042 2.898.467 5.9.618 8.977.419 26.64-1.727 44.572-6.619 66.637-18.3a748 748 0 0 1 17.243-4.886 15.78 15.78 0 0 1 8.481 14.023s-.569 37.737-170.898 38.079-167.114-38.079-167.114-38.079a15.78 15.78 0 0 1 15.077-15.795l-.014-.017 32.031-106.27s55.962 15.215 124.914 13.56c57.604-1.382 101.269-9.748 114.08-12.464" fill="#1433D6"/>
    <path d="m355.782 540.169-6.895-21.093a15.77 15.77 0 0 1 12.871-7.717l-.013-.017 32.03-106.27s55.963 15.215 124.914 13.56c39.388-.945 72.26-5.155 93.206-8.592-.002.011 20.444-3.782 20.442-3.771-21.874 26.629-62.005 34.117-103.299 51.979-75.554 32.681-156.184 67.557-18.435 83.545-2.447 1.703-6.586 3.763-10.971 5.946-15.209 7.57-33.385 16.617 5.741 17.355l-.902.119c-96.766-.634-134.212-14.273-148.689-25.044" fill="#000C2A"/>
    <path d="M514.443 490.585v10.313c17.418 0 30.973-16.83 25.273-35.115-2.534-7.972-8.868-14.362-16.849-16.829-18.241-5.695-35.09 7.908-35.09 25.307h10.325c0-10.882 10.831-19.36 22.358-15.184 4.244 1.518 7.664 4.935 9.185 9.174 4.18 11.515-4.244 22.334-15.202 22.334" fill="#C6E3FF"/>
    <path d="M504.18 490.648h10.261v-10.25H504.18zm-.001 7.908h-7.917v-7.908h7.918zm-14.555-7.908h6.587v-6.58h-6.587zM669.9 510.885c8.383.412 15.217 7.609 14.742 16.168-1.868-11.673-15.69-10.937-26.158-8.709h-.004c-30.122 6.372-37.414-26.174-30.93-57.775 3.454-16.837 12.257-38.363 9.064-55.251z" fill="#C6E3FF"/>
    <path d="M629.937 425.103a3.804 3.804 0 0 0-1.211-7.511l-.092.015a3.804 3.804 0 1 0 1.209 7.512zm-12.688 1.879a3.804 3.804 0 1 0-1.029-7.538l-.097.013a3.804 3.804 0 1 0 1.027 7.539zm-12.724 1.615a3.804 3.804 0 0 0-.893-7.556l-.096.011a3.804 3.804 0 0 0 .892 7.556zm-12.774 1.412a3.804 3.804 0 1 0-.784-7.568l-.098.01a3.805 3.805 0 0 0 .783 7.568zm-12.733 1.237a3.804 3.804 0 0 0-.69-7.578l-.097.009c-3.37.307-2.48 7.705.901 7.551l.082-.005zm-12.773 1.09a3.805 3.805 0 0 0-.605-7.585l-.098.008c1.175 3.051-2.154 7.577.703 7.577m-12.774.953a3.804 3.804 0 1 0-.528-7.591l-.096.007h.002c2.931 3.149-2.3 7.584.622 7.584m114.188 71.256.045-.014-2.263-7.264-.044.014a3.803 3.803 0 1 0 2.262 7.264m-12.285 3.419a3.803 3.803 0 1 0-1.845-7.381l-.095.024a3.804 3.804 0 0 0 1.843 7.382zm-12.477 2.845a3.804 3.804 0 0 0-1.55-7.449l-.094.019a3.804 3.804 0 1 0 1.549 7.449zm-12.6 2.415a3.804 3.804 0 1 0-1.322-7.493l-.093.017a3.805 3.805 0 0 0 1.321 7.492zm-12.552 2.052a3.804 3.804 0 0 0-1.138-7.523l-.095.014a3.805 3.805 0 0 0 1.137 7.524zm-12.637 1.772a3.803 3.803 0 0 0 3.283-4.262 3.803 3.803 0 0 0-4.262-3.283l-.096.012a3.805 3.805 0 0 0 .978 7.545zm-12.656 1.52a3.804 3.804 0 1 0-.838-7.562l-.095.01a3.805 3.805 0 0 0 .837 7.563zm-12.65 1.293a3.804 3.804 0 0 0-.71-7.576l-.096.009a3.805 3.805 0 0 0 .709 7.576zm-12.681 1.087a3.805 3.805 0 0 0-.591-7.586l-.096.008a3.804 3.804 0 1 0 .59 7.585zm-12.7.891a3.803 3.803 0 1 0-.477-7.593l-.096.006a3.804 3.804 0 0 0 .475 7.594z" fill="#1433D6"/>
    <path d="M775.404 142.394c-6.807-4.194-12.654-10.165-16.22-16.745l11.262-6.538c3.085 5.542 6.516 9.641 10.701 12.543l4.229-8.753c-10.452-8.371-14.488-15.279-10.111-24.338l.069-.143c4.16-8.61 13.332-11.553 24.888-6.977l2.011-4.162 7.59 3.667-2.12 4.387c5.663 3.541 9.717 8.016 12.655 13.135l-10.7 6.885c-1.975-3.571-4.764-6.705-7.654-9.108l-4.091 8.467c10.308 8.302 14.133 15.284 9.756 24.343l-.069.143c-4.298 8.896-13.805 11.073-24.624 7.004l-3.46 7.161-7.59-3.667 3.529-7.304zm20.009-40.112c-3.709-1.439-5.806-.641-6.723 1.257l-.069.143c-.917 1.897-.429 3.492 2.987 6.476zm-.957 31.776.069-.143c.956-1.979.377-3.593-2.886-6.528l-3.884 8.039c3.544 1.259 5.676.754 6.691-1.348z" fill="#C6E3FF"/>
    <path d="M136.605 324.81c-6.371 4.831-14.053 8.125-21.476 9.07l-2.025-12.864c6.283-.873 11.345-2.59 15.563-5.442l-6.632-7.107c-11.583 6.718-19.483 7.984-26.347.629l-.109-.116c-6.524-6.992-5.951-16.608 2.492-25.727l-3.154-3.38 6.163-5.751 3.324 3.562c5.349-4 10.987-6.162 16.822-7.05l2.551 12.465c-4.043.55-7.974 2.017-11.259 3.844l6.416 6.875c11.467-6.61 19.359-7.652 26.223-.297l.109.116c6.74 7.224 5.333 16.875-2.372 25.491l5.427 5.815-6.163 5.751-5.535-5.931zm-30.166-33.155c-2.683 2.937-2.696 5.181-1.259 6.722l.109.116c1.437 1.541 3.101 1.662 7.117-.444zm29.281 12.379-.108-.116c-1.5-1.607-3.214-1.651-7.13.33l6.091 6.528c2.455-2.849 2.755-5.02 1.162-6.726z" fill="#1433D6"/>
    <path d="M264.234 127.661c-6.615-4.491-12.193-10.714-15.465-17.445l11.54-6.035c2.837 5.674 6.084 9.92 10.136 13.004l4.611-8.558c-10.071-8.824-13.799-15.904-9.026-24.761l.075-.14c4.536-8.418 13.829-10.952 25.171-5.87l2.193-4.07 7.421 3.998-2.311 4.29c5.501 3.787 9.353 8.437 12.062 13.68l-10.993 6.406c-1.815-3.655-4.463-6.909-7.245-9.437l-4.46 8.278c9.931 8.749 13.444 15.893 8.672 24.75l-.076.14c-4.686 8.698-14.28 10.452-24.909 5.91l-3.772 7.002-7.421-3.999 3.848-7.141zm21.76-39.19c-3.642-1.602-5.772-.896-6.772.959l-.075.14c-1 1.855-.583 3.47 2.698 6.601zm-2.359 31.703.076-.14c1.042-1.935.535-3.573-2.595-6.649l-4.235 7.86c3.485 1.414 5.636 1.003 6.744-1.051zm653.51 199.72c-7.903 1.212-16.226.449-23.204-2.256l4.347-12.275c5.941 2.225 11.209 3.126 16.277 2.628l-2.446-9.408c-13.385.389-20.934-2.261-23.466-11.998l-.04-.153c-2.406-9.255 2.678-17.437 14.446-21.434l-1.163-4.474 8.158-2.121 1.226 4.715c6.608-.969 12.596-.184 18.149 1.814l-3.694 12.176c-3.817-1.443-7.972-2.025-11.731-1.984l2.366 9.101c13.231-.349 20.667 2.494 23.199 12.231l.04.154c2.486 9.562-3.349 17.377-14.228 21.283l2.001 7.697-8.158 2.122-2.041-7.852zm-10.731-43.523c-3.758 1.305-4.839 3.272-4.308 5.312l.04.153c.53 2.04 1.934 2.939 6.469 3.001zm19.849 24.833-.04-.154c-.553-2.127-2.039-2.982-6.427-3.105l2.247 8.64c3.516-1.335 4.813-3.101 4.226-5.36z" fill="#0069FF"/>
    <path d="M709.88 209.428a199 199 0 0 1 3.857 39.089 199 199 0 0 1-4.273 41.116 41 41 0 0 1-5.021 2.793c-33.155 15.369-49.316 2.416-50.13 0-.659-1.961 1.341-19.353 21.976-39.67.233-16.384-2.271-33.473 4.987-26.894 7.917 7.178 3.843 17.669 2.908 19.779q1.53-1.269 3.163-2.545c6.293-16.449 15.721-24.75 17.772-16.989q.072.27.148.521c2.314-3.721 3.752-7.625 4.511-11.587.213-1.877.234-3.753.102-5.613m26.888-38.535-.201-.093c.007.009.166.214.45.598l.971 1.959 4.326 6.128c5.974 10.132 14.044 27.61 10.887 44.141 2.51-22.229-20.126-44.292-20.232-44.396l-36.633 6.441c6.275-7.909 16.504-12.93 24.792-17.098-4.38-13.094-7.033-28.462-6.039-41.438z" fill="#000C2A"/>
    <path d="M736.573 170.799s39.024 50.035 0 77.195c-39.024 27.161-39.707 51.708-41.557 56.831.852 2.534 17.807 16.126 52.592 0s70.399-96.707-11.035-134.026" fill="#0069FF"/>
    <path d="M736.57 170.799c81.434 37.319 45.82 117.9 11.035 134.026a108 108 0 0 1-4.326 1.89c-1.711.417-3.35.643-4.897.643 50.947-27.08 34.555-85.612 14.111-103.336-4.143-18.117-15.923-33.223-15.923-33.223" fill="#D5F0C3"/>
    <path d="M715.426 312.568c7.761-.225 17.504-2.276 29.296-7.743 44.147-23.23 45.664-106.145-7.92-133.717l-.235-.309c81.433 37.319 45.819 117.9 11.034 134.026-13.299 6.165-23.992 7.987-32.175 7.743" fill="#fff"/>
    <path d="M729.379 267.806c-.735.256-1.441-.361-1.331-1.131 4.922-34.59 21.347-56.955 24.035-44.093 2.73 13.063 10.634.675 10.634.675 0 30.953-26.569 42.189-33.338 44.549" fill="#000C2A"/>
    <path d="M738.383 231.438c5.482-7.194 10.461-10.15 10.937-7.296s0 8.084 5.231 9.035-2.724 20.506-15.546 30.147c10.207-5.952 23.715-17.998 23.715-40.068 0 0-7.905 12.388-10.634-.675-1.567-7.497-7.8-3.026-13.703 8.857" fill="#F9FDF6"/>
    <path d="M805.532 248.048c30.652 9.564-25.711 8.605-50.403 28.334 0 0 19.752-37.897 50.403-28.334" fill="#000C2A"/>
    <path d="M808.755 256.478c10.461-2.378 7.579-5.061-3.221-8.431-10.07-3.141-18.963-1.161-26.366 2.915 6.792-3.056 14.691-4.22 23.487-1.475 8.37 2.611 8.29 5.313 6.1 6.991" fill="#fff"/>
    <path d="M357.998 368.439c14.908-9.216 10.896-34.118-27.382-49.565l-.21-.085a197.7 197.7 0 0 0 27.592 49.65m-40.848-58.597c-7.077-.823-18.514-4.681-36.19-16.428 0 0 18.124-5.192 29.643-1.53a25.73 25.73 0 0 1 11.71 8.303 5.9 5.9 0 0 1 1.365 3.183 5.89 5.89 0 0 1-6.528 6.472m25.164-23.542c-4.966-5.125-11.384-15.327-17.661-35.601 0 0 17.338 7.429 23.957 17.535a25.7 25.7 0 0 1 3.818 13.836 5.88 5.88 0 0 1-3.615 5.555 5.9 5.9 0 0 1-6.499-1.325m-54.381-39.127c-20.707-9.854-21.138-48.101-21.138-48.101l21.754 27.7 13.064-33.977s7.028 64.233-13.68 54.378" fill="#000C2A"/>
    <path d="M366.238 290.888c-52.697-21.265-73.146-50.599-76.784-62.607-5.28 16.452 14.594 72.261 48.181 98.237 58.876 45.534 94.474-9.048 28.603-35.63" fill="#0069FF"/>
    <path d="M365.789 341.852c38.512 11.632 53.723-25.963 6.329-48.391 22.832 21.19 18.02 50.259-6.329 48.391" fill="#C6E3FF"/>
    <path d="M366.306 511.845c-.211-.4-.55-.716-.964-.898l-26.707-11.743a2 2 0 0 1-.908-.798l-8.648-14.35a2 2 0 0 0-2.599-.761l-28.772 14.206a2 2 0 0 1-.292.117l-41.704 12.955a2 2 0 0 0-1.249 2.688l1.31 3.106a2 2 0 0 1-1.336 2.712l-29.449 7.71c-1.693.443-2.041 2.692-.561 3.626l52.712 33.278c.39.247.853.351 1.311.294l41.84-5.128q.205-.025.411-.007l62.376 5.246c.366.03.733-.04 1.062-.205l16.446-8.222c1.36-.681 1.493-2.57.242-3.435l-20.381-14.083a2 2 0 0 1-.632-.712z" fill="#000C2A"/>
    <path d="M368.677 506.791c-.21-.4-.55-.716-.963-.898l-24.88-10.951a2 2 0 0 1-.908-.799l-8.459-14.051a2 2 0 0 0-1.426-.947l-32.515-4.725a2 2 0 0 0-1.751.616l-18.024 19.346a2 2 0 0 1-.665.471l-25.019 10.886a2 2 0 0 0-1.175 1.51l-1.824 11.099a2 2 0 0 1-.852 1.331l-8.108 5.496a2 2 0 0 0 .069 3.356l43.113 26.709c.387.24.845.34 1.297.285l39.014-4.787a2 2 0 0 1 .484 0l51.433 6.223c.27.033.544.01.805-.066l17.945-5.284a2 2 0 0 0 .914-3.265l-15.516-17.057a2 2 0 0 1-.29-.413z" fill="#000C2A"/>
    <path d="M101.522 112.787c1.198 1.662-.477-1.992 0 0 17.389-1.08 36.51-1.276 54.426 7.136-8.499-3.991-13.793-10.675-15.271-16.311 36.035 2.201 28.203 20.115 28.203 20.115 66.878 46.698 22.676 64.51-11.819 33.224-12.496 4.643-28.438-11.25-28.438-11.25 5.246-2.091 15.001-2.365 21.681 3.69-14.633-17.969-34.079-28.026-49.709-31.044-4.634 8.514-26.35 5.787-26.35 5.787 5.147-4.466 10.54-10.484 21.654-11.057-11.481-6.565-23.002-16.95-23.002-16.95s24.332-1.255 28.625 16.66" fill="#1433D6"/>
    <path d="M925.93 149.669c-1.822.325 1.809.392 0 0-5.93 14.579-13.257 30.221-27.12 41.512 6.577-5.356 14.091-7.048 19.257-6.044-15.902 28.472-27.418 15.082-27.418 15.082-64.202 36.157-61.393-6.8-22.418-22.631 1.113-11.99 20.293-18.745 20.293-18.745-.351 5.089-3.948 13.138-11.493 16.205 20.358-4.876 36.159-16.768 44.736-28.31-5.117-7.106 5.607-23.716 5.607-23.716 1.62 5.938 4.407 12.685.522 21.957 9.84-6.776 22.806-12.088 22.806-12.088s-8.507 20.299-24.772 16.778" fill="#0069FF"/>
    <path d="M171.836 386.66a19.92 19.92 0 0 1-9.204 10.138 19.9 19.9 0 0 1-13.57 1.81 19.9 19.9 0 0 1 10.136 9.203 19.9 19.9 0 0 1 1.807 13.571 19.92 19.92 0 0 1 9.204-10.138 19.9 19.9 0 0 1 13.571-1.81 19.9 19.9 0 0 1-10.136-9.203 19.9 19.9 0 0 1-1.808-13.571m-27.865-16.402a6.76 6.76 0 0 1-3.118 3.425 6.76 6.76 0 0 1-4.588.604 6.76 6.76 0 0 1 3.424 3.118 6.73 6.73 0 0 1 .604 4.588 6.76 6.76 0 0 1 3.118-3.425 6.73 6.73 0 0 1 4.588-.604 6.75 6.75 0 0 1-3.424-3.118 6.73 6.73 0 0 1-.604-4.588M203.435 63a18.55 18.55 0 0 1-1.27 12.693 18.54 18.54 0 0 1-9.157 8.88 18.56 18.56 0 0 1 12.693 1.27 18.54 18.54 0 0 1 8.88 9.157 18.56 18.56 0 0 1 1.269-12.693 18.54 18.54 0 0 1 9.158-8.88 18.56 18.56 0 0 1-12.693-1.27 18.54 18.54 0 0 1-8.88-9.157m17.166-22a6.4 6.4 0 0 1-.443 4.362 6.4 6.4 0 0 1-3.15 3.045 6.4 6.4 0 0 1 4.362.443 6.37 6.37 0 0 1 3.045 3.15 6.4 6.4 0 0 1 .443-4.362 6.37 6.37 0 0 1 3.15-3.045 6.4 6.4 0 0 1-4.363-.443 6.37 6.37 0 0 1-3.044-3.15m695.22 20.657a19.92 19.92 0 0 1-9.204 10.137 19.9 19.9 0 0 1-13.571 1.81 19.9 19.9 0 0 1 10.136 9.203 19.9 19.9 0 0 1 1.808 13.57 19.92 19.92 0 0 1 9.204-10.137 19.9 19.9 0 0 1 13.57-1.81 19.9 19.9 0 0 1-10.136-9.202 19.9 19.9 0 0 1-1.807-13.571m-27.866-16.402a6.76 6.76 0 0 1-3.118 3.424 6.75 6.75 0 0 1-4.587.604 6.76 6.76 0 0 1 3.423 3.118 6.73 6.73 0 0 1 .604 4.588 6.77 6.77 0 0 1 3.118-3.424 6.73 6.73 0 0 1 4.588-.605 6.76 6.76 0 0 1-3.424-3.118 6.73 6.73 0 0 1-.604-4.587m66.147 406.235a20.58 20.58 0 0 1-11.404 8.367 20.56 20.56 0 0 1-14.109-.963 20.57 20.57 0 0 1 8.365 11.403 20.56 20.56 0 0 1-.965 14.109 20.58 20.58 0 0 1 11.404-8.366 20.56 20.56 0 0 1 14.11.962 20.57 20.57 0 0 1-8.365-11.402 20.56 20.56 0 0 1 .964-14.11m18.375-7.578a6.98 6.98 0 0 1-3.862 2.824 6.97 6.97 0 0 1-4.768-.333 6.98 6.98 0 0 1 2.824 3.862 6.95 6.95 0 0 1-.334 4.768 6.98 6.98 0 0 1 3.862-2.824 6.94 6.94 0 0 1 4.768.332 6.98 6.98 0 0 1-2.824-3.861 6.95 6.95 0 0 1 .334-4.768M646.237 87.31l-9.307-13.842-9.307-13.841 6.846 15.204 6.845 15.204a31.14 31.14 0 0 1 1.564 21.366 31.16 31.16 0 0 1-12.589 17.336l-13.84 9.304-13.841 9.305 15.204-6.843 15.204-6.843a31.14 31.14 0 0 1 21.366-1.561 31.18 31.18 0 0 1 17.339 12.59l9.306 13.842 9.307 13.841-6.845-15.204-6.846-15.204a31.14 31.14 0 0 1-1.563-21.366 31.16 31.16 0 0 1 12.588-17.336l13.841-9.305 13.841-9.304-15.204 6.843-15.204 6.843a31.15 31.15 0 0 1-21.367 1.56 31.18 31.18 0 0 1-17.338-12.59" fill="#fff"/>
    <path d="M676.448 56.315a9.94 9.94 0 0 1-3.646 5.753 9.9 9.9 0 0 1-6.504 2.042 9.91 9.91 0 0 1 7.795 10.15 9.94 9.94 0 0 1 3.646-5.754 9.9 9.9 0 0 1 6.504-2.04 9.94 9.94 0 0 1-5.753-3.647 9.9 9.9 0 0 1-2.042-6.504" fill="#fff"/>
    <path d="M1218.27 742.403c16 6.904 32.56-8.531 26.8-24.976L974.451-54.931a7.93 7.93 0 0 0-4.316-4.648c-5.351-2.331-11.301 1.72-11.094 7.551l24.108 680.515a20 20 0 0 0 12.063 17.654z" fill="url(#h)"/>
    <path d="M881.805 593.363c12.802 5.502 27.166-3.445 27.872-17.361l32.019-630.995a20 20 0 0 0-11.986-19.349l-8.918-3.886c-10.937-4.765-23.588 1.043-27.102 12.444l-175.501 569.38c-3.011 9.766 1.826 20.23 11.215 24.266z" fill="url(#i)"/>
    <path d="M677.062-187.277c12.503 5.447 16.006 21.537 6.898 31.69L264.607 311.899a20 20 0 0 1-22.781 5.022l-131.032-56.278c-13.676-5.873-16.374-24.093-4.987-33.677L615.42-202.009a20 20 0 0 1 20.868-3.034z" fill="url(#j)"/>
    <path d="M475.45 417.247c9.467 4.158 20.542.415 25.545-8.633l290.601-525.566c4.881-8.827 1.107-19.938-8.139-23.967a17.11 17.11 0 0 0-20.548 5.453l-366.57 491.202c-7.695 10.311-3.794 25.1 7.986 30.273z" fill="url(#k)"/>
    <path d="M722.449 561.852c.282-5.651-16.868-11.1-38.306-12.17s-39.045 2.643-39.327 8.293c-.283 5.651 16.868 11.1 38.306 12.17s39.045-2.643 39.327-8.293" fill="#000C2A"/>
    <path d="M718.81 554.919c-5.177-3.926-14.956-7.515-26.508-9.257s-21.951-1.206-28.061 1.017l-4.225-1.178-1.395 6.084c-.902 5.945 12.729 12.933 30.417 15.605 17.7 2.675 32.779.023 33.671-5.936l.854-5.621-4.767-.704z" fill="#1433D6"/>
    <path d="M691.031 545.48C688.493 548.615 713 557.909 713 561.999c-11.008 0-13.505 4.5-10.505 6.5-.64-.084-13.847.099-14.495.001-17.687-2.672-30.27-10.969-29.369-16.914l1.395-6.085 4.226 1.179c5.883-2.14 15.743-2.716 26.779-1.2" fill="#000C2A"/>
    <path d="M712.918 551.971c2.297 1.075 4.283 2.206 5.897 3.363l-.017.011 4.718.657-.798 5.252c-.594 3.965-7.226 5.746-11.226 6.246 0 0-3.5-.001-2.492-5.5-.71-4.48-2.786-7.442 3.918-10.029" fill="#0069FF"/>
    <path d="m714.703 566.845-.013.003.012.002zm0 0c.848-.216 1.64-.465 2.363-.736l1.217-8.081-2.207-.325zm-8.84 1.262.013-.001-.001.003zm.013-.001 1.224-8.125 2.207.325-1.152 7.637c-.741.061-1.505.119-2.279.163" fill="#1433D6"/>
    <path d="M723.581 555.662c.898-5.945-12.667-12.923-30.297-15.586-17.631-2.662-32.651-.001-33.549 5.944s12.667 12.924 30.297 15.586 32.651.002 33.549-5.944" fill="#1433D6"/>
    <path d="M693.285 540.074c16.765 2.532 29.852 8.967 30.324 14.705-4.865 4.289-16.141 5.124-28.142 1.574-12.167-3.6-21.259-10.576-22.827-16.891 5.745-.698 12.946-.55 20.645.612" fill="#C6E3FF"/>
    <path d="M714.608 553.374c.642-4.251-9.057-9.24-21.662-11.143-12.606-1.904-23.345-.002-23.987 4.249s9.057 9.239 21.662 11.143c12.606 1.903 23.345.001 23.987-4.249" fill="#80D34A"/>
    <path d="M708.925 552.216c.462-3.066-6.537-6.664-15.633-8.038s-16.846-.002-17.309 3.063 6.536 6.664 15.632 8.037 16.847.003 17.31-3.062" fill="#C6E3FF"/>
    <path d="M693.012 540.034c16.427 2.37 29.347 8.505 30.362 14.146-3.563-3.569-7.855-6.256-12.471-8.268l-21.399 8.587c-3.362-.802-11.472 2.329-14.309 1.286l24.351-13.478c-16.91-3.72-33.868-1.278-33.968-1.264 6.138-2.108 16.251-2.625 27.434-1.009" fill="#F9FDF6"/>
    <path d="M858.013 483.96c-.032-3.3-10.229-5.64-22.966-5.518-12.737.123-23.036 2.898-23.004 6.198.031 3.3 10.01 6.831 22.747 6.708s23.223-2.639 23.223-7.388" fill="#000C2A"/>
    <path d="M855.17 480.089c-3.381-2.128-9.564-3.782-16.721-4.206-7.166-.425-13.494.474-17.111 2.187h-3.343l.184 3.323c-.219 3.704 8.493 7.234 19.464 7.892s20.052-1.807 20.271-5.51l.094-3.776-2.838.1z" fill="#0069FF"/>
    <path d="m853.447 487.643-.009.004h.009zm0 0c.51-.184.974-.38 1.412-.586l.303-5.031-1.374-.078zm-31.098-1.785a16 16 0 0 1-1.337-.728l.269-4.408 1.373.077zm5.11 1.854a47 47 0 0 1-1.356-.393l.274-4.511 1.374.078zm20.636 1.197c.478-.066.939-.142 1.391-.228l.288-4.753-1.374-.077zm-5.941.464c-.456.002-.912.005-1.378.006l.297-4.919 1.374.078zm-8.984-.536c.453.062.906.125 1.369.17l.298-4.928-1.374-.078z" fill="#1433D6"/>
    <path d="M850.018 488.568c-3.474.704-7.834.991-12.54.708-11.06-.664-19.846-4.197-19.626-7.901l.206-3.49 2.977.169c3.646-1.712 10.025-2.608 17.249-2.18 6.401.379 12.029 1.727 15.599 3.513 1.975 1.95 2.65 4.101-1.888 5.11-13.242 2.944-6.935 4.721-1.977 4.071" fill="#1433D6"/>
    <path d="M858.021 479.999c.222-3.701-8.193-6.934-19.168-7.592s-20.623 1.888-20.845 5.589 9.066 7.155 20.042 7.814c10.975.658 19.749-2.11 19.971-5.811" fill="#C6E3FF"/>
    <path d="M852.689 479.383c.159-2.645-6.071-5.171-13.914-5.641-7.843-.471-14.329 1.292-14.488 3.937-.158 2.646 6.071 5.171 13.914 5.641 7.843.471 14.33-1.292 14.488-3.937" fill="#80D34A"/>
    <path d="M849.134 478.99c.114-1.907-4.385-3.728-10.05-4.068-5.664-.339-10.348.931-10.463 2.838s4.385 3.728 10.049 4.068c5.665.34 10.349-.931 10.464-2.838" fill="#C6E3FF"/>
    <path d="M838.665 472.375c10.22.607 18.35 3.124 19.35 7.124-2.39-2.024-5.2-3.437-8.181-4.401l-11.33 5.903c-2 1.5-8.106 2.528-9.904 2.044l13.978-9.468c-10.659-1.214-21.041 1.416-21.066 1.423 3.658-1.618 10.201-3.038 17.153-2.625" fill="#F9FDF6"/>
    <path d="M838.505 593.01c22.501.592 39.702-6.772 40.264-14.683s-16.599-15.575-38.332-17.12-41.086 5.465-40.019 15.089 15.585 16.121 38.087 16.714" fill="#000C2A"/>
    <path d="M814.136 565.654c6.445-2.958 17.72-4.443 30.428-3.545 12.714.905 23.658 3.968 29.62 7.809l5.242.374-.443 6.217c-.467 6.569-16.634 10.769-36.114 9.386-19.48-1.382-34.891-7.831-34.425-14.401l.444-6.216 5.242.375z" fill="#1433D6"/>
    <path d="M855.976 563.568c7.716 1.458 14.128 3.723 18.208 6.351l5.242.374-.444 6.217c-.212 2.99-3.676 5.488-9.225 7.193a31 31 0 0 1-4.257.297c-10.217 0-18.5-4.925-18.5-11 0-4.004 3.598-7.508 8.976-9.432" fill="#0069FF"/>
    <path d="M870.609 583.439a29 29 0 0 0 2.522-.982l.006.008.553-7.825-2.445-.176zm-9.422 2.056c.85-.11 1.67-.237 2.478-.374l.007.001.569-8.014-2.444-.176zm-36.63-2.66q-1.244-.348-2.403-.731l.597-8.433 2.444.176zm10.356 2.184c.801.12 1.609.235 2.432.339l.62-8.746-2.445-.176zm15.949 1.14c-.807.004-1.628.006-2.458-.013l.62-8.747 2.445.176zm-37.776-8.15c.707.463 1.5.919 2.356 1.359l.005.007.719-10.119-2.445-.176z" fill="#1433D6"/>
    <path d="M843.234 579.76c19.476 1.385 35.644-2.816 36.111-9.384s-14.943-13.015-34.42-14.4c-19.476-1.384-35.643 2.817-36.11 9.385-.468 6.567 14.943 13.014 34.419 14.399" fill="#C6E3FF"/>
    <path d="M843.538 575.357c13.927.99 25.487-2.015 25.821-6.713.334-4.697-10.685-9.308-24.611-10.298s-25.488 2.015-25.822 6.712 10.685 9.308 24.612 10.299" fill="#80D34A"/>
    <path d="M843.054 572.614c10.049.715 18.391-1.452 18.632-4.841.241-3.388-7.71-6.714-17.76-7.428-10.049-.715-18.391 1.453-18.632 4.841s7.711 6.714 17.76 7.428" fill="#C6E3FF"/>
    <path d="M848.099 556.141c2.736.269 5.339.646 7.773 1.113 7.637 1.391 14.049 3.567 18.248 6.115-.055-.02-5.921-2.213-14.513-4.059l-16.095 8.688c-3.008 1.5-15.501 7.999-18.001 6.999l21.235-17.727c-12.322-1.224-26.535-.388-37.527 6.686 2.405-5.793 17.656-9.345 35.783-8.058q1.554.112 3.07.264z" fill="#F9FDF6"/>
    <path d="M812.788 545.328c18.105 1.288 33.196-3.504 33.708-10.701s-13.75-14.077-31.855-15.364-33.197 3.503-33.708 10.701c-.512 7.198 13.75 14.077 31.855 15.364" fill="#000C2A"/>
    <path d="M794.44 525.819c5.182-2.378 14.243-3.572 24.46-2.845s19.015 3.186 23.807 6.279l4.216.298-.355 4.994c-.375 5.282-13.37 8.656-29.026 7.543-15.655-1.114-28.041-6.296-27.668-11.572l.356-4.994 4.216.298z" fill="#1433D6"/>
    <path d="M838.259 527.014c1.718.692 3.215 1.445 4.447 2.24l4.218.299-.356 4.993c-.156 2.2-2.501 4.068-6.315 5.419q-.622.036-1.261.036c-6.627 0-11.999-2.91-12-6.499 0-3.457 4.981-6.283 11.267-6.488" fill="#0069FF"/>
    <path d="M839.825 540.108a25 25 0 0 0 2.028-.789l.448-6.288-1.961-.139zm-7.579 1.647a52 52 0 0 0 1.997-.298l-.006-.001.46-6.445-1.962-.139zm-29.435-2.134a55 55 0 0 1-1.931-.584l.48-6.779 1.961.139zm8.327 1.763c.646.096 1.293.185 1.953.27l.5-7.027-1.961-.139zm12.812.914c-.648.003-1.309.003-1.975-.009l.499-7.028 1.961.139-.491 6.897zm-30.36-6.558c.575.375 1.211.741 1.896 1.094l.575-8.133-1.961-.139z" fill="#1433D6"/>
    <path d="M817.806 537.177c15.656 1.114 28.653-2.264 29.028-7.544.376-5.28-12.012-10.463-27.669-11.576s-28.653 2.264-29.028 7.544c-.376 5.28 12.012 10.463 27.669 11.576" fill="#C6E3FF"/>
    <path d="M818.057 533.62c11.193.796 20.484-1.617 20.753-5.39s-8.588-7.477-19.781-8.273-20.485 1.617-20.753 5.39 8.588 7.477 19.781 8.273" fill="#80D34A"/>
    <path d="M817.672 531.427c8.078.575 14.784-1.167 14.978-3.889.193-2.723-6.199-5.396-14.277-5.971-8.078-.574-14.784 1.168-14.977 3.89-.194 2.723 6.198 5.396 14.276 5.97" fill="#C6E3FF"/>
    <path d="M819.249 517.975c9.916.706 18.523 3.042 23.402 6.003 0 0-4.201-1.572-10.494-3.001l-16.649 8.024c-4 1.999-10.01 3.997-12.51 2.997l18.691-12.812c-10.135-1.135-22.055-.624-31.201 5.259 1.947-4.652 14.2-7.503 28.761-6.47m-28.765 6.48.001-.007.003-.003z" fill="#F9FDF6"/>
    <path d="M934.47 538.657c-.067-5.103-15.821-9.036-35.189-8.784-19.367.252-35.014 4.592-34.948 9.696.066 5.103 15.821 9.036 35.188 8.784s35.015-4.593 34.949-9.696" fill="#000C2A"/>
    <path d="M931.103 533.125c-4.619-3.189-13.524-5.982-24.15-7.192s-20.297-.52-26.06 1.488l-4.383-.495-1.044 4.747c-1.101 5.019 11.204 10.591 27.49 12.435 16.288 1.851 30.387-.721 31.487-5.74l1.044-4.747z" fill="#1433D6"/>
    <path d="M925.555 530.271c2.22.888 4.096 1.851 5.549 2.854l4.382.496-1.043 4.747c-.425 1.939-2.79 3.511-6.47 4.606-6.477 1.924-15.469-1.203-15.469-4.606 0-2.942 8.101-7.295 13.051-8.097" fill="#0069FF"/>
    <path d="M880.774 538.138a23 23 0 0 1-1.848-1.112l-.008-.005 1.316-5.978 2.045.232zm7.263 2.944a47 47 0 0 1-1.951-.648l1.344-6.126 2.046.231z" fill="#1433D6"/>
    <path clip-rule="evenodd" d="M918.668 544.524h.003l-.001.007zm.003 0 1.509-6.864 2.046.232-1.42 6.442c-.691.075-1.405.134-2.135.19m-11.049.005h-.003l.001.007zm0 0a78 78 0 0 0 2.07.11l1.443-6.556-2.046-.232z" fill="#1433D6" fill-rule="evenodd"/>
    <path d="M896.35 543.126c.66.122 1.333.243 2.018.353l1.469-6.685-2.046-.231-1.442 6.556zm32.831-.535c-.689.245-1.444.469-2.244.676l1.7-7.729 2.045.232z" fill="#1433D6"/>
    <path d="M935.475 533.178c.519-5.083-12.284-10.556-28.598-12.224-16.313-1.668-29.959 1.101-30.479 6.184s12.284 10.556 28.597 12.224 29.96-1.101 30.48-6.184" fill="#C6E3FF"/>
    <path d="M927.238 531.534c.372-3.635-8.784-7.548-20.449-8.741s-21.424.787-21.796 4.422 8.784 7.549 20.45 8.742c11.665 1.192 21.423-.788 21.795-4.423" fill="#80D34A"/>
    <path d="M921.971 530.75c.268-2.622-6.339-5.445-14.758-6.306s-15.46.567-15.728 3.189 6.339 5.446 14.758 6.306 15.46-.567 15.728-3.189" fill="#C6E3FF"/>
    <path d="M882.418 522.499c5.812-1.876 15.249-2.48 25.568-1.306a91 91 0 0 1 7.282 1.119l.016-.007c3.228.63 6.188 1.407 8.802 2.285.082.03.169.059.25.089.147.05.28.095.421.147.361.126.717.261 1.059.391l-.005.001c5.694 2.147 9.337 4.785 9.698 7.361-3.143-2.95-7.013-5.14-11.219-6.756l-16.792 6.675c-3.008 1.001-14.204 3.156-16.797 2.342l23.235-11.849c-15.582-2.851-31.518-.492-31.518-.492" fill="#F9FDF6"/>
    <path d="M675.219 576.203c.005-5.658-17.392-10.259-38.857-10.276s-38.869 4.556-38.873 10.213c-.005 5.658 17.392 10.259 38.857 10.276 21.464.017 38.869-4.556 38.873-10.213" fill="#000C2A"/>
    <path d="M671.41 569.541c-5.325-3.034-15.274-5.232-26.946-5.545s-22.126 1.348-28.204 4.077l-4.815-.126-.687 5.262c-.724 5.563 13.186 10.463 31.074 10.932 17.89.477 32.982-3.65 33.705-9.213l.688-5.262z" fill="#0069FF"/>
    <path d="M658.958 583.111h.003l-.001.007zm.003 0 .994-7.608 2.247.059-.936 7.141a75 75 0 0 1-2.305.408m-12.018 1.048h-.003l.002.007zm0 0a88 88 0 0 0 2.263-.076l.95-7.267-2.247-.059zm23.267-4.142a29 29 0 0 1-2.377.947l1.119-8.567 2.247.06z" fill="#1433D6"/>
    <path d="M665.727 581.622a47 47 0 0 1-.652.183q.45-.149.913-.31zm-49.479-13.552q.222-.1.452-.197l2.796 3.629 24.492 6.999c.778 2.113 3.726 5.055 10.004 5.231-3.793.368-7.903.52-12.172.406-17.888-.469-31.798-5.37-31.074-10.932l.668-5.127.133-.133z" fill="#000C2A"/>
    <path d="M676.164 569.183c.086-5.578-14.356-10.323-32.257-10.598s-32.482 4.023-32.568 9.601 14.356 10.322 32.257 10.598c17.901.275 32.483-4.023 32.568-9.601" fill="#1433D6"/>
    <path d="M611.344 568.185c.062-4.022 7.664-7.379 18.613-8.835-5.422 1.72-8.76 4.089-8.8 6.749-.085 5.578 14.357 10.322 32.257 10.598 4.991.076 9.724-.203 13.957-.766-5.948 1.888-14.404 2.996-23.769 2.852-17.901-.275-32.344-5.02-32.258-10.598" fill="#000C2A"/>
    <path d="M645.833 558.639c16.998.572 30.411 5.172 30.329 10.548-.03 1.977-1.882 3.792-5.056 5.301-3.028.278-6.501.043-10.094-.792-9.952-2.312-17.058-8.329-15.871-13.439a5.1 5.1 0 0 1 .692-1.618" fill="#C6E3FF"/>
    <path d="M667.045 568.172c.061-3.988-10.266-7.381-23.067-7.578s-23.227 2.877-23.289 6.865c-.061 3.989 10.266 7.382 23.067 7.579s23.228-2.877 23.289-6.866" fill="#80D34A"/>
    <path d="M661.251 567.815c.044-2.877-7.409-5.325-16.646-5.467s-16.762 2.075-16.806 4.952 7.408 5.325 16.646 5.467 16.761-2.075 16.806-4.952" fill="#C6E3FF"/>
    <path d="M646.698 558.787c2.232.092 4.395.256 6.468.478l.01-.005c3.57.381 6.863.946 9.789 1.654.091.025.19.049.281.074.165.04.313.078.471.12l.131.036c6.992 1.81 11.639 4.459 12.309 7.378-3.588-2.832-8.507-4.882-13.368-6.352l-15.298 5.328c-4.499 1.5-8.491 2.499-10.995 1.5l15.872-9.267c-4.245-.744-7.215-.997-7.215-.997z" fill="#F9FDF6"/>
    <path d="M301.057 574.03c-.745-9.04 18.292-17.985 42.518-19.98s44.469 3.715 45.214 12.755c.744 9.039-18.292 17.984-42.518 19.979-24.227 1.995-44.47-3.715-45.214-12.754" fill="#000C2A"/>
    <path d="M231.346 572.594c-.744-9.039 18.292-17.985 42.518-19.98 24.227-1.995 44.469 3.716 45.214 12.755s-18.292 17.985-42.518 19.98c-24.227 1.995-44.47-3.716-45.214-12.755m95.923-12.534c5.839-3.23 16.305-5.404 28.278-5.435 11.988-.031 22.454 2.066 28.324 5.265l4.555-.289.398 6.127c.016 6.196-14.845 11.258-33.2 11.321-18.354.062-33.262-4.907-33.277-11.103v-5.855l4.922-.015z" fill="#000C2A"/>
    <path d="M322.005 560.113c-.02-6.192 14.848-11.261 33.209-11.322s33.263 4.909 33.284 11.101-14.848 11.261-33.209 11.322-33.263-4.91-33.284-11.101" fill="#000C2A"/>
    <path d="M331.472 559.116c-.015-4.426 10.611-8.048 23.732-8.092 13.121-.043 23.77 3.509 23.785 7.934s-10.61 8.048-23.732 8.091c-13.121.044-23.77-3.508-23.785-7.933" fill="#80D34A"/>
    <path d="M337.436 558.798c-.01-3.19 7.664-5.802 17.14-5.834 9.477-.031 17.168 2.53 17.178 5.72s-7.663 5.802-17.139 5.834c-9.477.031-17.168-2.53-17.179-5.72m-22.5.548c-5.869-3.908-16.711-7.122-29.331-8.219-12.627-1.09-23.851.215-30.304 3.058l-5.207-.448-.532 6.174c-.565 6.524 14.659 13.165 34.005 14.84s35.484-2.259 36.049-8.783l.532-6.174-5.206-.448z" fill="#000C2A"/>
    <path d="M284.166 568.667c-19.343-1.671-34.566-8.314-34.002-14.837.563-6.523 16.701-10.455 36.043-8.783 19.343 1.672 34.566 8.315 34.003 14.837s-16.702 10.455-36.044 8.783" fill="#000C2A"/>
    <path d="M258.526 547.104c-5.004 1.606-8.116 3.929-8.359 6.729-.333 3.867 4.882 7.776 13.215 10.667l.126.002c-10.411-7.496-9.374-12.909-4.982-17.398" fill="#0069FF"/>
    <path d="M284.547 564.298c-13.831-1.196-24.716-5.947-24.313-10.612s11.943-7.478 25.774-6.282 24.716 5.946 24.313 10.611-11.943 7.478-25.774 6.283" fill="#80D34A"/>
    <path d="M285.462 561.68c-9.981-.863-17.836-4.29-17.545-7.654.291-3.365 8.617-5.394 18.598-4.531 9.98.862 17.835 4.29 17.544 7.654-.291 3.365-8.617 5.394-18.597 4.531M222.601 507s-2 5.564 0 9.501 18.579 4.689 37.906 2.499c1.851-.21 2.713 2.235 4.475 1.941-3.529.895-18.518 8.981-22.479 9.559-20.703 3.026-35.004-4.002-33-11.501s7.594-8.997 13.098-11.999" fill="#000C2A"/>
    <path d="M259.776 493.957c19.452.006 35.221 5.326 35.22 11.884a4 4 0 0 1-.096.874l-.002 5.363c-.004 6.56-15.777 11.874-35.229 11.868-19.451-.005-35.217-5.326-35.22-11.887l.113-6.557c.504-6.41 16.077-11.55 35.214-11.545" fill="#000C2A"/>
    <path d="M234.15 499c-4.87 1.293-7.9 3.162-8.135 5.415-.325 3.112 4.751 6.257 12.862 8.583L239 513c-10.134-6.032-9.125-10.388-4.85-14" fill="#0069FF"/>
    <path d="M259.765 513.306c13.906.004 25.18-3.796 25.181-8.486s-11.27-8.496-25.177-8.5-25.18 3.795-25.182 8.486c-.001 4.69 11.271 8.496 25.178 8.5" fill="#80D34A"/>
    <path d="M259.097 510.623c10.035.003 18.172-2.74 18.173-6.125 0-3.386-8.134-6.133-18.17-6.135-10.035-.003-18.171 2.739-18.172 6.125-.001 3.385 8.134 6.132 18.169 6.135m-83.588-9.404c-20.101 4.753-37.78 2.753-39.488-4.467s13.204-16.926 33.305-21.679c20.102-4.753 37.781-2.753 39.488 4.467s-13.204 16.926-33.305 21.679" fill="#000C2A"/>
    <path d="M204.451 474.039c-5.172-2.356-14.201-3.513-24.375-2.756s-18.931 3.239-23.698 6.334l-4.198.309.369 4.98c.39 5.255 13.35 8.58 28.94 7.419s27.913-6.359 27.521-11.621l-.369-4.979-4.198.309z" fill="#1433D6"/>
    <path d="M208.747 475.053q-.577.214-1.158.461c-5.842 2.49-9.7 6.568-8.618 9.108.311.729.995 1.25 1.95 1.566 5.178-2.125 8.297-4.793 8.097-7.481z" fill="#0069FF"/>
    <path d="m196.165 487.825-.536-7.195 1.955-.142.499 6.752a49 49 0 0 1-1.918.585m9.168-3.902q-.857.564-1.885 1.1l-.002-.007-.599-8.099 1.955-.143z" fill="#1433D6"/>
    <path d="M180.087 471.283c-10.173.758-18.931 3.24-23.697 6.335l-4.199.309.369 4.979c.391 5.255 13.35 8.58 28.94 7.419 3.93-.293 7.651-.844 11.014-1.585-5.116.561-7.556-1.003.99-3.738 13.055-4.178 15.604-8.532 15.02-11.268l-4.069.301.008.004c-5.172-2.356-14.202-3.513-24.376-2.756" fill="#000C2A"/>
    <path d="M181.024 485.324c-15.591 1.158-28.546-2.164-28.937-7.421s11.932-10.458 27.523-11.616 28.546 2.164 28.937 7.421-11.932 10.457-27.523 11.616" fill="#C6E3FF"/>
    <path d="M180.759 481.793c-11.148.828-20.411-1.547-20.69-5.304s8.531-7.475 19.679-8.304c11.148-.828 20.412 1.547 20.691 5.304s-8.532 7.475-19.68 8.304" fill="#80D34A"/>
    <path d="M181.148 479.601c-8.046.598-14.733-1.116-14.934-3.829-.202-2.713 6.158-5.396 14.205-5.994 8.046-.598 14.733 1.116 14.934 3.829.202 2.713-6.158 5.397-14.205 5.994" fill="#C6E3FF"/>
    <path d="M186.771 466.082c3.159.035 6.128.269 8.79.669l.256.038c.15.024.286.045.43.07.366.066.733.132 1.086.201l-.052.029c5.789 1.105 9.84 3.067 10.888 5.564-3.757-2.4-7.981-3.887-12.354-4.725l-14.151 8.104a22 22 0 0 0-1.169-.034c-2.033 0-3.967.29-5.724.811l10.943-9.783c-15.159-.004-29.215 5.304-29.28 5.328 4.832-2.952 13.355-5.305 23.189-6.033a82 82 0 0 1 7.124-.218z" fill="#F9FDF6"/>
    <path d="M515.461 589.639c-21.74.538-39.347-3.604-39.325-9.251s17.662-10.661 39.402-11.199 39.347 3.604 39.326 9.251-17.663 10.661-39.403 11.199" fill="#000C2A"/>
    <path d="M550.078 571.189c-6.115-3.411-17.285-5.93-30.216-6.371-12.931-.44-24.369 1.307-30.885 4.288l-5.335-.186-.368 5.839c-.387 6.163 15.367 11.713 35.183 12.388s36.194-3.769 36.58-9.94l.368-5.839-5.336-.185z" fill="#000C2A"/>
    <path d="M518.706 581.271c-19.816-.678-35.566-6.225-35.179-12.39.387-6.164 16.765-10.612 36.581-9.933 19.816.678 35.566 6.225 35.179 12.39-.387 6.164-16.765 10.611-36.581 9.933" fill="#000C2A"/>
    <path d="M518.96 577.127c-14.169-.485-25.431-4.45-25.154-8.856.276-4.406 11.987-7.585 26.156-7.1s25.431 4.45 25.154 8.856-11.987 7.585-26.156 7.1" fill="#80D34A"/>
    <path d="M519.813 574.636c-10.227-.35-18.356-3.213-18.156-6.394s8.652-5.476 18.88-5.126 18.356 3.213 18.156 6.394-8.653 5.476-18.88 5.126" fill="#000C2A"/>
  </g>
  <defs>
    <linearGradient gradientUnits="userSpaceOnUse" id="b" x1="0" x2="673" y1="622.5" y2="-228.5">
      <stop stop-color="#0069FF"/>
      <stop offset="1" stop-color="#80D34A"/>
    </linearGradient>
    <linearGradient gradientUnits="userSpaceOnUse" id="c" x1="604.508" x2="604.508" y1="27.712" y2="403.344">
      <stop stop-color="#C6E3FF"/>
      <stop offset=".06" stop-color="#F4F9FF"/>
      <stop offset="1" stop-color="#C6E3FF" stop-opacity="0"/>
    </linearGradient>
    <linearGradient gradientUnits="userSpaceOnUse" id="d" x1="1198.99" x2="-75.675" y1="-35" y2="43.263">
      <stop stop-color="#F4F9FF"/>
      <stop offset="1" stop-color="#C6E3FF" stop-opacity="0"/>
    </linearGradient>
    <linearGradient gradientUnits="userSpaceOnUse" id="e" x1="740.149" x2="737.301" y1="236.682" y2="409.164">
      <stop stop-color="#fff"/>
      <stop offset="1" stop-color="#fff" stop-opacity="0"/>
    </linearGradient>
    <linearGradient gradientUnits="userSpaceOnUse" id="g" x1="401.445" x2="634.044" y1="348.729" y2="163.222">
      <stop stop-color="#0069FF"/>
      <stop offset="1" stop-color="#80D34A"/>
    </linearGradient>
    <linearGradient gradientUnits="userSpaceOnUse" id="h" x1="679.21" x2="608.126" y1="-3.668" y2="135.737">
      <stop stop-color="#fff" stop-opacity="0"/>
      <stop offset=".48" stop-color="#fff" stop-opacity=".2"/>
      <stop offset="1" stop-color="#fff" stop-opacity="0"/>
    </linearGradient>
    <linearGradient gradientUnits="userSpaceOnUse" id="i" x1="679.21" x2="608.126" y1="-3.668" y2="135.737">
      <stop stop-color="#fff" stop-opacity="0"/>
      <stop offset=".48" stop-color="#fff" stop-opacity=".2"/>
      <stop offset="1" stop-color="#fff" stop-opacity="0"/>
    </linearGradient>
    <linearGradient gradientUnits="userSpaceOnUse" id="j" x1="679.21" x2="608.126" y1="-3.668" y2="135.737">
      <stop stop-color="#fff" stop-opacity="0"/>
      <stop offset=".48" stop-color="#fff" stop-opacity=".2"/>
      <stop offset="1" stop-color="#fff" stop-opacity="0"/>
    </linearGradient>
    <linearGradient gradientUnits="userSpaceOnUse" id="k" x1="679.21" x2="608.126" y1="-3.668" y2="135.737">
      <stop stop-color="#fff" stop-opacity="0"/>
      <stop offset=".48" stop-color="#fff" stop-opacity=".2"/>
      <stop offset="1" stop-color="#fff" stop-opacity="0"/>
    </linearGradient>
    <radialGradient cx="0" cy="0" gradientTransform="matrix(-.0813 171.89198 -459.22295 -.2172 529.081 438)" gradientUnits="userSpaceOnUse" id="f" r="1">
      <stop stop-color="#1433D6"/>
      <stop offset="1" stop-color="#0069FF" stop-opacity="0"/>
    </radialGradient>
    <clipPath id="a">
      <path d="M0 0h1056v608H0z" fill="#fff"/>
    </clipPath>
  </defs>
</svg>