<?xml version="1.0" encoding="utf-8"?>
<svg xmlns="http://www.w3.org/2000/svg" fill="none" height="80" width="144">
  <g clip-path="url(#a)" fill="#fff">
    <path d="M36.203 39.878a.15.15 0 0 0-.063.123.15.15 0 0 0 .063.124l3.583 2.123c.347.207.622.521.785.898q.015.02.026.042a.5.5 0 0 1 .065.206q.08.272.08.557v3.192l2.366 1.402v-7.853c0-.343.089-.68.256-.978s.407-.545.697-.718l6.661-3.975-6.64-3.934a.88.88 0 0 0-.897 0l-2.443 1.448v3.522c0 .344-.089.682-.256.98a1.94 1.94 0 0 1-.698.718z"/>
    <path d="m51.041 36.035-6.471 3.86a.9.9 0 0 0-.327.338.95.95 0 0 0-.12.459v7.868l6.67-3.952a.9.9 0 0 0 .328-.337.94.94 0 0 0 .12-.46v-7.896zm-26.587 1.72a1.94 1.94 0 0 1-.696-.719 2 2 0 0 1-.254-.979v-3.522l-2.448-1.448a.88.88 0 0 0-.896 0l-6.64 3.934 6.66 3.975c.29.173.53.42.696.718.167.298.255.635.256.978v7.848l2.372-1.403v-3.192c0-.344.089-.681.256-.98a1.94 1.94 0 0 1 .698-.718l3.579-2.12a.15.15 0 0 0 .047-.193.15.15 0 0 0-.047-.055z"/>
    <path d="m19.671 39.896-6.473-3.863-.198-.118v7.897c0 .161.042.32.12.46a.9.9 0 0 0 .328.336l6.67 3.952v-7.868a.95.95 0 0 0-.12-.459.9.9 0 0 0-.327-.337m11.495 8.314-6.653-3.943v7.635a.94.94 0 0 0 .12.462.9.9 0 0 0 .33.338l6.652 3.941V48.41a2 2 0 0 1-.45-.2m1.909 0q-.211.125-.446.19v8.234L39.28 52.7a.9.9 0 0 0 .328-.337.94.94 0 0 0 .12-.46v-7.61zm6.205-5.062-4.298-2.545-1.905 1.13a1.88 1.88 0 0 1-1.912 0l-1.905-1.13-4.296 2.545a1 1 0 0 0-.134.1l.326.192 6.519 3.863a.88.88 0 0 0 .895 0l6.565-3.864.292-.175a1 1 0 0 0-.147-.116"/>
    <path d="M32.628 32.557v8.234l6.652-3.94a.9.9 0 0 0 .328-.337.94.94 0 0 0 .12-.46v-7.605l-6.654 3.918q-.211.124-.446.19m-1.014-.001a2 2 0 0 1-.448-.192l-6.653-3.941v7.634a.94.94 0 0 0 .45.797l6.652 3.942zm7.665-5.247-6.711-3.977a.88.88 0 0 0-.894 0l-6.711 3.977a1 1 0 0 0-.134.097l.326.195 6.519 3.862a.88.88 0 0 0 .895 0l6.565-3.864.292-.175a1 1 0 0 0-.147-.115"/>
    <path clip-rule="evenodd" d="M68.532 49.633c4.185 0 7.746-2.722 8.76-6.616.103-.426-.13-.693-.572-.693h-3.064c-.363 0-.572.186-.729.533-.73 1.627-2.417 2.614-4.393 2.614-3.222 0-5.303-2.214-5.303-5.548s2.08-5.548 5.303-5.548c1.976 0 3.666.986 4.393 2.614.156.346.365.533.73.533h3.063c.438 0 .675-.3.572-.749-1.067-3.892-4.601-6.561-8.76-6.561-5.486 0-9.463 4.214-9.463 9.71 0 5.495 3.977 9.71 9.462 9.71m21.264-19.047H78.618c-.416 0-.65.241-.65.668v2.774c0 .426.234.666.65.666h3.501v13.898c0 .427.235.666.65.666h2.86c.416 0 .65-.239.65-.666V34.694h3.51c.415 0 .649-.24.649-.666v-2.774c.007-.427-.226-.668-.642-.668m11.151 19.047c5.225 0 9.462-4.214 9.462-9.71s-4.237-9.71-9.462-9.71-9.46 4.214-9.46 9.71 4.23 9.71 9.46 9.71m0-4.162c-2.963 0-5.303-2.214-5.303-5.548s2.335-5.548 5.303-5.548 5.303 2.214 5.303 5.548-2.34 5.548-5.303 5.548m12.351 3.259c.752 0 1.222-.372 1.222-1.254s-.47-1.28-1.222-1.28-1.223.4-1.223 1.28.469 1.255 1.223 1.255m8.11-11.097c1.897 0 3.063 1.121 3.063 2.934v.722h-3.662c-2.806 0-4.548 1.413-4.548 3.76 0 2.454 1.742 3.815 4.498 3.815 1.559 0 3.063-.666 3.717-1.92v.966a.84.84 0 0 0 .209.63.8.8 0 0 0 .593.267.8.8 0 0 0 .594-.267.84.84 0 0 0 .209-.63v-7.335c0-2.72-1.664-4.535-4.679-4.535-2.189 0-3.587.934-4.315 2.108a.84.84 0 0 0-.13.45c0 .205.08.401.221.546a.75.75 0 0 0 .533.227c.233 0 .416-.08.676-.374.818-.936 1.644-1.364 3.021-1.364m-.495 9.679c-2.026 0-2.963-.88-2.963-2.268 0-1.547 1.168-2.268 2.859-2.268h3.667v1.12c0 2.273-1.742 3.416-3.563 3.416m9.931-10.272a.87.87 0 0 0-.244-.603.82.82 0 0 0-1.176 0 .87.87 0 0 0-.243.603v10.831c0 .227.088.444.243.604a.82.82 0 0 0 1.176 0 .87.87 0 0 0 .244-.604zm-.832-3.352c.624 0 .988-.372.988-1.013 0-.774-.364-1.067-.988-1.067s-.987.3-.987 1.067c0 .638.363 1.014.987 1.014" fill-rule="evenodd"/>
  </g>
  <defs>
    <clipPath id="a">
      <path d="M13 23h118v33.852H13z" fill="#fff"/>
    </clipPath>
  </defs>
</svg>