<svg fill="none" height="800" viewBox="0 0 1600 800" width="1600" xmlns="http://www.w3.org/2000/svg" xmlns:xlink="http://www.w3.org/1999/xlink"><filter id="a" color-interpolation-filters="sRGB" filterUnits="userSpaceOnUse" height="594" width="1039" x="216" y="-44"><feFlood flood-opacity="0" result="BackgroundImageFix"/><feBlend in="SourceGraphic" in2="BackgroundImageFix" mode="normal" result="shape"/><feGaussianBlur result="effect1_foregroundBlur_767_14541" stdDeviation="5"/></filter><filter id="b" color-interpolation-filters="sRGB" filterUnits="userSpaceOnUse" height="594" width="1039" x="614" y="-44"><feFlood flood-opacity="0" result="BackgroundImageFix"/><feBlend in="SourceGraphic" in2="BackgroundImageFix" mode="normal" result="shape"/><feGaussianBlur result="effect1_foregroundBlur_767_14541" stdDeviation="5"/></filter><linearGradient id="c"><stop offset="0" stop-color="#fff" stop-opacity=".6"/><stop offset="1" stop-color="#fff" stop-opacity="0"/></linearGradient><linearGradient id="d" gradientUnits="userSpaceOnUse" x1="226" x2="800" xlink:href="#c" y1="-33.9997" y2="540.47"/><linearGradient id="e" gradientUnits="userSpaceOnUse" x1="624" x2="1198" xlink:href="#c" y1="-33.9997" y2="540.47"/><clipPath id="f"><path d="m0 0h1600v800h-1600z"/></clipPath><g clip-path="url(#f)"><path d="m0 0h1600v800h-1600z" fill="#fff"/><path d="m0 0h1600v800h-1600z" fill="#6414ee"/><path d="m234.248-210.256c-194.7319-112.429-114.293-252.315-309.0254-364.744l-572.4886 1275.021 3897.076 2249.979 572.49-1275.02c-194.73-112.43-275.66 27.18-470.39-85.25s-114.29-252.32-309.02-364.75c-194.74-112.43-275.66 27.18-470.4-85.25-194.73-112.43-114.29-252.314-309.02-364.743-194.73-112.428-275.66 27.177-470.39-85.252-194.73-112.428-114.29-252.315-309.03-364.743-194.73-112.429-275.65 27.176-470.39-85.253-194.729-112.428-114.29-252.3146-309.022-364.743-194.732-112.429-275.658 27.1763-470.39-85.252z" fill="#32087a"/><path d="m25.7934 673.81c.8338-5.573-10.8027-12.222-15.2257-13.613-3.63378-1.155-8.14308-2.611-13.12926-3.857-.42178-.102-.81264-.305-1.13915-.591-.32652-.286-.57895-.647-.73586-1.052-.1569-.405-.2136-.841-.16518-1.272.04841-.432.20045-.845.44317-1.204 4.526776-7.137 8.58399-14.561 12.14603-22.225 1.35326-2.944 3.35945-5.541 5.86625-7.594s5.4484-3.508 8.6017-4.254 6.4353-.764 9.5973-.053c3.162.712 6.121 2.134 8.6521 4.16 2.7273 2.172 5.2828 4.551 7.6437 7.117 7.2705 8.127 16.2253 16.82 21.3156 14.419s-2.4899-16.547-6.2069-22.506c-4.1456-6.478-8.9062-12.54-14.2157-18.103-.9158-.884-1.5658-2.007-1.8763-3.241s-.2691-2.53.1196-3.742c.3887-1.211 1.1092-2.289 2.0796-3.111.9704-.823 2.1518-1.357 3.4104-1.541 6.795-1.405 13.7217-2.076 20.6606-2 10.8749.698 23.2273.361 25.2324-4.785 2.0052-5.145-13.4227-9.97-20.2215-11.61-15.4102-3.673-29.9948-6.761-46.9093-2.023 0 0-4.6893 1.372-8.2775 2.181-5.353 1.255-4.3416-11.301-2.8244-16.312 1.0718-3.303 2.9153-6.302 5.3773-8.749 2.4621-2.447 5.4719-4.272 8.7804-5.324 15.8124-6.252 32.7716-5.41 38.5016-5.474 9.6143.084 21.9708 2.778 23.0722-2.649 1.1015-5.427-9.3584-12.65-19.749-15.266-11.6727-2.33-23.6244-2.924-35.4687-1.763-1.3423.138-2.6981-.055-3.9484-.564-1.2503-.508-2.3567-1.316-3.2219-2.352-.8652-1.037-1.4626-2.269-1.7399-3.59s-.226-2.69.1495-3.986c2.9224-10.776 6.7179-20.959 12.4409-23.761 7.7302-3.793 41.3822.656 55.4079 6.92 9.998 4.429 21.72 8.649 25.379 4.382s-9.089-14.045-14.902-17.955c-6.86-4.492-14.1651-8.263-21.7989-11.254-.773-.314-1.4302-.86-1.8818-1.562-.4515-.702-.6754-1.526-.641-2.359.0344-.834.3254-1.637.8332-2.298.5077-.662 1.2076-1.151 2.0038-1.4 22.6797-6.946 55.9097-20.659 74.1107-34.238 19.899-14.892 32.879-25.604 27.507-33.273-5.39-7.697-22.621.92-43.529 10.575-5.475 2.504-10.593 4.925-15.89 6.971-1.44.619-3.017.852-4.575.678s-3.045-.75-4.314-1.672c-1.269-.921-2.278-2.156-2.927-3.583-.648-1.428-.916-3-.775-4.562.762-10.128.272-20.312-1.46-30.321-1.529-9.362-4.724-18.016-10.37-18.01-5.646.005-9.477 6.637-10.0513 18.097-.5408 13.187-2.1786 26.305-4.8963 39.219-.931 3.99-2.8893 7.665-5.6803 10.663-2.7909 2.997-6.3174 5.212-10.2297 6.425-4.8175 1.545-9.8385 3.274-15.06 5.309-4.4202 1.733-8.7199 3.759-12.8707 6.063-.9057.495-1.9155.768-2.947.799s-2.056-.181-2.9904-.62c-.9344-.438-1.7522-1.091-2.3876-1.904-.6353-.814-1.0703-1.766-1.2693-2.779-4.9318-21.635-13.0918-42.405-24.2056-61.612-3.7649-6.799-15.172897-25.164-20.21032-22.925-5.03738 2.239 3.87098 29.255 6.012234 34.448 2.663546 6.947 6.349216 17.252 9.826486 28.742-7.83881-3.614-15.99826-6.486-24.3716-8.579-4.3504-1.11-17.799-2.041-20.1638 3.065-1.6935 3.514 13.7136 12.344 18.7537 15.506 10.65484 6.672 28.5087 17.986 35.2862 32.943.5499 1.658.6518 3.432.2951 5.142-.3566 1.71-1.159 3.295-2.3257 4.594-11.0241 13.208-16.9453 26.583-22.96933 46.515-12.63567-21.159-27.60157-40.837-44.61767-58.664-4.1677-3.815-19.5492-16.82-23.7773-13.069-4.228 3.751 11.0572 25.22 14.1797 29.975 5.9131 9.036 14.3375 21.717 22.5867 35.394-4.1274-1.266-8.2268-2.552-11.4757-3.395-4.3504-1.11-17.8186-2.069-20.1638 3.065-1.6936 3.514 13.7415 12.324 18.7342 15.479 10.6548 6.671 29.2948 17.684 35.3058 32.97.8529 2.478.9932 5.144.4052 7.697-.6329 5.681-.6973 4.937-1.1041 11-.495 8.279-1.8164 16.487-3.9446 24.503-.1473.581-.4897 1.094-.97 1.454-.4803.359-1.0693.543-1.6689.52s-1.1734-.251-1.6253-.646c-.452-.395-.7548-.933-.8581-1.524-1.0413-5.973-2.4078-11.885-4.0936-17.709-1.7956-5.352-8.9655-24.191-14.5389-23.073-5.5733 1.119-2.5934 27.381-2.1779 33.076s.9403 12.436 1.4041 19.801c.0412.532-.0852 1.063-.361 1.518-.2758.456-.6872.815-1.177 1.025-.4897.21-1.0329.261-1.5535.147s-.9926-.389-1.3495-.785c-4.0299-4.282-8.2718-8.359-12.7097-12.216-3.434-3.123-15.0063-9.859-19.4102-6.359-2.9572 2.363 6.7257 17.197 9.7704 22.256 6.5189 10.731 22.9549 30.106 16.7166 45.283-.8902 2.308-2.0398 4.508-3.4265 6.557-10.1602 12.187-14.9079 13.891-15.3065 14.211-3.3126 2.729-5.4712 6.61-6.043 10.865-.5719 4.255.4852 8.57 2.9594 12.079l.7617 1.088c2.8671 3.488 7.0014 5.694 11.4934 6.134s8.9739-.923 12.4597-3.788c7.5351-6.052 14.6302-12.633 21.2317-19.692 4.8241-5.088 11.4477-8.085 18.4549-8.352 4.76519-.137 9.20406-.087 12.90702-.02 5.98108.176 23.68768 1.077 24.22388-2.665z" fill="#6414ee"/><path d="m-34.6199 756.313c5.2988-1.912 14.09 8.195 16.3185 12.26 1.8419 3.337 4.1497 7.474 6.3461 12.119.1826.394.4578.737.8019 1.001.3442.264.7472.441 1.17457.515.42736.075.86642.045 1.27968-.088.41327-.132.78842-.362 1.09349-.671 6.11023-5.841 12.59413-11.278 19.41026-16.277 2.6216-1.906 4.7752-4.383 6.2975-7.245s2.3735-6.033 2.4886-9.272-.5087-6.462-1.8241-9.423-3.288-5.584-5.7679-7.669c-2.6619-2.248-5.49365-4.287-8.46985-6.099-9.38653-5.534-19.65695-12.609-18.29825-18.073 1.3588-5.464 16.70479-.808 23.27287 1.667 7.15893 2.794 14.03143 6.272 20.52183 10.387 1.0452.724 2.2726 1.141 3.543 1.203 1.2703.063 2.5328-.233 3.6443-.852 1.1114-.619 2.0271-1.537 2.6436-2.651.6164-1.113.909-2.376.8441-3.647.0492-6.94-.6474-13.865-2.0779-20.656-2.8087-10.529-4.8923-22.71-.2407-25.687s12.396 11.206 15.332 17.552c6.6118 14.393 12.4883 28.09 11.1497 45.61 0 0-.4285 4.869-.52 8.547-.1839 5.496 11.925 2.038 16.5407-.434 3.0276-1.7 5.6067-4.097 7.5243-6.992 1.9175-2.895 3.1184-6.206 3.5024-9.657 3.0384-16.736-1.1018-33.204-2.1587-38.836-1.961-9.413-7.0165-21.003-1.9123-23.149 5.1043-2.146 14.2282 6.694 18.8232 16.371 4.565 10.99 7.483 22.595 8.66 34.44.126 1.344.581 2.635 1.323 3.762.743 1.126 1.751 2.053 2.936 2.698s2.51.988 3.859 1.001 2.68-.307 3.877-.93c9.992-4.982 19.23-10.704 20.859-16.868 2.207-8.326-8.73-40.457-17.611-52.983-6.295-8.936-12.721-19.604-9.254-24.031 3.467-4.426 15.543 6.156 20.511 11.089 5.743 5.846 10.867 12.27 15.29 19.17.46.696 1.123 1.234 1.899 1.539s1.628.362 2.438.165c.811-.197 1.54-.641 2.09-1.269.549-.627.891-1.41.98-2.24 2.377-23.608 9.323-58.892 19.076-79.41 10.708-22.441 18.671-37.275 27.238-33.513 8.598 3.775 3.519 22.367-1.858 44.769-1.385 5.861-2.757 11.357-3.729 16.954-.324 1.534-.245 3.126.23 4.62.476 1.494 1.331 2.839 2.482 3.903s2.558 1.81 4.085 2.166c1.526.356 3.119.31 4.622-.135 9.778-2.737 19.856-4.256 30.005-4.524 9.475-.338 18.582 1.095 19.68 6.634s-4.654 10.598-15.774 13.412c-12.82 3.12-25.358 7.303-37.485 12.505-3.728 1.697-6.949 4.339-9.341 7.665-2.393 3.326-3.875 7.22-4.298 11.295-.573 5.028-1.287 10.292-2.262 15.813-.835 4.676-1.98 9.291-3.427 13.814-.308.986-.379 2.03-.208 3.048.171 1.017.58 1.981 1.192 2.811.613.83 1.412 1.504 2.334 1.967.922.464 1.94.703 2.972.7 22.169.587 44.122 4.511 65.12 11.639 7.4 2.357 27.631 9.939 26.42 15.319s-29.432 1.949-34.94.869c-7.33-1.248-18.151-2.839-30.093-3.992 5.075 6.978 9.484 14.416 13.172 22.218 1.938 4.048 5.479 17.055.936 20.378-3.113 2.351-14.778-11.026-18.863-15.348-8.621-9.14-23.201-24.428-39.185-28.138-1.733-.213-3.492.035-5.098.721-1.607.686-3.003 1.784-4.048 3.183-10.792 13.406-22.745 21.841-41.105 31.664 23.209 8.237 45.421 19.05 66.221 32.237 4.554 3.339 20.306 15.87 17.456 20.754-2.85 4.883-26.88-5.892-32.151-8.02-10.013-4.025-24.089-9.797-39.107-15.201 2.048 3.799 4.109 7.567 5.57 10.588 1.938 4.049 5.511 17.07.937 20.378-3.114 2.352-14.766-11.056-18.833-15.334-8.621-9.139-23.059-25.258-39.2163-28.151-2.5952-.35-5.2365.036-7.6237 1.115-5.4446 1.736-4.7024 1.653-10.5656 3.243-8.0183 2.111-15.8057 5.019-23.2462 8.681-.5414.259-.9775.695-1.2359 1.237s-.3234 1.155-.1839 1.739c.1396.583.4753 1.101.9507 1.467s1.062.557 1.6616.542c6.0582-.152 12.1198.028 18.1581.537 5.5966.71 25.4631 4.042 25.4562 9.728s-26.3312 7.921-31.9944 8.632c-5.6631.711-12.3727 1.52-19.6827 2.512-.529.064-1.0247.292-1.4177.652s-.6638.834-.7739 1.356c-.1102.521-.0546 1.064.1592 1.552.2139.488.5754.897 1.0334 1.17 4.9842 3.111 9.8091 6.471 14.4568 10.066 3.7327 2.754 12.5961 12.781 10.0261 17.788-1.7374 3.364-18.1696-3.219-23.7233-5.212-11.7929-4.285-33.9954-16.6-47.65225-7.501-2.08862 1.326-4.02002 2.886-5.75702 4.648-9.96003 12.359-10.70223 17.35-10.93873 17.804-2.0274 3.785-5.4093 6.664-9.468 8.06-4.0588 1.397-8.4947 1.208-12.4184-.53l-1.2151-.533c-3.9788-2.127-6.9495-5.748-8.2585-10.068-1.3091-4.319-.8491-8.982 1.2785-12.964 4.4597-8.579 9.5233-16.83 15.1524-24.691 4.0442-5.73 5.6878-12.815 4.58-19.74-.7973-4.701-1.7139-9.044-2.5032-12.663-1.3411-5.831-5.6847-23.02-2.1211-24.282z" fill="#6414ee"/><g filter="url(#a)" opacity=".2"><path d="m685.576-34h-459.576l574.47 574h444.53z" fill="url(#d)"/></g><g filter="url(#b)" opacity=".2"><path d="m1083.58-34h-459.58l574.47 574h444.53z" fill="url(#e)"/></g><g fill="#9c64ff"><path d="m1525.86 477.169c-4.14 4.146-7.43 9.069-9.68 14.486-2.24 5.417-3.4 11.224-3.4 17.088s1.16 11.67 3.4 17.088c2.25 5.417 5.54 10.339 9.68 14.485 4.15 4.144 7.44 9.064 9.69 14.48 2.24 5.417 3.4 11.222 3.4 17.085s-1.16 11.669-3.4 17.085c-2.25 5.416-5.54 10.337-9.69 14.48-4.14 4.144-7.44 9.064-9.68 14.48-2.25 5.416-3.4 11.222-3.4 17.085 0 5.864 1.15 11.669 3.4 17.085 2.24 5.416 5.54 10.337 9.68 14.48 4.15 4.144 7.44 9.064 9.69 14.48 2.24 5.417 3.4 11.222 3.4 17.085s-1.16 11.669-3.4 17.085c-2.25 5.417-5.54 10.337-9.69 14.48-4.14 4.146-7.43 9.069-9.68 14.486-2.24 5.417-3.4 11.224-3.4 17.088s1.16 11.67 3.4 17.088c2.25 5.417 5.54 10.339 9.68 14.485 4.15 4.144 7.44 9.064 9.69 14.48 2.24 5.417 3.4 11.222 3.4 17.085s-1.16 11.669-3.4 17.085c-2.25 5.416-5.54 10.337-9.69 14.481-4.15 4.142-7.44 9.062-9.68 14.478-2.25 5.417-3.4 11.223-3.4 17.086h-63.13c-.01-5.863 1.15-11.671 3.39-17.088 2.25-5.417 5.54-10.337 9.69-14.476 4.15-4.144 7.44-9.065 9.69-14.481 2.24-5.416 3.4-11.222 3.4-17.085s-1.16-11.668-3.4-17.085c-2.25-5.416-5.54-10.336-9.69-14.48-4.14-4.146-7.43-9.068-9.68-14.485-2.24-5.418-3.4-11.224-3.4-17.088s1.16-11.671 3.4-17.088c2.25-5.417 5.54-10.34 9.68-14.486 4.15-4.143 7.44-9.063 9.69-14.48 2.24-5.416 3.4-11.222 3.4-17.085s-1.16-11.668-3.4-17.085c-2.25-5.416-5.54-10.336-9.69-14.48-4.14-4.143-7.44-9.064-9.68-14.48-2.25-5.416-3.4-11.221-3.4-17.085 0-5.863 1.15-11.669 3.4-17.085 2.24-5.416 5.54-10.336 9.68-14.48 4.15-4.143 7.44-9.064 9.69-14.48 2.24-5.416 3.4-11.222 3.4-17.085s-1.16-11.668-3.4-17.085c-2.25-5.416-5.54-10.336-9.69-14.48-4.14-4.146-7.43-9.068-9.68-14.485-2.24-5.418-3.4-11.224-3.4-17.088s1.16-11.671 3.4-17.088c2.25-5.417 5.54-10.34 9.68-14.486 4.15-4.146 7.44-9.068 9.68-14.485 2.25-5.418 3.4-11.224 3.4-17.088s-1.15-11.671-3.4-17.088c-2.24-5.417-5.53-10.34-9.68-14.486-4.14-4.143-7.44-9.064-9.68-14.48-2.25-5.416-3.4-11.222-3.4-17.085s1.15-11.668 3.4-17.085c2.24-5.416 5.54-10.336 9.68-14.48l8.83-8.822c6.63-6.619 11.01-15.159 12.51-24.407 1.51-9.248.06-18.736-4.13-27.117-5.34-10.672-8.13-22.445-8.13-34.382s2.79-23.71 8.13-34.383l14.39-28.781v31.314c0 20.376 8.1 39.917 22.51 54.324l9.06 9.074c4.15 4.143 7.44 9.064 9.68 14.48 2.25 5.416 3.4 11.222 3.4 17.085s-1.15 11.669-3.4 17.085c-2.24 5.416-5.53 10.337-9.68 14.48s-7.44 9.064-9.69 14.48c-2.24 5.416-3.4 11.222-3.4 17.085s1.16 11.669 3.4 17.085c2.25 5.416 5.54 10.337 9.69 14.48 4.14 4.146 7.43 9.068 9.68 14.486 2.24 5.417 3.4 11.224 3.4 17.087 0 5.864-1.16 11.671-3.4 17.088-2.25 5.418-5.54 10.34-9.68 14.486z"/><path d="m1416.61 604.925c-3.96 3.946-7.1 8.635-9.24 13.799s-3.24 10.7-3.24 16.29c0 5.864 1.15 11.67 3.4 17.086 2.24 5.417 5.53 10.337 9.68 14.479 4.15 4.144 7.44 9.064 9.69 14.48 2.24 5.416 3.4 11.222 3.4 17.085s-1.16 11.669-3.4 17.085c-2.25 5.416-5.54 10.337-9.69 14.48-4.14 4.146-7.43 9.068-9.68 14.486-2.24 5.417-3.4 11.224-3.4 17.088s1.16 11.67 3.4 17.087c2.25 5.418 5.54 10.34 9.68 14.486 4.15 4.144 7.44 9.064 9.69 14.48 2.24 5.416 3.4 11.222 3.4 17.085s-1.16 11.669-3.4 17.085c-2.25 5.416-5.54 10.337-9.69 14.48-4.15 4.142-7.44 9.063-9.68 14.479-2.25 5.417-3.4 11.223-3.4 17.086h-63.13c0-5.864 1.15-11.671 3.39-17.088 2.25-5.417 5.54-10.337 9.69-14.477 8.37-8.374 13.07-19.728 13.07-31.565s-4.7-23.19-13.07-31.565c-4.14-4.146-7.43-9.068-9.68-14.486-2.24-5.417-3.4-11.223-3.4-17.087s1.16-11.671 3.4-17.088c2.25-5.418 5.54-10.34 9.68-14.486 8.37-8.374 13.07-19.728 13.07-31.565s-4.7-23.19-13.07-31.565c-4.15-4.14-7.44-9.06-9.69-14.477-2.24-5.417-3.39-11.224-3.39-17.088 0-5.588 1.1-11.123 3.23-16.286 2.14-5.164 5.28-9.854 9.23-13.803l2.97-2.952c7.98-7.984 12.45-18.806 12.45-30.089s-4.47-22.105-12.45-30.089l-2.97-2.969c-3.95-3.951-7.08-8.642-9.22-13.805-2.14-5.162-3.24-10.696-3.24-16.284s1.1-11.121 3.24-16.284 5.27-9.854 9.22-13.805l2.97-2.952c7.97-7.989 12.45-18.813 12.45-30.097 0-11.285-4.48-22.108-12.45-30.098-4.19-4.187-7.45-9.203-9.59-14.726-2.14-5.524-3.1-11.433-2.82-17.349s1.79-11.709 4.43-17.007c2.65-5.299 6.37-9.986 10.93-13.763l15.1-12.562c7.86-6.488 14.19-14.631 18.54-23.848 4.35-9.216 6.61-19.279 6.62-29.47v-30.593l13.03 26.064c5.59 11.207 8.05 23.721 7.1 36.211-.95 12.489-5.27 24.488-12.5 34.718-5.8 8.196-8.51 18.177-7.66 28.178.85 10.002 5.21 19.382 12.3 26.482l7.69 7.665c7.98 7.983 12.46 18.809 12.46 30.098 0 11.288-4.48 22.114-12.46 30.097l-2.96 2.952c-3.95 3.951-7.08 8.642-9.22 13.805s-3.24 10.696-3.24 16.284 1.1 11.122 3.24 16.284c2.14 5.163 5.27 9.854 9.22 13.805l2.96 2.969c3.95 3.951 7.08 8.642 9.22 13.805 2.14 5.162 3.24 10.696 3.24 16.284s-1.1 11.122-3.24 16.284c-2.14 5.163-5.27 9.854-9.22 13.805z"/><path d="m1629.82 729.708c-8.37 8.378-13.07 19.734-13.07 31.574s4.7 23.196 13.07 31.573c4.15 4.144 7.44 9.064 9.68 14.48 2.25 5.417 3.4 11.222 3.4 17.085s-1.15 11.669-3.4 17.085c-2.24 5.416-5.53 10.337-9.68 14.48s-7.44 9.064-9.68 14.481c-2.24 5.416-3.39 11.222-3.39 17.084h-63.14c-.01-5.863 1.15-11.669 3.39-17.086 2.25-5.416 5.54-10.336 9.69-14.479s7.44-9.064 9.68-14.48c2.25-5.416 3.4-11.222 3.4-17.085s-1.15-11.668-3.4-17.085c-2.24-5.416-5.53-10.336-9.68-14.48-4.15-4.146-7.44-9.068-9.68-14.485-2.25-5.418-3.4-11.224-3.4-17.088s1.15-11.671 3.4-17.088c2.24-5.417 5.53-10.34 9.68-14.486 4.15-4.143 7.44-9.063 9.68-14.48 2.25-5.416 3.4-11.222 3.4-17.085s-1.15-11.668-3.4-17.085c-2.24-5.416-5.53-10.336-9.68-14.48-4.15-4.142-7.44-9.062-9.69-14.479-2.24-5.416-3.4-11.222-3.39-17.086-.01-5.862 1.14-11.668 3.38-17.085s5.53-10.337 9.68-14.48c8.37-8.375 13.07-19.728 13.07-31.565s-4.7-23.19-13.07-31.565c-4.15-4.146-7.44-9.068-9.68-14.486-2.24-5.417-3.4-11.223-3.4-17.087s1.16-11.671 3.4-17.088c2.24-5.418 5.53-10.34 9.68-14.486l10.06-10.063c6.33-6.318 10.61-14.391 12.29-23.171 1.68-8.781.69-17.865-2.86-26.072-4.81-11.151-7.3-23.168-7.3-35.313 0-12.146 2.49-24.163 7.3-35.314l12.01-27.825v26.215c0 23.638 9.39 46.309 26.1 63.029l5.46 5.451c4.15 4.146 7.44 9.069 9.68 14.486 2.25 5.417 3.4 11.224 3.4 17.088s-1.15 11.67-3.4 17.088c-2.24 5.417-5.53 10.339-9.68 14.485-8.36 8.378-13.06 19.733-13.06 31.573s4.7 23.196 13.06 31.574c4.15 4.143 7.44 9.064 9.69 14.48 2.24 5.416 3.4 11.222 3.4 17.085s-1.16 11.669-3.4 17.085c-2.25 5.416-5.54 10.337-9.69 14.48-8.36 8.375-13.06 19.728-13.06 31.565s4.7 23.191 13.06 31.565c4.15 4.144 7.44 9.064 9.69 14.48 2.24 5.416 3.4 11.222 3.4 17.085s-1.16 11.669-3.4 17.085c-2.25 5.416-5.54 10.337-9.69 14.48z"/></g></g></svg>