<?xml version="1.0" encoding="utf-8"?>
<svg xmlns="http://www.w3.org/2000/svg" fill="none" height="80" width="144">
  <path clip-rule="evenodd" d="M11.791 25.204a2.67 2.67 0 0 1-1.302 2.777l.365 2.083h7.794l.364-2.092a2.68 2.68 0 0 1-1.302-2.777 2.63 2.63 0 0 1 3.055-2.152c1.433.251 2.387 1.631 2.136 3.08a2.66 2.66 0 0 1-2.161 2.162l-.313 1.78h3.333c3.168 0 5.737 2.586 5.737 5.77V47.58c0 3.185-2.57 5.772-5.737 5.772h-5.39c-.269 0-.538.078-.773.226l-6.092 3.914c-.964.616-2.222-.087-2.205-1.241l.026-1.432a1.44 1.44 0 0 0-1.432-1.467H5.741c-3.167 0-5.737-2.587-5.737-5.772V35.836c0-3.185 2.57-5.772 5.737-5.772h3.342l-.312-1.78a2.664 2.664 0 0 1-.026-5.242 2.643 2.643 0 0 1 3.055 2.153zm-2.413 1.51c.573-.104.955-.651.85-1.233a1.053 1.053 0 0 0-1.223-.859 1.07 1.07 0 0 0-.86 1.233c.105.581.652.963 1.224.859zm10.754 0a1.06 1.06 0 0 0 1.224-.86 1.057 1.057 0 1 0-2.083-.373 1.06 1.06 0 0 0 .85 1.233zM8.779 44.819a.72.72 0 0 0-.963.347.733.733 0 0 0 .338.972c1.207.573 3.273 1.25 5.642 1.441 2.378.2 5.12-.078 7.612-1.458a.734.734 0 0 0 .286-.99.72.72 0 0 0-.98-.286c-2.18 1.207-4.61 1.467-6.805 1.285-2.196-.183-4.097-.808-5.147-1.302zm.347-6.058c-.763 0-1.388.625-1.388 1.397 0 .4-.321.73-.72.73-.4 0-.721-.33-.721-.73 0-1.58 1.267-2.855 2.83-2.855 1.562 0 2.829 1.276 2.829 2.855 0 .4-.321.73-.72.73-.4 0-.72-.33-.72-.73 0-.772-.626-1.397-1.39-1.397m9.86 1.406c0-.773.625-1.397 1.389-1.397s1.389.624 1.389 1.397c0 .4.32.729.72.729s.72-.33.72-.729c0-1.58-1.267-2.856-2.829-2.856s-2.83 1.276-2.83 2.856c0 .4.322.729.72.729.4 0 .721-.33.721-.729m22.254 8.879V33.9h10.207v2.639h-7.004v3.61h6.483v2.64h-6.483v3.618h7.039v2.639zM74.005 33.9v15.146h3.203v-6.258h6.5v6.258h3.195V33.9h-3.194v6.25h-6.501V33.9zm28.442 3.785v11.361h3.151v-6.822c0-.417.078-.781.243-1.094a1.86 1.86 0 0 1 .66-.729c.277-.173.599-.269.946-.269q.781 0 1.25.495c.321.33.477.772.477 1.328v7.082h3.055v-6.934c0-.59.156-1.068.477-1.424.322-.364.764-.547 1.337-.547.503 0 .92.157 1.259.478.338.312.503.79.503 1.423v7.022h3.142v-7.638q.002-1.851-.998-2.856-.99-1.015-2.578-1.015c-.833 0-1.554.2-2.17.59a3.04 3.04 0 0 0-1.258 1.562h-.122a2.78 2.78 0 0 0-1.093-1.57c-.547-.391-1.216-.582-1.988-.582q-1.158 0-1.979.573-.83.574-1.18 1.58h-.131v-2.006h-3.003zm22.237 11.578c-.729 0-1.371-.121-1.935-.373a3.17 3.17 0 0 1-1.346-1.129c-.33-.503-.486-1.128-.486-1.874q-.002-.95.347-1.589c.235-.425.547-.772.946-1.032.4-.26.851-.46 1.363-.59s1.05-.226 1.614-.278c.66-.07 1.198-.13 1.597-.191.408-.061.695-.157.877-.278a.62.62 0 0 0 .278-.547v-.043c0-.469-.148-.834-.443-1.085-.286-.26-.703-.382-1.241-.382-.564 0-1.015.121-1.354.373a1.73 1.73 0 0 0-.668.929l-2.917-.235a3.94 3.94 0 0 1 .877-1.788c.434-.512.99-.894 1.675-1.171q1.042-.417 2.396-.417a7.3 7.3 0 0 1 1.814.226 4.7 4.7 0 0 1 1.545.685q.675.47 1.076 1.198c.26.486.39 1.06.39 1.736v7.664h-2.985v-1.58h-.087a3.2 3.2 0 0 1-.729.938 3.3 3.3 0 0 1-1.102.625 4.6 4.6 0 0 1-1.485.225zm.903-2.179c.46 0 .876-.095 1.232-.277q.534-.287.833-.755c.2-.313.304-.677.304-1.077V43.77c-.095.06-.234.121-.408.174a6 6 0 0 1-.573.138c-.208.044-.425.078-.633.113-.208.026-.408.06-.573.078a3.7 3.7 0 0 0-.972.26 1.6 1.6 0 0 0-.642.478c-.157.2-.226.443-.226.738 0 .425.156.755.469.98.312.226.711.33 1.197.33zm11.092-4.608v6.57h-3.151V37.685h3.003v2.005h.131c.251-.66.677-1.18 1.267-1.571s1.31-.582 2.152-.582q1.183 0 2.066.52c.59.348 1.042.843 1.371 1.476.33.634.486 1.398.486 2.274v7.239h-3.15v-6.675c0-.694-.174-1.24-.53-1.631-.364-.39-.859-.59-1.484-.59a2.23 2.23 0 0 0-1.119.277 1.9 1.9 0 0 0-.756.799c-.173.347-.269.764-.277 1.25zm-39.908 1.736v-6.527h3.15v11.361h-3.028V46.98h-.122a3.36 3.36 0 0 1-1.276 1.606c-.59.408-1.31.608-2.17.608-.763 0-1.423-.174-2.005-.521s-1.024-.834-1.354-1.476c-.32-.633-.486-1.397-.486-2.282v-7.239h3.151v6.674c0 .669.182 1.198.538 1.589q.534.583 1.432.581.573 0 1.068-.26a2.03 2.03 0 0 0 .798-.781q.316-.521.304-1.276zM68.66 46.729c-.495 0-.955-.122-1.363-.365a2.84 2.84 0 0 1-.99-.99 2.63 2.63 0 0 1-.364-1.362c0-.495.121-.955.364-1.363s.573-.738.99-.98a2.63 2.63 0 0 1 1.362-.374c.495 0 .955.122 1.363.373.408.243.738.573.98.981.244.408.374.86.374 1.363s-.121.955-.373 1.363a2.9 2.9 0 0 1-.98.989c-.409.243-.86.365-1.364.365m-10.008-5.07-2.083-3.974h-3.255l3.255 5.685-3.376 5.685h3.255l2.204-3.932 2.24 3.932h3.22l-3.377-5.685 3.29-5.685h-3.23L58.66 41.66z" fill="#fff" fill-rule="evenodd"/>
</svg>