<?xml version="1.0" encoding="utf-8"?>
<svg xmlns="http://www.w3.org/2000/svg" fill="none" height="80" width="144">
  <path clip-rule="evenodd" d="M61.04 39.388a2847 2847 0 0 1-2.666 7.542l-.39 1.083h2.986l.627-1.851.628-1.85h5.587l.627 1.85.628 1.85h1.432c.92 0 1.433-.053 1.433-.148 0-.082-1.173-3.476-2.607-7.542l-2.607-7.393h-3.4zm3.842-3.093c-.122.324-1.889 5.631-1.889 5.673 0 .021.918.039 2.04.039 1.888 0 2.033-.018 1.94-.244-.054-.135-.498-1.43-.985-2.88-.488-1.45-.92-2.669-.96-2.709s-.106.015-.146.121m10.82.395c-1.74.532-3.023 2.12-3.356 4.155-.525 3.206.568 5.987 2.746 6.984 1.099.503 2.586.482 3.565-.051.422-.23.867-.617 1.081-.94l.364-.551.038 2.958.038 2.958h2.787V36.7h-2.653v.907c0 .513-.061.908-.14.908a.14.14 0 0 1-.14-.139c0-.28-1.062-1.308-1.606-1.555-.582-.266-2.05-.336-2.723-.13m23.814.065c-1.309.414-2.165 1.075-2.66 2.053-.189.372-.343.732-.343.802s.393.17.873.225 1.03.128 1.222.164c.28.052.41-.03.65-.408.166-.26.521-.577.79-.704.672-.32 1.867-.301 2.422.037.486.297.824 1.08.692 1.606-.107.426-.573.593-2.178.779-2.405.278-3.455.649-4.182 1.477-.962 1.095-.93 3.054.069 4.221.695.812 1.688 1.2 3.064 1.2 1.354-.001 2.197-.35 2.948-1.224l.495-.577-.039.769-.04.768 1.286.04 1.286.04-.002-4.3c-.001-4.225-.007-4.312-.331-5.008-.655-1.407-2.179-2.163-4.326-2.146-.625.005-1.389.09-1.696.186m-14.702 4.17c.062 4.816.126 5.159 1.154 6.187 1.577 1.577 4.526 1.334 5.668-.466l.408-.644v2.011h2.654V36.7H92.06l-.043 3.746c-.043 3.733-.044 3.749-.392 4.262-.685 1.01-2.162 1.37-3.087.753-.918-.613-.963-.85-.963-5.025V36.7H84.76zm-8.21-1.942c-1.813.823-2.19 4.606-.627 6.282.51.546.577.574 1.491.624 1.239.068 1.76-.247 2.345-1.42.364-.726.41-.963.41-2.096 0-2.252-.817-3.448-2.416-3.539-.457-.026-.953.036-1.203.15m26.113 3.858c-.16.064-.789.192-1.397.282-1.91.285-2.572.717-2.572 1.677q-.002 1.403 1.986 1.395c1.526-.005 2.483-1.039 2.483-2.681 0-.84-.02-.867-.5-.673m38.489-2.373v7.543H144V32.929h-2.793zm-19.715-3.723c-2.394.891-3.606 2.8-3.606 5.679 0 2.557 1.004 4.406 2.854 5.253 2.633 1.205 5.743.5 7.079-1.606.685-1.08.612-1.161-1.207-1.34-.834-.083-.84-.081-1.139.389-.396.62-1.091.935-2.065.935-1.515 0-2.509-.858-2.79-2.409l-.095-.524h7.867l-.064-1.361c-.11-2.334-.985-3.853-2.714-4.713-.707-.351-1.002-.412-2.213-.45-.934-.029-1.565.02-1.907.147m11.336.046c-2.236.782-3.49 2.806-3.49 5.633 0 3.182 1.54 5.218 4.336 5.73 2.356.431 4.857-.552 5.723-2.25.486-.953.44-.995-1.333-1.178-.824-.085-.842-.08-1.091.344-.405.688-1.222 1.024-2.334.961-.759-.043-1.031-.126-1.445-.441-.564-.43-.978-1.147-1.123-1.944l-.095-.524h7.867l-.065-1.361c-.124-2.648-1.204-4.236-3.38-4.97-.879-.298-2.721-.297-3.57 0m-25.002 1.024v1.117h2.794c1.536 0 2.793.03 2.793.067 0 .036-1.288 1.685-2.863 3.663l-2.863 3.598v1.751h9.357v-2.235h-2.863c-1.574 0-2.863-.033-2.863-.072 0-.04 1.226-1.658 2.724-3.595l2.723-3.522V36.7h-8.939zm14.3 1.105c-.316.144-.734.472-.929.73-.361.48-.697 1.434-.554 1.577.044.044 1.2.08 2.57.08 2.411 0 2.491-.01 2.491-.284 0-.156-.098-.518-.217-.803-.578-1.385-1.98-1.927-3.361-1.3m11.453 0c-.316.144-.734.472-.929.73-.362.48-.697 1.434-.554 1.577.043.044 1.2.08 2.57.08 2.41 0 2.49-.01 2.49-.284 0-.156-.097-.518-.216-.803-.579-1.385-1.981-1.927-3.361-1.3" fill="#fff" fill-rule="evenodd"/>
  <path d="M22.052 20c.512-.32 1.219-.672 1.573-.781 1.45-.448 3.627-.189 4.977.592l.617.356-.647.41c-2.254 1.43-2.377 4.673-.241 6.388 1.183.95 3.45 3.234 4.437 4.472 3.973 4.98 6.295 11.472 6.295 17.603 0 .898.07 1.32.297 1.79.36.74 1.502 1.798 2.48 2.294 1.595.808 3.137 2.877 3.52 4.721.171.826.13 2.842-.064 3.157-.07.113-.315-.112-.716-.657-1.185-1.61-2.818-2.693-4.82-3.2-2.568-.649-5.45.044-7.573 1.822l-.629.527-.045-.453c-.072-.724.242-1.943.774-3.006.61-1.221 1.958-2.528 3.233-3.137.494-.236 1.091-.63 1.327-.877.392-.41.428-.532.42-1.404-.009-1.061-.69-3.291-1.5-4.91-1.293-2.587-3.825-5.475-6.153-7.02-2.224-1.476-4.947-2.576-7.323-2.958-1.392-.225-3.708-.33-4.08-.187-.336.13-.333.136.26.606.633.501 2.027 1.14 2.51 1.148.452.008.928.166.928.307 0 .072-.264.416-.587.767-1.062 1.152-2.756 1.726-4.355 1.475-1.219-.19-3.078-1.202-4.389-2.386l-.55-.498-.813.396c-1.973.962-4.322 2.795-5.838 4.556-.741.862-2.363 3.257-2.517 3.716-.081.245-1.016-.421-1.325-.945-.277-.468-.306-1.542-.059-2.187.326-.85.207-1.787-.4-3.138-1.161-2.592-1.377-4.785-.674-6.85 1.498-4.395 4.08-7.5 7.785-9.365 2.376-1.196 4.22-1.58 7.572-1.578 3.321.002 4.106-.193 6.293-1.566" fill="#fff"/>
</svg>