<?xml version="1.0" encoding="utf-8"?>
<svg xmlns="http://www.w3.org/2000/svg" fill="none" height="80" width="144">
  <path clip-rule="evenodd" d="M42 40v30h11.944V24.206h10.572v7.897L64.517 40l.767-.863a11.7 11.7 0 0 1 5.08-3.328c2.573-.86 6.392-.787 9.196.171 4.426 1.513 8.364 5.718 9.855 10.52.685 2.206.837 3.358.84 6.397.003 3.046-.145 4.17-.843 6.396C88.024 63.72 82.866 68.499 79.047 70c0 0 12.279-.007 16.225 0V10H80.858l-.035 10.843-.035 10.844-6.865-10.841-6.866-10.841-12.529-.003L42 10zm28.388 4.558c-2.381.58-4.566 2.566-5.305 4.82-.83 2.538-.676 5.59.399 7.91.787 1.7 2.8 3.31 4.87 3.896 1.698.481 4.112.064 5.668-.98 2.267-1.521 3.353-3.547 3.547-6.619.185-2.909-.592-5.238-2.318-6.952-1.962-1.948-4.378-2.68-6.86-2.075M96.918 50h1.662c-.839.828-.33 2.214.577 2.629.574.262 1.365.214 1.835 0 .908-.415 1.416-1.663.593-2.63h.412v-1.24h-5.08zm3.157 0c-.754 0-.961.62-.961.828 0 .406.489.827.961.827.473 0 .962-.42.962-.828 0-.406-.343-.827-.962-.827m-3.442 3.879c-.239.45.038.948.528.948.46 0 .717-.223.717-.621 0-.4-.257-.622-.71-.622-.246 0-.434.103-.536.294zm1.52.327v.621h3.844v-1.24h-3.844zm1.474 2.165c-.581-.717-1.526-.765-2.034-.223-.764.832-.426 3.23-.426 3.23h4.83c0-1.723 0-2.551-.137-3.033-.259-.91-1.785-.966-2.233.027zm.311 1.904h1.236c0-.503.068-1.517-.619-1.517-.686 0-.618 1.517-.618 1.517zm-1.922 0h1.098c0-.289 0-1.38-.549-1.38-.752 0-.549 1.38-.549 1.38m1.107 2.183c-1.226.66-1.297 2.748-.12 3.469.541.331 1.469.366 2.027.076 1.278-.663 1.277-2.855-.002-3.545a1.9 1.9 0 0 0-.953-.251 1.9 1.9 0 0 0-.952.251m.219 1.242c-.49.542-.06 1.31.733 1.31.794 0 1.236-.805.71-1.335-.366-.435-1.156-.295-1.443.024m-2.15 3.88v.548l1.476.039 1.477.039-1.476.966-1.475.966v.586l-.001.585h4.805v-1.103l-1.544-.003-1.545-.003 1.54-.996 1.539-.996.005-.586.005-.586h-4.805v.547zM64.528 70h5.824c-1.642-.831-4.399-3.073-5.824-4.76z" fill="#fff" fill-rule="evenodd"/>
</svg>