<?xml version="1.0" encoding="utf-8"?>
<svg xmlns="http://www.w3.org/2000/svg" fill="none" height="80" width="144">
  <path clip-rule="evenodd" d="M53.049 21v7.131h8.957V21zm-5.142 36.726V41.765c0-6.664-4.003-10.992-10.084-10.982-3.392 0-6.298 1.302-8.253 3.471l-1.24-2.696H22v26.168h9.018V43.759c0-3.337 1.624-5.3 4.437-5.3 1.913 0 3.03 1.074 3.33 3.223q.007.039.01.072l.01.073c.053.392.073.785.073 1.188v14.711zM92.4 31.819l-8.047 12.233 8.632 13.674H82.99l-3.783-6.81-4.416 6.14-.214.295-.208.365h-.058l-.013.017H64.52l.011-.017h-.044l8.6-13.44-7.985-12.457h.093l-.05-.076h9.892l4.193 5.768 3.432-5.692zm22.948-.247-.908 2.034c-2.132-1.796-4.856-2.823-7.897-2.823-7.907 0-13.559 5.801-13.559 13.938 0 8.178 5.653 14.041 13.559 14.041 3 0 5.683-1.006 7.805-2.75l.765 1.858H122V31.572zm-7.621 19.168c-3.336 0-5.785-2.563-5.785-5.998 0-3.415 2.428-5.978 5.785-5.978 3.356 0 5.785 2.563 5.785 5.977.01 3.436-2.449 5.999-5.785 5.999m-54.678 6.993v-25.99h8.957v25.99z" fill="#fff" fill-rule="evenodd"/>
</svg>