<?xml version="1.0" encoding="utf-8"?>
<svg xmlns="http://www.w3.org/2000/svg" fill="none" height="80" width="144">
  <path clip-rule="evenodd" d="M20.123 18.806a2.3 2.3 0 0 1 .73-1.714 2.4 2.4 0 0 1 1.73-.73c.662 0 1.273.238 1.748.73.474.474.729 1.052.729 1.73 0 .68-.238 1.273-.73 1.748-.474.475-1.051.73-1.73.73s-1.273-.238-1.748-.73c-.492-.475-.729-1.069-.729-1.764M24.5 42.05h-3.8V25.643h3.8zM0 50.992h3.8V40.236c1.51 1.543 2.936 2.307 5.158 2.307s4.072-.814 5.531-2.443c1.477-1.646 2.206-3.63 2.206-6.16 0-2.527-.746-4.614-2.222-6.26-1.46-1.663-3.682-2.495-5.583-2.495q-2.85 0-5.09 2.24v-1.781H0zm11.537-20.886c.848 1 1.273 2.274 1.273 3.852 0 1.494-.425 2.732-1.307 3.716-.865.984-1.866 1.476-3.257 1.476s-2.528-.475-3.377-1.46c-.849-1-1.29-2.24-1.29-3.817 0-1.578.425-2.85 1.29-3.818.865-.967 2.07-1.442 3.394-1.442 1.323 0 2.409.492 3.274 1.493M38.482 46.19v-.475l3.546.034v.492c-.424 9.994-9.01 18.121-19.139 18.121h-.051C14.27 64.33 7.602 57.847 5.04 51.824l-.288-.645h3.885l.118.305c2.359 5.904 7.5 9.298 14.1 9.315 8.093 0 15.22-6.685 15.627-14.609m3.596-14.81v-5.04h.017l-.172-.094c-1.323-.718-1.983-1.077-4.409-1.077-2.528 0-4.649.849-6.38 2.528-1.73 1.697-2.596 3.75-2.596 6.21s.848 4.513 2.562 6.159 3.835 2.46 6.38 2.46c1.544 0 3.07-.407 4.615-1.205v-5.005c-.916 1.103-1.696 1.85-2.375 2.222l-.115.066c-.616.348-.935.529-2.295.529-1.442 0-2.613-.493-3.529-1.477-.916-1-1.374-2.29-1.374-3.8s.458-2.766 1.408-3.767 2.138-1.493 3.563-1.493c.916 0 1.697.204 2.376.611.678.39 1.459 1.12 2.324 2.172m15.78-5.736h3.817v16.424h-3.818v-1.714q-2.34 2.19-5.04 2.189c-1.798 0-4.139-.814-5.632-2.46-1.476-1.68-2.205-3.767-2.205-6.278s.729-4.514 2.205-6.159c1.476-1.646 3.309-2.46 5.531-2.46 2.223 0 3.632.78 5.141 2.358zm-9.01 8.16c0 1.579.424 2.852 1.273 3.852.865 1.001 1.95 1.493 3.274 1.493 1.323 0 2.545-.474 3.41-1.441.866-1.001 1.29-2.274 1.29-3.818s-.44-2.817-1.29-3.818c-.865-.984-1.985-1.46-3.376-1.46-1.392 0-2.392.493-3.275 1.477-.865 1-1.306 2.24-1.306 3.715m17.595 17.188h3.8V40.236c1.51 1.543 2.936 2.307 5.159 2.307s4.071-.814 5.53-2.443c1.477-1.646 2.206-3.63 2.206-6.16 0-2.527-.746-4.614-2.222-6.26-1.46-1.663-3.682-2.495-5.582-2.495q-2.851 0-5.09 2.24v-1.781h-3.8zM77.98 30.106c.849 1 1.273 2.274 1.273 3.852 0 1.494-.424 2.732-1.306 3.716-.866.984-1.867 1.476-3.258 1.476s-2.528-.475-3.377-1.46c-.848-1-1.29-2.24-1.29-3.817 0-1.578.425-2.85 1.29-3.818.866-.967 2.07-1.442 3.394-1.442 1.323 0 2.409.492 3.274 1.493" fill="#fff" fill-rule="evenodd"/>
</svg>