<?xml version="1.0" encoding="utf-8"?>
<svg xmlns="http://www.w3.org/2000/svg" fill="none" height="608" width="1056">
  <g clip-path="url(#a)">
    <path d="M0 0h1056v608H0z" fill="url(#b)"/>
    <path d="M775.438 772.087c32.489 5.6 63.815 7.753 93.899 7.08l.112 4.998.112 4.999c-31.712.71-64.755-1.656-99.032-7.786l1.76-9.844zm210.744-4.925 1.308 4.827c-30.929 8.388-63.658 14.141-98.054 16.323l-.317-4.989-.316-4.991c33.684-2.136 65.748-7.771 96.07-15.995zm-326.138-28.536c31.893 12.981 62.889 22.513 92.926 29.072l-1.067 4.885-1.066 4.885c-30.612-6.684-62.155-16.39-94.563-29.58zM1096 723.758l2.32 4.43c-28.29 14.806-58.9 27.943-91.67 38.205l-2.99-9.543c32.14-10.066 62.2-22.963 90.02-37.523zm-541.97-37.414a4796 4796 0 0 1 32.707 17.162l11.091 5.89c14.861 7.914 29.546 15.068 44.052 21.504l-2.028 4.57-2.028 4.57a691 691 0 0 1-41.874-20.322l-2.823-1.496a4908 4908 0 0 0-43.708-23.004l2.306-4.436zm644.16-23.017c-24.39 19.106-51.92 38.104-82.37 55.333l-2.47-4.351-2.46-4.352c29.96-16.952 57.08-35.662 81.14-54.503zm-1424.561-12.903 3.634 3.434c-10.856 11.492-21.645 23.797-32.399 36.93l-3.868-3.167-3.868-3.168c10.891-13.301 21.835-25.785 32.866-37.462zm674.222-17.148c28.416 13.55 57.885 28.203 88.485 43.925l-2.285 4.447-2.285 4.448c-30.527-15.683-59.905-30.293-88.219-43.794l2.151-4.513zm463.716-4.264c2.195-.249 4.189 1.31 4.456 3.503l1.87 15.314c.267 2.193-1.293 4.189-3.488 4.439-34.778 3.959-71.337 4.377-109.525.249a3.977 3.977 0 0 1-3.514-4.419l1.778-15.326c.254-2.194 2.241-3.765 4.437-3.529 36.282 3.908 70.983 3.513 103.986-.231m370.463-49.821 3.67 3.392c-18.58 20.112-42.77 44.033-72.11 68.343l-3.19-3.85-3.19-3.851c28.95-23.982 52.82-47.585 71.15-67.428zm-610.503 20.497a4.02 4.02 0 0 1 5.177-2.304c34.734 13.134 68.327 22.134 100.7 27.658a4.025 4.025 0 0 1 3.304 4.606l-2.475 15.228a3.975 3.975 0 0 1-4.586 3.292c-33.996-5.789-69.153-15.218-105.376-28.926a3.98 3.98 0 0 1-2.297-5.16zm370.153-4.196c2.05-.83 4.39.138 5.24 2.178l5.9 14.254a3.97 3.97 0 0 1-2.17 5.213c-32.58 13.233-67.657 23.888-105.022 30.566a3.975 3.975 0 0 1-4.613-3.254l-2.593-15.209a4.026 4.026 0 0 1 3.267-4.632c35.484-6.357 68.871-16.49 99.991-29.116m-1174.941-16.91c-25.914 16.402-51.051 36.753-75.783 61.248l-7.037-7.105c25.171-24.93 50.867-45.753 77.473-62.592zm472.687 6.391c28.925 11.838 59.035 25.126 90.444 39.811l-2.118 4.53-2.117 4.529c-31.286-14.628-61.247-27.848-89.997-39.615l1.893-4.628zm209.503-44.901a3.996 3.996 0 0 1 5.39-1.712 4859 4859 0 0 1 46.664 24.54c16.037 8.54 31.86 16.181 47.461 22.981a4.02 4.02 0 0 1 2.096 5.264l-6.075 14.181a3.98 3.98 0 0 1-5.246 2.091c-16.22-7.065-32.639-14.993-49.248-23.839a4873 4873 0 0 0-46.421-24.413 4 4 0 0 1-1.713-5.392zm611.051-9.739c1.81-1.271 4.31-.853 5.59.946l8.95 12.563a3.97 3.97 0 0 1-.94 5.569c-28.06 19.762-59.51 38.755-94.09 55.071-1.99.942-4.37.069-5.3-1.935l-6.49-13.998a4.02 4.02 0 0 1 1.94-5.324c33.09-15.628 63.29-33.854 90.34-52.892M227.33 544.73c29.777 8.953 60.904 19.909 93.552 32.788l-3.67 9.303c-32.434-12.795-63.295-23.655-92.761-32.515zm-254.486-15.711 1.084 4.881c-31.584 7.012-61.571 18.508-90.479 34.715l-4.89-8.723c29.74-16.674 60.643-28.526 93.2-35.755zm1353.076-2.782c3.91 2.714 4.1 2.845 4.11 2.851v.002l-.01.015a.2.2 0 0 0-.03.039c-.02.033-.06.082-.1.144l-.39.548c-.34.479-.85 1.182-1.51 2.095a420 420 0 0 1-5.93 7.879c-5.23 6.776-12.99 16.448-23.15 28.083l-3.77-3.29-3.76-3.289c10.01-11.468 17.64-20.981 22.76-27.613a346 346 0 0 0 5.77-7.667c.64-.88 1.12-1.55 1.44-1.997l.36-.499c.04-.054.06-.095.08-.121.01-.012.02-.022.02-.027v-.006zm-1558.679-26.668a3.98 3.98 0 0 1 5.646-.106l11.094 10.721a4.02 4.02 0 0 1 .107 5.665c-10.539 11.053-21.025 22.892-31.486 35.534a4.017 4.017 0 0 1-5.637.555l-11.938-9.775a3.984 3.984 0 0 1-.552-5.622c10.844-13.108 21.755-25.43 32.766-36.972m343.684 19.705c30.859 3.803 63.224 10.499 97.363 19.953l-1.335 4.819-1.334 4.819c-33.749-9.346-65.626-15.933-95.917-19.666l.611-4.963zm316.236-39.319a3.995 3.995 0 0 1 5.313-1.935c30.303 14.165 61.803 29.624 94.598 46.33a3.997 3.997 0 0 1 1.744 5.38l-7.016 13.74a4.004 4.004 0 0 1-5.383 1.745c-32.581-16.596-63.823-31.927-93.831-45.955a4.005 4.005 0 0 1-1.936-5.317zm835.659-38.046a4.014 4.014 0 0 1 5.66-.123l11.16 10.648c1.6 1.524 1.67 4.054.13 5.644-21.28 22.081-48.41 47.533-80.9 72.66a3.98 3.98 0 0 1-5.6-.74l-9.37-12.257c-1.34-1.755-1-4.265.74-5.617 31.36-24.257 57.58-48.851 78.18-70.215M-8.571 520.365c31.552-5.12 64.625-6.1 99.634-3.156l-.838 9.965c-34.296-2.884-66.543-1.912-97.195 3.062zm920.138-31.923c2.195-.249 4.189 1.31 4.456 3.503l1.87 15.314c.267 2.193-1.293 4.19-3.488 4.44-34.778 3.959-71.337 4.375-109.525.248a3.977 3.977 0 0 1-3.514-4.419l1.778-15.326c.254-2.194 2.241-3.764 4.437-3.528 36.282 3.908 70.983 3.511 103.986-.232m-240.04-29.324a4.02 4.02 0 0 1 5.177-2.304c34.734 13.134 68.327 22.135 100.7 27.659 2.178.372 3.658 2.425 3.304 4.605l-2.475 15.229c-.354 2.18-2.408 3.663-4.586 3.292-33.996-5.789-69.153-15.22-105.376-28.927a3.98 3.98 0 0 1-2.297-5.159zm370.153-4.195c2.05-.83 4.39.137 5.24 2.178l5.9 14.253a3.97 3.97 0 0 1-2.17 5.213c-32.58 13.232-67.657 23.887-105.022 30.566a3.975 3.975 0 0 1-4.613-3.255l-2.593-15.209c-.371-2.177 1.093-4.242 3.267-4.632 35.484-6.357 68.871-16.488 99.991-29.114m-1166.067-41.647c1.928-1.078 4.359-.361 5.416 1.579l7.385 13.546c1.057 1.939.341 4.366-1.586 5.446-27.863 15.61-54.827 35.749-81.351 60.722-1.609 1.514-4.141 1.459-5.667-.138l-10.662-11.152a3.98 3.98 0 0 1 .138-5.646c27.836-26.224 56.444-47.645 86.327-64.357m426.48 13.508a3.99 3.99 0 0 1 5.151-2.325c31.078 11.835 63.524 25.462 97.486 40.806a3.995 3.995 0 0 1 1.992 5.293l-6.377 14.049a4.007 4.007 0 0 1-5.298 1.992c-33.573-15.167-65.545-28.592-96.077-40.221a4.01 4.01 0 0 1-2.327-5.16zm246.836-27.283a3.997 3.997 0 0 1 5.39-1.712 4904 4904 0 0 1 46.664 24.54c16.037 8.541 31.86 16.183 47.461 22.983a4.02 4.02 0 0 1 2.096 5.263l-6.075 14.182a3.98 3.98 0 0 1-5.246 2.09c-16.22-7.065-32.639-14.994-49.248-23.839a4884 4884 0 0 0-46.421-24.412 4.004 4.004 0 0 1-1.713-5.393zm611.051-9.738c1.81-1.271 4.31-.852 5.59.946l8.95 12.564a3.97 3.97 0 0 1-.94 5.568c-28.06 19.762-59.51 38.755-94.09 55.07-1.99.943-4.37.07-5.3-1.934l-6.49-13.997a4.02 4.02 0 0 1 1.94-5.324c33.09-15.628 63.29-33.855 90.34-52.893m158.44-9.308c1.56 1.087 3.81 2.651 5.38 3.738.57.399 1.27.885 2.12 1.473 9.62 6.681 9.62 6.682 9.62 6.683v.009l-.02.016-.03.055-.13.187q-.18.238-.48.676c-.42.585-1.03 1.432-1.83 2.524-1.6 2.183-3.97 5.345-7.08 9.338-5.75 7.383-14.06 17.613-24.78 29.744a3.995 3.995 0 0 1-5.65.324l-11.5-10.285a4.03 4.03 0 0 1-.32-5.657c10.33-11.688 18.3-21.504 23.77-28.525 2.96-3.805 5.19-6.787 6.67-8.799.74-1.005 1.28-1.768 1.64-2.269.18-.251.31-.436.4-.554l.08-.125.02-.024zm-1146.74 6.194a3.98 3.98 0 0 1 4.776-3.014c32.337 7.461 66.231 17.58 101.922 30.213a3.99 3.99 0 0 1 2.422 5.106l-5.196 14.528a4.01 4.01 0 0 1-5.116 2.426c-34.942-12.366-67.91-22.196-99.175-29.416a4.016 4.016 0 0 1-3.02-4.791zM8.037 370.74c2.195-.248 4.16 1.354 4.384 3.551l1.565 15.349c.224 2.198-1.376 4.159-3.571 4.408-34.15 3.875-66.262 12.593-96.983 26.391-2.016.905-4.394.037-5.324-1.967l-6.49-13.996c-.93-2.004-.06-4.384 1.954-5.291 33.144-14.918 67.78-24.309 104.465-28.445m-240.796-11.742a3.98 3.98 0 0 1 5.646-.105l11.094 10.722a4.02 4.02 0 0 1 .107 5.665c-10.539 11.053-21.025 22.892-31.486 35.534a4.017 4.017 0 0 1-5.637.553l-11.938-9.773a3.984 3.984 0 0 1-.552-5.623c10.844-13.109 21.755-25.43 32.766-36.973m659.92-19.612a3.994 3.994 0 0 1 5.313-1.935c30.303 14.164 61.803 29.623 94.598 46.329a3.995 3.995 0 0 1 1.744 5.379L521.8 402.9a4.005 4.005 0 0 1-5.383 1.745c-32.581-16.596-63.823-31.928-93.831-45.955a4.005 4.005 0 0 1-1.936-5.317zM39.216 368.498c33.848-1.097 69.362 1.942 106.941 8.845a3.98 3.98 0 0 1 3.186 4.664l-2.882 15.157a4.02 4.02 0 0 1-4.68 3.196c-36.068-6.617-69.77-9.465-101.576-8.452-2.208.07-4.072-1.642-4.165-3.849l-.651-15.415c-.094-2.207 1.619-4.074 3.827-4.146m1223.604-67.159a4.014 4.014 0 0 1 5.66-.123l11.16 10.649c1.6 1.524 1.67 4.054.13 5.644-21.28 22.08-48.41 47.531-80.9 72.658a3.98 3.98 0 0 1-5.6-.739l-9.37-12.257c-1.34-1.755-1-4.264.74-5.616 31.36-24.258 57.58-48.852 78.18-70.216m-351.253 46.533c2.195-.249 4.189 1.31 4.456 3.503l1.87 15.315a3.974 3.974 0 0 1-3.488 4.438c-34.778 3.959-71.337 4.377-109.525.249-2.196-.237-3.768-2.224-3.514-4.419l1.778-15.326c.254-2.194 2.241-3.765 4.437-3.528 36.282 3.908 70.983 3.512 103.986-.232m-240.04-29.324a4.023 4.023 0 0 1 5.177-2.305c34.734 13.134 68.327 22.135 100.7 27.66a4.024 4.024 0 0 1 3.304 4.605l-2.475 15.229a3.976 3.976 0 0 1-4.586 3.292c-33.996-5.789-69.153-15.219-105.376-28.926a3.98 3.98 0 0 1-2.297-5.16zm370.153-4.195a4.03 4.03 0 0 1 5.24 2.178l5.9 14.253a3.97 3.97 0 0 1-2.17 5.213c-32.58 13.233-67.657 23.888-105.022 30.567a3.976 3.976 0 0 1-4.613-3.255l-2.593-15.209c-.371-2.178 1.093-4.243 3.267-4.633 35.484-6.357 68.871-16.488 99.991-29.114m-1166.067-41.647c1.928-1.078 4.359-.36 5.416 1.579l7.385 13.546c1.057 1.94.341 4.367-1.586 5.447-27.863 15.609-54.827 35.748-81.351 60.72-1.609 1.515-4.141 1.46-5.667-.137l-10.662-11.153a3.98 3.98 0 0 1 .138-5.644c27.836-26.225 56.444-47.645 86.327-64.358m426.48 13.508a3.99 3.99 0 0 1 5.151-2.324c31.078 11.834 63.524 25.462 97.486 40.806a3.994 3.994 0 0 1 1.992 5.292l-6.377 14.048a4.007 4.007 0 0 1-5.298 1.993c-33.573-15.167-65.545-28.592-96.077-40.22a4.01 4.01 0 0 1-2.327-5.16zm246.836-27.282a3.997 3.997 0 0 1 5.39-1.712 4881 4881 0 0 1 46.664 24.54c16.037 8.541 31.86 16.182 47.461 22.982a4.02 4.02 0 0 1 2.096 5.263l-6.075 14.182a3.98 3.98 0 0 1-5.246 2.091c-16.22-7.066-32.639-14.994-49.248-23.839a4850 4850 0 0 0-46.421-24.413 4.003 4.003 0 0 1-1.713-5.393zm611.051-9.738c1.81-1.272 4.31-.854 5.59.945l8.95 12.563a3.97 3.97 0 0 1-.94 5.57c-28.06 19.761-59.51 38.755-94.09 55.07-1.99.943-4.37.07-5.3-1.934l-6.49-13.999a4.02 4.02 0 0 1 1.94-5.324c33.09-15.628 63.29-33.854 90.34-52.891m158.44-9.309c1.56 1.087 3.81 2.651 5.38 3.737.57.4 1.27.885 2.12 1.474 9.47 6.575 9.62 6.68 9.62 6.683v.008l-.02.018-.03.054-.13.186a19 19 0 0 0-.48.677c-.42.584-1.03 1.432-1.83 2.523-1.6 2.184-3.97 5.347-7.08 9.339-5.75 7.384-14.06 17.613-24.78 29.743a3.996 3.996 0 0 1-5.65.326l-11.5-10.286c-1.64-1.472-1.78-4.002-.32-5.658 10.33-11.687 18.3-21.504 23.77-28.524 2.96-3.805 5.19-6.787 6.67-8.798.74-1.005 1.28-1.768 1.64-2.27.18-.25.31-.436.4-.553l.08-.126.02-.024c0 .004.1.074 2.12 1.471m-1146.74 6.194a3.98 3.98 0 0 1 4.776-3.013c32.337 7.461 66.231 17.578 101.922 30.212a3.99 3.99 0 0 1 2.422 5.107l-5.196 14.527a4.01 4.01 0 0 1-5.116 2.425c-34.942-12.365-67.91-22.195-99.175-29.415a4.016 4.016 0 0 1-3.02-4.791zM8.037 230.169c2.195-.247 4.16 1.355 4.384 3.553l1.565 15.349c.224 2.197-1.376 4.158-3.571 4.407-34.15 3.875-66.261 12.594-96.983 26.391-2.016.906-4.394.037-5.324-1.967l-6.49-13.996c-.93-2.004-.06-4.385 1.954-5.291 33.144-14.918 67.78-24.309 104.465-28.446m-240.796-11.74a3.98 3.98 0 0 1 5.646-.105l11.094 10.72a4.02 4.02 0 0 1 .107 5.665c-10.539 11.053-21.025 22.892-31.486 35.534a4.017 4.017 0 0 1-5.637.555l-11.938-9.774a3.984 3.984 0 0 1-.552-5.623c10.844-13.109 21.755-25.43 32.766-36.972m659.92-19.613a3.995 3.995 0 0 1 5.313-1.936c30.303 14.165 61.803 29.625 94.598 46.33a3.997 3.997 0 0 1 1.744 5.38l-7.016 13.74a4.004 4.004 0 0 1-5.383 1.746c-32.581-16.597-63.823-31.928-93.831-45.956a4.005 4.005 0 0 1-1.936-5.317zM39.216 227.929c33.847-1.098 69.362 1.941 106.941 8.844a3.98 3.98 0 0 1 3.186 4.665l-2.882 15.157a4.02 4.02 0 0 1-4.68 3.194c-36.068-6.616-69.77-9.464-101.576-8.452-2.208.071-4.072-1.641-4.165-3.848l-.651-15.414c-.094-2.208 1.619-4.074 3.827-4.146M1262.82 160.77a4.013 4.013 0 0 1 5.66-.123l11.16 10.647c1.6 1.525 1.67 4.054.13 5.645-21.28 22.08-48.41 47.532-80.9 72.659a3.98 3.98 0 0 1-5.6-.74l-9.37-12.257c-1.34-1.755-1-4.265.74-5.616 31.36-24.258 57.58-48.852 78.18-70.215m-351.253 46.532c2.195-.249 4.189 1.31 4.456 3.503l1.87 15.314c.267 2.193-1.293 4.19-3.488 4.44-34.778 3.959-71.337 4.376-109.525.248a3.977 3.977 0 0 1-3.514-4.419l1.778-15.325c.254-2.195 2.241-3.765 4.437-3.529 36.282 3.908 70.983 3.512 103.986-.232m-240.04-29.323a4.02 4.02 0 0 1 5.177-2.305c34.734 13.134 68.327 22.135 100.7 27.659a4.025 4.025 0 0 1 3.304 4.606l-2.475 15.228a3.975 3.975 0 0 1-4.586 3.292c-33.996-5.789-69.153-15.219-105.376-28.926a3.98 3.98 0 0 1-2.297-5.16zm370.153-4.195a4.03 4.03 0 0 1 5.24 2.177l5.9 14.253a3.97 3.97 0 0 1-2.17 5.213c-32.58 13.233-67.657 23.888-105.022 30.566a3.975 3.975 0 0 1-4.613-3.254l-2.593-15.209c-.371-2.178 1.093-4.242 3.267-4.632 35.484-6.357 68.871-16.489 99.991-29.114m-1166.067-41.648c1.928-1.078 4.359-.36 5.416 1.579l7.385 13.546c1.057 1.94.341 4.367-1.586 5.446-27.864 15.61-54.827 35.749-81.351 60.722-1.609 1.514-4.141 1.459-5.667-.138l-10.662-11.152a3.98 3.98 0 0 1 .138-5.646c27.836-26.224 56.444-47.644 86.327-64.357m426.48 13.509a3.99 3.99 0 0 1 5.151-2.325c31.078 11.834 63.524 25.462 97.486 40.805a3.996 3.996 0 0 1 1.992 5.293l-6.377 14.049a4.005 4.005 0 0 1-5.298 1.991c-33.573-15.167-65.545-28.591-96.077-40.219a4.01 4.01 0 0 1-2.327-5.161zm246.836-27.283a3.996 3.996 0 0 1 5.39-1.712 4881 4881 0 0 1 46.664 24.54c16.037 8.54 31.86 16.182 47.461 22.982a4.02 4.02 0 0 1 2.096 5.263l-6.075 14.182a3.98 3.98 0 0 1-5.246 2.09c-16.22-7.065-32.639-14.993-49.248-23.839a4884 4884 0 0 0-46.421-24.412 4 4 0 0 1-1.713-5.392zm611.051-9.739c1.81-1.271 4.31-.852 5.59.947l8.95 12.563a3.97 3.97 0 0 1-.94 5.568c-28.06 19.762-59.51 38.755-94.09 55.071-1.99.943-4.37.07-5.3-1.935l-6.49-13.997a4.02 4.02 0 0 1 1.94-5.324c33.09-15.628 63.29-33.855 90.34-52.893m158.44-9.307c1.56 1.087 3.81 2.65 5.38 3.737.57.4 1.27.885 2.12 1.474 9.62 6.68 9.62 6.681 9.62 6.682v.008l-.02.018-.03.054-.13.186q-.18.238-.48.678c-.42.584-1.03 1.432-1.83 2.523-1.6 2.184-3.97 5.346-7.08 9.338-5.75 7.384-14.06 17.613-24.78 29.744a3.995 3.995 0 0 1-5.65.324l-11.5-10.285c-1.64-1.472-1.78-4.002-.32-5.657 10.33-11.688 18.3-21.504 23.77-28.524 2.96-3.806 5.19-6.788 6.67-8.799.74-1.006 1.28-1.768 1.64-2.27.18-.25.31-.436.4-.553l.08-.126.02-.024s0 .002 2.12 1.472m-1146.74 6.193a3.98 3.98 0 0 1 4.776-3.014c32.337 7.462 66.231 17.579 101.922 30.212a3.99 3.99 0 0 1 2.422 5.108l-5.196 14.527a4.01 4.01 0 0 1-5.116 2.426c-34.942-12.366-67.91-22.195-99.175-29.415a4.016 4.016 0 0 1-3.02-4.791zM8.037 89.599c2.195-.247 4.16 1.355 4.384 3.553l1.565 15.348c.224 2.198-1.376 4.159-3.571 4.409-34.15 3.875-66.262 12.593-96.983 26.39-2.016.905-4.394.037-5.324-1.967l-6.49-13.996c-.93-2.004-.06-4.384 1.954-5.291C-63.284 103.128-28.648 93.737 8.037 89.6m-240.796-11.74a3.98 3.98 0 0 1 5.646-.106l11.094 10.722a4.02 4.02 0 0 1 .107 5.665c-10.539 11.053-21.025 22.891-31.486 35.533a4.017 4.017 0 0 1-5.637.555l-11.938-9.774a3.984 3.984 0 0 1-.552-5.623c10.844-13.108 21.755-25.43 32.766-36.972m659.92-19.613a3.995 3.995 0 0 1 5.313-1.935c30.303 14.165 61.803 29.623 94.598 46.329a3.996 3.996 0 0 1 1.744 5.38l-7.016 13.74a4.004 4.004 0 0 1-5.383 1.745c-32.581-16.596-63.823-31.927-93.831-45.955a4.004 4.004 0 0 1-1.936-5.316zM39.216 87.36c33.848-1.098 69.362 1.942 106.941 8.844a3.98 3.98 0 0 1 3.186 4.664l-2.882 15.158a4.02 4.02 0 0 1-4.68 3.195c-36.068-6.616-69.77-9.465-101.576-8.452-2.208.07-4.072-1.642-4.165-3.849l-.651-15.415c-.094-2.207 1.619-4.074 3.827-4.145M1262.82 20.2a4.014 4.014 0 0 1 5.66-.123l11.16 10.649c1.6 1.525 1.67 4.054.13 5.645-21.28 22.08-48.41 47.53-80.9 72.658a3.98 3.98 0 0 1-5.6-.74l-9.37-12.256c-1.34-1.755-1-4.265.74-5.617 31.36-24.258 57.58-48.852 78.18-70.215M911.567 66.733a4.025 4.025 0 0 1 4.456 3.502l1.87 15.315a3.975 3.975 0 0 1-3.488 4.439c-34.778 3.959-71.337 4.375-109.525.248a3.976 3.976 0 0 1-3.514-4.418l1.778-15.326c.254-2.195 2.241-3.765 4.437-3.529 36.282 3.908 70.983 3.513 103.986-.231m-240.04-29.325a4.02 4.02 0 0 1 5.177-2.304c34.734 13.134 68.327 22.135 100.7 27.659a4.025 4.025 0 0 1 3.304 4.605l-2.475 15.229a3.975 3.975 0 0 1-4.586 3.292C739.651 80.1 704.494 70.67 668.271 56.963a3.98 3.98 0 0 1-2.297-5.16zm370.153-4.195c2.05-.83 4.39.137 5.24 2.178l5.9 14.253a3.97 3.97 0 0 1-2.17 5.214c-32.58 13.232-67.657 23.887-105.022 30.566-2.175.389-4.242-1.078-4.613-3.256l-2.593-15.208a4.027 4.027 0 0 1 3.267-4.632c35.484-6.358 68.871-16.489 99.991-29.115M-124.387-8.433c1.928-1.079 4.359-.36 5.416 1.579l7.385 13.546c1.057 1.94.341 4.366-1.586 5.446-27.863 15.61-54.827 35.748-81.351 60.72-1.609 1.515-4.141 1.46-5.667-.137l-10.662-11.152a3.98 3.98 0 0 1 .138-5.645C-182.878 29.7-154.27 8.28-124.387-8.433m426.48 13.508a3.99 3.99 0 0 1 5.151-2.325c31.078 11.835 63.524 25.462 97.486 40.806a3.994 3.994 0 0 1 1.992 5.292l-6.377 14.049a4.007 4.007 0 0 1-5.298 1.992c-33.573-15.167-65.545-28.591-96.077-40.22a4.01 4.01 0 0 1-2.327-5.16zm246.836-27.283a3.997 3.997 0 0 1 5.39-1.712A4882 4882 0 0 1 600.983.62c16.037 8.54 31.86 16.182 47.461 22.982a4.02 4.02 0 0 1 2.096 5.264l-6.075 14.181a3.98 3.98 0 0 1-5.246 2.091c-16.22-7.065-32.639-14.994-49.248-23.839A4861 4861 0 0 0 543.55-3.114a4 4 0 0 1-1.713-5.393zm611.051-9.738c1.81-1.271 4.31-.853 5.59.945l8.95 12.564a3.97 3.97 0 0 1-.94 5.57c-28.06 19.76-59.51 38.754-94.09 55.07-1.99.942-4.37.07-5.3-1.935l-6.49-13.998a4.02 4.02 0 0 1 1.94-5.324c33.09-15.628 63.29-33.854 90.34-52.892m158.44-9.309c1.56 1.087 3.81 2.651 5.38 3.738.57.4 1.27.885 2.12 1.473 9.49 6.591 9.62 6.68 9.62 6.683v.009l-.02.017-.03.054-.13.187q-.18.237-.48.676c-.42.585-1.03 1.432-1.83 2.524-1.6 2.183-3.97 5.346-7.08 9.339-5.75 7.383-14.06 17.612-24.78 29.743a3.996 3.996 0 0 1-5.65.325l-11.5-10.285a4.03 4.03 0 0 1-.32-5.658c10.33-11.688 18.3-21.504 23.77-28.525a414 414 0 0 0 6.67-8.798c.74-1.005 1.28-1.768 1.64-2.27.18-.25.31-.435.4-.553l.08-.126.02-.023c0 .004.11.075 2.12 1.47M171.68-35.06a3.98 3.98 0 0 1 4.776-3.014c32.337 7.461 66.231 17.579 101.922 30.212a3.99 3.99 0 0 1 2.422 5.107l-5.196 14.528a4.01 4.01 0 0 1-5.116 2.425c-34.942-12.366-67.91-22.196-99.175-29.415a4.016 4.016 0 0 1-3.02-4.792zM8.037-50.97c2.195-.248 4.16 1.355 4.384 3.552l1.565 15.349c.224 2.198-1.376 4.158-3.571 4.407-34.15 3.875-66.261 12.594-96.983 26.392-2.016.905-4.394.036-5.324-1.968l-6.49-13.996c-.93-2.004-.06-4.384 1.954-5.291C-63.284-37.443-28.648-46.834 8.037-50.97m-240.796-11.74a3.98 3.98 0 0 1 5.646-.106l11.094 10.72a4.02 4.02 0 0 1 .107 5.666c-10.539 11.053-21.025 22.892-31.486 35.534a4.017 4.017 0 0 1-5.637.555l-11.938-9.775a3.984 3.984 0 0 1-.552-5.623c10.844-13.108 21.755-25.43 32.766-36.972m659.92-19.614a3.995 3.995 0 0 1 5.313-1.935c30.303 14.165 61.803 29.624 94.598 46.33a3.997 3.997 0 0 1 1.744 5.38L521.8-18.81a4.004 4.004 0 0 1-5.383 1.744c-32.581-16.596-63.823-31.927-93.831-45.954a4.005 4.005 0 0 1-1.936-5.318zM39.216-53.21c33.847-1.097 69.362 1.941 106.941 8.844a3.98 3.98 0 0 1 3.186 4.665l-2.882 15.157a4.02 4.02 0 0 1-4.68 3.195c-36.068-6.617-69.77-9.465-101.576-8.452-2.208.07-4.072-1.642-4.165-3.849l-.651-15.414c-.094-2.207 1.619-4.074 3.827-4.146m1223.604-67.16a4.014 4.014 0 0 1 5.66-.123l11.16 10.648c1.6 1.524 1.67 4.054.13 5.644-21.28 22.08-48.41 47.531-80.9 72.658a3.98 3.98 0 0 1-5.6-.739l-9.37-12.257c-1.34-1.755-1-4.264.74-5.616 31.36-24.258 57.58-48.851 78.18-70.215m-1387.207-28.634c1.928-1.078 4.359-.36 5.416 1.58l7.385 13.545c1.057 1.94.341 4.367-1.586 5.447-27.864 15.609-54.827 35.748-81.351 60.721-1.609 1.515-4.141 1.46-5.667-.137l-10.662-11.153a3.98 3.98 0 0 1 .138-5.645c27.836-26.225 56.444-47.645 86.327-64.358m426.48 13.509a3.99 3.99 0 0 1 5.151-2.325c31.078 11.835 63.524 25.462 97.486 40.806a3.995 3.995 0 0 1 1.992 5.293l-6.377 14.049a4.006 4.006 0 0 1-5.298 1.99c-33.573-15.166-65.545-28.591-96.077-40.219a4.01 4.01 0 0 1-2.327-5.16zm1016.327-46.329c1.56 1.087 3.81 2.651 5.38 3.737.57.4 1.27.885 2.12 1.474 9.62 6.68 9.62 6.682 9.62 6.683v.007l-.02.018-.03.055-.13.185q-.18.24-.48.678c-.42.584-1.03 1.432-1.83 2.523-1.6 2.184-3.97 5.346-7.08 9.338-5.75 7.384-14.06 17.613-24.78 29.744a3.996 3.996 0 0 1-5.65.325l-11.5-10.285c-1.64-1.473-1.78-4.002-.32-5.658 10.33-11.687 18.3-21.504 23.77-28.524 2.96-3.805 5.19-6.788 6.67-8.799.74-1.005 1.28-1.768 1.64-2.269.18-.251.31-.436.4-.554l.08-.125.02-.025c0 .001 0 .002 2.12 1.472m-1146.74 6.193a3.98 3.98 0 0 1 4.776-3.013c32.337 7.461 66.231 17.578 101.922 30.212a3.99 3.99 0 0 1 2.422 5.107l-5.196 14.527a4.01 4.01 0 0 1-5.116 2.426c-34.942-12.365-67.91-22.195-99.175-29.415a4.016 4.016 0 0 1-3.02-4.791zM8.037-191.54c2.195-.247 4.16 1.354 4.384 3.552l1.565 15.349c.224 2.197-1.376 4.159-3.571 4.408-34.15 3.875-66.262 12.593-96.983 26.39-2.016.906-4.394.038-5.324-1.966l-6.49-13.996c-.93-2.004-.06-4.385 1.954-5.291 33.144-14.918 67.78-24.309 104.465-28.446m31.179-2.241c33.848-1.098 69.362 1.942 106.941 8.845a3.98 3.98 0 0 1 3.186 4.664l-2.882 15.157a4.02 4.02 0 0 1-4.68 3.195c-36.068-6.616-69.77-9.465-101.576-8.453-2.208.071-4.072-1.64-4.165-3.847l-.651-15.415c-.094-2.207 1.619-4.074 3.827-4.146" fill="url(#c)"/>
    <path d="m124.472 182.374-66.935 38.645-39.022-67.589 66.934-38.645zm113.245-155.5-66.934 38.644 39.022 67.589 66.935-38.645zm103.102 30.592-63.445 36.63c35.324 61.182 14.82 139.221-45.77 174.203s-138.426 13.719-173.75-47.463l-63.445 36.63c55.667 96.418 178.698 130.026 274.183 74.898s127.894-178.48 72.227-274.898m510.299 160.355-66.935-38.645 39.023-67.589 66.935 38.645zm191.292 20.323L975.474 199.5l-39.022 67.588 66.938 38.645zm25.06 104.586-63.45-36.631c-35.323 61.183-113.159 82.445-173.749 47.463s-81.094-113.02-45.77-174.202l-63.445-36.63c-55.667 96.418-23.258 219.77 72.227 274.898s218.517 21.52 274.187-74.898" fill="#0069FF"/>
    <circle cx="537" cy="609.5" fill="#C6E3FF" r="405"/>
    <path d="M887.501 581.999C781.901 303.999 622 478.5 589.5 288c0-25.166-85.699-61.2-58.499-70 34-11 100 13 224.5 62 99.6 39.2 155.833 199 171.5 274-3.667 9.333-16.7 27.999-39.5 27.999" fill="#F4FEFF"/>
    <path d="M460.942 211.633C382.926 260.175 402 340.112 402 430.501c0 148.012 116.553 208 285 208 137.865 0 204.365-20.376 242.122-130.707C937.527 540.293 942 574.375 942 609.501c0 223.675-181.325 404.999-405 404.999S132 833.176 132 609.501c0-197.678 141.624-362.276 328.942-397.868" fill="#0069FF"/>
    <path d="M151.227 489.106a318.3 318.3 0 0 0 1.173 54.639c21.15 196.583 219.469 336.454 442.959 312.41 163.544-17.594 295.245-118.088 345.844-247.764 3.673 207.298-151.537 386.779-361.647 409.379-222.392 23.93-422.072-136.959-445.997-359.351-6.346-58.988.31-116.377 17.668-169.313" fill="#000C2A"/>
    <path d="M733.507 921.358c1.046-1.984 1.833-4.065 2.426-6.189l6.252-22.839c.797-2.771 1.185-5.694 1.185-8.573a32.55 32.55 0 0 0-5.012-16.8c-3.169-5.057-7.686-9.112-12.989-11.797l-32.727-15.754c-7.093-3.375-12.698-9.219-15.824-16.444l-5.853-13.63a32.2 32.2 0 0 0-8.031-11.204 33.2 33.2 0 0 0-11.955-6.88l-62.284-20.013c-3.126-1.035-6.392-1.531-9.723-1.585-.592-.744-1.239-1.434-1.929-2.135l-6.543-6.686c-1.639-1.639-3.471-3.019-5.455-4.216L539.8 742.39a26 26 0 0 0-13.291-3.321l-42.946 1.24h-.205l-63.523-1.089a20.8 20.8 0 0 1-8.376-4.357 20.4 20.4 0 0 1-5.551-7.58l-8.732-20.316 7.686-27.691c.895-3.321.55-6.836-.938-9.909a14.2 14.2 0 0 0-7.19-6.837l-15.123-6.287a8.8 8.8 0 0 1-3.029-2.178 8.2 8.2 0 0 1-1.79-3.267c-.345-1.186-.399-2.48-.194-3.72.194-1.24.69-2.383 1.434-3.419l4.905-6.642a9.3 9.3 0 0 0 1.681-3.914 8.6 8.6 0 0 0-.302-4.216 8.54 8.54 0 0 0-2.231-3.613c-1.046-.992-2.285-1.779-3.622-2.232l-6.198-2.027a9.3 9.3 0 0 0-4.959-.151 9.16 9.16 0 0 0-4.312 2.426l-2.824 2.825c-3.072 3.117-7.233 4.96-11.652 5.004-4.409.043-8.635-1.542-11.858-4.508l-13.884-13.08a16.97 16.97 0 0 1-5.055-9.316l-9.422-54.099a16.6 16.6 0 0 1 .69-8.379 16.8 16.8 0 0 1 4.711-6.987l31.789-28.393c1.929-1.736 4.268-2.976 6.791-3.666 2.533-.69 5.152-.744 7.685-.248l35.45 8.379c2.673.55 5.451.942 7.585 2.678s4 4 4.564 7.134c0 0 9.877 33.395 13.907 37.63C425.5 562.5 428.166 564.5 433 564s4.888-7.504 4.834-9.143l-1.841-42.731a15.57 15.57 0 0 1 2.479-9.359c1.79-2.772 4.409-4.95 7.492-6.147l49.791-26.71a34.1 34.1 0 0 0 15.177-16.595c3.029-7.084 3.471-15.01 1.337-22.44l-.576-4.049c-2.603-18.291 7.661-35.986 24.832-42.808l11.144-4.427a11.6 11.6 0 0 0 5.152-4.109c1.294-1.833 1.93-4.065 1.93-6.297v-41.321c0-1.833.442-3.666 1.337-5.305a11.6 11.6 0 0 1 3.675-4.066l69.571-46.13c1.984-1.283 3.471-3.17 4.312-5.402s.938-4.605.302-6.891l-11.998-43.499c-9.324-2.081-18.745-3.914-28.361-5.305a420 420 0 0 0-19.338-2.383c-11.351-1.09-22.863-1.683-34.462-1.834-1.736 0-3.471-.151-5.207-.151s-3.471.097-5.206.151a435 435 0 0 0-30.15 1.488c-6.446.55-12.85 1.284-19.188 2.136a398 398 0 0 0-36.305 6.588c-14.531 3.321-28.717 7.43-42.601 12.239-87.475 30.516-161.175 90.223-209.521 167.408a371 371 0 0 0-6.252 10.406c-15.425 26.311-27.725 54.649-36.898 84.324l13.388 9.759 18.552 27.346c1.433 2.524 2.425 5.306 2.975 8.174l7.588 39.046a4.56 4.56 0 0 0 1.294 2.523 4.9 4.9 0 0 0 2.479 1.337 4.13 4.13 0 0 0 2.232 0c1.185-.302 2.177-1.035 2.878-2.081a4.98 4.98 0 0 0 .69-3.472l-1.682-8.821-6.845-34.085c-.194-.691-.496-1.284-.496-1.931l-5.853-19.366c-.647-2.178-.399-4.507.647-6.545a9.04 9.04 0 0 1 4.904-4.357c2.135-.798 4.463-.744 6.597.097a9.05 9.05 0 0 1 4.765 4.508l15.328 33.298 12.095 47.564a51 51 0 0 0 8.828 18.429 51.1 51.1 0 0 0 15.329 13.522l44.185 25.61c2.328 1.337 4.409 2.976 6.295 4.906l13.388 14.018a28.84 28.84 0 0 0 11.362 7.085l34.365 11.646a16.13 16.13 0 0 1 7.039 4.658 16.34 16.34 0 0 1 3.665 7.581l2.727 14.568c.302 1.585.841 3.116 1.682 4.507l16.514 28.78c2.824 4.961 16.665 10.061 28.221 13.63a102 102 0 0 0 22.96 2.178 30.5 30.5 0 0 0-1.186 4.206l-4.667 23.485c-.647 3.117-1.833 6.147-3.568 8.821l-13.388 20.51a25.3 25.3 0 0 0-3.773 9.856 25.3 25.3 0 0 0 .593 10.556c2.479-.097-1.046 11.84-1.682 19.421L417 873.912c-.647 7.732 1.487 15.463 5.95 21.804l17.754 25.017a32.6 32.6 0 0 0 16.212 11.937l58.317 19.42 30.247 10.902c6.296 2.275 11.804 6.394 15.62 11.894 3.87 5.499 5.95 11.991 5.95 18.73v19.964c3.87-.31 7.783-.54 11.653-1 6.101-.64 12.148-1.43 18.153-2.33 18.001-2.77 35.561-6.83 52.668-11.889a397 397 0 0 0 39.475-13.921c5.4-2.232 10.618-4.81 15.867-7.279.151-.345.248-.69.399-1.035l28.221-54.8z" fill="#0069FF"/>
    <path d="M735.507 919.358c1.046-1.984 1.833-4.065 2.426-6.189l6.252-22.839c.797-2.771 1.185-5.694 1.185-8.573a32.55 32.55 0 0 0-5.012-16.8c-3.169-5.057-7.686-9.112-12.989-11.797l-32.727-15.754c-7.093-3.375-12.698-9.219-15.824-16.444l-5.853-13.63a32.2 32.2 0 0 0-8.031-11.204 33.2 33.2 0 0 0-11.955-6.88l-62.284-20.013c-3.126-1.035-6.392-1.531-9.723-1.585-.592-.744-1.239-1.434-1.929-2.135l-6.543-6.686c-1.639-1.639-3.471-3.019-5.455-4.216L541.8 740.39a26 26 0 0 0-13.291-3.321l-42.946 1.24h-.205l-63.523-1.089a20.8 20.8 0 0 1-8.376-4.357 20.4 20.4 0 0 1-5.551-7.58l-8.732-20.316 7.686-27.691c.895-3.321.55-6.836-.938-9.909a14.2 14.2 0 0 0-7.19-6.837l-15.123-6.287a8.8 8.8 0 0 1-3.029-2.178 8.2 8.2 0 0 1-1.79-3.267c-.345-1.186-.399-2.48-.194-3.72.194-1.24.69-2.383 1.434-3.419l4.905-6.642a9.3 9.3 0 0 0 1.681-3.914 8.6 8.6 0 0 0-.302-4.216 8.54 8.54 0 0 0-2.231-3.613c-1.046-.992-2.285-1.779-3.622-2.232l-6.198-2.027a9.3 9.3 0 0 0-4.959-.151 9.16 9.16 0 0 0-4.312 2.426l-2.824 2.825c-3.072 3.117-7.233 4.96-11.652 5.004-4.409.043-8.635-1.542-11.858-4.508l-13.884-13.08a16.97 16.97 0 0 1-5.055-9.316l-9.422-54.099a16.6 16.6 0 0 1 .69-8.379 16.8 16.8 0 0 1 4.711-6.987l31.789-28.393c1.929-1.736 4.268-2.976 6.791-3.666 2.533-.69 5.152-.744 7.685-.248l35.45 8.379c2.673.55 5.451.942 7.585 2.678s4 4 4.564 7.134c0 0 9.877 33.395 13.907 37.63C427.5 560.5 430.166 562.5 435 562s4.888-7.504 4.834-9.143l-1.841-42.731a15.57 15.57 0 0 1 2.479-9.359c1.79-2.772 4.409-4.95 7.492-6.147l49.791-26.71a34.1 34.1 0 0 0 15.177-16.595c3.029-7.084 3.471-15.01 1.337-22.44l-.576-4.049c-2.603-18.291 7.661-35.986 24.832-42.808l11.144-4.427a11.6 11.6 0 0 0 5.152-4.109c1.294-1.833 1.93-4.065 1.93-6.297v-41.321c0-1.833.442-3.666 1.337-5.305a11.6 11.6 0 0 1 3.675-4.066l69.571-46.13c1.984-1.283 3.471-3.17 4.312-5.402s.938-4.605.302-6.891l-11.998-43.499c-9.324-2.081-18.745-3.914-28.361-5.305a420 420 0 0 0-19.338-2.383c-11.351-1.09-22.863-1.683-34.462-1.834-1.736 0-3.471-.151-5.207-.151s-3.471.097-5.206.151a435 435 0 0 0-30.15 1.488c-6.446.55-12.85 1.284-19.188 2.136a398 398 0 0 0-36.305 6.588c-14.531 3.321-28.717 7.43-42.601 12.239-87.475 30.516-161.175 90.223-209.521 167.408a371 371 0 0 0-6.252 10.406c-15.425 26.311-27.725 54.649-36.898 84.324l13.388 9.759 18.552 27.346c1.433 2.524 2.425 5.306 2.975 8.174l7.588 39.046a4.56 4.56 0 0 0 1.294 2.523 4.9 4.9 0 0 0 2.479 1.337 4.13 4.13 0 0 0 2.232 0c1.185-.302 2.177-1.035 2.878-2.081a4.98 4.98 0 0 0 .69-3.472l-1.682-8.821-6.845-34.085c-.194-.691-.496-1.284-.496-1.931l-5.853-19.366c-.647-2.178-.399-4.507.647-6.545a9.04 9.04 0 0 1 4.904-4.357c2.135-.798 4.463-.744 6.597.097a9.05 9.05 0 0 1 4.765 4.508l15.328 33.298 12.095 47.564a51 51 0 0 0 8.828 18.429 51.1 51.1 0 0 0 15.329 13.522l44.185 25.61c2.328 1.337 4.409 2.976 6.295 4.906l13.388 14.018a28.84 28.84 0 0 0 11.362 7.085l34.365 11.646a16.13 16.13 0 0 1 7.039 4.658 16.34 16.34 0 0 1 3.665 7.581l2.727 14.568c.302 1.585.841 3.116 1.682 4.507l16.514 28.78c2.824 4.961 16.665 10.061 28.221 13.63a102 102 0 0 0 22.96 2.178 30.5 30.5 0 0 0-1.186 4.206l-4.667 23.485c-.647 3.117-1.833 6.147-3.568 8.821l-13.388 20.51a25.3 25.3 0 0 0-3.773 9.856 25.3 25.3 0 0 0 .593 10.556c2.479-.097-1.046 11.84-1.682 19.421L419 871.912c-.647 7.732 1.487 15.463 5.95 21.804l17.754 25.017a32.6 32.6 0 0 0 16.212 11.937l58.317 19.42 30.247 10.902c6.296 2.275 11.804 6.394 15.62 11.894 3.87 5.499 5.95 11.991 5.95 18.73v19.964c3.87-.31 7.783-.54 11.653-1 6.101-.64 12.148-1.43 18.153-2.33 18.001-2.77 35.561-6.83 52.668-11.889a397 397 0 0 0 39.475-13.921c5.4-2.232 10.618-4.81 15.867-7.279.151-.345.248-.69.399-1.035l28.221-54.8z" fill="#1433D6"/>
    <path d="M775.729 283.552c41.21 30.268 76.664 67.977 103.893 111.422a372 372 0 0 1 6.252 10.406c8.979 15.355 16.913 31.357 23.855 47.856l-16.665 1.531a8.7 8.7 0 0 0-3.428 1.186c-1.035.647-1.93 1.488-2.577 2.523a8.9 8.9 0 0 0-1.282 3.365c-.205 1.186-.097 2.426.248 3.569l1.045 3.116a8.35 8.35 0 0 1-.496 6.19c-.991 1.93-2.684 3.364-4.71 4.108l-11.75 3.86c-1.487.442-3.072.496-4.56.097s-2.878-1.186-3.913-2.329l-6.995-7.429a8.53 8.53 0 0 0-4.808-2.232 8.38 8.38 0 0 0-5.207 1.143c-1.541.938-2.781 2.383-3.417 4.065a8.44 8.44 0 0 0-.248 5.305l.399 1.186c.302.841.442 1.736.399 2.621l-.248 30.915c-.054 1.143-.302 2.275-.798 3.321-.495 1.046-1.185 1.984-2.08 2.728a8.7 8.7 0 0 1-3.029 1.639 8.1 8.1 0 0 1-3.417.302l-7.686-1.143c-1.487-.248-2.878-.895-4.064-1.833-1.142-.992-2.037-2.232-2.522-3.666l-6.295-19.076c-.345-1.035-.841-1.984-1.585-2.825-.69-.841-1.585-1.488-2.576-1.984l-29.31-14.169a8.55 8.55 0 0 0-4.462-.744 8.8 8.8 0 0 0-4.215 1.736l-19.932 15.948c-1.541 1.24-2.533 2.977-2.921 4.907l-2.921 15.754-4.161 26.85c-.302 1.434-.992 2.728-1.983 3.817a8.4 8.4 0 0 1-3.622 2.329l-16.169 5.306c-.992.345-2.038.442-3.073.399l-24.89-1.586a8.57 8.57 0 0 1-4.462-1.736c-1.283-.992-2.232-2.383-2.781-3.914l-9.874-30.074c-.647-2.027-.442-4.259.496-6.19.948-1.93 2.63-3.375 4.667-4.065l18.692-6.146a8.2 8.2 0 0 0 2.921-1.629l11.103-9.909a8.4 8.4 0 0 0 2.727-5.403l2.673-30.667c.194-1.531.798-2.922 1.736-4.162l14.477-18.332a8.14 8.14 0 0 1 3.87-2.674l53.056-17.393c1.887-.647 3.525-1.93 4.517-3.666l8.278-14.223c.647-1.143 1.046-2.426 1.046-3.764.043-1.337-.205-2.631-.798-3.817l-5.702-11.937c-.841-1.779-2.328-3.224-4.161-3.968s-3.913-.841-5.756-.151c-1.488.442-2.781 1.337-3.762 2.577-.992 1.186-1.585 2.674-1.736 4.216l-1.39 13.425a8.37 8.37 0 0 1-2.027 4.562 8.3 8.3 0 0 1-4.311 2.577l-11.707 2.577a8.5 8.5 0 0 1-4.161 0l-11.157-3.612a7.9 7.9 0 0 1-3.374-2.232c-.948-.992-1.584-2.233-1.929-3.516-.345-1.337-.345-2.674-.054-4.011.345-1.337.992-2.523 1.886-3.569l5.509-5.845c.797-.895 1.39-1.887 1.735-3.019.345-1.143.496-2.329.345-3.472l-4.861-41.364c-.194-1.931.247-3.861 1.336-5.446l24.89-37.504c1.186-1.391 2.522-2.383 4.021-3.019zm165.282 325.414c0-1.24-.097-2.48-.097-3.763-.399-40.869-6.996-80.162-18.692-117.267l-19.888 6.642a11.8 11.8 0 0 0-4.269 2.426 11.5 11.5 0 0 0-2.921 3.969c-.69 1.488-1.035 3.116-1.089 4.809 0 1.628.302 3.267.949 4.809l3.277 7.732c.593 1.391 1.487 2.674 2.522 3.817l6.996 7.031c1.984 1.887 3.223 4.41 3.568 7.138s-.302 5.445-1.735 7.775-3.676 4.065-6.252 4.96c-2.577.895-5.401.841-7.988-.054a12 12 0 0 0-7.438 0l-121 39.585c-1.584.55-3.072 1.391-4.311 2.523a12.4 12.4 0 0 0-2.922 4.065l-25.59 58.715a11.8 11.8 0 0 0-.399 8.518l21.915 66.64c.69 2.276 2.08 4.26 3.967 5.748 1.886 1.488 4.16 2.329 6.543 2.523l69.57 4.755c10.963.744 21.527 4.357 30.593 10.503l18.152 12.433c6.899 4.659 12.548 10.697 17.064 17.544 24.2-50.734 38.289-107.217 39.227-166.966.097-2.178.248-4.367.248-6.589z" fill="#0069FF"/>
    <path d="M208.436 372.883c-22.693 70.441 7.325 171.34 135.596 134.561L315.7 532.75a16.8 16.8 0 0 0-4.711 6.987 16.63 16.63 0 0 0-.689 8.378l9.421 54.1a16.97 16.97 0 0 0 5.055 9.316l13.884 13.08c3.223 2.966 7.449 4.551 11.858 4.508 4.419-.043 8.581-1.888 11.653-5.004l2.824-2.825a9.16 9.16 0 0 1 4.312-2.426 9.3 9.3 0 0 1 4.958.151l6.198 2.027c1.336.453 2.576 1.24 3.622 2.232a8.55 8.55 0 0 1 2.231 3.613 8.6 8.6 0 0 1 .302 4.216 9.3 9.3 0 0 1-1.681 3.915l-4.905 6.641c-.743 1.035-1.239 2.179-1.433 3.419-.205 1.24-.152 2.534.193 3.72a8.2 8.2 0 0 0 1.79 3.267 8.8 8.8 0 0 0 3.029 2.178l15.123 6.287a14.2 14.2 0 0 1 7.191 6.836 14.24 14.24 0 0 1 .937 9.91l-7.685 27.692 5.694 13.251-11.989 11.891-12.02-20.948c-.84-1.391-1.38-2.923-1.681-4.508l-2.728-14.567a16.34 16.34 0 0 0-3.665-7.581 16.13 16.13 0 0 0-7.039-4.658l-34.365-11.646a28.84 28.84 0 0 1-11.362-7.085L306.635 645.1c-1.887-1.93-3.968-3.57-6.296-4.907l-44.185-25.61a51.1 51.1 0 0 1-15.328-13.522 51 51 0 0 1-8.829-18.428l-12.095-47.565-15.328-33.298a9.05 9.05 0 0 0-4.764-4.507c-2.135-.841-4.463-.896-6.597-.098a9.04 9.04 0 0 0-4.905 4.356c-1.046 2.038-1.294 4.368-.647 6.546l5.854 19.367c0 .646.302 1.239.496 1.929l6.844 34.086 1.682 8.821a5 5 0 0 1-.69 3.472c-.701 1.046-1.693 1.779-2.878 2.081a4.13 4.13 0 0 1-2.232 0 4.9 4.9 0 0 1-2.479-1.337 4.56 4.56 0 0 1-1.293-2.523l-7.589-39.046c-.55-2.868-1.542-5.651-2.976-8.174l-18.55-27.346-13.389-9.758c9.173-29.675 21.473-58.014 36.898-84.325a372 372 0 0 1 6.252-10.406 405 405 0 0 1 14.825-22.025" fill="#000C2A"/>
    <path d="M536.583 204.898c1.735 0 3.471.152 5.206.152 11.599.151 23.111.744 34.462 1.833a420 420 0 0 1 19.339 2.383c9.615 1.391 19.036 3.224 28.36 5.305l11.998 43.499a11 11 0 0 1-.302 6.891c-.84 2.232-2.329 4.119-4.312 5.402l-69.57 46.13a11.6 11.6 0 0 0-3.676 4.066 11.1 11.1 0 0 0-1.337 5.305v33.243c-40.06 23.778-86.276 29.365-126.593 10.882-45.587-20.899-72.78-67.596-76.646-121.342a402 402 0 0 1 49.621-21.147c13.884-4.809 28.07-8.918 42.6-12.239a398 398 0 0 1 36.305-6.588c6.338-.852 12.742-1.585 19.188-2.135a435 435 0 0 1 30.15-1.488c1.735-.054 3.472-.152 5.207-.152" fill="#0069FF"/>
    <path d="M537.001 204.5c223.675 0 405 181.325 405 405 0 73.087-19.362 141.651-53.233 200.847 30.77-57.102 33.234-122.435 33.234-191.847 0-223.675-166.325-393-390-393-150.588 0-281.979 70.187-351.768 192.152C248.62 290.748 382.738 204.5 537.001 204.5" fill="#fff"/>
    <path d="M316.824 437.566c20.622-21.307 22.249-53.139 3.644-71.114s-50.405-15.269-71.026 6.027c-20.621 21.308-22.249 53.14-3.644 71.115 18.606 17.976 50.405 15.269 71.026-6.028m520.023 56.309c21.505-14.385 25.569-46.012 9.065-70.63-16.503-24.628-47.311-32.931-68.816-18.547-21.505 14.385-25.569 46.012-9.066 70.63 16.504 24.629 47.312 32.932 68.817 18.547" fill="#fff"/>
    <path d="M273.705 380.887a8 8 0 0 1-.463-.075 5.384 5.384 0 0 1-4.215-6.351c.032-.141.733-3.602 2.156-9.641a5.385 5.385 0 0 1 6.489-4 5.386 5.386 0 0 1 3.999 6.491c-1.38 5.845-2.08 9.263-2.08 9.295a5.4 5.4 0 0 1-5.897 4.292zM149.248 610.441a5.6 5.6 0 0 1-1.477.022 5.406 5.406 0 0 1-4.679-6.028c.83-6.556 1.844-13.22 3.008-19.809.517-2.933 3.32-4.884 6.252-4.367s4.883 3.321 4.366 6.254a389 389 0 0 0-2.922 19.27 5.4 5.4 0 0 1-4.548 4.658m10.068-51.683a5.4 5.4 0 0 1-2.178-.119 5.396 5.396 0 0 1-3.827-6.599 381 381 0 0 1 5.638-19.227 5.395 5.395 0 0 1 6.78-3.483 5.397 5.397 0 0 1 3.482 6.783 364 364 0 0 0-5.476 18.687 5.38 5.38 0 0 1-4.419 3.947z" fill="#000C2A"/>
    <path d="M300.743 422.013c-10.635 18.783-34.933 29.254-50.347 20.527s-18.164-33.251-7.529-52.035 33.808-27.033 49.222-18.306 19.289 31.03 8.654 49.814m531.447 18.972a5.4 5.4 0 0 1-5.379-5.057 5.385 5.385 0 0 1 5.045-5.715c.151 0 3.859-.216 10.047-.227a5.386 5.386 0 0 1 5.378 5.403 5.38 5.38 0 0 1-5.389 5.38c-.097-.01-.238 0-.345 0-5.606 0-8.98.205-9.012.205h-.334zm64.3 5.694c-.399 0-.798-.043-1.196-.14-6.296-1.435-12.968-2.621-19.835-3.537-2.953-.388-5.023-3.106-4.635-6.06a5.374 5.374 0 0 1 6.058-4.637c7.19.96 14.186 2.2 20.805 3.709a5.394 5.394 0 0 1 4.063 6.449 5.39 5.39 0 0 1-5.249 4.194zm-19.283 224.656c-2.673-.162-4.883-2.297-5.055-5.036a481 481 0 0 0-1.693-20.078 5.39 5.39 0 0 1 4.797-5.931 5.39 5.39 0 0 1 5.929 4.799 522 522 0 0 1 1.735 20.52 5.4 5.4 0 0 1-5.034 5.726 7 7 0 0 1-.668 0zm-6.435-53.905a5.37 5.37 0 0 1-4.98-4.453 487 487 0 0 0-3.902-19.766 5.397 5.397 0 0 1 4.107-6.427 5.395 5.395 0 0 1 6.424 4.109 485 485 0 0 1 3.989 20.207 5.393 5.393 0 0 1-4.377 6.244c-.42.075-.851.097-1.261.075zm-12.353-52.88a5.39 5.39 0 0 1-4.851-3.872 489 489 0 0 0-6.058-19.215 5.4 5.4 0 0 1 3.374-6.837 5.395 5.395 0 0 1 6.834 3.386 511 511 0 0 1 6.198 19.647 5.38 5.38 0 0 1-3.654 6.686 5.1 5.1 0 0 1-1.833.205zm-18.078-51.21a5.4 5.4 0 0 1-4.667-3.321 501 501 0 0 0-8.096-18.461 5.39 5.39 0 0 1 2.631-7.16 5.39 5.39 0 0 1 7.157 2.631 522 522 0 0 1 8.268 18.86c1.143 2.75-.162 5.909-2.91 7.042a5.3 5.3 0 0 1-2.383.399zm-51.763-95.344a5.4 5.4 0 0 1-4.139-2.34 526 526 0 0 0-11.696-16.445c-1.768-2.393-1.272-5.769 1.121-7.537s5.767-1.272 7.535 1.121a562 562 0 0 1 11.933 16.768 5.393 5.393 0 0 1-1.412 7.495 5.33 5.33 0 0 1-3.353.927zm-28.888-37.252a5.4 5.4 0 0 1-3.794-1.897c-4.366-5.176-6.85-9.266-11.324-14.14a5.387 5.387 0 0 1 .324-7.613 5.384 5.384 0 0 1 7.61.324c4.57 4.981 7.152 9.19 11.614 14.473a5.4 5.4 0 0 1-.636 7.603 5.35 5.35 0 0 1-3.794 1.261zm-410.842-71.237a5.35 5.35 0 0 1-3.795-2.006c-1.865-2.318-1.487-5.715.83-7.58a302 302 0 0 1 15.35-11.538 5.39 5.39 0 0 1 7.513 1.315 5.396 5.396 0 0 1-1.315 7.516 304 304 0 0 0-14.8 11.128 5.38 5.38 0 0 1-3.783 1.176zm41.77-27.885a5.4 5.4 0 0 1-4.333-2.815 5.39 5.39 0 0 1 2.188-7.3 248 248 0 0 1 17.301-8.486 5.375 5.375 0 0 1 7.104 2.749 5.386 5.386 0 0 1-2.749 7.107 239 239 0 0 0-16.547 8.119 5.4 5.4 0 0 1-2.964.636zm46.449-18.946a5.39 5.39 0 0 1-4.775-3.925c-.798-2.869.873-5.845 3.74-6.643a209 209 0 0 1 18.843-4.345 5.38 5.38 0 0 1 6.263 4.334c.528 2.933-1.413 5.737-4.334 6.265a198 198 0 0 0-17.872 4.12 5.5 5.5 0 0 1-1.865.183zm117.604 2.965a5 5 0 0 1-1.25-.248 218 218 0 0 0-17.722-4.917c-2.899-.669-4.7-3.569-4.031-6.47a5.38 5.38 0 0 1 6.467-4.033 234 234 0 0 1 18.595 5.154 5.39 5.39 0 0 1 3.471 6.783c-.776 2.415-3.104 3.904-5.541 3.72zm-68.029-10.352a5.385 5.385 0 0 1-4.97-5.273c-.064-2.976 2.307-5.434 5.282-5.499 6.403-.13 12.914.054 19.339.539a5.384 5.384 0 0 1 4.958 5.78c-.226 2.965-2.813 5.197-5.777 4.971a193 193 0 0 0-18.315-.518c-.172 0-.356 0-.528-.011zm107.778 21.532a5.3 5.3 0 0 1-2.086-.372c-2.967-1.149-10.146-3.846-13.112-4.876a5.397 5.397 0 0 1-3.314-6.869 5.395 5.395 0 0 1 6.867-3.315c3.079 1.073 10.381 3.811 13.462 5.013a5.403 5.403 0 0 1 3.076 6.981 5.39 5.39 0 0 1-4.882 3.436zm38.272 15.224a5.2 5.2 0 0 1-2.037-.583c-2.835-1.445-9.702-4.857-12.548-6.183a5.393 5.393 0 0 1 4.57-9.77c2.954 1.38 9.94 4.847 12.883 6.356a5.403 5.403 0 0 1 2.349 7.257 5.4 5.4 0 0 1-5.206 2.923zm36.378 19.04a5.2 5.2 0 0 1-1.982-.749c-2.706-1.675-9.266-5.645-11.992-7.202a5.4 5.4 0 0 1-1.995-7.362 5.394 5.394 0 0 1 7.359-1.996c2.829 1.621 9.504 5.654 12.311 7.403a5.4 5.4 0 0 1 1.74 7.427 5.39 5.39 0 0 1-5.43 2.48zm30.793 18.773a5.2 5.2 0 0 1-1.912-.912c-2.556-1.895-8.761-6.401-11.348-8.181a5.392 5.392 0 0 1 6.129-8.875c2.684 1.851 8.997 6.429 11.649 8.406a5.404 5.404 0 0 1 1.112 7.547 5.39 5.39 0 0 1-5.619 2.017zm29.793 23.483a5.2 5.2 0 0 1-1.784-1.144c-2.299-2.2-7.894-7.444-10.237-9.533a5.393 5.393 0 0 1 7.188-8.041c2.432 2.171 8.124 7.502 10.508 9.794a5.403 5.403 0 0 1 .162 7.627 5.39 5.39 0 0 1-5.827 1.3zm-429.874-39.003a5.39 5.39 0 0 0-6.791 3.461 656 656 0 0 0-5.638 18.267 5.377 5.377 0 0 0 3.665 6.685 5.386 5.386 0 0 0 6.684-3.666 642 642 0 0 1 5.54-17.965c.916-2.836-.625-5.877-3.46-6.793zm8.261-19.29c2.382.27 4.743-1.078 5.638-3.418a509 509 0 0 1 7.06-17.361c.927-2.167.313-4.593-1.336-6.103a380 380 0 0 0-10.791 7.138 478 478 0 0 0-4.98 12.444 5.387 5.387 0 0 0 3.094 6.966 5 5 0 0 0 1.326.324z" fill="#000C2A"/>
    <path d="M829.519 484.671c16.215-10.862 19.275-34.742 6.83-53.336-12.433-18.595-35.654-24.869-51.868-14.006-16.215 10.862-19.275 34.742-6.83 53.336 12.433 18.595 35.654 24.869 51.868 14.006" fill="#000C2A"/>
    <path d="M964.727 582.774a5.39 5.39 0 0 1 7.05-2.911 5.4 5.4 0 0 1 2.91 7.051c-2.565 6.179-5.498 12.607-8.71 19.087a5.39 5.39 0 0 1-4.84 2.997l-.01.011a5.392 5.392 0 0 1-4.819-7.785c3.105-6.276 5.94-12.476 8.419-18.45m-82.632-5.575a5.384 5.384 0 0 1 6.651 3.72 479 479 0 0 1 5.174 19.938 5.387 5.387 0 0 1-3.999 6.492 5.6 5.6 0 0 1-1.251.15l.011-.01a5.4 5.4 0 0 1-5.238-4.141 482 482 0 0 0-5.066-19.496 5.394 5.394 0 0 1 3.718-6.653m-749.909.033a5.385 5.385 0 0 1 6.823-3.397c2.824.949 4.344 4 3.396 6.825a389 389 0 0 0-5.735 18.634 5.39 5.39 0 0 1-5.185 3.936h-.011c-.485 0-.97-.065-1.455-.205a5.39 5.39 0 0 1-3.729-6.654 398 398 0 0 1 5.896-19.139m846.543-45.808a5.385 5.385 0 0 1 5.897-4.83c2.964.291 5.12 2.933 4.829 5.899-.669 6.707-1.887 13.791-3.644 21.048-.593 2.469-2.802 4.119-5.238 4.119-.421 0-.852-.054-1.273-.151a5.394 5.394 0 0 1-3.966-6.513c1.638-6.771 2.781-13.361 3.395-19.572m-114.819-5.413c2.759-1.121 5.896.216 7.017 2.977a509 509 0 0 1 7.341 19.237 5.39 5.39 0 0 1-3.255 6.89 5.4 5.4 0 0 1-1.822.313l.021.011a5.39 5.39 0 0 1-5.077-3.58 489 489 0 0 0-7.189-18.828 5.393 5.393 0 0 1 2.964-7.02m-711.405 1.866a5.386 5.386 0 0 1 7.222-2.437 5.38 5.38 0 0 1 2.437 7.224 382 382 0 0 0-8.171 17.674 5.4 5.4 0 0 1-4.948 3.257c-.712 0-1.434-.14-2.134-.442-2.738-1.176-3.988-4.356-2.814-7.084a388 388 0 0 1 8.408-18.192m27.154-46.044c1.703-2.437 5.066-3.041 7.502-1.338a5.39 5.39 0 0 1 1.337 7.506 335 335 0 0 0-10.651 16.272 5.36 5.36 0 0 1-4.592 2.566 5.393 5.393 0 0 1-4.581-8.217 357 357 0 0 1 10.985-16.789m660.666-4.734c2.619-1.402 5.896-.421 7.298 2.199a526 526 0 0 1 9.367 18.332 5.39 5.39 0 0 1-2.49 7.203 5.4 5.4 0 0 1-2.35.539v.011a5.42 5.42 0 0 1-4.852-3.03 511 511 0 0 0-9.172-17.954c-1.412-2.62-.421-5.887 2.199-7.3m131.225-2.954a5.38 5.38 0 0 1 7.363 1.973c3.632 6.286 6.413 13.156 8.267 20.402.733 2.89-1.002 5.822-3.88 6.556a5.3 5.3 0 0 1-1.337.172l-.01-.01a5.39 5.39 0 0 1-5.218-4.055c-1.606-6.287-4.02-12.239-7.157-17.674a5.384 5.384 0 0 1 1.972-7.364m-191.978-85.123a5.384 5.384 0 0 1 7.588.68 561 561 0 0 1 12.903 16.034 5.39 5.39 0 0 1 .634 5.551c11.066-2.69 23.677 1.598 32.373 11.39a5.37 5.37 0 0 1 2.962-1.111c.151 0 3.859-.216 10.047-.227a5.386 5.386 0 0 1 5.379 5.403 5.383 5.383 0 0 1-5.39 5.38c-.097-.01-.237 0-.345 0-2.671 0-4.836.047-6.374.096 6.931 14.813 3.524 31.862-8.801 40.104-13.819 9.241-33.61 3.903-44.207-11.915-10.607-15.819-7.998-36.135 5.822-45.376a27 27 0 0 1 1.619-.999 5.4 5.4 0 0 1-2.245-1.697 541 541 0 0 0-12.645-15.721 5.39 5.39 0 0 1 .68-7.592m-565.828 51.565a5.393 5.393 0 0 1 7.621-.075 5.397 5.397 0 0 1 .075 7.623 301 301 0 0 0-13.119 14.288 5.38 5.38 0 0 1-4.085 1.876 5.36 5.36 0 0 1-3.515-1.305 5.395 5.395 0 0 1-.571-7.601 317 317 0 0 1 13.594-14.806m714.613.637a5.38 5.38 0 0 1 7.157-2.61c6.834 3.181 13.12 6.815 18.703 10.804a5.39 5.39 0 0 1 1.25 7.528 5.37 5.37 0 0 1-4.387 2.253l-.011-.011a5.34 5.34 0 0 1-3.126-1.002c-5.034-3.602-10.747-6.902-16.978-9.803-2.694-1.261-3.869-4.463-2.608-7.159m-53.358-12.93a5.373 5.373 0 0 1 6.057-4.636c7.19.959 14.186 2.2 20.805 3.71a5.39 5.39 0 0 1 4.063 6.448 5.39 5.39 0 0 1-5.249 4.194l-.01.022c-.399 0-.799-.043-1.198-.14-6.295-1.434-12.967-2.621-19.834-3.537-2.953-.388-5.022-3.106-4.634-6.061m-599.954-68.193a5.4 5.4 0 0 1 5.983-4.723 5.4 5.4 0 0 1 4.722 5.985c-.365 3.064-.62 5.467-.783 7.086 1.663.222 3.294.59 4.872 1.105q.089-.198.194-.393c.075-.129 1.811-3.288 5.185-8.604a5.39 5.39 0 1 1 9.098 5.779c-3.162 4.981-4.8 7.966-4.829 8.012q-.171.308-.374.585.27.246.534.501c5.042 4.875 7.638 11.424 7.861 18.334 0 3.232-.509 8.232-1.522 10.745s-4.469 9.986-8.56 14.215c-12.558 12.961-31.907 14.611-43.236 3.667a25 25 0 0 1-1.675-1.787 301 301 0 0 0-7.226 5.712 5.37 5.37 0 0 1-3.407 1.218l-.01.011a5.395 5.395 0 0 1-3.417-9.575 281 281 0 0 1 7.76-6.125c.387-.293.8-.527 1.229-.702-3.032-10.366.046-22.825 8.967-32.047 5.101-5.265 11.323-8.666 17.674-10.111.134-1.437.437-4.484.96-8.888m474.206-4.689a5.394 5.394 0 0 1 7.621-.118c4.85 4.702 7.733 8.63 12.498 13.644 2.048 2.156 1.972 5.574-.184 7.623a5.4 5.4 0 0 1-3.719 1.488l-.01-.011a5.38 5.38 0 0 1-3.903-1.67c-4.667-4.907-7.442-8.727-12.185-13.332a5.397 5.397 0 0 1-.118-7.624m-31.943-29.326c1.812-2.36 5.202-2.816 7.562-1.004 2.589 1.983 8.454 7.117 10.996 9.221 2.3 1.896 2.63 5.294.737 7.585a5.38 5.38 0 0 1-7.584.738c-2.454-2.021-8.216-7.078-10.705-8.986a5.4 5.4 0 0 1-1.006-7.554m-391.337-6.323a5.394 5.394 0 0 1 8.096 7.128 329 329 0 0 0-11.868 14.287 5.37 5.37 0 0 1-4.247 2.06v-.011a5.34 5.34 0 0 1-3.321-1.153 5.39 5.39 0 0 1-.905-7.571 351 351 0 0 1 12.245-14.74m-42.809-9.922a5.385 5.385 0 0 1 6.348-4.216 5.39 5.39 0 0 1 4.215 6.352 640 640 0 0 0-3.449 18.472 5.38 5.38 0 0 1-5.304 4.474h-.011a5.3 5.3 0 0 1-.916-.075 5.39 5.39 0 0 1-4.398-6.222 620 620 0 0 1 3.515-18.785m404.245-6.482c1.503-2.568 4.81-3.443 7.377-1.94 2.816 1.644 9.276 6.007 12.06 7.777 2.519 1.594 3.271 4.924 1.679 7.433a5.38 5.38 0 0 1-7.432 1.68c-2.687-1.699-9.037-5.999-11.744-7.581a5.4 5.4 0 0 1-1.94-7.369M362.6 284.114c2.296-1.898 5.692-1.564 7.589.733a5.404 5.404 0 0 1-.733 7.592 291 291 0 0 0-13.906 12.227 5.37 5.37 0 0 1-3.686 1.456 5.37 5.37 0 0 1-3.935-1.704 5.4 5.4 0 0 1 .248-7.624c4.711-4.41 9.562-8.68 14.423-12.68m292.733-1.215c1.283-2.685 4.505-3.835 7.189-2.551 2.944 1.403 9.746 5.209 12.669 6.74 2.643 1.378 3.671 4.633 2.295 7.267a5.384 5.384 0 0 1-7.266 2.296c-2.82-1.468-9.507-5.222-12.337-6.572a5.397 5.397 0 0 1-2.55-7.18m-359.894-22.573a5.373 5.373 0 0 1 6.705-3.613 5.38 5.38 0 0 1 3.611 6.718 500 500 0 0 0-5.034 18.051 5.394 5.394 0 0 1-5.218 4.044l.011-.011a5.38 5.38 0 0 1-5.217-6.739 520 520 0 0 1 5.142-18.45m323.806 5.296c1.091-2.768 4.223-4.143 6.991-3.051 3.036 1.191 10.088 4.508 13.112 5.829 2.734 1.188 3.989 4.363 2.802 7.088a5.38 5.38 0 0 1-7.085 2.801c-2.917-1.265-9.852-4.537-12.77-5.684a5.4 5.4 0 0 1-3.05-6.983M405.083 255.42c2.619-1.412 5.884-.421 7.296 2.199 1.413 2.621.421 5.888-2.198 7.3a235 235 0 0 0-15.879 9.361 5.34 5.34 0 0 1-2.91.851 5.36 5.36 0 0 1-4.538-2.479c-1.606-2.502-.884-5.845 1.617-7.451a245 245 0 0 1 16.612-9.781m173.611-6.731c1.056-2.782 4.172-4.195 6.953-3.138 3.051 1.154 10.144 4.383 13.184 5.666 2.748 1.154 4.042 4.314 2.888 7.053a5.38 5.38 0 0 1-4.968 3.309c-.69 0-1.402-.128-2.081-.419-2.933-1.23-9.907-4.416-12.839-5.527a5.397 5.397 0 0 1-3.137-6.944m-142.427 4.013h-.011zm16.612-16.228a5.39 5.39 0 0 1 2.727 10.427 197 197 0 0 0-17.506 5.478 5.2 5.2 0 0 1-1.839.323 5.4 5.4 0 0 1-5.06-3.547 5.395 5.395 0 0 1 3.223-6.912 210 210 0 0 1 18.455-5.769m77.041.377a5.387 5.387 0 0 1 6.144-4.518c6.263.96 12.634 2.21 18.94 3.731a5.387 5.387 0 0 1 3.977 6.502 5.395 5.395 0 0 1-5.239 4.131c-.42 0-.841-.044-1.261-.152a218 218 0 0 0-18.045-3.548 5.4 5.4 0 0 1-4.516-6.146m-25.968-6.987a5.392 5.392 0 0 1 0 10.783c-6.101 0-12.257.301-18.293.884a5 5 0 0 1-.529.022v.011a5.39 5.39 0 0 1-5.357-4.874c-.291-2.965 1.886-5.597 4.851-5.888a206 206 0 0 1 19.328-.938m-190.813-17.599a5.386 5.386 0 0 1 7.136-2.686 5.4 5.4 0 0 1 2.685 7.139 318 318 0 0 0-7.18 17.189c-.819 2.145-2.868 3.45-5.034 3.45l.011.011a5.3 5.3 0 0 1-1.94-.367 5.39 5.39 0 0 1-3.094-6.966 345 345 0 0 1 7.416-17.77m224.405-13.608a5.37 5.37 0 0 1 7.621 0c2.177 2.178 3.157 3.789 5.334 6.043-4-.2-14-.2-14-.2-1.045-2.027-.659-4.14 1.045-5.843m-198.21-30.905a5.397 5.397 0 0 1 7.567-.938c2.35 1.833 2.759 5.219.937 7.569-3.578 4.583-7.092 9.662-10.456 15.075a5.37 5.37 0 0 1-4.581 2.545h-.01c-.97 0-1.952-.259-2.835-.808-2.533-1.575-3.31-4.896-1.737-7.419 3.558-5.737 7.299-11.128 11.115-16.024m160.086-2.211a5.387 5.387 0 0 1 7.556-.96 352 352 0 0 1 14.843 12.207c2.242 1.952 2.49 5.359.539 7.602a5.37 5.37 0 0 1-4.074 1.855l.011.011a5.4 5.4 0 0 1-3.537-1.315 338 338 0 0 0-14.379-11.829 5.404 5.404 0 0 1-.959-7.571m-43.388-25.502c1.229-2.706 4.431-3.914 7.137-2.674 5.637 2.566 11.447 5.597 17.257 9.037 2.565 1.509 3.417 4.819 1.909 7.385a5.39 5.39 0 0 1-4.647 2.654l-.011-.011a5.3 5.3 0 0 1-2.727-.744c-5.487-3.235-10.952-6.103-16.244-8.508-2.706-1.229-3.914-4.432-2.674-7.139m-76.524-6.005c2.695-1.262 5.908-.108 7.169 2.577a5.39 5.39 0 0 1-2.577 7.17c-5.163 2.426-10.251 5.542-15.112 9.252a5.37 5.37 0 0 1-3.267 1.1v.011a5.38 5.38 0 0 1-4.29-2.125 5.397 5.397 0 0 1 1.025-7.559c5.465-4.162 11.199-7.666 17.052-10.426m32.414-7.958c6.436-.27 13.195.183 19.975 1.347a5.388 5.388 0 0 1-.905 10.696l-.011.011c-.302 0-.615-.021-.917-.075-6.036-1.035-12.008-1.434-17.699-1.208-3.008.108-5.487-2.189-5.606-5.165s2.188-5.488 5.163-5.606" fill="#75EEFF"/>
    <path d="M689.175 983.229c.69.982 1.078 2.178.991 3.472a5.38 5.38 0 0 1-5.368 5.015c-.118 0-.248-.011-.377-.011a246 246 0 0 1-9.884-.895 5.3 5.3 0 0 1-2.566-1.025h-.011a411 411 0 0 0 17.215-6.556m49.855-5.663c2.91-.614 5.778 1.241 6.392 4.153a5.385 5.385 0 0 1-4.15 6.394 185 185 0 0 1-21.203 3.235c-.173.021-.345.021-.518.021l.011.011a5.383 5.383 0 0 1-5.357-4.885 5.394 5.394 0 0 1 4.851-5.877c6.791-.647 13.517-1.671 19.974-3.052m49.661-19.786a5.39 5.39 0 1 1 5.659 9.176 164 164 0 0 1-19.025 10.082 5.3 5.3 0 0 1-2.2.475v.01a5.396 5.396 0 0 1-2.21-10.319 154 154 0 0 0 17.776-9.424m-484.85-18.526a399 399 0 0 0 14.951 10.039c-.894.647-1.972 1.046-3.147 1.046h-.324a263 263 0 0 1-9.874-.777c-2.964-.28-5.131-2.921-4.84-5.886.205-2.017 1.499-3.646 3.245-4.401zm525.165-16.832a5.386 5.386 0 0 1 7.589-.691 5.39 5.39 0 0 1 .691 7.592 187 187 0 0 1-14.639 15.69 5.4 5.4 0 0 1-3.719 1.488l.011.011a5.398 5.398 0 0 1-3.731-9.296 179 179 0 0 0 13.798-14.794M248.34 930.8c1.014-2.793 4.108-4.249 6.9-3.236a195 195 0 0 0 18.798 5.737c2.889.722 4.636 3.656 3.914 6.546a5.394 5.394 0 0 1-5.229 4.076l.012-.011c-.431 0-.874-.054-1.316-.162a207 207 0 0 1-19.844-6.049 5.39 5.39 0 0 1-3.235-6.901m-46.47-26.99a5.393 5.393 0 0 1 7.556-1.036 169 169 0 0 0 16.256 10.913c2.565 1.509 3.417 4.82 1.908 7.386a5.4 5.4 0 0 1-7.385 1.908 180 180 0 0 1-17.3-11.613 5.396 5.396 0 0 1-1.035-7.558m417.27-61.516a5.377 5.377 0 0 1 6.036 4.658c.41 3.203.808 6.438 1.196 9.684l.003.036c11.125 2.218 21.123 11.345 25.009 24.255 5.336 17.727-2.889 35.854-18.357 40.491-15.479 4.637-32.338-5.963-37.674-23.69-5.336-17.728 2.889-35.855 18.357-40.492a26 26 0 0 1 1.822-.471 859 859 0 0 0-1.049-8.432c-.377-2.955 1.704-5.662 4.657-6.039m238.669 34.31a5.394 5.394 0 0 1 7.169-2.598 5.4 5.4 0 0 1 2.598 7.17 241 241 0 0 1-9.896 18.914 5.39 5.39 0 0 1-4.668 2.674v.011a5.39 5.39 0 0 1-4.645-8.109 229 229 0 0 0 9.442-18.062m-692.126-12.552c2.415-1.736 5.789-1.175 7.524 1.24a182 182 0 0 0 12.267 15.322c1.983 2.222 1.8 5.629-.42 7.614a5.4 5.4 0 0 1-3.59 1.369v.021a5.37 5.37 0 0 1-4.02-1.801 192 192 0 0 1-13-16.239 5.4 5.4 0 0 1 1.239-7.526m706.559-28.089a5.377 5.377 0 0 1 6.371-4.173 5.395 5.395 0 0 1 4.182 6.372c-.032.152-.788 3.765-2.566 9.814a5.375 5.375 0 0 1-5.163 3.86h-.011a5.4 5.4 0 0 1-1.53-.227 5.39 5.39 0 0 1-3.644-6.696c1.645-5.559 2.346-8.899 2.361-8.95m-720.659 8.938h-.01l.006-.001z" fill="#0BE1FF"/>
    <path d="M141.602 815.916a5.386 5.386 0 0 1 6.952 3.116 219 219 0 0 0 7.859 18.105 5.39 5.39 0 0 1-4.834 7.763 5.39 5.39 0 0 1-4.835-3.018 226 226 0 0 1-8.257-19.011c-1.057-2.782.334-5.898 3.115-6.955m-9.932-42.171c2.965-.356 5.627 1.768 5.983 4.723 0 .059.411 3.433 1.595 9.079.615 2.911-1.261 5.769-4.171 6.384a5.7 5.7 0 0 1-1.111.119h-.011a5.39 5.39 0 0 1-5.27-4.292c-1.293-6.188-1.736-9.875-1.747-10.029a5.394 5.394 0 0 1 4.732-5.984M901 683.953c2.965-.183 5.509 2.114 5.67 5.09.184 3.267.324 6.567.443 9.791a5.38 5.38 0 0 1-5.196 5.575h-.194v.011a5.38 5.38 0 0 1-5.379-5.197c-.108-3.17-.259-6.395-.431-9.597a5.383 5.383 0 0 1 5.087-5.673m-10.241-43.345q6.024 3.301 11.849 6.428c.366 2.619.713 5.238 1.036 7.846a5.38 5.38 0 0 1-4.689 6.006 5 5 0 0 1-.668.043 5.405 5.405 0 0 1-5.347-4.734 493 493 0 0 0-2.181-15.589m-772.035-11.652c.528-2.933 3.331-4.884 6.252-4.356a5.384 5.384 0 0 1 4.355 6.254c-1.045 5.853-1.433 9.217-1.444 9.252a5.393 5.393 0 0 1-5.347 4.777l.011-.011c-.204 0-.409-.011-.625-.032a5.4 5.4 0 0 1-4.743-5.963c.022-.153.431-3.69 1.541-9.921m13.462-51.724a5.385 5.385 0 0 1 6.823-3.396c2.824.949 4.344 4 3.396 6.825a389 389 0 0 0-5.735 18.634 5.39 5.39 0 0 1-5.184 3.935h-.011c-.485 0-.971-.063-1.456-.204a5.393 5.393 0 0 1-3.73-6.653c1.79-6.362 3.763-12.8 5.897-19.141m20.319-49.354a5.387 5.387 0 0 1 7.223-2.437 5.38 5.38 0 0 1 2.435 7.225 383 383 0 0 0-8.17 17.673 5.4 5.4 0 0 1-4.948 3.257 5.4 5.4 0 0 1-2.134-.443c-2.738-1.175-3.989-4.356-2.814-7.084a389 389 0 0 1 8.408-18.191m27.154-46.044c1.703-2.437 5.066-3.041 7.503-1.337a5.387 5.387 0 0 1 1.336 7.505 336 336 0 0 0-10.65 16.271 5.36 5.36 0 0 1-4.592 2.567 5.393 5.393 0 0 1-4.582-8.217 357 357 0 0 1 10.985-16.789m608.338-32.832c2.291 10.353 28.345 22.903 37.001 19.498-9.998 9.502-40.416-3.835-37.001-19.498m-574.253-8.413a5.393 5.393 0 0 1 7.621-.076 5.4 5.4 0 0 1 .075 7.624 301 301 0 0 0-13.118 14.287 5.384 5.384 0 0 1-7.6.572 5.396 5.396 0 0 1-.571-7.602 317 317 0 0 1 13.593-14.805m43.836-62.644c-4.447 12.15-2.874 25.251 5.371 34.347 7.77 8.572 19.659 11.594 31.488 9.205-12.478 10.371-29.784 11.008-40.249.899a25 25 0 0 1-1.674-1.787 308 308 0 0 0-7.227 5.711 5.37 5.37 0 0 1-3.407 1.219l-.01.011a5.4 5.4 0 0 1-4.182-1.984 5.395 5.395 0 0 1 .765-7.591 280 280 0 0 1 7.761-6.125 5.4 5.4 0 0 1 1.228-.703c-3.032-10.365.047-22.823 8.967-32.045q.576-.594 1.169-1.157" fill="#0BE1FF"/>
    <path d="M379.51 134.033c2.695-1.262 5.908-.108 7.169 2.577a5.39 5.39 0 0 1-2.577 7.17 79 79 0 0 0-7.698 4.161q-.39.046-.782.046V148a6.63 6.63 0 0 1-5.27-2.577 6.47 6.47 0 0 1-1.113-5.702 92 92 0 0 1 10.271-5.688m158.032 64.624a5.373 5.373 0 0 1 7.622 0c2.177 2.178 3.157 3.789 5.334 6.043-4-.2-14-.2-14-.2-1.046-2.027-.659-4.14 1.044-5.843m-38.124-33.116a5.39 5.39 0 0 1 7.557-.96 352 352 0 0 1 14.843 12.207c2.242 1.952 2.49 5.359.539 7.602a5.37 5.37 0 0 1-4.074 1.855l.01.011a5.4 5.4 0 0 1-3.536-1.315 338 338 0 0 0-14.38-11.829 5.405 5.405 0 0 1-.959-7.571m-43.387-25.502c1.229-2.706 4.431-3.914 7.136-2.674 5.638 2.566 11.448 5.597 17.258 9.037a5.397 5.397 0 0 1 1.908 7.385 5.39 5.39 0 0 1-4.646 2.654l-.011-.011a5.3 5.3 0 0 1-2.727-.744c-5.487-3.235-10.952-6.103-16.244-8.508-2.706-1.229-3.914-4.432-2.674-7.139m-44.11-13.963c6.436-.27 13.195.183 19.975 1.347a5.387 5.387 0 0 1 4.397 6.222 5.38 5.38 0 0 1-5.302 4.474l-.011.011c-.302 0-.615-.021-.917-.075-6.036-1.035-12.008-1.434-17.699-1.208-3.008.108-5.487-2.189-5.606-5.165s2.188-5.488 5.163-5.606" fill="#B5F6FF"/>
    <path d="M538 199.279a4.977 4.977 0 0 1 7.044.384l4.097 4.589s-3.5 0-6.5-1.5-4.641-3.473-4.641-3.473" fill="#F4FEFF"/>
    <path d="M964.877 582.667a5.39 5.39 0 0 1 7.05-2.911 5.4 5.4 0 0 1 2.91 7.052 317 317 0 0 1-8.71 19.086 5.39 5.39 0 0 1-4.84 2.998l-.011.01a5.393 5.393 0 0 1-4.818-7.785c3.104-6.276 5.94-12.476 8.419-18.45m14.002-51.35c.291-2.965 2.943-5.132 5.896-4.83 2.965.291 5.12 2.933 4.829 5.899-.668 6.707-1.886 13.792-3.643 21.048-.593 2.469-2.802 4.12-5.238 4.12-.421 0-.852-.055-1.273-.152a5.395 5.395 0 0 1-3.967-6.512c1.639-6.772 2.781-13.362 3.396-19.573m-7.179-57.279a5.38 5.38 0 0 1 7.362 1.973c3.633 6.286 6.414 13.156 8.268 20.402.733 2.89-1.002 5.822-3.88 6.556a5.3 5.3 0 0 1-1.337.173l-.011-.011a5.39 5.39 0 0 1-5.217-4.055c-1.606-6.286-4.021-12.239-7.158-17.674a5.385 5.385 0 0 1 1.973-7.364m-43.193-32.921a5.38 5.38 0 0 1 7.157-2.61c6.834 3.181 13.119 6.815 18.703 10.804a5.393 5.393 0 0 1 1.25 7.528 5.37 5.37 0 0 1-4.388 2.253l-.01-.011a5.34 5.34 0 0 1-3.126-1.002c-5.034-3.602-10.747-6.902-16.978-9.803-2.694-1.261-3.869-4.463-2.608-7.159m-34.165-15.318c2.552.485 5.061 1.009 7.518 1.569a5.394 5.394 0 0 1 4.063 6.448 5.39 5.39 0 0 1-5.15 4.192c-1.629-.366-3.338-1.184-4.846-2.415-3.503-2.861-4.611-6.867-2.438-8.973q.426-.413.853-.821m-621.842-49.3c13.5-6.997 37.5 8.002 25.001 30.003C296 386.001 283 377.501 272.5 376.499m520.587 47.152c11.541-14.77 53.252 4.2 40.413 34.849-.785-21.964-21.488-38.542-40.413-34.849" fill="#B5F6FF"/>
    <path d="M940.294 109.647c-8.346 2.93-10.718 5.301-13.647 13.647-2.929-8.346-5.301-10.717-13.647-13.647 8.346-2.929 10.718-5.301 13.647-13.647 2.929 8.346 5.301 10.718 13.647 13.647m-296.42-10.811c-6.677 2.343-8.574 4.24-10.917 10.917-2.344-6.677-4.241-8.574-10.918-10.917 6.677-2.344 8.574-4.241 10.918-10.918 2.343 6.677 4.24 8.574 10.917 10.918M53.918 401.133c-3.339 1.171-4.287 2.12-5.46 5.459-1.17-3.339-2.12-4.288-5.458-5.459 3.339-1.172 4.287-2.121 5.459-5.459 1.172 3.338 2.12 4.287 5.459 5.459M611.121 82.459c-3.339 1.172-4.287 2.12-5.459 5.459-1.172-3.339-2.12-4.287-5.459-5.46 3.339-1.17 4.287-2.12 5.459-5.458 1.172 3.339 2.12 4.287 5.459 5.459m404.629 333.082c-3.33 1.172-4.28 2.12-5.46 5.459-1.17-3.339-2.12-4.287-5.45-5.459 3.33-1.172 4.28-2.12 5.45-5.459 1.18 3.339 2.13 4.287 5.46 5.459M952.918 88.459c-3.339 1.172-4.287 2.12-5.459 5.459-1.172-3.339-2.12-4.287-5.459-5.46 3.339-1.17 4.287-2.12 5.459-5.458 1.172 3.339 2.12 4.287 5.459 5.459m-762 72c-3.339 1.172-4.287 2.12-5.459 5.459-1.172-3.339-2.12-4.287-5.459-5.459 3.339-1.172 4.287-2.12 5.459-5.459 1.172 3.339 2.12 4.287 5.459 5.459m35.918 23.459c-6.692 2.348-8.57 4.255-10.918 10.917-2.348-6.691-4.256-8.569-10.918-10.917 6.691-2.348 8.57-4.256 10.918-10.918 2.348 6.691 4.255 8.57 10.918 10.918M1005 391c-7.641 2.576-9.817 4.664-12.5 12-2.683-7.336-4.859-9.424-12.5-12 7.641-2.576 9.817-4.664 12.5-12 2.683 7.336 4.859 9.424 12.5 12M92.128 368.377c-10.005 3.505-12.845 6.371-16.377 16.376-3.505-10.005-6.371-12.845-16.376-16.376C69.38 364.871 72.22 362.005 75.751 352c3.506 10.005 6.372 12.845 16.377 16.377m558.361-119.694-23.325 8.516-23.325 8.516 24.417-4.472 24.417-4.472a46.36 46.36 0 0 1 31.439 5.36 46.38 46.38 0 0 1 20.567 24.378l8.513 23.323 8.513 23.323-4.469-24.416-4.468-24.415a46.36 46.36 0 0 1 5.364-31.44 46.4 46.4 0 0 1 24.381-20.57l23.325-8.516 23.325-8.516-24.417 4.472-24.417 4.472a46.36 46.36 0 0 1-31.439-5.359 46.4 46.4 0 0 1-20.568-24.378l-8.513-23.323-8.512-23.324 4.468 24.416 4.469 24.416a46.36 46.36 0 0 1-5.364 31.439 46.4 46.4 0 0 1-24.381 20.57" fill="#fff"/>
    <path d="m724.144 165.902-2.344-1.518-2.345-1.518 2.747-.825 2.747-.825a31.7 31.7 0 0 0 9.622-4.898 30.4 30.4 0 0 0 7.365-7.893l1.544-2.409 1.543-2.41.818 2.681.818 2.682a31.6 31.6 0 0 0 4.868 9.619c2.15 2.88 4.83 5.38 7.87 7.393l2.45 1.602 2.45 1.602-2.747.824-2.747.825a31.7 31.7 0 0 0-9.623 4.898c-2.879 2.179-5.385 4.827-7.364 7.893l-1.544 2.41-1.544 2.41-.86-2.773-.86-2.773a31 31 0 0 0-4.931-9.611 31.5 31.5 0 0 0-7.898-7.358z" fill="#fff"/>
    <path d="M1260.15 762.603 973.307-56.072l-14.712-6.41 25.002 705.736z" fill="url(#d)"/>
    <path d="m908.22 606.841 34.177-673.53-42.116-18.351-187.385 607.932z" fill="url(#e)"/>
    <path d="M702.46-174.086 255.019 324.712 81 249.972l543.913-457.847z" fill="url(#f)"/>
    <path d="m492.163 426.713 308.532-557.996-29.674-12.929-389.726 522.231z" fill="url(#g)"/>
  </g>
  <defs>
    <linearGradient gradientUnits="userSpaceOnUse" id="b" x1="0" x2="673" y1="622.5" y2="-228.5">
      <stop stop-color="#0069FF"/>
      <stop offset="1" stop-color="#0BE1FF"/>
    </linearGradient>
    <linearGradient gradientUnits="userSpaceOnUse" id="d" x1="679.21" x2="608.126" y1="-1.543" y2="137.862">
      <stop stop-color="#fff" stop-opacity="0"/>
      <stop offset=".48" stop-color="#fff" stop-opacity=".2"/>
      <stop offset="1" stop-color="#fff" stop-opacity="0"/>
    </linearGradient>
    <linearGradient gradientUnits="userSpaceOnUse" id="e" x1="679.21" x2="608.126" y1="-1.543" y2="137.862">
      <stop stop-color="#fff" stop-opacity="0"/>
      <stop offset=".48" stop-color="#fff" stop-opacity=".2"/>
      <stop offset="1" stop-color="#fff" stop-opacity="0"/>
    </linearGradient>
    <linearGradient gradientUnits="userSpaceOnUse" id="f" x1="679.21" x2="608.126" y1="-1.543" y2="137.862">
      <stop stop-color="#fff" stop-opacity="0"/>
      <stop offset=".48" stop-color="#fff" stop-opacity=".2"/>
      <stop offset="1" stop-color="#fff" stop-opacity="0"/>
    </linearGradient>
    <linearGradient gradientUnits="userSpaceOnUse" id="g" x1="679.21" x2="608.126" y1="-1.543" y2="137.862">
      <stop stop-color="#fff" stop-opacity="0"/>
      <stop offset=".48" stop-color="#fff" stop-opacity=".2"/>
      <stop offset="1" stop-color="#fff" stop-opacity="0"/>
    </linearGradient>
    <radialGradient cx="0" cy="0" gradientTransform="matrix(-1.29014 313.21634 -544.33438 -2.24211 535.441 296.696)" gradientUnits="userSpaceOnUse" id="c" r="1">
      <stop stop-color="#FFFDF4"/>
      <stop offset="1" stop-color="#FFFDF4" stop-opacity="0"/>
    </radialGradient>
    <clipPath id="a">
      <path d="M0 0h1056v608H0z" fill="#fff"/>
    </clipPath>
  </defs>
</svg>