<?xml version="1.0" encoding="utf-8"?>
<svg xmlns="http://www.w3.org/2000/svg" fill="none" height="80" width="144">
  <path d="M80.794 37.03c0-.139.095-.259.23-.29l7.776-1.759c.186-.041.362.1.362.29v2.823a.3.3 0 0 1-.23.29l-7.776 1.759a.297.297 0 0 1-.363-.29zm-8.37-3.04c0-.14.096-.26.232-.29L88.8 30.047c.186-.042.362.1.362.29v2.823a.3.3 0 0 1-.232.29l-16.143 3.652a.298.298 0 0 1-.363-.289zm0-4.934c0-.139.096-.259.232-.29l7.775-1.759c.186-.042.362.1.362.29v2.823c0 .14-.096.26-.232.29l-7.774 1.759a.298.298 0 0 1-.363-.29zM0 50.898c0 .096.047.186.125.24 1.562 1.083 3.55 1.782 6.013 1.782 4.346 0 6.61-2.37 6.61-5.215s-1.711-4.399-5.004-5.848c-2.055-.921-3.951-1.553-3.951-3.029 0-1.106 1.053-1.896 2.95-1.896 1.585 0 2.8.428 3.863 1.201.206.15.51.01.51-.245V35.35a.29.29 0 0 0-.131-.243c-1.213-.785-2.669-1.178-4.32-1.178C3.134 33.93.5 35.8.5 38.83c0 2.87 2.134 4.266 4.873 5.425 2.87 1.212 4.108 1.817 4.108 3.45 0 1.159-1.185 2.265-3.529 2.265s-4.026-.785-5.43-1.972c-.201-.17-.523-.033-.523.23zm14.502-4.957c0 4.056 3.135 7.033 7.243 7.033 1.58 0 3.06-.42 4.156-1.256a.29.29 0 0 0 .111-.23v-2.312c0-.264-.323-.403-.531-.242-1.082.84-2.287 1.168-3.551 1.168-2.476 0-4.293-1.764-4.293-4.161s1.817-4.161 4.293-4.161c1.265 0 2.473.348 3.556 1.18.207.159.527.019.527-.243v-2.321a.29.29 0 0 0-.115-.232c-1.096-.813-2.574-1.256-4.152-1.256-4.109 0-7.243 2.976-7.243 7.033m13.851 6.367c0 .164.133.297.298.297h2.54a.297.297 0 0 0 .297-.297v-6.683c0-2.186 1.397-3.556 3.582-3.556.347 0 .669.025.956.067a.313.313 0 0 0 .36-.303V39.39c0-.142-.1-.262-.24-.277a7 7 0 0 0-.707-.046c-1.897 0-3.32.87-3.951 2.239v-1.678a.297.297 0 0 0-.297-.297H28.65a.297.297 0 0 0-.297.297zm11.844-14.533c1 0 1.87-.816 1.87-1.87 0-1.053-.87-1.87-1.87-1.87s-1.897.817-1.897 1.87.87 1.87 1.897 1.87m-1.58 14.533c0 .164.132.297.297.297h2.567a.297.297 0 0 0 .297-.297V39.627a.297.297 0 0 0-.297-.297h-2.567a.297.297 0 0 0-.298.297zm5.941 0c0 .164.133.297.297.297h2.567a.297.297 0 0 0 .297-.297v-1.626c.448 1.238 2.002 2.212 4.241 2.212 3.74 0 6.638-3.002 6.638-6.927s-2.898-6.928-6.638-6.928c-2.239 0-3.793.975-4.24 2.213v-6.48a.297.297 0 0 0-.363-.289l-2.566.58a.3.3 0 0 0-.232.29zm2.924-6.341c0-2.318 1.764-4.056 4.056-4.056s3.925 1.738 3.925 4.056-1.686 4.056-3.925 4.056-4.056-1.738-4.056-4.056m12.727.133c0 4.188 2.843 6.9 7.006 6.9 2.238 0 3.568-.442 4.77-1.255a.29.29 0 0 0 .128-.242v-2.116c0-.259-.318-.405-.533-.26-.825.556-2.179 1.108-4.234 1.108-2.37 0-3.898-1.344-4.003-3.451h9.897a.29.29 0 0 0 .291-.268c.03-.444.03-.864.03-.864 0-3.688-2.58-6.638-6.479-6.638s-6.874 2.713-6.874 6.954zm3.213-1.555c.105-1.58 1.712-2.844 3.66-2.844 1.818 0 3.267 1.29 3.267 2.844z" fill="#fff"/>
</svg>