<?xml version="1.0" encoding="utf-8"?>
<svg xmlns="http://www.w3.org/2000/svg" fill="none" height="80" width="144">
  <path clip-rule="evenodd" d="m118.269 30.904-1.018.032v6.409l-.464-.398c-2.937-2.521-7.341-.574-8.274 3.658-.225 1.021-.223 2.48.004 3.489.681 3.022 3.184 4.889 6.015 4.486.956-.136 1.7-.517 2.475-1.27.34-.331.628-.601.64-.601.011 0 .052.125.09.278.184.736 1.303 1.487 2.213 1.487.336 0 .355-.026.573-.773l.225-.774-.29-.07c-.456-.109-.86-.343-.965-.558-.053-.108-.121-3.624-.151-7.812l-.055-7.615zm-53.903 4.99c-1.79.262-3.105 1.243-3.467 2.582-.068.255-.092.74-.054 1.108.167 1.614.942 2.309 3.766 3.372 2.005.756 2.56 1.183 2.657 2.052.076.672-.17 1.141-.78 1.492-.42.241-.582.264-1.89.262-1.545-.002-2.176-.162-3.086-.78-.223-.153-.419-.263-.435-.244-.188.212-.82 1.683-.751 1.75.23.227 1.528.784 2.203.945 1.041.25 3.076.246 3.935-.006 1.968-.578 2.936-1.651 2.947-3.264.012-2.018-.954-2.977-4.186-4.152-1.698-.617-2.124-.898-2.335-1.538-.233-.709.398-1.534 1.378-1.802 1-.274 2.833-.063 3.813.438.247.127.487.189.532.139.17-.188.549-1.519.459-1.61-.183-.182-1.735-.648-2.493-.747-.882-.116-1.415-.115-2.213.002m11.995.053c-2.083.455-3.644 2.183-4.175 4.625-.41 1.885-.043 4.305.87 5.731 1.377 2.154 4.216 2.877 7.648 1.948 1.305-.353 1.309-.358 1.065-1.28-.11-.417-.221-.795-.245-.838-.024-.044-.277.012-.562.125-1.638.645-3.547.729-4.645.203-.72-.346-.947-.536-1.412-1.18-.317-.438-.789-1.671-.789-2.06 0-.13.693-.154 4.28-.154 3.801 0 4.287-.02 4.347-.175.124-.325.064-2.083-.099-2.85-.366-1.735-1.268-2.986-2.63-3.652-1.18-.577-2.375-.722-3.653-.443m14.918-.019c-1.14.256-2.11 1.024-2.74 2.173l-.334.607-.002-1.297-.002-1.297h-1.98v12.25h1.96l.046-3.504c.042-3.215.066-3.563.283-4.221.628-1.906 2.153-2.998 3.746-2.683l.547.109.294-1.04c.162-.572.278-1.055.258-1.075-.128-.121-1.563-.137-2.076-.022m4.075.339c-.507.22-.82.418-.812.516.007.087 1.093 2.73 2.413 5.874l2.401 5.714 1.104-.03 1.104-.032.347-.828c.191-.455.979-2.317 1.751-4.138 1.455-3.436 2.533-5.998 2.704-6.432.092-.234.038-.28-.744-.637-.464-.212-.876-.347-.915-.3s-.984 2.307-2.098 5.024c-1.115 2.716-2.061 4.938-2.102 4.938-.042 0-.175-.26-.296-.58a423 423 0 0 0-1.886-4.607c-.917-2.215-1.743-4.214-1.836-4.442s-.2-.41-.24-.406c-.038.005-.441.169-.895.365M76.677 37.71a2.94 2.94 0 0 0-1.792 1.254c-.347.524-.769 1.722-.769 2.181v.264h6.839l-.077-.634c-.118-.968-.43-1.69-.956-2.206-.847-.832-2.03-1.145-3.245-.859m36.871-.051c-1.029.21-2.066 1.024-2.536 1.987-1.232 2.528-.424 5.758 1.704 6.806.539.266.762.31 1.564.31.81 0 1.017-.042 1.541-.311a5 5 0 0 0 1.018-.712l.412-.401V39.12l-.503-.465c-.893-.825-2.141-1.214-3.2-.996" fill="#fff" fill-rule="evenodd"/>
  <rect fill="#fff" height="30" rx="1.281" width="30" x="23" y="25"/>
  <path d="m40.231 35.705-3.8-6.573a.334.334 0 0 1 .291-.502h7.018a.335.335 0 0 1 .29.503z" fill="#595b7b"/>
  <path d="M39.859 35.874h-7.6a.336.336 0 0 1-.291-.503l3.51-6.069a.335.335 0 0 1 .581 0z" fill="#424560"/>
  <path d="m35.6 43.312-3.8-6.572a.335.335 0 0 1 .29-.503h7.6zm8.056 0h-7.6l4.091-7.075 3.8 6.572a.334.334 0 0 1-.29.503" fill="#313244"/>
  <path d="m39.813 50.248-3.8-6.572h7.6a.336.336 0 0 1 .291.503l-3.509 6.069a.336.336 0 0 1-.582 0" fill="#424560"/>
  <path d="M39.109 50.834H32.09a.337.337 0 0 1-.336-.335q0-.09.045-.167l3.799-6.572 3.8 6.571a.335.335 0 0 1-.29.503" fill="#595b7b"/>
</svg>