<?xml version="1.0" encoding="utf-8"?>
<svg xmlns="http://www.w3.org/2000/svg" fill="none" height="608" width="1056">
  <g clip-path="url(#a)">
    <path d="M0 0h1056v608H0z" fill="url(#b)"/>
    <path d="M1075.5 93c99.13 0 179.5 80.141 179.5 179s-80.37 179-179.5 179c-17.51 0-34.44-2.504-50.44-7.166l2.9-5.481-35.541-51.311v-.06h-54.49C911.76 355.88 896 315.776 896 272c0-98.859 80.365-179 179.5-179" fill="#FFF5F4"/>
    <mask height="357" id="d" maskUnits="userSpaceOnUse" style="mask-type:alpha" width="1056" x="0" y="1">
      <path d="M0 1h1056v357H0z" fill="url(#c)"/>
    </mask>
    <g mask="url(#d)">
      <path d="M892.46 36.058c-4.059.002-7.346 1.784-7.342 3.98l.022 11.931c.004 2.197 3.298 3.975 7.356 3.973l106.555-.057c4.059-.002 7.349-1.785 7.339-3.981l-.02-11.931c0-2.196-3.3-3.975-7.356-3.973zm-404.158 4.194c-.004-2.197 3.283-3.98 7.341-3.981l312.315-.169c4.058-.002 7.352 1.777 7.356 3.973l.022 11.931c.004 2.196-3.283 3.979-7.341 3.98l-312.315.17c-4.059.002-7.352-1.777-7.356-3.974zM87.8 40.469c-.003-2.197 3.284-3.98 7.342-3.981l312.315-.169c4.058-.002 7.351 1.777 7.355 3.973l.023 11.931c.004 2.196-3.283 3.979-7.342 3.98l-312.314.17c-4.059.002-7.352-1.777-7.356-3.974zm7.788 232.646c-4.059.002-7.345 1.785-7.341 3.981l.022 11.931c.004 2.196 3.297 3.975 7.355 3.973l312.315-.168c4.059-.003 7.345-1.785 7.341-3.981l-.022-11.931c-.004-2.197-3.297-3.975-7.356-3.973zM631.703 99.83c-.004-2.197 3.282-3.98 7.341-3.982l312.314-.168c4.059-.002 7.352 1.776 7.356 3.973l.019 9.942c.004 2.197-3.283 3.979-7.342 3.981l-312.314.169c-4.059.002-7.352-1.777-7.356-3.973zm253.862 176.837c-.004-2.196 3.283-3.979 7.341-3.981l121.254-.065c4.06-.003 7.35 1.776 7.35 3.973l.03 11.931c0 2.196-3.29 3.978-7.35 3.98l-121.247.066c-4.059.002-7.352-1.777-7.356-3.973zm-654.348-173.64c-2.029.002-3.672.893-3.67 1.991s1.648 1.988 3.678 1.986l7.785-.004c2.03-.001 3.673-.892 3.671-1.99s-1.649-1.988-3.678-1.987zm38.93-.021c-2.029.002-3.673.893-3.671 1.991s1.649 1.988 3.678 1.986l15.572-.008c2.029-.001 3.673-.892 3.671-1.99-.002-1.099-1.649-1.988-3.678-1.987zm46.715-.025c-2.029.001-3.672.893-3.67 1.991s1.648 1.987 3.678 1.986l15.572-.008c2.029-.001 3.672-.892 3.67-1.991-.002-1.098-1.649-1.987-3.678-1.986zm46.716-.025c-2.029.001-3.673.892-3.671 1.991.002 1.098 1.649 1.987 3.678 1.986l15.572-.008c2.029-.001 3.673-.893 3.671-1.991s-1.649-1.987-3.678-1.986zm46.715-.025c-2.029.001-3.672.892-3.67 1.99.002 1.099 1.649 1.988 3.678 1.987l15.572-.009c2.029-.001 3.672-.892 3.67-1.99s-1.648-1.988-3.678-1.987zm46.716-.025c-2.029.001-3.673.892-3.671 1.99s1.649 1.988 3.678 1.987l15.572-.009c2.029-.001 3.673-.892 3.671-1.99s-1.649-1.988-3.678-1.987zm46.716-.026c-2.03.002-3.673.893-3.671 1.991s1.649 1.988 3.678 1.986l15.572-.008c2.029-.001 3.672-.892 3.67-1.99-.002-1.099-1.648-1.988-3.678-1.987zm46.715-.025c-2.029.001-3.672.893-3.67 1.991s1.648 1.987 3.677 1.986l7.786-.004c2.03-.001 3.673-.892 3.671-1.99-.002-1.099-1.649-1.988-3.678-1.987zm-61.69 179.991c-.002-1.099 1.641-1.99 3.67-1.991l7.786-.004c2.029-.001 3.676.888 3.678 1.986.002 1.099-1.641 1.99-3.671 1.991l-7.785.004c-2.03.001-3.676-.888-3.678-1.986m38.929-.021c-.002-1.099 1.642-1.99 3.671-1.991l15.572-.008c2.029-.001 3.676.888 3.678 1.986s-1.642 1.99-3.671 1.991l-15.572.008c-2.029.001-3.676-.888-3.678-1.986m46.716-.026c-.002-1.098 1.641-1.989 3.67-1.99l15.572-.008c2.03-.002 3.676.888 3.678 1.986s-1.641 1.989-3.67 1.99l-15.572.009c-2.03.001-3.676-.888-3.678-1.987m46.715-.025c-.002-1.098 1.642-1.989 3.671-1.99l15.572-.009c2.029-.001 3.676.889 3.678 1.987s-1.642 1.989-3.671 1.99l-15.572.009c-2.029.001-3.676-.889-3.678-1.987m46.716-.025c-.002-1.098 1.641-1.989 3.67-1.99l15.572-.009c2.03-.001 3.676.888 3.678 1.987.002 1.098-1.641 1.989-3.67 1.99l-15.572.008c-2.029.002-3.676-.888-3.678-1.986m46.715-.025c-.002-1.098 1.642-1.99 3.671-1.991l15.572-.008c2.029-.001 3.676.888 3.678 1.986.002 1.099-1.642 1.99-3.671 1.991l-15.572.008c-2.029.001-3.676-.888-3.678-1.986m46.716-.025c-.002-1.099 1.641-1.99 3.671-1.991l15.571-.008c2.03-.001 3.676.888 3.678 1.986s-1.641 1.99-3.67 1.991l-15.572.008c-2.029.001-3.676-.888-3.678-1.986m46.715-.026c-.002-1.098 1.642-1.989 3.671-1.99l7.786-.004c2.029-.001 3.676.888 3.678 1.986s-1.641 1.99-3.671 1.991l-7.786.004c-2.029.001-3.676-.888-3.678-1.987" fill="#FF928A"/>
      <path d="M40.148 100.148c-.004-2.197 3.283-3.979 7.342-3.981l106.554-.058c4.059-.002 7.352 1.777 7.356 3.973l.018 9.943c.004 2.196-3.282 3.979-7.341 3.981l-106.554.057c-4.059.002-7.352-1.776-7.356-3.973z" fill="#FFF5F4"/>
      <path d="M231.43 217.365c-.004-2.196 3.282-3.978 7.341-3.98l312.315-.169c4.058-.002 7.351 1.777 7.355 3.973l.022 11.931c.004 2.196-3.282 3.979-7.341 3.981l-312.314.168c-4.059.002-7.352-1.776-7.356-3.973zm407.842-4.197c-4.058.003-7.345 1.785-7.341 3.981l.022 11.931c.004 2.197 3.297 3.975 7.356 3.973l312.314-.168c4.059-.002 7.346-1.785 7.342-3.981l-.022-11.931c-.004-2.196-3.298-3.975-7.356-3.973z" fill="#FFE1DF"/>
      <path d="M22 217.478c-.004-2.196 3.283-3.979 7.341-3.981l124.926-.067c4.059-.002 7.352 1.776 7.356 3.973l.022 11.931c.004 2.196-3.283 3.978-7.341 3.98l-124.926.068c-4.059.002-7.352-1.777-7.356-3.973zm73.357-63.67c-4.059.002-7.345 1.784-7.341 3.981l.022 11.931c.004 2.196 3.297 3.975 7.356 3.973l312.314-.169c4.059-.002 7.345-1.784 7.341-3.981l-.022-11.931c-.004-2.196-3.297-3.975-7.356-3.973zm400.5-.216c-4.058.003-7.345 1.785-7.341 3.981l.022 11.931c.004 2.197 3.297 3.975 7.356 3.973l312.314-.168c4.059-.003 7.346-1.785 7.342-3.981l-.022-11.931c-.004-2.197-3.298-3.975-7.356-3.973zm389.494 7.744c-2.029.001-3.673.892-3.671 1.991.002 1.098 1.649 1.987 3.678 1.986l8.165-.004c2.03-.001 3.673-.893 3.671-1.991s-1.649-1.987-3.678-1.986zm40.825-.022c-2.029.001-3.672.892-3.67 1.991.002 1.098 1.648 1.987 3.678 1.986l16.33-.009c2.029-.001 3.672-.892 3.67-1.99s-1.648-1.988-3.678-1.987zm48.991-.026c-2.029.001-3.673.892-3.671 1.99s1.649 1.988 3.678 1.987l16.33-.009c2.03-.001 3.673-.892 3.671-1.991-.002-1.098-1.649-1.987-3.678-1.986zm48.993-.027c-2.03.001-3.68.892-3.67 1.991 0 1.098 1.65 1.987 3.67 1.986l8.17-.004c2.03-.001 3.67-.892 3.67-1.991 0-1.098-1.65-1.987-3.68-1.986z" fill="#FFBAB5"/>
    </g>
    <path d="M451.966 150.913c75.545-26.238 107.479-70.092-171.46-28.107 0 0 257.136-167.745-149.491-23.17C310.867-143.118-359.701-7.664-277.27 395.835c159.451-348.192 864.711-188.772 864.711-188.772z" fill="url(#e)"/>
    <path d="M799.935 57.764C680.431-103.675 1157.66-76.835 1224.28 138.981 1368.93 169.336 1414.27 250.998 1556 337c-162.16-38.634-305.82-57.147-437.38-60.763-.61 3.773-1.3 7.578-2.08 11.413a237 237 0 0 0-5.7-11.611c-57.66-1.332-113.006.2-166.575 4.15v-1.931H576.188c-57.912-68.354 0-81.045 125.4-20.23-166.038-80.524 0-133.836 248.649-101.829C701.588 75.748 446.226 141.091 446 141.142l105.054-43.58c-58.58-20.364-83.343-54.399 132.958-21.814-.365-.239-199.105-130.087 115.923-17.984" fill="url(#f)"/>
    <path d="M300.656 203.007c-241.33 2.888-467.946 21.027-782.894 158.79C-27.588-19.625 241.048 73.496 70.336 186.431c70.063-39.627 112.519 11.926 230.32 16.576" fill="url(#g)"/>
    <path d="M867.417 204.013s-251.238-47.156-329.363 44.596c0 0-85.782-88.778 102.123-62.448 0 0-116.743-81.905 227.24 17.852" fill="url(#h)"/>
    <path d="M-42.05 253.058c346.612-5.871 704.373-5.701 1051.05-1.189l35.03.51 35.04.679c-277.711 1.264-843.474 1.274-1121.12 0" fill="#FFF5F4"/>
    <path d="M1056 253H0v355h1056z" fill="#1433D6" opacity=".4"/>
    <path d="M339.516 529.945c-39.409 2.325-78.85 3.09-118.302 2.506-17.57-.488-41.861-1.518-59.145-1.741-39.441-.531-78.871 1.868-118.302 2.102-59.177.966-118.312.297-177.447-2.877v-.68c59.146-3.163 118.27-3.832 177.447-2.877 39.43.244 78.861 2.644 118.302 2.102 38.814-.934 79.498-2.802 118.301-1.539 19.716.382 39.431 1.083 59.146 2.304z" fill="url(#i)"/>
    <path d="M1120.2 318.83c-27.82 2.247-55.66 2.985-83.51 2.421-12.4-.472-29.54-1.467-41.744-1.683-27.839-.513-55.67 1.806-83.502 2.032-41.769.933-83.509.287-125.249-2.781v-.656c41.748-3.058 83.48-3.704 125.249-2.781 27.832.236 55.663 2.555 83.502 2.032 27.394-.903 56.114-2.709 83.504-1.488 13.91.369 27.83 1.047 41.75 2.227z" fill="url(#j)"/>
    <path d="M239.956 502.372c-57.925 2.846-115.977 2.867-173.901 0 57.924-2.866 115.976-2.845 173.901 0" fill="url(#k)"/>
    <path d="M1050.2 290.994c-40.97 2.657-82.035 2.677-123.005 0 40.97-2.676 82.035-2.657 123.005 0" fill="url(#l)"/>
    <path d="M623.493 457.241c-125.065 2.781-250.405 2.802-375.47 0 125.065-2.803 250.405-2.782 375.47 0" fill="url(#m)"/>
    <path d="M699.529 463.335c8.536 1.72 17.124 2.686 25.671 3.079 2.134.085 4.268.18 6.402.233 2.134-.021 4.257.032 6.38-.042 2.124-.128 4.247-.085 6.36-.223 2.112-.149 4.225-.234 6.327-.446 2.102-.234 4.204-.435 6.296-.701l6.253-.87c2.07-.34 4.13-.765 6.2-1.136l1.55-.287 1.625-.329 3.259-.658c8.716-1.614 17.517-2.686 26.351-3.451 8.843-.573 17.719-.838 26.562-.531 4.428.17 8.844.468 13.25.839 2.208.17 4.406.404 6.604.648l6.571.902 6.487 1.019 6.317.945c4.225.605 8.472 1.03 12.74 1.327 8.546.701 17.167.722 25.915.372l.117.626c-8.578 1.561-17.294 2.304-26.011 2.368a168 168 0 0 1-13.069-.414c-4.353-.297-8.684-.828-12.995-1.264-17.284-1.656-34.705-1.879-52.011-.488-8.652.637-17.284 1.624-25.851 3.026a431 431 0 0 1-12.899 2.038l-6.509.669c-2.176.159-4.352.255-6.529.382-8.716.319-17.464-.053-26.106-1.199-8.631-1.19-17.21-2.909-25.47-5.829l.234-.595z" fill="url(#n)"/>
    <path d="M1008.79 450.117c7.42 1.709 14.84 2.994 22.28 3.992 7.44.966 14.91 1.656 22.38 1.837 7.47.297 14.96.148 22.43-.425 7.51-.425 14.92-1.635 22.49-2.654-7.1 2.728-14.51 4.894-22.12 5.945-3.78.743-7.61.892-11.43 1.274-1.91.117-3.83.096-5.75.149-.96.011-1.93.042-2.88.042l-2.88-.085c-3.84-.116-7.66-.477-11.48-.87l-5.69-.86c-1.89-.287-3.76-.711-5.63-1.094-7.48-1.624-14.86-3.864-21.72-7.24z" fill="url(#o)"/>
    <path d="M295.997 393.921a1167 1167 0 0 1-114.841 0 1167 1167 0 0 1 114.841 0" fill="url(#p)"/>
    <path d="M136.434 274.413a1167 1167 0 0 1-114.84 0 1167 1167 0 0 1 114.84 0" fill="url(#q)"/>
    <path d="M578.434 295.413a1167 1167 0 0 1-114.84 0 1167 1167 0 0 1 114.84 0" fill="url(#r)"/>
    <path d="M201.988 401.15a585 585 0 0 1-57.426 0 585 585 0 0 1 57.426 0" fill="url(#s)"/>
    <path d="M42.426 281.642a585 585 0 0 1-57.426 0 585 585 0 0 1 57.426 0" fill="url(#t)"/>
    <path d="M484.426 302.642a585 585 0 0 1-57.426 0 585 585 0 0 1 57.426 0" fill="url(#u)"/>
    <path d="M844.426 473.218a517 517 0 0 0 21.382 2.516 311 311 0 0 0 21.307 1.263c7.103.17 14.184-.074 21.255-.605 7.081-.605 14.067-1.805 21.18-3.259-6.518 3.121-13.557 5.308-20.745 6.55-7.187 1.168-14.502 1.763-21.785 1.561a141 141 0 0 1-21.669-2.24c-7.124-1.317-14.194-3.1-20.925-5.786" fill="url(#v)"/>
    <path d="M1014.73 532.564c-128.146 3.408-256.587 3.429-384.73 0 128.143-3.429 256.584-3.408 384.73 0" fill="url(#w)"/>
    <path d="M1194.04 559.603c-128.14 3.408-256.584 3.429-384.728 0 128.144-3.429 256.588-3.408 384.728 0" fill="url(#x)"/>
    <path d="m992.419 387.042 35.541 51.31-17.95 33.94-275.39 49.41c-29.823 5.345-60.76 5.642-90.763.832l-94.739-15.174L5.264 527.908-42 530.165c44.402-71.68 134.472-119.042 235.748-123.911l401.007-19.272h397.664z" fill="#000C2A" opacity=".6"/>
    <path d="m995.211 392.131 32.609-59.893-16.47-39.634-252.67-57.682a197.2 197.2 0 0 0-83.276-.967l-86.923 17.689-498.987-23.991L46.129 225c40.74 83.69 123.379 138.939 216.3 144.633l367.925 22.498z" fill="#FFBAB5"/>
    <path d="M688.762 231.707a197.2 197.2 0 0 1 69.911 3.217l252.667 57.682 16.48 39.632-32.616 59.894 26.246-59.818a128.73 128.73 0 0 0-64.813-39.83l-220.248-56.493c-10.535-2.566-28.744-6.093-47.627-4.284" fill="#FFE1DF"/>
    <path d="m51.056 225.3 138.642 14.595c2.65 5.445 75.264 79.166 75.496 79.402 24.732 13.016 71.592 18.223 153.596 27.335l292.266 19.466h298.334l-14.18 26.033H630.353l-367.925-22.499C169.507 363.938 86.868 308.69 46.128 225z" fill="#000C2A"/>
    <path d="m1027.81 332.269-2.79-6.744L46.14 225.031l978.43 113.18z" fill="#1433D6"/>
    <path d="M588.496 251.674h-.027l222.435 24.046 8.872-7.849-150.188-32.725z" fill="#000C2A"/>
    <path d="M758.68 234.953c85.016 15.533 169.341 34.742 252.67 57.682a2949 2949 0 0 1-252.67-57.682m-669.153-7.275c165.887 4.284 253.546 8.337 419.074 20.028-165.887-4.256-253.546-8.365-419.074-20.028" fill="#fff"/>
    <path d="m995.206 392.13 29.384-53.923-841.793-97.371 53.563 56.023c20.95 21.89 48.921 35.765 79.019 39.137l511.922 56.161h167.905z" fill="#FF928A"/>
    <path d="m982.7 330.757 1.01.254-312.369-7.412c-16.771-.398-22.291 22.316-7.208 29.659l34.513 16.803-315.002-37.749c-30.098-3.372-102.708-11.953-123.658-33.843l-78.099-58.574z" fill="#1433D6"/>
    <path d="m758.161 258.119-11.023 10.718-11.626-1.164 11.308-12.023zm-20.242-4.406-12.208 12.978-59.609-5.969 24.871-17.224z" fill="#FFE1DF"/>
    <path d="M1041 312.785c39.73.555 79.67 2.861 119.16 6.881-30.75-.43-86.98-1.767-117.66-4.275zm6 39.05c47.65 1.013 95.58 3.78 142.99 8.258-43.18-.919-104.46.715-147.48-3.048zm.27-18.224a5472 5472 0 0 1 238.32 13.762c-70.43-2.524-166.51-4.602-236.8-9.854z" fill="#C6E3FF"/>
    <path d="M822.89 325.968c7.631-4.981 12.431-11.143 10.721-13.763-1.71-2.621-9.283-.707-16.914 4.273-7.632 4.981-12.432 11.142-10.721 13.763 1.71 2.62 9.283.707 16.914-4.273" fill="#fff"/>
    <ellipse cx="587.998" cy="320.998" fill="#fff" rx="8" ry="4" transform="rotate(-20.898 587.998 320.998)"/>
    <ellipse cx="922.996" cy="330.498" fill="#fff" rx="6" ry="5.5"/>
    <circle cx="983.996" cy="311.998" fill="#fff" r="4"/>
    <path d="M571.312 391.728s80.361 16.602 145.488 33.234c36.587 9.339 76.015 10.666 113.335 3.163 22.784-4.577 56.358-6.462 105.174-.261 26.616 3.386 53.902 1.03 79.041-6.35 25.14-7.379 63.61-12.378 120.07-2.22 16.61 2.989 33.82 3.485 50.69 1.489 38.66-4.602 116.83-11.795 216.89-10.034 9.36.161 11.11-9.922 2.01-11.56l-158.41-7.615-641.379-8.607z" fill="url(#y)"/>
    <path d="M733.289 392.125s159.779-110.61 138.221-35.709c-1.824 6.301 4.533 11.829 10.447 8.955 57.572-27.943 232.803-107.045 113.319 26.726 0 0-101.381 10.503-132.621 3.995-31.24-6.509-129.393-3.995-129.393-3.995z" fill="#fff"/>
    <path d="M975.895 393.49s185.355-67.798 128.395-18.902c244.41-62.961 225.8 17.586 107.3 17.586 0 0-131.56-5.19-153.69-3.888s-82.005 5.204-82.005 5.204m-344.352-1.368s134.351-82.087 78.659 0c0 0-31.957-1.172-41.501 1.367s-37.158-1.367-37.158-1.367m-24.119.007s-80.598 2.664-94.399 0c-13.801-2.663-94.4 0-94.4 0s119.62-72.247 102.318-35.267c-2.432 5.224 2.93 10.696 8.236 8.485 47.788-19.844 159.751-61.026 78.218 26.782zm-162.738-36.148c5.113-3.337 8.332-7.462 7.189-9.213s-6.215-.466-11.328 2.871-8.331 7.462-7.188 9.214c1.142 1.751 6.214.465 11.327-2.872m326.895-10.788a1411 1411 0 0 1 124.627 11.708 1411 1411 0 0 1-124.627-11.708" fill="#fff"/>
    <path d="M679.245 349.092a3450 3450 0 0 1 194.934 18.312 3452 3452 0 0 1-194.934-18.312m177.568-64.899a964 964 0 0 1 103.228 14.382 964 964 0 0 1-103.228-14.382m66.899 20.35a241 241 0 0 1 51.568 7.184 241 241 0 0 1-51.568-7.184" fill="#fff"/>
    <path d="m832.459 232.976-8.057-8.661-15.848-18.051 14.274 19.281 6.483 9.891a22.07 22.07 0 0 1 3.463 14.8 22.08 22.08 0 0 1-6.897 13.542l-8.661 8.056-8.661 8.056 9.891-6.482 9.891-6.482a22.07 22.07 0 0 1 14.799-3.464 22.1 22.1 0 0 1 13.543 6.897l8.056 8.661 15.847 16.368-14.273-17.597-6.482-9.891a22.06 22.06 0 0 1-3.464-14.8 22.08 22.08 0 0 1 6.897-13.542l8.661-8.056 8.661-8.056-9.891 6.482-9.89 6.482a22.07 22.07 0 0 1-14.8 3.463 22.08 22.08 0 0 1-13.542-6.897m17.359-30.585.541-.609.542-.608.116.828.116.828a9.2 9.2 0 0 0 .986 2.99 8.9 8.9 0 0 0 1.948 2.472l.626.552.626.551-.809.117-.809.117a9.2 9.2 0 0 0-2.988.977 9.2 9.2 0 0 0-2.479 1.941l-.57.635-.57.635-.116-.828-.116-.828a9.3 9.3 0 0 0-.985-2.99 9 9 0 0 0-1.949-2.472l-.626-.552-.627-.552.838-.125.837-.125a9 9 0 0 0 2.988-.995 9.2 9.2 0 0 0 2.471-1.951z" fill="#fff"/>
  </g>
  <defs>
    <linearGradient gradientUnits="userSpaceOnUse" id="b" x1="0" x2="673" y1="622.5" y2="-228.5">
      <stop stop-color="#0069FF"/>
      <stop offset="1" stop-color="#FF928A"/>
    </linearGradient>
    <linearGradient gradientUnits="userSpaceOnUse" id="c" x1="0" x2="184.5" y1="1" y2="330">
      <stop stop-color="#D9D9D9"/>
      <stop offset="1" stop-color="#737373" stop-opacity="0"/>
    </linearGradient>
    <linearGradient gradientUnits="userSpaceOnUse" id="e" x1="-34.655" x2="523.85" y1="187.579" y2="17.36">
      <stop stop-color="#fff" stop-opacity=".4"/>
      <stop offset="1" stop-color="#fff" stop-opacity=".1"/>
    </linearGradient>
    <linearGradient gradientUnits="userSpaceOnUse" id="f" x1="853.001" x2="390.914" y1="254.256" y2="325.433">
      <stop stop-color="#fff" stop-opacity=".4"/>
      <stop offset="1" stop-color="#fff" stop-opacity=".1"/>
    </linearGradient>
    <linearGradient gradientUnits="userSpaceOnUse" id="g" x1="-30.328" x2="286.941" y1="209.247" y2="175.222">
      <stop stop-color="#fff" stop-opacity=".4"/>
      <stop offset="1" stop-color="#fff" stop-opacity=".1"/>
    </linearGradient>
    <linearGradient gradientUnits="userSpaceOnUse" id="h" x1="761.082" x2="524.803" y1="190.603" y2="217.188">
      <stop stop-color="#fff" stop-opacity=".4"/>
      <stop offset="1" stop-color="#fff" stop-opacity=".1"/>
    </linearGradient>
    <linearGradient gradientUnits="userSpaceOnUse" id="i" x1="329.95" x2="-4.645" y1="756.643" y2="422.048">
      <stop stop-color="#CFEAF3" stop-opacity=".5"/>
      <stop offset=".59" stop-color="#4F9AFA" stop-opacity=".19"/>
      <stop offset=".99" stop-color="#0069FF" stop-opacity="0"/>
    </linearGradient>
    <linearGradient gradientUnits="userSpaceOnUse" id="j" x1="1113.44" x2="805.42" y1="537.91" y2="312.936">
      <stop stop-color="#CFEAF3" stop-opacity=".5"/>
      <stop offset=".59" stop-color="#4F9AFA" stop-opacity=".19"/>
      <stop offset=".99" stop-color="#0069FF" stop-opacity="0"/>
    </linearGradient>
    <linearGradient gradientUnits="userSpaceOnUse" id="k" x1="218.542" x2="95.58" y1="567.909" y2="444.947">
      <stop stop-color="#CFEAF3" stop-opacity=".5"/>
      <stop offset=".59" stop-color="#4F9AFA" stop-opacity=".19"/>
      <stop offset=".99" stop-color="#0069FF" stop-opacity="0"/>
    </linearGradient>
    <linearGradient gradientUnits="userSpaceOnUse" id="l" x1="1035.05" x2="924.525" y1="352.188" y2="268.467">
      <stop stop-color="#CFEAF3" stop-opacity=".5"/>
      <stop offset=".59" stop-color="#4F9AFA" stop-opacity=".19"/>
      <stop offset=".99" stop-color="#0069FF" stop-opacity="0"/>
    </linearGradient>
    <linearGradient gradientUnits="userSpaceOnUse" id="m" x1="577.268" x2="311.766" y1="598.74" y2="333.238">
      <stop stop-color="#CFEAF3" stop-opacity=".5"/>
      <stop offset=".59" stop-color="#4F9AFA" stop-opacity=".19"/>
      <stop offset=".99" stop-color="#0069FF" stop-opacity="0"/>
    </linearGradient>
    <linearGradient gradientUnits="userSpaceOnUse" id="n" x1="706.09" x2="1017.61" y1="492.86" y2="400.187">
      <stop stop-color="#0069FF" stop-opacity="0"/>
      <stop offset="1" stop-color="#CFEAF3" stop-opacity=".5"/>
    </linearGradient>
    <linearGradient gradientUnits="userSpaceOnUse" id="o" x1="1011.61" x2="1131.92" y1="464.163" y2="428.374">
      <stop stop-color="#0069FF" stop-opacity="0"/>
      <stop offset="1" stop-color="#CFEAF3" stop-opacity=".5"/>
    </linearGradient>
    <linearGradient gradientUnits="userSpaceOnUse" id="p" x1="281.855" x2="200.648" y1="437.195" y2="355.988">
      <stop stop-color="#CFEAF3" stop-opacity=".5"/>
      <stop offset=".59" stop-color="#4F9AFA" stop-opacity=".19"/>
      <stop offset=".99" stop-color="#0069FF" stop-opacity="0"/>
    </linearGradient>
    <linearGradient gradientUnits="userSpaceOnUse" id="q" x1="122.293" x2="41.086" y1="317.687" y2="236.48">
      <stop stop-color="#CFEAF3" stop-opacity=".5"/>
      <stop offset=".59" stop-color="#4F9AFA" stop-opacity=".19"/>
      <stop offset=".99" stop-color="#0069FF" stop-opacity="0"/>
    </linearGradient>
    <linearGradient gradientUnits="userSpaceOnUse" id="r" x1="564.293" x2="483.086" y1="338.687" y2="257.48">
      <stop stop-color="#CFEAF3" stop-opacity=".5"/>
      <stop offset=".59" stop-color="#4F9AFA" stop-opacity=".19"/>
      <stop offset=".99" stop-color="#0069FF" stop-opacity="0"/>
    </linearGradient>
    <linearGradient gradientUnits="userSpaceOnUse" id="s" x1="194.917" x2="154.319" y1="422.787" y2="382.189">
      <stop stop-color="#CFEAF3" stop-opacity=".5"/>
      <stop offset=".59" stop-color="#4F9AFA" stop-opacity=".19"/>
      <stop offset=".99" stop-color="#0069FF" stop-opacity="0"/>
    </linearGradient>
    <linearGradient gradientUnits="userSpaceOnUse" id="t" x1="35.355" x2="-5.243" y1="303.279" y2="262.681">
      <stop stop-color="#CFEAF3" stop-opacity=".5"/>
      <stop offset=".59" stop-color="#4F9AFA" stop-opacity=".19"/>
      <stop offset=".99" stop-color="#0069FF" stop-opacity="0"/>
    </linearGradient>
    <linearGradient gradientUnits="userSpaceOnUse" id="u" x1="477.355" x2="436.757" y1="324.279" y2="283.681">
      <stop stop-color="#CFEAF3" stop-opacity=".5"/>
      <stop offset=".59" stop-color="#4F9AFA" stop-opacity=".19"/>
      <stop offset=".99" stop-color="#0069FF" stop-opacity="0"/>
    </linearGradient>
    <linearGradient gradientUnits="userSpaceOnUse" id="v" x1="844.787" x2="987.103" y1="481.371" y2="459.405">
      <stop stop-color="#0069FF" stop-opacity="0"/>
      <stop offset="1" stop-color="#CFEAF3" stop-opacity=".5"/>
    </linearGradient>
    <linearGradient gradientUnits="userSpaceOnUse" id="w" x1="1014.73" x2="630" y1="532.564" y2="532.564">
      <stop stop-color="#CFEAF3" stop-opacity=".5"/>
      <stop offset=".59" stop-color="#4F9AFA" stop-opacity=".19"/>
      <stop offset=".99" stop-color="#0069FF" stop-opacity="0"/>
    </linearGradient>
    <linearGradient gradientUnits="userSpaceOnUse" id="x" x1="1194.04" x2="809.312" y1="559.603" y2="559.603">
      <stop stop-color="#CFEAF3" stop-opacity=".5"/>
      <stop offset=".59" stop-color="#4F9AFA" stop-opacity=".19"/>
      <stop offset=".99" stop-color="#0069FF" stop-opacity="0"/>
    </linearGradient>
    <linearGradient gradientUnits="userSpaceOnUse" id="y" x1="496.073" x2="1404.34" y1="547.972" y2="277.768">
      <stop stop-color="#0069FF" stop-opacity="0"/>
      <stop offset=".16" stop-color="#237FFC" stop-opacity=".09"/>
      <stop offset=".73" stop-color="#9ECBF5" stop-opacity=".38"/>
      <stop offset="1" stop-color="#CFEAF3" stop-opacity=".5"/>
    </linearGradient>
    <clipPath id="a">
      <path d="M0 0h1056v608H0z" fill="#fff"/>
    </clipPath>
  </defs>
</svg>