<?xml version="1.0" encoding="utf-8"?>
<svg xmlns="http://www.w3.org/2000/svg" fill="none" height="80" width="144">
  <path clip-rule="evenodd" d="M9.921 28h5.957a.987.987 0 1 1 0 1.974h-5.98a6.34 6.34 0 0 0-5.57 3.144c-1.157 1.972-1.13 4.398.006 6.394 1.12 1.967 3.267 3.167 5.564 3.133h3.175a.987.987 0 1 1 0 1.974H9.92c-2.992.042-5.817-1.52-7.303-4.13-1.47-2.583-1.522-5.762.007-8.369A8.31 8.31 0 0 1 9.92 28m-1.963 6.551c-.23.31-.415.763-.415 1.46 0 1.39.607 2.078 1.301 2.472.768.437 1.709.54 2.253.53h3.081c1.662 0 3.207.904 4.051 2.344a4.65 4.65 0 0 1 .006 4.697c-.815 1.468-2.415 2.354-4.057 2.354H6.025A3.082 3.082 0 0 1 0 47.5a3.082 3.082 0 0 1 5.971-1.066h8.207c.961 0 1.885-.53 2.335-1.344l.012-.023a2.68 2.68 0 0 0 0-2.712 2.75 2.75 0 0 0-2.347-1.368H11.12c-.732.01-2.063-.113-3.251-.788-1.266-.72-2.3-2.037-2.3-4.188 0-1.074.295-1.95.804-2.636.502-.676 1.164-1.102 1.803-1.372 1.233-.521 2.534-.521 2.922-.521h6a3.081 3.081 0 0 1 5.928 1.177 3.08 3.08 0 0 1-6.057.797h-5.856c-.364 0-1.322.007-2.168.364-.409.173-.748.41-.986.731m3.02.87a.987.987 0 1 0 0 1.974h3.159c3.483 0 6.319 2.835 6.319 6.316a6.3 6.3 0 0 1-6.32 6.315H8.174a.987.987 0 1 0 0 1.974h5.964a8.275 8.275 0 0 0 8.293-8.29c0-4.57-3.72-8.288-8.293-8.288zm8.966-3.867a1.106 1.106 0 1 0 0 2.21 1.106 1.106 0 0 0 0-2.21M1.974 47.5a1.106 1.106 0 1 1 2.212.001 1.106 1.106 0 0 1-2.211 0m36.091-.89c3.202 0 5.058-1.46 5.058-3.501 0-1.925-1.184-2.922-4.502-3.525-2.18-.395-2.853-.835-2.853-1.67 0-.719.974-1.415 2.413-1.415 1.508 0 2.505.603 3.04 2.018l1.809-1.345c-.835-1.786-2.297-2.62-4.873-2.62-3.109 0-4.872 1.716-4.872 3.594 0 1.948 1.206 2.945 4.664 3.594 2.018.395 2.691.812 2.691 1.531 0 .788-.835 1.391-2.483 1.391-1.624 0-2.993-.533-3.596-1.924l-1.67 1.437c.974 1.693 2.923 2.435 5.174 2.435m12.467-12.059c-3.62 0-5.778 2.25-5.778 6.03s2.158 6.03 5.824 6.03c2.692 0 4.432-1.346 5.082-3.456l-2.274-.765c-.302 1.438-1.253 2.25-2.854 2.25-2.042 0-3.272-1.415-3.272-4.036s1.207-4.081 3.272-4.081c1.438 0 2.32.765 2.715 2.203l2.32-.928c-.72-1.902-2.227-3.247-5.035-3.247m9.661 2.32c.627-1.508 1.857-2.32 3.667-2.32.464 0 .95.07 1.276.232l-.395 2.273c-.325-.186-.835-.302-1.462-.302-1.392 0-2.923 1.114-2.923 3.479v6.145h-2.483V34.785h2.112zm16.365 7.884c-.626 0-.857-.278-.857-.858v-5.24c0-2.784-1.996-4.106-4.896-4.106-2.53 0-4.316 1.183-4.873 3.015l1.926 1.02c.487-1.46 1.554-2.087 2.993-2.087 1.508 0 2.367.905 2.367 2.296v.626l-2.947.51c-3.04.534-4.525 1.856-4.525 3.642 0 2.017 1.601 3.037 3.782 3.037 1.717 0 3.203-.626 3.922-1.716.255 1.276 1.09 1.716 2.366 1.716a3.6 3.6 0 0 0 1.439-.278l.163-1.67a3.4 3.4 0 0 1-.86.093m-6.496-.023c-1.09 0-1.74-.464-1.74-1.322 0-.928.789-1.46 2.367-1.762l2.529-.51v1.39c0 1.392-1.601 2.204-3.156 2.204m11.308-7.792c.672-1.415 2.088-2.389 3.944-2.389 3.156 0 5.128 2.227 5.128 6.007 0 3.803-1.972 6.052-5.128 6.052-1.717 0-3.063-.834-3.759-2.087v6.725h-2.483V34.784h2.182zm.185 4.081c.116 2.227 1.323 3.572 3.202 3.572 1.996 0 3.202-1.484 3.202-4.012s-1.206-4.035-3.202-4.035c-1.88 0-3.086 1.345-3.202 3.594zm21.785-.788c0-3.363-1.902-5.682-5.383-5.682-3.62 0-5.662 2.25-5.662 6.03s2.159 6.03 5.825 6.03c2.552 0 4.152-.975 4.988-2.69l-2.065-.859c-.371 1.02-1.392 1.577-2.923 1.577-1.856 0-3.086-1.09-3.365-3.13h8.493c.046-.302.092-.835.092-1.276m-5.383-3.71c1.717 0 2.808 1.136 3.063 3.084h-6.265c.279-1.994 1.392-3.084 3.202-3.084m10.118.347c.626-1.507 1.856-2.319 3.666-2.319.464 0 .951.07 1.276.232l-.395 2.273c-.325-.186-.835-.302-1.461-.302-1.393 0-2.924 1.114-2.924 3.479v6.145h-2.483V34.785h2.112zM144 31.283c0 .974-.58 1.553-1.647 1.553s-1.671-.58-1.671-1.553c0-.974.603-1.53 1.671-1.53 1.067 0 1.647.556 1.647 1.53m-2.9 3.502h2.482V46.38H141.1zm-16.41 9.971c-.626 0-.858-.278-.858-.858v-5.24c0-2.784-1.996-4.105-4.896-4.105-2.529 0-4.316 1.182-4.873 3.014l1.926 1.02c.487-1.46 1.555-2.087 2.993-2.087 1.508 0 2.367.905 2.367 2.296v.627l-2.947.51c-3.039.533-4.524 1.855-4.524 3.64 0 2.018 1.601 3.038 3.782 3.038 1.717 0 3.202-.626 3.921-1.716.255 1.276 1.091 1.716 2.367 1.716a3.6 3.6 0 0 0 1.438-.278l.163-1.67c-.256.07-.557.093-.859.093m-6.497-.023c-1.09 0-1.74-.464-1.74-1.322 0-.927.789-1.46 2.367-1.762l2.529-.51v1.391c0 1.391-1.601 2.203-3.156 2.203m15.252-10.18c-1.856 0-3.271.974-3.944 2.388l-.116-2.157h-2.181V51.25h2.482v-6.726c.696 1.253 2.042 2.087 3.759 2.087 3.156 0 5.128-2.249 5.128-6.052 0-3.78-1.972-6.006-5.128-6.006m-.557 10.041c-1.879 0-3.086-1.345-3.202-3.571v-.882c.116-2.25 1.323-3.594 3.202-3.594 1.996 0 3.202 1.507 3.202 4.035s-1.206 4.012-3.202 4.012" fill="#fff" fill-rule="evenodd"/>
</svg>