<?xml version="1.0" encoding="utf-8"?>
<svg xmlns="http://www.w3.org/2000/svg" fill="none" height="608" width="1056">
  <g clip-path="url(#a)">
    <path d="M0 0h1056v608H0z" fill="url(#b)"/>
    <path d="M647.052-47.65c-41.055-195.844 547.708 154.367 240.884 525.387-306.828 371.02 114.594 775.153 704.004 530.523L914.002-466.499-353.649-25.444c441.01-137.449 887.033-365.769 529.057 8.8C-272.062 451.57 758.625 484.59 647.052-47.65" fill="url(#c)" opacity=".5"/>
    <path d="M63.57 471.573c-4.721-340.541-204.896-3.67-300.567-70.44L459.971 1488.69l455.393-181.51c-77.424-18.06-455.311-216.93-314.092-662.925C742.49 198.262 67.218 734.841 63.569 471.573" fill="url(#d)" opacity=".3"/>
    <path d="m124.475 182.374-66.934 38.645-39.023-67.589 66.935-38.645zm113.246-155.5-66.934 38.644 39.022 67.589 66.935-38.645zm103.102 30.592-63.445 36.63c35.324 61.182 14.82 139.221-45.77 174.203s-138.426 13.719-173.75-47.463l-63.445 36.63c55.667 96.418 178.698 130.026 274.183 74.898s127.894-178.48 72.227-274.898m510.299 160.355-66.935-38.645 39.023-67.589 66.934 38.645zm191.288 20.323L975.478 199.5l-39.022 67.588 66.934 38.645zm25.06 104.586-63.45-36.631c-35.319 61.183-113.155 82.445-173.745 47.463s-81.094-113.02-45.77-174.202l-63.445-36.63c-55.668 96.418-23.258 219.77 72.227 274.898s218.513 21.52 274.183-74.898" fill="#0069FF"/>
    <path d="M384.936 560.052c-90.184-34.76-122.461-81.293-133.914-107.804-6.888-15.778-7.048-33.798.641-49.176 19.462-39.005 78.17-67.357 147.529-67.357 85.297 0 154.417 42.769 154.417 95.549s-69.12 95.549-154.417 95.549c-5.927 0-11.854-.24-17.78-.64l3.524 33.798z" fill="#1433D6"/>
    <path d="M419.353 465.345c.884-.173 1.664.537 1.664 1.438 0 .809-.635 1.468-1.434 1.597-4.049.649-6.97 3.02-10.358 5.815l-.11.091c-3.871 3.195-8.375 6.911-15.129 7.005-6.753.093-9.154-3.528-11.217-6.641l-.058-.089c-2.097-3.162-3.889-5.764-9.058-5.693s-8.473 2.745-12.405 5.99l-.11.091c-3.871 3.195-8.375 6.911-15.129 7.005-6.753.093-9.154-3.528-11.217-6.641l-.059-.089c-2.096-3.161-3.888-5.763-9.057-5.692-.933.013-1.484-.691-1.232-1.571.252-.881 1.213-1.605 2.146-1.618 6.754-.094 9.154 3.528 11.217 6.641l.059.089c2.096 3.162 3.889 5.764 9.057 5.692 5.169-.071 8.473-2.744 12.406-5.989l.109-.091c3.871-3.194 8.375-6.912 15.129-7.005 6.754-.094 9.155 3.528 11.218 6.641l.449.674c1.943 2.891 3.82 5.174 8.666 5.107 5.169-.071 8.472-2.745 12.405-5.99l.111-.091c3.227-2.663 6.894-5.689 11.937-6.676m51.129-25.161c6.751-.095 9.151 3.599 11.214 6.774l.058.091c2.096 3.224 3.887 5.878 9.054 5.805.933-.013 1.484.705 1.232 1.603-.253.898-1.213 1.636-2.146 1.649-6.751.095-9.151-3.597-11.214-6.772l-.058-.091c-2.096-3.225-3.887-5.879-9.054-5.806s-8.47 2.799-12.401 6.109l-.11.093c-3.87 3.258-8.372 7.049-15.124 7.144-6.751.095-9.151-3.599-11.214-6.773l-.058-.09c-2.096-3.225-3.887-5.88-9.054-5.807s-8.47 2.8-12.401 6.11l-.111.092c-3.869 3.259-8.372 7.049-15.123 7.145s-9.151-3.599-11.214-6.774l-.058-.089c-2.096-3.225-3.887-5.88-9.054-5.807s-8.47 2.799-12.401 6.109l-.111.092c-3.869 3.259-8.372 7.049-15.124 7.145-6.751.095-9.151-3.598-11.214-6.773l-.058-.091c-2.096-3.224-3.887-5.878-9.054-5.805-.932.013-1.484-.705-1.231-1.603s1.213-1.636 2.145-1.649c6.752-.095 9.152 3.597 11.214 6.772l.059.091c2.095 3.225 3.886 5.879 9.053 5.806s8.47-2.799 12.402-6.109l.109-.093c3.87-3.258 8.373-7.049 15.124-7.144s9.151 3.599 11.214 6.773l.059.09c2.095 3.225 3.886 5.88 9.053 5.807s8.47-2.8 12.402-6.11l.11-.092c3.87-3.259 8.372-7.049 15.123-7.145 6.752-.095 9.151 3.599 11.214 6.774l.059.089c2.095 3.225 3.886 5.88 9.053 5.807s8.47-2.799 12.402-6.109l.11-.092c3.87-3.259 8.372-7.05 15.124-7.146m-51.129-23.156c.884-.173 1.664.538 1.664 1.439 0 .809-.635 1.468-1.434 1.596-4.049.649-6.97 3.02-10.358 5.816l-.11.091c-3.871 3.194-8.375 6.911-15.129 7.004-6.753.094-9.154-3.527-11.217-6.64l-.058-.089c-2.097-3.162-3.889-5.765-9.058-5.693-5.169.071-8.473 2.745-12.405 5.99l-.11.091c-3.871 3.195-8.375 6.911-15.129 7.005-6.753.093-9.154-3.528-11.217-6.641l-.059-.089c-2.096-3.162-3.888-5.765-9.057-5.693-.933.013-1.484-.69-1.232-1.571.252-.88 1.213-1.605 2.146-1.618 6.754-.093 9.154 3.529 11.217 6.642l.449.674c1.944 2.891 3.821 5.174 8.667 5.107 5.169-.072 8.473-2.744 12.406-5.989l.109-.091c3.871-3.195 8.375-6.912 15.129-7.006 6.754-.093 9.155 3.529 11.218 6.642l.449.674c1.943 2.891 3.82 5.174 8.666 5.107 5.169-.071 8.472-2.745 12.405-5.99l.111-.091c3.227-2.663 6.894-5.69 11.937-6.677m51.129-25.163c6.751-.095 9.151 3.599 11.214 6.774l.058.089c2.096 3.225 3.887 5.88 9.054 5.807.933-.013 1.484.705 1.232 1.603-.253.897-1.213 1.636-2.146 1.649-6.751.095-9.151-3.599-11.214-6.773l-.058-.09c-2.096-3.225-3.887-5.88-9.054-5.807s-8.47 2.8-12.401 6.109l-.11.093c-3.87 3.259-8.372 7.049-15.124 7.145-6.751.095-9.151-3.599-11.214-6.774l-.058-.09c-2.096-3.224-3.887-5.879-9.054-5.806s-8.47 2.799-12.401 6.109l-.111.093c-3.869 3.258-8.372 7.049-15.123 7.144-6.751.096-9.151-3.598-11.214-6.773l-.058-.091c-2.096-3.224-3.887-5.878-9.054-5.805-5.167.072-8.47 2.798-12.401 6.108l-.111.093c-3.869 3.258-8.372 7.049-15.124 7.144-6.751.095-9.151-3.597-11.214-6.772l-.058-.091c-2.096-3.225-3.887-5.88-9.054-5.807-.932.013-1.483-.703-1.231-1.601s1.213-1.637 2.145-1.651c6.752-.095 9.152 3.599 11.214 6.774l.059.091c2.095 3.224 3.887 5.878 9.053 5.805s8.47-2.798 12.402-6.108l.109-.093c3.87-3.258 8.373-7.049 15.124-7.144 6.752-.096 9.152 3.597 11.214 6.772l.059.091c2.095 3.225 3.886 5.879 9.053 5.807 5.167-.073 8.47-2.8 12.402-6.11l.11-.093c3.87-3.258 8.372-7.049 15.123-7.144 6.752-.095 9.151 3.599 11.214 6.773l.059.09c2.095 3.225 3.886 5.879 9.053 5.807 5.167-.073 8.47-2.8 12.402-6.11l.11-.092c3.87-3.259 8.373-7.05 15.124-7.145" fill="#fff"/>
    <path d="M514.455 367.912c-36.602-5.847-69.84-16.739-97.792-31.396-5.766-.401-11.533-.641-17.46-.641-8.329 0-16.418.4-24.348 1.201 39.085 33.959 100.035 57.666 170.195 63.193-6.728-12.014-17.22-22.987-30.595-32.277z" fill="#000C2A"/>
    <path d="M598.069 427.131c144.405-55.824 196.144-130.229 214.405-172.678 10.973-25.229 11.293-54.062-1.041-78.65C780.278 113.332 686.25 68 575.163 68 438.687 68 328 136.558 328 221.055c0 84.417 110.687 152.975 247.243 152.975 9.691 0 19.062-.4 28.513-1.041l-5.607 54.142z" fill="#F0B5FF"/>
    <path d="M575.161 68c111.087 0 205.115 45.332 236.271 107.804 12.334 24.588 12.013 53.42 1.041 78.649-3.382 7.863-7.915 16.821-13.971 26.555-164.19 134.104-522.194-66.896-372.238-182.11C467.679 79.505 519.256 68 575.161 68" fill="#F9DFFF"/>
    <path d="M594.476 271.611c1.57-.308 2.955.953 2.955 2.553 0 1.438-1.129 2.608-2.549 2.835-7.19 1.153-12.377 5.365-18.394 10.329l-.195.162c-6.875 5.674-14.874 12.274-26.868 12.44s-16.258-6.266-19.922-11.794l-.103-.157c-3.723-5.616-6.906-10.237-16.085-10.111-9.18.127-15.047 4.875-22.032 10.638l-.195.161c-6.875 5.674-14.874 12.276-26.868 12.442-11.994.165-16.258-6.267-19.922-11.795l-.103-.157c-3.723-5.616-6.906-10.238-16.085-10.111-1.657.023-2.637-1.226-2.189-2.79.448-1.563 2.155-2.85 3.812-2.873 11.994-.166 16.257 6.267 19.921 11.795l.105.157c3.723 5.615 6.905 10.237 16.084 10.111 9.18-.127 15.047-4.875 22.031-10.638l.196-.161c6.874-5.674 14.873-12.276 26.868-12.442 11.994-.165 16.257 6.266 19.922 11.794l.104.158c3.723 5.615 6.905 10.238 16.084 10.111 9.18-.127 15.047-4.875 22.031-10.638l.196-.161c5.731-4.73 12.244-10.105 21.201-11.858m90.796-44.684c11.99-.169 16.252 6.391 19.915 12.029l.104.16c3.722 5.728 6.903 10.441 16.079 10.312 1.657-.023 2.637 1.251 2.189 2.846-.448 1.594-2.154 2.906-3.811 2.929-11.99.17-16.252-6.39-19.915-12.028l-.104-.16c-3.722-5.727-6.903-10.442-16.079-10.313-9.177.13-15.043 4.972-22.025 10.85l-.195.165c-6.873 5.787-14.868 12.519-26.859 12.689-11.99.169-16.252-6.392-19.915-12.03l-.104-.16c-3.722-5.727-6.903-10.441-16.079-10.311-9.177.129-15.042 4.97-22.025 10.848l-.195.165c-6.873 5.787-14.869 12.52-26.859 12.689s-16.252-6.391-19.915-12.03l-.104-.16c-3.722-5.727-6.903-10.441-16.079-10.311-9.177.129-15.042 4.971-22.024 10.849l-.196.164c-6.872 5.787-14.869 12.52-26.859 12.689s-16.252-6.39-19.915-12.028l-.104-.162c-3.721-5.727-6.903-10.441-16.08-10.311-1.656.023-2.635-1.251-2.187-2.846.448-1.594 2.154-2.906 3.81-2.929 11.991-.17 16.252 6.391 19.915 12.029l.105.16c3.722 5.727 6.903 10.441 16.079 10.312s15.041-4.972 22.023-10.85l.196-.164c6.872-5.787 14.869-12.52 26.859-12.689s16.252 6.39 19.915 12.029l.105.16c3.722 5.727 6.902 10.442 16.079 10.312 9.176-.129 15.042-4.971 22.024-10.849l.196-.164c6.872-5.787 14.868-12.52 26.858-12.689s16.252 6.39 19.915 12.029l.104.16c3.722 5.727 6.903 10.442 16.08 10.312 9.176-.129 15.042-4.971 22.024-10.849l.195-.165c6.873-5.786 14.868-12.52 26.859-12.689m-90.796-41.124c1.57-.307 2.955.954 2.955 2.554 0 1.437-1.129 2.607-2.549 2.835-7.19 1.153-12.377 5.364-18.394 10.329l-.195.161c-6.875 5.674-14.874 12.275-26.868 12.44-11.994.166-16.258-6.265-19.922-11.794l-.103-.157c-3.723-5.615-6.906-10.237-16.085-10.11s-15.047 4.874-22.032 10.638l-.195.161c-6.875 5.674-14.874 12.275-26.868 12.441s-16.258-6.267-19.922-11.795l-.103-.157c-3.723-5.615-6.906-10.237-16.085-10.11-1.657.022-2.637-1.227-2.189-2.79.448-1.564 2.155-2.851 3.812-2.874 11.994-.165 16.257 6.267 19.921 11.795l.105.157c3.723 5.615 6.904 10.238 16.084 10.111s15.047-4.874 22.031-10.638l.196-.161c6.874-5.674 14.873-12.275 26.868-12.441s16.257 6.265 19.922 11.794l.104.157c3.723 5.615 6.905 10.238 16.084 10.111 9.18-.127 15.047-4.874 22.031-10.637l.196-.163c5.731-4.73 12.244-10.104 21.201-11.857m90.796-44.688c11.99-.17 16.252 6.391 19.915 12.029l.104.16c3.722 5.727 6.903 10.441 16.079 10.312 1.657-.024 2.637 1.25 2.189 2.845s-2.155 2.906-3.811 2.93c-11.99.169-16.252-6.391-19.915-12.029l-.104-.161c-3.722-5.727-6.903-10.44-16.079-10.311s-15.043 4.971-22.025 10.85l-.195.164c-6.873 5.786-14.868 12.519-26.859 12.688-11.99.169-16.252-6.39-19.915-12.028l-.104-.16c-3.722-5.727-6.903-10.442-16.079-10.313-9.177.13-15.042 4.972-22.025 10.85l-.195.164c-6.873 5.787-14.869 12.519-26.859 12.688s-16.252-6.39-19.915-12.028l-.104-.16c-3.722-5.727-6.903-10.442-16.079-10.313-9.176.13-15.042 4.972-22.024 10.85l-.196.165c-6.872 5.787-14.869 12.519-26.859 12.688s-16.252-6.391-19.915-12.029l-.104-.16c-3.721-5.727-6.903-10.441-16.08-10.312-1.656.024-2.635-1.251-2.187-2.845s2.154-2.907 3.81-2.93c11.991-.169 16.252 6.39 19.915 12.028l.105.161c3.722 5.727 6.902 10.441 16.079 10.312s15.042-4.972 22.023-10.85l.196-.165c6.872-5.786 14.869-12.519 26.859-12.688s16.252 6.391 19.915 12.029l.105.16c3.721 5.727 6.902 10.441 16.079 10.312s15.042-4.971 22.024-10.849l.196-.165c6.872-5.787 14.868-12.519 26.858-12.688s16.252 6.391 19.915 12.029l.104.16c3.722 5.727 6.903 10.441 16.08 10.312s15.042-4.971 22.024-10.849l.195-.165c6.873-5.787 14.868-12.519 26.859-12.688" fill="#1433D6"/>
    <path d="M361.047 144.577c44.244-41.396 120.113-64.711 206.258-64.711 111.087 0 201.114 41.331 232.27 103.803 12.334 24.588 12.014 53.421 1.041 78.65-7.929 18.432-18.171 42.89-43.571 69.235 30.388-29.316 46.724-56.846 55.437-77.101 10.972-25.229 11.293-54.062-1.041-78.65C780.285 113.332 686.257 68 575.17 68c-91.489 0-171.389 30.81-214.123 76.577" fill="#FDF4FF"/>
    <path d="m787.425 107.777-8.895-19.945-8.895-19.945 5.41 21.152 5.41 21.152a40.74 40.74 0 0 1-2.797 27.923c-4.08 8.437-11.049 15.482-20.143 19.532l-19.945 8.895-19.945 8.895 21.152-5.41 21.153-5.41a40.74 40.74 0 0 1 27.923 2.797c8.436 4.08 15.482 11.05 19.532 20.143l8.895 19.945 8.895 19.945-5.411-21.152-5.41-21.153a40.74 40.74 0 0 1 2.797-27.923c4.081-8.436 11.05-15.482 20.143-19.532l19.945-8.895 19.945-8.895-21.152 5.411-21.152 5.41a40.74 40.74 0 0 1-27.923-2.797c-8.437-4.081-15.482-11.05-19.532-20.143m94.283 59.598 1.309-.739 1.309-.739-.292 1.516-.292 1.516a17 17 0 0 0-.066 5.812 16.4 16.4 0 0 0 1.926 5.483l.764 1.338.764 1.338-1.483-.279-1.484-.28a17 17 0 0 0-5.803-.079c-1.91.306-3.772.961-5.491 1.908l-1.375.769-1.376.768.293-1.516.292-1.516c.36-1.929.371-3.901.066-5.812a16.7 16.7 0 0 0-1.926-5.483l-.764-1.338-.764-1.338 1.537.282 1.537.282c1.928.359 3.899.369 5.815.047a17 17 0 0 0 5.482-1.93zM121.255 96.41a31.86 31.86 0 0 1-2.179 21.794 31.83 31.83 0 0 1-15.721 15.246 31.85 31.85 0 0 1 21.791 2.179 31.83 31.83 0 0 1 15.244 15.723 31.86 31.86 0 0 1 2.179-21.793 31.83 31.83 0 0 1 15.721-15.246 31.86 31.86 0 0 1-21.791-2.18 31.84 31.84 0 0 1-15.244-15.723m31.258 335.439a31.86 31.86 0 0 1-14.722 16.216 31.84 31.84 0 0 1-21.708 2.895 31.85 31.85 0 0 1 16.214 14.72 31.83 31.83 0 0 1 2.891 21.708 31.87 31.87 0 0 1 14.722-16.216 31.83 31.83 0 0 1 21.708-2.894 31.85 31.85 0 0 1-16.213-14.721 31.83 31.83 0 0 1-2.892-21.708m827.388 52.308a31.86 31.86 0 0 1-17.659 12.956 31.84 31.84 0 0 1-21.849-1.491 31.85 31.85 0 0 1 12.954 17.657 31.83 31.83 0 0 1-1.494 21.849 31.86 31.86 0 0 1 17.66-12.956 31.83 31.83 0 0 1 21.848 1.491 31.85 31.85 0 0 1-12.953-17.657 31.84 31.84 0 0 1 1.493-21.849M150.073 59a10.8 10.8 0 0 1-.748 7.37 10.8 10.8 0 0 1-5.321 5.145 10.8 10.8 0 0 1 7.369.748 10.76 10.76 0 0 1 5.144 5.322 10.82 10.82 0 0 1 .748-7.37 10.76 10.76 0 0 1 5.322-5.145 10.8 10.8 0 0 1-7.37-.748A10.76 10.76 0 0 1 150.073 59m-42.129 346.613a10.82 10.82 0 0 1-4.988 5.477 10.8 10.8 0 0 1-7.338.967 10.8 10.8 0 0 1 5.476 4.987 10.76 10.76 0 0 1 .966 7.338 10.82 10.82 0 0 1 4.988-5.477 10.76 10.76 0 0 1 7.338-.967 10.8 10.8 0 0 1-5.477-4.987 10.76 10.76 0 0 1-.965-7.338m900.406 66.813a10.8 10.8 0 0 1-5.98 4.374 10.8 10.8 0 0 1-7.381-.516 10.8 10.8 0 0 1 4.373 5.979c.688 2.374.55 4.99-.517 7.384a10.8 10.8 0 0 1 5.975-4.373c2.38-.69 4.99-.552 7.39.515a10.79 10.79 0 0 1-3.86-13.363" fill="#fff"/>
    <path d="M1260.15 762.603 973.307-56.072l-14.712-6.41 25.002 705.736z" fill="url(#e)"/>
    <path d="m908.22 606.841 34.177-673.53-42.116-18.351-187.385 607.932z" fill="url(#f)"/>
    <path d="M702.46-174.086 255.019 324.712 81 249.972l543.913-457.847z" fill="url(#g)"/>
    <path d="m492.163 426.713 308.532-557.996-29.674-12.929-389.726 522.231z" fill="url(#h)"/>
    <path d="M744.457 428.598s24.979-37.335 63.506-43.5c0 0-21.525 21.36 14.987 21.578 0 0-72.778 25.315-78.493 21.922" fill="#000C2A"/>
    <path d="M768.979 403.066c9.001-5.842 19.733-10.932 31.871-13.326 0 0-11.251 20.303 19.604 16.884-33-1.169-12.485-21.527-12.485-21.527-15.407 2.465-28.647 9.915-38.99 17.969m52.355 3.585c-2.383.875-12.503 4.577-24.922 8.899 14.595-4.719 26.544-8.875 26.544-8.875a94 94 0 0 1-1.622-.024" fill="#fff"/>
    <path d="M893.615 344.036c-2.325 24.203-27.669 48.637-36.187 55.509 35.421 5.291 66.341-29.166 58.155-53.65-3.37 13.049-15.674 22.68-25.243 31.643 6.416-7.988 8.523-17.468 3.275-33.502" fill="#000C2A"/>
    <path d="M892.287 351.199a43.6 43.6 0 0 0 1.324-7.162c3.093 9.449 3.631 16.623 2.238 22.555.47-4.908-1.223-10.067-3.562-15.393m21.681 16.635c3.121-7.364 3.916-15.046 1.611-21.938-.667 2.584-1.685 5.035-2.963 7.372 1.272 4.689 1.77 9.655 1.352 14.566" fill="#fff"/>
    <path d="M746.452 426.04a133.8 133.8 0 0 0-23.595 15.507c-8.45 6.957-16.323 14.805-21.66 23.081a9.39 9.39 0 0 0 2.047 12.458 9.4 9.4 0 0 0 4.164 1.888c11.76 2.123 31.741 3.464 56.746-3.647 11.533-28.229-6.731-43.185-17.702-49.287" fill="#F0B5FF"/>
    <path d="M746.496 426.064c10.961 6.108 29.129 21.028 17.707 49.147-28.326 5.951-44.385-27.495-18.848-48.595q.49-.258.982-.513z" fill="#F9DFFF"/>
    <path d="M890.935 373.429s-28.321 29.189-97.126 37.967a142.3 142.3 0 0 0-47.362 14.688c6.176 3.427 14.655 9.663 18.838 19.483.001-.045 62.277-5.109 125.65-72.138" fill="#0069FF"/>
    <path d="M873.317 390.603c-54.853 49.019-104.509 54.583-107.852 54.901.104.396.196.793.289 1.189 2.403 6.324 3.062 14.06.237 23.407a57 57 0 0 1-1.831 5.226c35.234-10.02 80.458-36.824 126.785-101.896a295 295 0 0 1-17.628 17.173" fill="#1433D6"/>
    <path d="M765.991 470.1a57 57 0 0 1-1.831 5.226c35.234-10.02 80.458-36.824 126.785-101.896a295 295 0 0 1-17.628 17.173c-39.18 48.034-76.794 70.101-107.326 79.497" fill="#000C2A"/>
    <path d="M780.159 458.996s24.84 26.114 70.674 3.726c0 0-24.574-12.938-52.055-10.937a34.2 34.2 0 0 0-18.597 7.257z" fill="#000C2A"/>
    <path d="M842.618 466.314a105 105 0 0 0 8.208-3.594s-15.822-8.33-36.272-10.588c18.437 3.644 32.562 12.108 32.562 12.108a109 109 0 0 1-4.498 2.074" fill="#fff"/>
    <path d="M739.254 448.976c4.509-2.275 6.937-6.548 5.423-9.544s-6.398-3.58-10.907-1.305-6.937 6.548-5.422 9.544c1.514 2.995 6.397 3.58 10.906 1.305" fill="#FDF4FF"/>
    <path d="M826.858 414.075c3.335-1.682 5.555-4.001 4.96-5.179-.596-1.178-3.782-.769-7.116.913-3.335 1.683-5.555 4.001-4.96 5.179.596 1.178 3.782.769 7.116-.913" fill="#F9DFFF"/>
    <path d="M365.903 212.45c-29.043-14.98-75.88-4.419-90.11.103 21.015-43.402 83.393-52.911 104.747-25.987-17.271-5.713-37.494 1.033-54.882 5.212 13.887-1.365 26.174 3.167 40.245 20.672" fill="#000C2A"/>
    <path d="M357.35 208.898c2.98.979 5.846 2.155 8.557 3.553-11.31-14.07-21.467-19.759-32.228-20.741l-.083.02c10.736.981 14.679 5.498 23.754 17.168m-30.944-35.344c21.427-5.025 43.182-.802 54.138 13.012-3.032-1.003-6.155-1.622-9.338-1.938-10.641-8.539-27.401-12.353-44.8-11.074" fill="#fff"/>
    <path d="M226.371 272.393c12.618 7.116 43.281-12.237 56.349-39.937 0 0-28.436 11.63-56.302 31.597a7.06 7.06 0 0 0-1.388 4.163 7.06 7.06 0 0 0 1.341 4.177c1.429.462-1.428-.461 0 0" fill="#000C2A"/>
    <path d="M276.017 243.95c2.533-3.618 4.804-7.468 6.703-11.493 0 0-10.468 4.281-24.926 12.108 11.143-4.438 18.408-5.967 18.408-5.967a19.6 19.6 0 0 1-.185 5.352" fill="#fff"/>
    <path d="M207.084 235.444c14.964 17.966 35.321-18.916 45.821-47.666 0 0-60.785 29.7-45.821 47.666" fill="#000C2A"/>
    <path d="M244.8 207.076c3.066-6.384 5.822-13.034 8.109-19.297 0 0-2.187 1.068-5.629 2.923.045 5.509-.865 11.059-2.48 16.374" fill="#fff"/>
    <path d="M184.141 254.151c10.725 36.665 39.293 30.881 39.79 30.784a203.6 203.6 0 0 0 22.677-27.135 169 169 0 0 1 15.718-19.032c15.422-16.214 43.807-43.273 65.037-47.36 0 .011-95.164-6.62-143.222 62.743" fill="#1433D6"/>
    <path d="M327.358 191.411c-21.23 4.087-49.615 31.146-65.037 47.36a169 169 0 0 0-15.718 19.032 203 203 0 0 1-6.337 8.588c-31.452-15.121-3.408-48.296 23.249-66.907 34.326-10.094 63.715-8.076 63.843-8.073" fill="#0069FF"/>
    <path d="M184.138 254.151c-12.221 17.667-33.649 70.274-25.182 68.984 0 0 30.909-4.16 64.972-38.211-.453.111-29.066 5.902-39.79-30.773" fill="#E88AFF"/>
    <path d="M200.313 279.336c11.356 8.091 23.337 5.662 23.629 5.591-13.34 13.335-26.197 22.086-36.903 27.798-2.292-2.453-3.893-5.418-4.543-8.761-2.014-10.359 5.779-20.771 17.817-24.628" fill="#F0B5FF"/>
    <path d="M204.202 271.21c11.341-5.441 42.835-22.313 58.4-48.356 0 0-28.662 24.681-12.002-3.278 0 0-38.949 35.683-48.497 49.157a1.67 1.67 0 0 0 1.016 2.618c.366.076.748.026 1.083-.141" fill="#000C2A"/>
  </g>
  <defs>
    <linearGradient gradientUnits="userSpaceOnUse" id="b" x1="0" x2="673" y1="622.5" y2="-228.5">
      <stop stop-color="#0069FF"/>
      <stop offset="1" stop-color="#E88AFF"/>
    </linearGradient>
    <linearGradient gradientUnits="userSpaceOnUse" id="c" x1="1033.5" x2="1144.55" y1="800.001" y2="247.517">
      <stop offset=".012" stop-color="#fff"/>
      <stop offset="1" stop-color="#fff" stop-opacity="0"/>
    </linearGradient>
    <linearGradient gradientUnits="userSpaceOnUse" id="d" x1="60.368" x2="148.728" y1="790.661" y2="242.391">
      <stop stop-color="#fff"/>
      <stop offset="1" stop-color="#fff" stop-opacity="0"/>
    </linearGradient>
    <linearGradient gradientUnits="userSpaceOnUse" id="e" x1="679.21" x2="608.126" y1="-1.543" y2="137.862">
      <stop stop-color="#fff" stop-opacity="0"/>
      <stop offset=".48" stop-color="#fff" stop-opacity=".2"/>
      <stop offset="1" stop-color="#fff" stop-opacity="0"/>
    </linearGradient>
    <linearGradient gradientUnits="userSpaceOnUse" id="f" x1="679.21" x2="608.126" y1="-1.543" y2="137.862">
      <stop stop-color="#fff" stop-opacity="0"/>
      <stop offset=".48" stop-color="#fff" stop-opacity=".2"/>
      <stop offset="1" stop-color="#fff" stop-opacity="0"/>
    </linearGradient>
    <linearGradient gradientUnits="userSpaceOnUse" id="g" x1="679.21" x2="608.126" y1="-1.543" y2="137.862">
      <stop stop-color="#fff" stop-opacity="0"/>
      <stop offset=".48" stop-color="#fff" stop-opacity=".2"/>
      <stop offset="1" stop-color="#fff" stop-opacity="0"/>
    </linearGradient>
    <linearGradient gradientUnits="userSpaceOnUse" id="h" x1="679.21" x2="608.126" y1="-1.543" y2="137.862">
      <stop stop-color="#fff" stop-opacity="0"/>
      <stop offset=".48" stop-color="#fff" stop-opacity=".2"/>
      <stop offset="1" stop-color="#fff" stop-opacity="0"/>
    </linearGradient>
    <clipPath id="a">
      <path d="M0 0h1056v608H0z" fill="#fff"/>
    </clipPath>
  </defs>
</svg>