<?xml version="1.0" encoding="utf-8"?>
<svg xmlns="http://www.w3.org/2000/svg" fill="none" height="80" width="144">
  <path clip-rule="evenodd" d="M18.645 19.372c-.306.114-1.06.555-1.673.978-2.84 1.96-7.02 4.778-11.084 7.468C.366 31.475 0 31.85 0 33.868c0 2.578 1.777 3.685 5.924 3.69 1.02.001 1.856.029 1.856.061 0 .033-.123.233-.273.446-.944 1.336-2.443 5.047-3.107 7.688-.43 1.714-.469 2.055-.47 4.194 0 2.146.031 2.42.393 3.493 1 2.964 3.257 5.414 6.02 6.537 2.324.944 5.712 1.071 8.27.31 1.5-.446 3.518-1.39 4.883-2.284 3.47-2.274 8.252-7.114 9.411-9.528 1.147-2.386.611-4.99-1.4-6.8-1.494-1.345-3.776-1.58-5.528-.57-1.081.625-1.81 1.414-3.13 3.39-1.317 1.972-3.207 4.096-4.587 5.157-1.308 1.005-2.264 1.423-3.43 1.5-.942.061-1.059.036-1.477-.315-.867-.73-.95-2.195-.265-4.673.438-1.585.973-2.801 2.882-6.547l1.63-3.2 1.31-.18c2.902-.401 7.297-1.345 9.459-2.033 1.4-.445 1.952-.914 2.065-1.752.11-.825-.157-1.507-.748-1.909-.627-.426-1-.405-5.464.317-1.801.291-3.45.53-3.666.532-.388.001-.38-.022 1.206-3.256 1.093-2.231 1.638-3.513 1.729-4.07.134-.825.027-1.88-.262-2.597-.239-.591-1.17-1.556-1.825-1.89-.748-.381-2.033-.478-2.76-.207m29.101 11.273c-1.578 1.534-2.85 2.436-4.612 3.27-1.366.647-1.617.917-1.706 1.84-.119 1.238.575 1.86 2.138 1.916.407.014.74.04.74.055 0 .017-.205.481-.456 1.032-.995 2.192-1.531 5.369-1.143 6.768.699 2.515 3.925 3.342 7 1.793 2.925-1.473 3.876-3.768 2.16-5.213-.792-.666-1.63-.466-2.686.643-.883.926-1.775 1.2-2.145.66-.194-.283-.115-1.452.163-2.412.316-1.088 1.144-3.213 1.326-3.4.068-.07.898-.242 1.845-.383 3.053-.455 3.718-.725 4.143-1.688.304-.687.266-1.094-.147-1.567-.428-.489-.799-.523-2.44-.227-.865.156-1.618.266-1.672.246-.055-.021.155-.595.465-1.275.61-1.336.694-1.96.354-2.618-.295-.57-.767-.875-1.358-.875-.426 0-.69.193-1.969 1.435m12.64 2.919c-1.919.526-3.333 1.298-3.557 1.943-.248.711.296 1.642 1.17 2.004.383.159.538.118 1.623-.42 1.843-.914 2.858-1.046 3.924-.51.493.248.696.615.696 1.255v.497l-1.928.163c-2.31.197-3.846.572-5.449 1.333-2.271 1.077-3.322 2.508-3.315 4.516.002.847.076 1.23.33 1.712.837 1.58 2.905 2.15 5.452 1.498 1.181-.302 2.082-.704 2.827-1.262.254-.191.492-.348.526-.348s.102.236.148.523c.134.82.548 1.078 1.73 1.078 1.057 0 1.757-.244 1.92-.67.052-.135.524-2.217 1.048-4.626 1.052-4.831 1.126-5.744.552-6.855-.381-.737-1.308-1.452-2.283-1.76-1.202-.382-4.142-.42-5.414-.071m11.458-.184c-.18.039-.5.247-.712.46-.321.327-.473.797-.925 2.865l-1.289 5.893c-.411 1.881-.748 3.603-.747 3.827 0 .242.15.558.371.778.354.354.434.368 1.743.32 2.014-.073 1.98-.024 2.834-4.005.926-4.316 1.147-4.945 2.062-5.856.654-.652 1.256-.884 2.286-.884.787 0 .899.04 1.242.447.54.642.5 1.118-.452 5.407-.897 4.042-.91 4.355-.188 4.734.24.126.796.176 1.647.149 1.235-.04 1.301-.06 1.694-.5.248-.277.477-.766.578-1.237 1.389-6.412 1.628-7.785 1.563-8.96-.076-1.352-.482-2.249-1.275-2.813-1.714-1.22-5.3-.823-7.23.8-.242.205-.477.372-.52.372s-.075-.269-.071-.597c.012-.855-.344-1.16-1.425-1.223-.471-.027-1.005-.017-1.186.023m18.06.103c-3.483.884-5.968 4.49-5.679 8.243.203 2.632 1.578 4.445 3.804 5.016 1.475.378 3.07.199 4.509-.507.316-.154.597-.259.624-.232s-.068.348-.211.713c-.42 1.066-1.103 1.919-1.815 2.263-1.246.604-3.327.316-4.129-.57-.14-.155-.506-.35-.812-.432-.465-.125-.675-.1-1.272.158-1 .43-1.393.887-1.393 1.621 0 .527.083.669.746 1.279 1.425 1.31 3.075 1.822 5.505 1.706 2.442-.115 3.892-.715 5.375-2.221.885-.9 1.803-2.559 2.248-4.065.523-1.77 2.636-11.204 2.636-11.77 0-1.017-.972-1.55-2.43-1.33-.764.114-1.644.843-1.644 1.362 0 .49-.218.476-.721-.043-.76-.784-2.051-1.289-3.427-1.339-.64-.023-1.501.044-1.913.148m16.145.013c-3.378.765-5.687 3.407-6.14 7.026-.485 3.859 1.698 6.682 5.563 7.2 1.631.218 3.632-.11 5.164-.848 2.995-1.44 4.781-4.932 4.28-8.367-.332-2.282-1.324-3.649-3.344-4.608-1.067-.507-1.192-.532-2.868-.569-1.117-.024-2.078.036-2.655.166m.983 2.882c-1.532.512-2.751 3.1-2.587 5.495.143 2.096.784 2.836 2.457 2.836.851 0 1.045-.055 1.601-.454 1.358-.972 2.255-3.654 1.906-5.696-.172-1-.443-1.492-1.09-1.975-.457-.34-1.581-.442-2.287-.206m-16.087.522c-2.241 1.069-3.004 5.163-1.206 6.477.486.355 1.78.483 2.495.247.803-.265 1.78-1.45 2.13-2.583.554-1.794.316-3.342-.619-4.028-.578-.424-2.026-.482-2.8-.113M62.2 41.002c-1.82.213-3.318.815-3.979 1.601-.801.953-.274 1.838 1.067 1.792 1.57-.054 3.532-1.317 4.099-2.639.432-1.008.517-.954-1.187-.754" fill="#fff" fill-rule="evenodd"/>
</svg>